<?xml version="1.0" encoding="UTF-8" standalone="no"?>
<!-- Created with Inkscape (http://www.inkscape.org/) -->

<svg
   xmlns:dc="http://purl.org/dc/elements/1.1/"
   xmlns:cc="http://creativecommons.org/ns#"
   xmlns:rdf="http://www.w3.org/1999/02/22-rdf-syntax-ns#"
   xmlns:svg="http://www.w3.org/2000/svg"
   xmlns="http://www.w3.org/2000/svg"
   xmlns:sodipodi="http://sodipodi.sourceforge.net/DTD/sodipodi-0.dtd"
   xmlns:inkscape="http://www.inkscape.org/namespaces/inkscape"
   width="210mm"
   height="297mm"
   viewBox="0 0 210 297"
   version="1.1"
   id="svg837"
   inkscape:version="0.92.3 (2405546, 2018-03-11)"
   sodipodi:docname="Blume_Cuts.svg">
  <defs
     id="defs831" />
  <sodipodi:namedview
     id="base"
     pagecolor="#ffffff"
     bordercolor="#666666"
     borderopacity="1.0"
     inkscape:pageopacity="0.0"
     inkscape:pageshadow="2"
     inkscape:zoom="3.959798"
     inkscape:cx="45.195039"
     inkscape:cy="1066.3573"
     inkscape:document-units="mm"
     inkscape:current-layer="layer1"
     showgrid="false"
     inkscape:window-width="1920"
     inkscape:window-height="1001"
     inkscape:window-x="-9"
     inkscape:window-y="-9"
     inkscape:window-maximized="1"
     showguides="false"
     inkscape:snap-global="false" />
  <metadata
     id="metadata834">
    <rdf:RDF>
      <cc:Work
         rdf:about="">
        <dc:format>image/svg+xml</dc:format>
        <dc:type
           rdf:resource="http://purl.org/dc/dcmitype/StillImage" />
        <dc:title></dc:title>
      </cc:Work>
    </rdf:RDF>
  </metadata>
  <g
     inkscape:label="Ebene 1"
     inkscape:groupmode="layer"
     id="layer1">
    <path
       inkscape:connector-curvature="0"
       style="opacity:1;fill:none;fill-opacity:1;stroke:#000000;stroke-width:0.22137368;stroke-linecap:round;stroke-linejoin:round;stroke-miterlimit:4;stroke-dasharray:none;stroke-dashoffset:0;stroke-opacity:1"
       d="m 13.764961,0.741512 c -3.244641,4.1326337 -3.33506,6.3729544 -2.04689,8.108583 A 7.0861394,7.0861394 0 0 0 8.9148404,10.468083 C 8.0558904,8.484521 6.0705804,7.4427291 0.86909036,8.1863731 2.8272904,13.06647 4.7236705,14.262932 6.8729404,14.01267 a 7.0861394,7.0861394 0 0 0 -0.19408,1.615107 7.0861394,7.0861394 0 0 0 0.19715,1.623369 c -2.15079,-0.252047 -4.04819,0.942856 -6.00750004,5.825719 5.21011014,0.744877 7.19314004,-0.30192 8.04979024,-2.291894 A 7.0861394,7.0861394 0 0 0 11.72018,22.41007 c -1.2914,1.736206 -1.203579,3.9765 2.04363,8.112427 3.248851,-4.138021 3.335161,-6.378542 2.041711,-8.115118 a 7.0861394,7.0861394 0 0 0 2.8061,-1.617027 c 0.85766,1.987153 2.84174,3.031809 8.04806,2.287475 -1.95856,-4.880972 -3.85525,-6.076931 -6.00501,-5.826105 a 7.0861394,7.0861394 0 0 0 0.19639,-1.623945 7.0861394,7.0861394 0 0 0 -0.19505,-1.614338 c 2.14946,0.250459 4.04593,-0.945705 6.00424,-5.8261049 C 21.456301,7.4433361 19.47164,8.486521 18.61336,10.471927 A 7.0861394,7.0861394 0 0 0 15.814541,8.846635 C 17.099991,7.1114954 17.0074,4.871367 13.764961,0.741512 Z"
       id="path986-0" />
    <path
       inkscape:connector-curvature="0"
       style="opacity:1;fill:none;fill-opacity:1;stroke:#ff0000;stroke-width:0.24124463;stroke-linecap:round;stroke-linejoin:round;stroke-miterlimit:4;stroke-dasharray:none;stroke-dashoffset:0;stroke-opacity:1"
       d="M 16.615816,8.2452786 A 7.7222054,7.7222054 0 0 1 8.8936256,15.967484 7.7222054,7.7222054 0 0 1 1.171415,8.2452786 7.7222054,7.7222054 0 0 1 8.8936256,0.52307266 7.7222054,7.7222054 0 0 1 16.615816,8.2452786 Z"
       id="path986-9" />
    <path
       id="path1427"
       d="M 15.213185,8.2452786 A 6.3195705,6.3195705 0 0 1 8.8936256,14.56485 6.3195705,6.3195705 0 0 1 2.5740451,8.2452786 6.3195705,6.3195705 0 0 1 8.8936256,1.9257078 6.3195705,6.3195705 0 0 1 15.213185,8.2452786 Z"
       style="opacity:1;fill:#4a1a00;fill-opacity:1;stroke:none;stroke-width:0.1974258;stroke-linecap:round;stroke-linejoin:round;stroke-miterlimit:4;stroke-dasharray:none;stroke-dashoffset:0;stroke-opacity:1"
       inkscape:connector-curvature="0" />
  </g>
</svg>
