<?xml version="1.0" encoding="UTF-8" standalone="no"?>
<!-- Created with Inkscape (http://www.inkscape.org/) -->

<svg
   xmlns:dc="http://purl.org/dc/elements/1.1/"
   xmlns:cc="http://creativecommons.org/ns#"
   xmlns:rdf="http://www.w3.org/1999/02/22-rdf-syntax-ns#"
   xmlns:svg="http://www.w3.org/2000/svg"
   xmlns="http://www.w3.org/2000/svg"
   xmlns:sodipodi="http://sodipodi.sourceforge.net/DTD/sodipodi-0.dtd"
   xmlns:inkscape="http://www.inkscape.org/namespaces/inkscape"
   width="210mm"
   height="297mm"
   viewBox="0 0 210 297"
   version="1.1"
   id="svg1928"
   inkscape:version="0.92.3 (2405546, 2018-03-11)"
   sodipodi:docname="Blume2.svg">
  <defs
     id="defs1922" />
  <sodipodi:namedview
     id="base"
     pagecolor="#ffffff"
     bordercolor="#666666"
     borderopacity="1.0"
     inkscape:pageopacity="0.0"
     inkscape:pageshadow="2"
     inkscape:zoom="1.4"
     inkscape:cx="152.12193"
     inkscape:cy="885.59892"
     inkscape:document-units="mm"
     inkscape:current-layer="layer1"
     showgrid="false"
     inkscape:window-width="1920"
     inkscape:window-height="1001"
     inkscape:window-x="-9"
     inkscape:window-y="-9"
     inkscape:window-maximized="1"
     showguides="true"
     inkscape:guide-bbox="true">
    <sodipodi:guide
       position="63.685317,284.60864"
       orientation="1,0"
       id="guide2494"
       inkscape:locked="false" />
  </sodipodi:namedview>
  <metadata
     id="metadata1925">
    <rdf:RDF>
      <cc:Work
         rdf:about="">
        <dc:format>image/svg+xml</dc:format>
        <dc:type
           rdf:resource="http://purl.org/dc/dcmitype/StillImage" />
        <dc:title></dc:title>
      </cc:Work>
    </rdf:RDF>
  </metadata>
  <g
     inkscape:label="Ebene 1"
     inkscape:groupmode="layer"
     id="layer1">
    <path
       id="path2488"
       d="m 89.285999,20.776282 c 0,0 -23.752277,7.298787 -22.273389,23.220402 a 21.532938,21.532938 0 0 0 -6.643317,-0.04106 C 61.803533,28.062568 38.091818,20.776642 38.091818,20.776642 c 0,0 -5.523558,24.079392 8.846432,30.84112 a 21.532938,21.532938 0 0 0 -2.009119,2.861846 21.532938,21.532938 0 0 0 -1.350414,2.83818 C 30.541611,48.329602 12.494931,65.11175 12.494931,65.11175 c 0,0 17.968692,16.711001 30.999045,7.854711 a 21.532938,21.532938 0 0 0 3.281984,5.713189 c -14.169047,6.864577 -8.683994,30.7673 -8.683994,30.7673 -3e-6,0 23.446708,-7.2028 22.302385,-22.908896 a 21.532938,21.532938 0 0 0 6.592727,-0.04186 c -1.188836,15.734993 22.298814,22.950833 22.298814,22.950833 0,0 5.525071,-24.086702 -8.852961,-30.84429 a 21.532938,21.532938 0 0 0 1.792542,-2.590079 21.532938,21.532938 0 0 0 1.490449,-3.165476 c 13.043365,9.117167 31.166858,-7.735261 31.166858,-7.735261 0,0 -18.208132,-16.93132 -31.258054,-7.67069 a 21.532938,21.532938 0 0 0 -3.346945,-5.749501 c 14.572115,-6.6571 9.008218,-30.915451 9.008218,-30.915451 z"
       style="fill:#a33123;stroke:#000000;stroke-width:0.26458332px;stroke-linecap:butt;stroke-linejoin:miter;stroke-opacity:1;fill-opacity:1"
       inkscape:connector-curvature="0" />
    <path
       inkscape:connector-curvature="0"
       style="fill:#e6d28c;stroke:#000000;stroke-width:0.26458332px;stroke-linecap:butt;stroke-linejoin:miter;stroke-opacity:1;fill-opacity:1"
       d="m 63.688987,13.917584 c 0,0 -16.920681,18.197074 -7.679119,31.246153 a 21.532938,21.532938 0 0 0 -5.773809,3.286104 C 43.531617,33.968926 19.353706,39.514987 19.353706,39.514987 c 0,0 7.256155,23.615144 23.081795,22.285977 a 21.532938,21.532938 0 0 0 -0.309025,3.482991 21.532938,21.532938 0 0 0 0.249597,3.133143 C 26.591515,67.151654 19.353706,90.70876 19.353706,90.70876 c 0,0 23.916844,5.487805 30.773316,-8.697143 a 21.532938,21.532938 0 0 0 5.698876,3.306774 c -8.838467,13.029422 7.863089,30.987259 7.863089,30.987259 -3e-6,0 16.704045,-17.961161 7.859985,-30.990876 a 21.532938,21.532938 0 0 0 5.688541,-3.332613 c 6.837932,14.221318 30.786757,8.726599 30.786757,8.726599 0,0 -7.2585,-23.622233 -23.089035,-22.28546 a 21.532938,21.532938 0 0 0 0.257347,-3.139345 21.532938,21.532938 0 0 0 -0.291971,-3.486607 c 15.854469,1.374015 23.123659,-22.282361 23.123659,-22.282361 0,0 -24.234364,-5.558888 -30.905613,8.986014 a 21.532938,21.532938 0 0 0 -5.77329,-3.305742 c 9.291272,-13.051275 -7.65638,-31.277675 -7.65638,-31.277675 z"
       id="use1426" />
    <circle
       style="opacity:1;fill:#692e03;fill-opacity:1;fill-rule:evenodd;stroke:#000000;stroke-width:0.27071095;stroke-linecap:round;stroke-linejoin:round;stroke-miterlimit:4;stroke-dasharray:none;stroke-dashoffset:0;stroke-opacity:1"
       id="path2492"
       cx="63.688496"
       cy="65.28389"
       r="22.127193" />
  </g>
</svg>
