<?xml version="1.0" encoding="UTF-8" standalone="no"?>
<!-- Created with Inkscape (http://www.inkscape.org/) -->

<svg
   xmlns:dc="http://purl.org/dc/elements/1.1/"
   xmlns:cc="http://creativecommons.org/ns#"
   xmlns:rdf="http://www.w3.org/1999/02/22-rdf-syntax-ns#"
   xmlns:svg="http://www.w3.org/2000/svg"
   xmlns="http://www.w3.org/2000/svg"
   xmlns:sodipodi="http://sodipodi.sourceforge.net/DTD/sodipodi-0.dtd"
   xmlns:inkscape="http://www.inkscape.org/namespaces/inkscape"
   width="210mm"
   height="297mm"
   viewBox="0 0 210 297"
   version="1.1"
   id="svg5664"
   inkscape:version="0.92.3 (2405546, 2018-03-11)"
   sodipodi:docname="Hai.svg">
  <defs
     id="defs5658" />
  <sodipodi:namedview
     id="base"
     pagecolor="#ffffff"
     bordercolor="#666666"
     borderopacity="1.0"
     inkscape:pageopacity="0.0"
     inkscape:pageshadow="2"
     inkscape:zoom="3.959798"
     inkscape:cx="174.02349"
     inkscape:cy="1041.8961"
     inkscape:document-units="mm"
     inkscape:current-layer="layer1"
     showgrid="false"
     inkscape:window-width="1920"
     inkscape:window-height="1001"
     inkscape:window-x="-9"
     inkscape:window-y="-9"
     inkscape:window-maximized="1"
     showguides="true"
     inkscape:guide-bbox="true" />
  <metadata
     id="metadata5661">
    <rdf:RDF>
      <cc:Work
         rdf:about="">
        <dc:format>image/svg+xml</dc:format>
        <dc:type
           rdf:resource="http://purl.org/dc/dcmitype/StillImage" />
        <dc:title />
      </cc:Work>
    </rdf:RDF>
  </metadata>
  <g
     inkscape:label="Ebene 1"
     inkscape:groupmode="layer"
     id="layer1">
    <path
       style="color:#000000;font-style:normal;font-variant:normal;font-weight:normal;font-stretch:normal;font-size:medium;line-height:normal;font-family:sans-serif;font-variant-ligatures:normal;font-variant-position:normal;font-variant-caps:normal;font-variant-numeric:normal;font-variant-alternates:normal;font-feature-settings:normal;text-indent:0;text-align:start;text-decoration:none;text-decoration-line:none;text-decoration-style:solid;text-decoration-color:#000000;letter-spacing:normal;word-spacing:normal;text-transform:none;writing-mode:lr-tb;direction:ltr;text-orientation:mixed;dominant-baseline:auto;baseline-shift:baseline;text-anchor:start;white-space:normal;shape-padding:0;clip-rule:nonzero;display:inline;overflow:visible;visibility:visible;opacity:1;isolation:auto;mix-blend-mode:normal;color-interpolation:sRGB;color-interpolation-filters:linearRGB;solid-color:#000000;solid-opacity:1;vector-effect:none;fill:none;fill-opacity:1;fill-rule:nonzero;stroke:#000000;stroke-width:0.05069568;stroke-linecap:round;stroke-linejoin:round;stroke-miterlimit:4;stroke-dasharray:none;stroke-dashoffset:0;stroke-opacity:1;color-rendering:auto;image-rendering:auto;shape-rendering:auto;text-rendering:auto;enable-background:accumulate"
       d="m 16.52272,3.6544916 c -0.459756,0 -0.914155,0.022791 -1.362282,0.066542 l 1.598324,1.757343 -2.611389,1.1003044 0.95936,2.6664039 -2.833807,0.017029 -0.134132,2.8306641 -2.6244883,-1.068605 -1.207191,2.563709 -2.0156523,-1.991551 -2.096342,1.90667 -0.4948745,-1.174444 c -0.6340543,1.585908 -0.9832008,3.317385 -0.9832008,5.131611 0,1.04179 0.1158032,2.055987 0.3337588,3.031337 0.578262,0.312768 1.0253827,0.722144 1.284737,1.190949 0.3514052,-0.635895 1.0470315,-1.162547 1.9480627,-1.486459 0.6603752,-0.237399 1.3890623,-0.355833 2.1178234,-0.354717 0.7287611,0.0011 1.4573625,0.12203 2.11599,0.361528 0.892378,0.3245 1.580352,0.8486 1.929463,1.479648 0.338124,-0.611864 0.996098,-1.121402 1.847986,-1.447687 0.106791,-0.545234 0.145502,-1.116634 0.129679,-1.492484 -0.03333,-0.791701 -0.175121,-1.878665 -0.509022,-2.835641 -0.09622,-0.275782 -0.126873,-0.500728 -0.06523,-0.704195 0.06164,-0.203467 0.244429,-0.346985 0.420736,-0.391131 0.08815,-0.02207 0.176588,-0.03029 0.264334,-0.02829 0.263241,0.006 0.520116,0.10523 0.742706,0.208535 0.543302,0.252149 2.305391,1.091583 3.597209,2.483281 0.650145,0.700412 1.567867,2.000134 2.335788,3.136915 0.0472,0.06988 0.08665,0.13042 0.132561,0.198841 0.327382,-0.246247 0.719519,-0.455295 1.162655,-0.614599 0.660375,-0.237399 1.389062,-0.355833 2.117823,-0.354716 0.728763,0.0011 1.457364,0.122029 2.11599,0.361528 0.892378,0.324499 1.580353,0.8486 1.929463,1.479647 0.265923,-0.481202 0.729342,-0.899477 1.329271,-1.21505 0.214453,-0.96797 0.32852,-1.97401 0.32852,-3.007236 0,-7.6333995 -6.171229,-13.8056753 -13.804627,-13.8056753 z"
       id="path6625"
       inkscape:connector-curvature="0" />
    <path
       style="color:#000000;font-style:normal;font-variant:normal;font-weight:normal;font-stretch:normal;font-size:medium;line-height:normal;font-family:sans-serif;font-variant-ligatures:normal;font-variant-position:normal;font-variant-caps:normal;font-variant-numeric:normal;font-variant-alternates:normal;font-feature-settings:normal;text-indent:0;text-align:start;text-decoration:none;text-decoration-line:none;text-decoration-style:solid;text-decoration-color:#000000;letter-spacing:normal;word-spacing:normal;text-transform:none;writing-mode:lr-tb;direction:ltr;text-orientation:mixed;dominant-baseline:auto;baseline-shift:baseline;text-anchor:start;white-space:normal;shape-padding:0;clip-rule:nonzero;display:inline;overflow:visible;visibility:visible;opacity:1;isolation:auto;mix-blend-mode:normal;color-interpolation:sRGB;color-interpolation-filters:linearRGB;solid-color:#000000;solid-opacity:1;vector-effect:none;fill:none;fill-opacity:1;fill-rule:nonzero;stroke:#000000;stroke-width:0.05069568;stroke-linecap:round;stroke-linejoin:round;stroke-miterlimit:4;stroke-dasharray:none;stroke-dashoffset:0;stroke-opacity:1;color-rendering:auto;image-rendering:auto;shape-rendering:auto;text-rendering:auto;enable-background:accumulate"
       d="m 8.4009028,20.352396 c -0.6739023,-0.0011 -1.3481858,0.105761 -1.9459665,0.320659 -1.0650805,0.382887 -1.7117204,1.032656 -1.8403895,1.70914 0.6381815,0.02679 1.2695611,0.145193 1.8472009,0.355239 0.8923632,0.324495 1.5803467,0.848616 1.9294626,1.479649 0.3514052,-0.635894 1.0470316,-1.162546 1.9480627,-1.48646 0.5733,-0.206097 1.198003,-0.322085 1.829648,-0.348428 C 12.040695,21.709392 11.40026,21.063081 10.344249,20.67908 9.7483292,20.462384 9.0748051,20.35343 8.4009028,20.352396 Z"
       id="path6621"
       inkscape:connector-curvature="0" />
    <path
       style="color:#000000;font-style:normal;font-variant:normal;font-weight:normal;font-stretch:normal;font-size:medium;line-height:normal;font-family:sans-serif;font-variant-ligatures:normal;font-variant-position:normal;font-variant-caps:normal;font-variant-numeric:normal;font-variant-alternates:normal;font-feature-settings:normal;text-indent:0;text-align:start;text-decoration:none;text-decoration-line:none;text-decoration-style:solid;text-decoration-color:#000000;letter-spacing:normal;word-spacing:normal;text-transform:none;writing-mode:lr-tb;direction:ltr;text-orientation:mixed;dominant-baseline:auto;baseline-shift:baseline;text-anchor:start;white-space:normal;shape-padding:0;clip-rule:nonzero;display:inline;overflow:visible;visibility:visible;opacity:1;isolation:auto;mix-blend-mode:normal;color-interpolation:sRGB;color-interpolation-filters:linearRGB;solid-color:#000000;solid-opacity:1;vector-effect:none;fill:none;fill-opacity:1;fill-rule:nonzero;stroke:#000000;stroke-width:0.05069568;stroke-linecap:round;stroke-linejoin:round;stroke-miterlimit:4;stroke-dasharray:none;stroke-dashoffset:0;stroke-opacity:1;color-rendering:auto;image-rendering:auto;shape-rendering:auto;text-rendering:auto;enable-background:accumulate"
       d="m 24.62358,20.352396 c -0.673903,-0.0011 -1.348449,0.105761 -1.946229,0.320659 -0.417405,0.150053 -0.76897,0.341746 -1.052101,0.559321 0.550771,0.830965 0.945457,1.453443 0.956218,1.470478 0.03424,0.0117 0.06908,0.02227 0.102956,0.03458 0.892363,0.324495 1.580347,0.848616 1.929463,1.479649 0.351406,-0.63589 1.046775,-1.162548 1.947799,-1.48646 0.573302,-0.206097 1.198266,-0.322085 1.829912,-0.348428 C 28.26337,21.709392 27.622673,21.063081 26.566664,20.67908 25.970745,20.462384 25.297482,20.35343 24.62358,20.352396 Z"
       id="path6617"
       inkscape:connector-curvature="0" />
    <path
       style="color:#000000;font-style:normal;font-variant:normal;font-weight:normal;font-stretch:normal;font-size:medium;line-height:normal;font-family:sans-serif;font-variant-ligatures:normal;font-variant-position:normal;font-variant-caps:normal;font-variant-numeric:normal;font-variant-alternates:normal;font-feature-settings:normal;text-indent:0;text-align:start;text-decoration:none;text-decoration-line:none;text-decoration-style:solid;text-decoration-color:#000000;letter-spacing:normal;word-spacing:normal;text-transform:none;writing-mode:lr-tb;direction:ltr;text-orientation:mixed;dominant-baseline:auto;baseline-shift:baseline;text-anchor:start;white-space:normal;shape-padding:0;clip-rule:nonzero;display:inline;overflow:visible;visibility:visible;opacity:1;isolation:auto;mix-blend-mode:normal;color-interpolation:sRGB;color-interpolation-filters:linearRGB;solid-color:#000000;solid-opacity:1;vector-effect:none;fill:none;fill-opacity:1;fill-rule:nonzero;stroke:#000000;stroke-width:0.05069568;stroke-linecap:round;stroke-linejoin:round;stroke-miterlimit:4;stroke-dasharray:none;stroke-dashoffset:0;stroke-opacity:1;color-rendering:auto;image-rendering:auto;shape-rendering:auto;text-rendering:auto;enable-background:accumulate"
       d="m 14.135846,20.852771 c -0.809116,0.38935 -1.299663,0.949531 -1.409962,1.529424 0.0555,0.0023 0.110733,0.0065 0.166094,0.01022 0.158627,-0.09739 0.504544,-0.339771 0.883126,-0.801388 0.136752,-0.166747 0.260321,-0.43125 0.360742,-0.738253 z"
       id="path6615"
       inkscape:connector-curvature="0" />
    <path
       style="color:#000000;font-style:normal;font-variant:normal;font-weight:normal;font-stretch:normal;font-size:medium;line-height:normal;font-family:sans-serif;font-variant-ligatures:normal;font-variant-position:normal;font-variant-caps:normal;font-variant-numeric:normal;font-variant-alternates:normal;font-feature-settings:normal;text-indent:0;text-align:start;text-decoration:none;text-decoration-line:none;text-decoration-style:solid;text-decoration-color:#000000;letter-spacing:normal;word-spacing:normal;text-transform:none;writing-mode:lr-tb;direction:ltr;text-orientation:mixed;dominant-baseline:auto;baseline-shift:baseline;text-anchor:start;white-space:normal;shape-padding:0;clip-rule:nonzero;display:inline;overflow:visible;visibility:visible;opacity:1;isolation:auto;mix-blend-mode:normal;color-interpolation:sRGB;color-interpolation-filters:linearRGB;solid-color:#000000;solid-opacity:1;vector-effect:none;fill:none;fill-opacity:1;fill-rule:nonzero;stroke:#000000;stroke-width:0.05069568;stroke-linecap:round;stroke-linejoin:round;stroke-miterlimit:4;stroke-dasharray:none;stroke-dashoffset:0;stroke-opacity:1;color-rendering:auto;image-rendering:auto;shape-rendering:auto;text-rendering:auto;enable-background:accumulate"
       d="m 29.824875,21.166882 c -0.491174,0.350551 -0.793207,0.77701 -0.876576,1.215313 0.155065,0.0065 0.309827,0.01856 0.463438,0.03589 0.156756,-0.4081 0.29504,-0.825401 0.413138,-1.251204 z"
       id="path6613"
       inkscape:connector-curvature="0" />
    <path
       style="color:#000000;font-style:normal;font-variant:normal;font-weight:normal;font-stretch:normal;font-size:medium;line-height:normal;font-family:sans-serif;font-variant-ligatures:normal;font-variant-position:normal;font-variant-caps:normal;font-variant-numeric:normal;font-variant-alternates:normal;font-feature-settings:normal;text-indent:0;text-align:start;text-decoration:none;text-decoration-line:none;text-decoration-style:solid;text-decoration-color:#000000;letter-spacing:normal;word-spacing:normal;text-transform:none;writing-mode:lr-tb;direction:ltr;text-orientation:mixed;dominant-baseline:auto;baseline-shift:baseline;text-anchor:start;white-space:normal;shape-padding:0;clip-rule:nonzero;display:inline;overflow:visible;visibility:visible;opacity:1;isolation:auto;mix-blend-mode:normal;color-interpolation:sRGB;color-interpolation-filters:linearRGB;solid-color:#000000;solid-opacity:1;vector-effect:none;fill:none;fill-opacity:1;fill-rule:nonzero;stroke:#000000;stroke-width:0.05069568;stroke-linecap:round;stroke-linejoin:round;stroke-miterlimit:4;stroke-dasharray:none;stroke-dashoffset:0;stroke-opacity:1;color-rendering:auto;image-rendering:auto;shape-rendering:auto;text-rendering:auto;enable-background:accumulate"
       d="m 3.2289491,21.201201 c 0.1156288,0.412689 0.2503969,0.817216 0.402397,1.213216 0.1414064,-0.0151 0.2836295,-0.02627 0.4262364,-0.03222 -0.080789,-0.423906 -0.365347,-0.837104 -0.8286334,-1.180994 z"
       id="path6611"
       inkscape:connector-curvature="0" />
    <path
       style="color:#000000;font-style:normal;font-variant:normal;font-weight:normal;font-stretch:normal;font-size:medium;line-height:normal;font-family:sans-serif;font-variant-ligatures:normal;font-variant-position:normal;font-variant-caps:normal;font-variant-numeric:normal;font-variant-alternates:normal;font-feature-settings:normal;text-indent:0;text-align:start;text-decoration:none;text-decoration-line:none;text-decoration-style:solid;text-decoration-color:#000000;letter-spacing:normal;word-spacing:normal;text-transform:none;writing-mode:lr-tb;direction:ltr;text-orientation:mixed;dominant-baseline:auto;baseline-shift:baseline;text-anchor:start;white-space:normal;shape-padding:0;clip-rule:nonzero;display:inline;overflow:visible;visibility:visible;opacity:1;isolation:auto;mix-blend-mode:normal;color-interpolation:sRGB;color-interpolation-filters:linearRGB;solid-color:#000000;solid-opacity:1;vector-effect:none;fill:none;fill-opacity:1;fill-rule:nonzero;stroke:#000000;stroke-width:0.05069568;stroke-linecap:round;stroke-linejoin:round;stroke-miterlimit:4;stroke-dasharray:none;stroke-dashoffset:0;stroke-opacity:1;color-rendering:auto;image-rendering:auto;shape-rendering:auto;text-rendering:auto;enable-background:accumulate"
       d="m 4.4136099,22.888596 a 0.25350378,0.25350378 0 0 1 -0.1548289,2.68e-4 c -0.1425546,0.0017 -0.2849293,0.0091 -0.426498,0.02044 0.4236047,0.986901 0.9585607,1.914085 1.5896774,2.765954 C 5.6805556,25.516821 5.9691601,25.378562 6.2836036,25.265522 6.8569054,25.059425 7.4816065,24.943174 8.1132519,24.91683 7.9850253,24.244029 7.3445903,23.597718 6.2885814,23.213717 5.7128275,23.004353 5.0645903,22.896659 4.4136099,22.888603 Z"
       id="path6607"
       inkscape:connector-curvature="0" />
    <path
       style="color:#000000;font-style:normal;font-variant:normal;font-weight:normal;font-stretch:normal;font-size:medium;line-height:normal;font-family:sans-serif;font-variant-ligatures:normal;font-variant-position:normal;font-variant-caps:normal;font-variant-numeric:normal;font-variant-alternates:normal;font-feature-settings:normal;text-indent:0;text-align:start;text-decoration:none;text-decoration-line:none;text-decoration-style:solid;text-decoration-color:#000000;letter-spacing:normal;word-spacing:normal;text-transform:none;writing-mode:lr-tb;direction:ltr;text-orientation:mixed;dominant-baseline:auto;baseline-shift:baseline;text-anchor:start;white-space:normal;shape-padding:0;clip-rule:nonzero;display:inline;overflow:visible;visibility:visible;opacity:1;isolation:auto;mix-blend-mode:normal;color-interpolation:sRGB;color-interpolation-filters:linearRGB;solid-color:#000000;solid-opacity:1;vector-effect:none;fill:none;fill-opacity:1;fill-rule:nonzero;stroke:#000000;stroke-width:0.05069568;stroke-linecap:round;stroke-linejoin:round;stroke-miterlimit:4;stroke-dasharray:none;stroke-dashoffset:0;stroke-opacity:1;color-rendering:auto;image-rendering:auto;shape-rendering:auto;text-rendering:auto;enable-background:accumulate"
       d="m 12.524949,22.888596 a 0.25350378,0.25350378 0 0 1 -0.154829,2.68e-4 c -0.644969,0.0078 -1.287314,0.113387 -1.859514,0.319089 -1.0650806,0.382887 -1.7117208,1.032658 -1.84039,1.709139 0.6381816,0.02678 1.2695614,0.145193 1.847201,0.355241 0.892363,0.324494 1.580346,0.848615 1.929463,1.479648 0.351403,-0.635894 1.047031,-1.162546 1.948061,-1.486459 0.573303,-0.206097 1.198004,-0.322348 1.82965,-0.348692 -0.128228,-0.672801 -0.768663,-1.319112 -1.824672,-1.703113 -0.575754,-0.209364 -1.223991,-0.317058 -1.87497,-0.325114 z"
       id="path6605"
       inkscape:connector-curvature="0" />
    <path
       style="color:#000000;font-style:normal;font-variant:normal;font-weight:normal;font-stretch:normal;font-size:medium;line-height:normal;font-family:sans-serif;font-variant-ligatures:normal;font-variant-position:normal;font-variant-caps:normal;font-variant-numeric:normal;font-variant-alternates:normal;font-feature-settings:normal;text-indent:0;text-align:start;text-decoration:none;text-decoration-line:none;text-decoration-style:solid;text-decoration-color:#000000;letter-spacing:normal;word-spacing:normal;text-transform:none;writing-mode:lr-tb;direction:ltr;text-orientation:mixed;dominant-baseline:auto;baseline-shift:baseline;text-anchor:start;white-space:normal;shape-padding:0;clip-rule:nonzero;display:inline;overflow:visible;visibility:visible;opacity:1;isolation:auto;mix-blend-mode:normal;color-interpolation:sRGB;color-interpolation-filters:linearRGB;solid-color:#000000;solid-opacity:1;vector-effect:none;fill:none;fill-opacity:1;fill-rule:nonzero;stroke:#000000;stroke-width:0.05069568;stroke-linecap:round;stroke-linejoin:round;stroke-miterlimit:4;stroke-dasharray:none;stroke-dashoffset:0;stroke-opacity:1;color-rendering:auto;image-rendering:auto;shape-rendering:auto;text-rendering:auto;enable-background:accumulate"
       d="m 20.636286,22.888596 a 0.25350378,0.25350378 0 0 1 -0.154828,2.68e-4 c -0.644968,0.0078 -1.287576,0.113387 -1.859776,0.319089 -1.065065,0.382881 -1.711445,1.03267 -1.840128,1.709139 0.638183,0.02678 1.269562,0.145193 1.847202,0.355241 0.892362,0.324494 1.580345,0.848615 1.929461,1.479648 0.351407,-0.63589 1.047037,-1.162548 1.948063,-1.486459 0.573302,-0.206097 1.198003,-0.322348 1.829648,-0.348692 -0.128228,-0.672801 -0.768924,-1.319112 -1.824932,-1.703113 -0.575754,-0.209364 -1.223729,-0.317058 -1.87471,-0.325114 z"
       id="path6603"
       inkscape:connector-curvature="0" />
    <path
       style="color:#000000;font-style:normal;font-variant:normal;font-weight:normal;font-stretch:normal;font-size:medium;line-height:normal;font-family:sans-serif;font-variant-ligatures:normal;font-variant-position:normal;font-variant-caps:normal;font-variant-numeric:normal;font-variant-alternates:normal;font-feature-settings:normal;text-indent:0;text-align:start;text-decoration:none;text-decoration-line:none;text-decoration-style:solid;text-decoration-color:#000000;letter-spacing:normal;word-spacing:normal;text-transform:none;writing-mode:lr-tb;direction:ltr;text-orientation:mixed;dominant-baseline:auto;baseline-shift:baseline;text-anchor:start;white-space:normal;shape-padding:0;clip-rule:nonzero;display:inline;overflow:visible;visibility:visible;opacity:1;isolation:auto;mix-blend-mode:normal;color-interpolation:sRGB;color-interpolation-filters:linearRGB;solid-color:#000000;solid-opacity:1;vector-effect:none;fill:none;fill-opacity:1;fill-rule:nonzero;stroke:#000000;stroke-width:0.05069568;stroke-linecap:round;stroke-linejoin:round;stroke-miterlimit:4;stroke-dasharray:none;stroke-dashoffset:0;stroke-opacity:1;color-rendering:auto;image-rendering:auto;shape-rendering:auto;text-rendering:auto;enable-background:accumulate"
       d="m 28.747625,22.888596 a 0.25350378,0.25350378 0 0 1 -0.154829,2.68e-4 c -0.644998,0.0078 -1.287549,0.113377 -1.859776,0.319089 -1.06508,0.382887 -1.71172,1.032658 -1.840389,1.709139 0.63827,0.02676 1.269745,0.145164 1.847462,0.355241 0.31837,0.115771 0.610117,0.257373 0.870551,0.419688 0.63588,-0.855729 1.174546,-1.787945 1.600681,-2.780365 -0.153824,-0.01325 -0.3086,-0.02114 -0.4637,-0.02305 z"
       id="path6601"
       inkscape:connector-curvature="0" />
    <path
       style="color:#000000;font-style:normal;font-variant:normal;font-weight:normal;font-stretch:normal;font-size:medium;line-height:normal;font-family:sans-serif;font-variant-ligatures:normal;font-variant-position:normal;font-variant-caps:normal;font-variant-numeric:normal;font-variant-alternates:normal;font-feature-settings:normal;text-indent:0;text-align:start;text-decoration:none;text-decoration-line:none;text-decoration-style:solid;text-decoration-color:#000000;letter-spacing:normal;word-spacing:normal;text-transform:none;writing-mode:lr-tb;direction:ltr;text-orientation:mixed;dominant-baseline:auto;baseline-shift:baseline;text-anchor:start;white-space:normal;shape-padding:0;clip-rule:nonzero;display:inline;overflow:visible;visibility:visible;opacity:1;isolation:auto;mix-blend-mode:normal;color-interpolation:sRGB;color-interpolation-filters:linearRGB;solid-color:#000000;solid-opacity:1;vector-effect:none;fill:none;fill-opacity:1;fill-rule:nonzero;stroke:#000000;stroke-width:0.05069568;stroke-linecap:round;stroke-linejoin:round;stroke-miterlimit:4;stroke-dasharray:none;stroke-dashoffset:0;stroke-opacity:1;color-rendering:auto;image-rendering:auto;shape-rendering:auto;text-rendering:auto;enable-background:accumulate"
       d="m 8.3144504,25.423488 c -0.6449687,0.0078 -1.2873125,0.113386 -1.8595141,0.319088 -0.2680378,0.09636 -0.5081645,0.210306 -0.7217474,0.336641 0.8488201,1.061589 1.8510571,1.994597 2.9737029,2.765955 0.3866154,-0.437353 0.9499241,-0.799691 1.6323812,-1.045027 0.5733,-0.206098 1.198003,-0.322086 1.829648,-0.34843 C 12.040695,26.778914 11.40026,26.132603 10.344249,25.748601 9.768575,25.539266 9.1204312,25.43157 8.4695407,25.423488 a 0.25350378,0.25350378 0 0 1 -0.1550903,0 z"
       id="path6599"
       inkscape:connector-curvature="0" />
    <path
       style="color:#000000;font-style:normal;font-variant:normal;font-weight:normal;font-stretch:normal;font-size:medium;line-height:normal;font-family:sans-serif;font-variant-ligatures:normal;font-variant-position:normal;font-variant-caps:normal;font-variant-numeric:normal;font-variant-alternates:normal;font-feature-settings:normal;text-indent:0;text-align:start;text-decoration:none;text-decoration-line:none;text-decoration-style:solid;text-decoration-color:#000000;letter-spacing:normal;word-spacing:normal;text-transform:none;writing-mode:lr-tb;direction:ltr;text-orientation:mixed;dominant-baseline:auto;baseline-shift:baseline;text-anchor:start;white-space:normal;shape-padding:0;clip-rule:nonzero;display:inline;overflow:visible;visibility:visible;opacity:1;isolation:auto;mix-blend-mode:normal;color-interpolation:sRGB;color-interpolation-filters:linearRGB;solid-color:#000000;solid-opacity:1;vector-effect:none;fill:none;fill-opacity:1;fill-rule:nonzero;stroke:#000000;stroke-width:0.05069568;stroke-linecap:round;stroke-linejoin:round;stroke-miterlimit:4;stroke-dasharray:none;stroke-dashoffset:0;stroke-opacity:1;color-rendering:auto;image-rendering:auto;shape-rendering:auto;text-rendering:auto;enable-background:accumulate"
       d="m 16.425789,25.423488 c -0.644968,0.0078 -1.287575,0.113386 -1.859777,0.319088 -1.065024,0.382867 -1.711148,1.032695 -1.839865,1.709139 0.638093,0.02681 1.269379,0.145483 1.846939,0.355503 0.892379,0.3245 1.580351,0.8486 1.929462,1.479648 0.351402,-0.635902 1.047025,-1.162806 1.948062,-1.486721 0.573302,-0.206098 1.198005,-0.322086 1.82965,-0.34843 C 20.152032,26.778914 19.511336,26.132603 18.455327,25.748601 17.879651,25.539266 17.23177,25.43157 16.58088,25.423488 a 0.25350378,0.25350378 0 0 1 -0.155091,0 z"
       id="path6597"
       inkscape:connector-curvature="0" />
    <path
       style="color:#000000;font-style:normal;font-variant:normal;font-weight:normal;font-stretch:normal;font-size:medium;line-height:normal;font-family:sans-serif;font-variant-ligatures:normal;font-variant-position:normal;font-variant-caps:normal;font-variant-numeric:normal;font-variant-alternates:normal;font-feature-settings:normal;text-indent:0;text-align:start;text-decoration:none;text-decoration-line:none;text-decoration-style:solid;text-decoration-color:#000000;letter-spacing:normal;word-spacing:normal;text-transform:none;writing-mode:lr-tb;direction:ltr;text-orientation:mixed;dominant-baseline:auto;baseline-shift:baseline;text-anchor:start;white-space:normal;shape-padding:0;clip-rule:nonzero;display:inline;overflow:visible;visibility:visible;opacity:1;isolation:auto;mix-blend-mode:normal;color-interpolation:sRGB;color-interpolation-filters:linearRGB;solid-color:#000000;solid-opacity:1;vector-effect:none;fill:none;fill-opacity:1;fill-rule:nonzero;stroke:#000000;stroke-width:0.05069568;stroke-linecap:round;stroke-linejoin:round;stroke-miterlimit:4;stroke-dasharray:none;stroke-dashoffset:0;stroke-opacity:1;color-rendering:auto;image-rendering:auto;shape-rendering:auto;text-rendering:auto;enable-background:accumulate"
       d="m 24.537127,25.423488 c -0.644969,0.0078 -1.287575,0.113386 -1.859776,0.319088 -1.065031,0.382868 -1.711414,1.032691 -1.840128,1.709139 0.638183,0.02678 1.269561,0.145455 1.847201,0.355503 0.683158,0.24842 1.245646,0.614271 1.629237,1.054982 1.126807,-0.770716 2.132799,-1.704343 2.984969,-2.767003 -0.215714,-0.130056 -0.459314,-0.247449 -0.731966,-0.346596 -0.575673,-0.209335 -1.223555,-0.317031 -1.874447,-0.325113 a 0.25350378,0.25350378 0 0 1 -0.15509,0 z"
       id="path6595"
       inkscape:connector-curvature="0" />
    <path
       style="color:#000000;font-style:normal;font-variant:normal;font-weight:normal;font-stretch:normal;font-size:medium;line-height:normal;font-family:sans-serif;font-variant-ligatures:normal;font-variant-position:normal;font-variant-caps:normal;font-variant-numeric:normal;font-variant-alternates:normal;font-feature-settings:normal;text-indent:0;text-align:start;text-decoration:none;text-decoration-line:none;text-decoration-style:solid;text-decoration-color:#000000;letter-spacing:normal;word-spacing:normal;text-transform:none;writing-mode:lr-tb;direction:ltr;text-orientation:mixed;dominant-baseline:auto;baseline-shift:baseline;text-anchor:start;white-space:normal;shape-padding:0;clip-rule:nonzero;display:inline;overflow:visible;visibility:visible;opacity:1;isolation:auto;mix-blend-mode:normal;color-interpolation:sRGB;color-interpolation-filters:linearRGB;solid-color:#000000;solid-opacity:1;vector-effect:none;fill:none;fill-opacity:1;fill-rule:nonzero;stroke:#000000;stroke-width:0.05069568;stroke-linecap:round;stroke-linejoin:round;stroke-miterlimit:4;stroke-dasharray:none;stroke-dashoffset:0;stroke-opacity:1;color-rendering:auto;image-rendering:auto;shape-rendering:auto;text-rendering:auto;enable-background:accumulate"
       d="m 12.524949,27.958117 a 0.25350378,0.25350378 0 0 1 -0.154829,2.68e-4 c -0.644969,0.0078 -1.287314,0.113386 -1.859514,0.319089 -0.594979,0.213889 -1.0595665,0.511261 -1.3764287,0.849854 1.2673507,0.803286 2.6747767,1.405524 4.1782747,1.762582 0.310544,-0.220462 0.675408,-0.408525 1.082489,-0.554867 0.573303,-0.206097 1.198004,-0.322086 1.82965,-0.348429 -0.128135,-0.672878 -0.768553,-1.319074 -1.824672,-1.703115 -0.575754,-0.209363 -1.223991,-0.317319 -1.87497,-0.325375 z"
       id="path6593"
       inkscape:connector-curvature="0" />
    <path
       style="color:#000000;font-style:normal;font-variant:normal;font-weight:normal;font-stretch:normal;font-size:medium;line-height:normal;font-family:sans-serif;font-variant-ligatures:normal;font-variant-position:normal;font-variant-caps:normal;font-variant-numeric:normal;font-variant-alternates:normal;font-feature-settings:normal;text-indent:0;text-align:start;text-decoration:none;text-decoration-line:none;text-decoration-style:solid;text-decoration-color:#000000;letter-spacing:normal;word-spacing:normal;text-transform:none;writing-mode:lr-tb;direction:ltr;text-orientation:mixed;dominant-baseline:auto;baseline-shift:baseline;text-anchor:start;white-space:normal;shape-padding:0;clip-rule:nonzero;display:inline;overflow:visible;visibility:visible;opacity:1;isolation:auto;mix-blend-mode:normal;color-interpolation:sRGB;color-interpolation-filters:linearRGB;solid-color:#000000;solid-opacity:1;vector-effect:none;fill:none;fill-opacity:1;fill-rule:nonzero;stroke:#000000;stroke-width:0.05069568;stroke-linecap:round;stroke-linejoin:round;stroke-miterlimit:4;stroke-dasharray:none;stroke-dashoffset:0;stroke-opacity:1;color-rendering:auto;image-rendering:auto;shape-rendering:auto;text-rendering:auto;enable-background:accumulate"
       d="m 20.636286,27.958117 a 0.25350378,0.25350378 0 0 1 -0.154828,2.68e-4 c -0.644969,0.0078 -1.287575,0.113386 -1.859776,0.319089 -1.065065,0.382881 -1.711445,1.032669 -1.840128,1.70914 0.638183,0.02678 1.269562,0.145191 1.847202,0.35524 0.404154,0.146965 0.766278,0.334973 1.074367,0.55513 1.504772,-0.353842 2.913851,-0.953244 4.182991,-1.753938 -0.314264,-0.341828 -0.778468,-0.642583 -1.375118,-0.859547 -0.575754,-0.209363 -1.223729,-0.317319 -1.87471,-0.325375 z"
       id="path6591"
       inkscape:connector-curvature="0" />
    <path
       style="color:#000000;font-style:normal;font-variant:normal;font-weight:normal;font-stretch:normal;font-size:medium;line-height:normal;font-family:sans-serif;font-variant-ligatures:normal;font-variant-position:normal;font-variant-caps:normal;font-variant-numeric:normal;font-variant-alternates:normal;font-feature-settings:normal;text-indent:0;text-align:start;text-decoration:none;text-decoration-line:none;text-decoration-style:solid;text-decoration-color:#000000;letter-spacing:normal;word-spacing:normal;text-transform:none;writing-mode:lr-tb;direction:ltr;text-orientation:mixed;dominant-baseline:auto;baseline-shift:baseline;text-anchor:start;white-space:normal;shape-padding:0;clip-rule:nonzero;display:inline;overflow:visible;visibility:visible;opacity:1;isolation:auto;mix-blend-mode:normal;color-interpolation:sRGB;color-interpolation-filters:linearRGB;solid-color:#000000;solid-opacity:1;vector-effect:none;fill:none;fill-opacity:1;fill-rule:nonzero;stroke:#000000;stroke-width:0.05069568;stroke-linecap:round;stroke-linejoin:round;stroke-miterlimit:4;stroke-dasharray:none;stroke-dashoffset:0;stroke-opacity:1;color-rendering:auto;image-rendering:auto;shape-rendering:auto;text-rendering:auto;enable-background:accumulate"
       d="m 16.425265,30.493009 c -0.644793,0.0079 -1.287206,0.113704 -1.859253,0.31935 -0.189857,0.06825 -0.364857,0.145912 -0.527621,0.229754 0.805809,0.14599 1.635956,0.22268 2.484329,0.22268 0.838048,0 1.65842,-0.07465 2.454989,-0.217179 -0.16114,-0.08363 -0.33444,-0.161149 -0.522382,-0.229491 -0.575676,-0.209335 -1.223557,-0.317031 -1.874447,-0.325114 a 0.25350378,0.25350378 0 0 1 -0.155615,0 z"
       id="path6296"
       inkscape:connector-curvature="0" />
    <path
       style="color:#000000;font-style:normal;font-variant:normal;font-weight:normal;font-stretch:normal;font-size:medium;line-height:normal;font-family:sans-serif;font-variant-ligatures:normal;font-variant-position:normal;font-variant-caps:normal;font-variant-numeric:normal;font-variant-alternates:normal;font-feature-settings:normal;text-indent:0;text-align:start;text-decoration:none;text-decoration-line:none;text-decoration-style:solid;text-decoration-color:#000000;letter-spacing:normal;word-spacing:normal;text-transform:none;writing-mode:lr-tb;direction:ltr;text-orientation:mixed;dominant-baseline:auto;baseline-shift:baseline;text-anchor:start;white-space:normal;shape-padding:0;clip-rule:nonzero;display:inline;overflow:visible;visibility:visible;opacity:1;isolation:auto;mix-blend-mode:normal;color-interpolation:sRGB;color-interpolation-filters:linearRGB;solid-color:#000000;solid-opacity:1;vector-effect:none;fill:none;fill-opacity:1;fill-rule:nonzero;stroke:#000000;stroke-width:0.05069568;stroke-linecap:round;stroke-linejoin:round;stroke-miterlimit:4;stroke-dasharray:none;stroke-dashoffset:0;stroke-opacity:1;color-rendering:auto;image-rendering:auto;shape-rendering:auto;text-rendering:auto;enable-background:accumulate"
       d="m 16.522678,2.1335509 c -8.4553381,0 -15.3265336,6.8711952 -15.3265336,15.3265331 0,8.455338 6.8711955,15.325543 15.3265336,15.325543 8.455338,0 15.325543,-6.870205 15.325543,-15.325543 0,-8.4553379 -6.870205,-15.3265331 -15.325543,-15.3265331 z"
       id="path6312"
       inkscape:connector-curvature="0" />
    <path
       style="opacity:1;fill:none;fill-opacity:1;stroke:#000000;stroke-width:1;stroke-linecap:butt;stroke-linejoin:round;stroke-miterlimit:4;stroke-dasharray:none;stroke-dashoffset:0;stroke-opacity:1"
       id="path833"
       sodipodi:type="arc"
       sodipodi:cx="43.995899"
       sodipodi:cy="31.00041"
       sodipodi:rx="4"
       sodipodi:ry="2"
       sodipodi:start="3.1415926"
       sodipodi:end="0"
       d="m 39.995899,31.00041 a 4,2 0 0 1 2,-1.732051 4,2 0 0 1 4,0 4,2 0 0 1 2,1.732051"
       sodipodi:open="true" />
    <path
       sodipodi:open="true"
       d="m 43.995899,29.00041 a 4,2 0 0 1 2,-1.732051 4,2 0 0 1 4,0 4,2 0 0 1 2,1.732051"
       sodipodi:end="0"
       sodipodi:start="3.1415926"
       sodipodi:ry="2"
       sodipodi:rx="4"
       sodipodi:cy="29.00041"
       sodipodi:cx="47.995899"
       sodipodi:type="arc"
       id="path837"
       style="opacity:1;fill:none;fill-opacity:1;stroke:#000000;stroke-width:1;stroke-linecap:butt;stroke-linejoin:round;stroke-miterlimit:4;stroke-dasharray:none;stroke-dashoffset:0;stroke-opacity:1" />
    <path
       sodipodi:open="true"
       d="m 47.995899,31.00041 a 4,2 0 0 1 2,-1.732051 4,2 0 0 1 4,0 4,2 0 0 1 2,1.732051"
       sodipodi:end="0"
       sodipodi:start="3.1415926"
       sodipodi:ry="2"
       sodipodi:rx="4"
       sodipodi:cy="31.00041"
       sodipodi:cx="51.995899"
       sodipodi:type="arc"
       id="path839"
       style="opacity:1;fill:none;fill-opacity:1;stroke:#000000;stroke-width:1;stroke-linecap:butt;stroke-linejoin:round;stroke-miterlimit:4;stroke-dasharray:none;stroke-dashoffset:0;stroke-opacity:1" />
    <path
       style="opacity:1;fill:none;fill-opacity:1;stroke:#000000;stroke-width:1;stroke-linecap:butt;stroke-linejoin:round;stroke-miterlimit:4;stroke-dasharray:none;stroke-dashoffset:0;stroke-opacity:1"
       id="path841"
       sodipodi:type="arc"
       sodipodi:cx="55.995899"
       sodipodi:cy="29.00041"
       sodipodi:rx="4"
       sodipodi:ry="2"
       sodipodi:start="3.1415926"
       sodipodi:end="0"
       d="m 51.995899,29.00041 a 4,2 0 0 1 2,-1.732051 4,2 0 0 1 4,0 4,2 0 0 1 2,1.732051"
       sodipodi:open="true" />
    <path
       style="opacity:1;fill:none;fill-opacity:1;stroke:#000000;stroke-width:1;stroke-linecap:butt;stroke-linejoin:round;stroke-miterlimit:4;stroke-dasharray:none;stroke-dashoffset:0;stroke-opacity:1"
       id="path843"
       sodipodi:type="arc"
       sodipodi:cx="59.995899"
       sodipodi:cy="31.00041"
       sodipodi:rx="4"
       sodipodi:ry="2"
       sodipodi:start="3.1415926"
       sodipodi:end="0"
       d="m 55.995899,31.00041 a 4,2 0 0 1 2,-1.732051 4,2 0 0 1 4,0 4,2 0 0 1 2,1.732051"
       sodipodi:open="true" />
    <path
       sodipodi:open="true"
       d="m 59.995903,29.00041 a 4,2 0 0 1 2,-1.732051 4,2 0 0 1 4,0 4,2 0 0 1 2,1.732051"
       sodipodi:end="0"
       sodipodi:start="3.1415926"
       sodipodi:ry="2"
       sodipodi:rx="4"
       sodipodi:cy="29.00041"
       sodipodi:cx="63.995903"
       sodipodi:type="arc"
       id="path845"
       style="opacity:1;fill:none;fill-opacity:1;stroke:#000000;stroke-width:1;stroke-linecap:butt;stroke-linejoin:round;stroke-miterlimit:4;stroke-dasharray:none;stroke-dashoffset:0;stroke-opacity:1" />
    <path
       sodipodi:open="true"
       d="m 63.995903,31.00041 a 4,2 0 0 1 2,-1.732051 4,2 0 0 1 4,0 4,2 0 0 1 2,1.732051"
       sodipodi:end="0"
       sodipodi:start="3.1415926"
       sodipodi:ry="2"
       sodipodi:rx="4"
       sodipodi:cy="31.00041"
       sodipodi:cx="67.995903"
       sodipodi:type="arc"
       id="path847"
       style="opacity:1;fill:none;fill-opacity:1;stroke:#000000;stroke-width:1;stroke-linecap:butt;stroke-linejoin:round;stroke-miterlimit:4;stroke-dasharray:none;stroke-dashoffset:0;stroke-opacity:1" />
    <path
       style="opacity:1;fill:none;fill-opacity:1;stroke:#000000;stroke-width:1;stroke-linecap:butt;stroke-linejoin:round;stroke-miterlimit:4;stroke-dasharray:none;stroke-dashoffset:0;stroke-opacity:1"
       id="path849"
       sodipodi:type="arc"
       sodipodi:cx="71.995903"
       sodipodi:cy="29.00041"
       sodipodi:rx="4"
       sodipodi:ry="2"
       sodipodi:start="3.1415926"
       sodipodi:end="0"
       d="m 67.995903,29.00041 a 4,2 0 0 1 2,-1.732051 4,2 0 0 1 4,0 4,2 0 0 1 2,1.732051"
       sodipodi:open="true" />
    <path
       style="opacity:1;fill:none;fill-opacity:1;stroke:#000000;stroke-width:1;stroke-linecap:butt;stroke-linejoin:round;stroke-miterlimit:4;stroke-dasharray:none;stroke-dashoffset:0;stroke-opacity:1"
       id="path851"
       sodipodi:type="arc"
       sodipodi:cx="75.995903"
       sodipodi:cy="31.00041"
       sodipodi:rx="4"
       sodipodi:ry="2"
       sodipodi:start="3.1415926"
       sodipodi:end="0"
       d="m 71.995903,31.00041 a 4,2 0 0 1 2,-1.732051 4,2 0 0 1 4,0 4,2 0 0 1 2,1.732051"
       sodipodi:open="true" />
    <path
       sodipodi:open="true"
       d="m 75.995903,29.00041 a 4,2 0 0 1 2,-1.732051 4,2 0 0 1 4,0 4,2 0 0 1 2,1.732051"
       sodipodi:end="0"
       sodipodi:start="3.1415926"
       sodipodi:ry="2"
       sodipodi:rx="4"
       sodipodi:cy="29.00041"
       sodipodi:cx="79.995903"
       sodipodi:type="arc"
       id="path853"
       style="opacity:1;fill:none;fill-opacity:1;stroke:#000000;stroke-width:1;stroke-linecap:butt;stroke-linejoin:round;stroke-miterlimit:4;stroke-dasharray:none;stroke-dashoffset:0;stroke-opacity:1" />
    <path
       sodipodi:open="true"
       d="m 39.995899,27.00041 a 4,2 0 0 1 2,-1.732051 4,2 0 0 1 4,0 4,2 0 0 1 2,1.732051"
       sodipodi:end="0"
       sodipodi:start="3.1415926"
       sodipodi:ry="2"
       sodipodi:rx="4"
       sodipodi:cy="27.00041"
       sodipodi:cx="43.995899"
       sodipodi:type="arc"
       id="path855"
       style="opacity:1;fill:none;fill-opacity:1;stroke:#000000;stroke-width:1;stroke-linecap:butt;stroke-linejoin:round;stroke-miterlimit:4;stroke-dasharray:none;stroke-dashoffset:0;stroke-opacity:1" />
    <path
       style="opacity:1;fill:none;fill-opacity:1;stroke:#000000;stroke-width:1;stroke-linecap:butt;stroke-linejoin:round;stroke-miterlimit:4;stroke-dasharray:none;stroke-dashoffset:0;stroke-opacity:1"
       id="path857"
       sodipodi:type="arc"
       sodipodi:cx="47.995899"
       sodipodi:cy="25.00041"
       sodipodi:rx="4"
       sodipodi:ry="2"
       sodipodi:start="3.1415926"
       sodipodi:end="0"
       d="m 43.995899,25.00041 a 4,2 0 0 1 2,-1.732051 4,2 0 0 1 4,0 4,2 0 0 1 2,1.732051"
       sodipodi:open="true" />
    <path
       style="opacity:1;fill:none;fill-opacity:1;stroke:#000000;stroke-width:1;stroke-linecap:butt;stroke-linejoin:round;stroke-miterlimit:4;stroke-dasharray:none;stroke-dashoffset:0;stroke-opacity:1"
       id="path859"
       sodipodi:type="arc"
       sodipodi:cx="51.995899"
       sodipodi:cy="27.00041"
       sodipodi:rx="4"
       sodipodi:ry="2"
       sodipodi:start="3.1415926"
       sodipodi:end="0"
       d="m 47.995899,27.00041 a 4,2 0 0 1 2,-1.732051 4,2 0 0 1 4,0 4,2 0 0 1 2,1.732051"
       sodipodi:open="true" />
    <path
       sodipodi:open="true"
       d="m 51.995899,25.00041 a 4,2 0 0 1 2,-1.732051 4,2 0 0 1 4,0 4,2 0 0 1 2,1.732051"
       sodipodi:end="0"
       sodipodi:start="3.1415926"
       sodipodi:ry="2"
       sodipodi:rx="4"
       sodipodi:cy="25.00041"
       sodipodi:cx="55.995899"
       sodipodi:type="arc"
       id="path861"
       style="opacity:1;fill:none;fill-opacity:1;stroke:#000000;stroke-width:1;stroke-linecap:butt;stroke-linejoin:round;stroke-miterlimit:4;stroke-dasharray:none;stroke-dashoffset:0;stroke-opacity:1" />
    <path
       sodipodi:open="true"
       d="m 55.995899,27.00041 a 4,2 0 0 1 2,-1.732051 4,2 0 0 1 4,0 4,2 0 0 1 2,1.732051"
       sodipodi:end="0"
       sodipodi:start="3.1415926"
       sodipodi:ry="2"
       sodipodi:rx="4"
       sodipodi:cy="27.00041"
       sodipodi:cx="59.995899"
       sodipodi:type="arc"
       id="path863"
       style="opacity:1;fill:none;fill-opacity:1;stroke:#000000;stroke-width:1;stroke-linecap:butt;stroke-linejoin:round;stroke-miterlimit:4;stroke-dasharray:none;stroke-dashoffset:0;stroke-opacity:1" />
    <path
       style="opacity:1;fill:none;fill-opacity:1;stroke:#000000;stroke-width:1;stroke-linecap:butt;stroke-linejoin:round;stroke-miterlimit:4;stroke-dasharray:none;stroke-dashoffset:0;stroke-opacity:1"
       id="path865"
       sodipodi:type="arc"
       sodipodi:cx="63.995903"
       sodipodi:cy="25.00041"
       sodipodi:rx="4"
       sodipodi:ry="2"
       sodipodi:start="3.1415926"
       sodipodi:end="0"
       d="m 59.995903,25.00041 a 4,2 0 0 1 2,-1.732051 4,2 0 0 1 4,0 4,2 0 0 1 2,1.732051"
       sodipodi:open="true" />
    <path
       style="opacity:1;fill:none;fill-opacity:1;stroke:#000000;stroke-width:1;stroke-linecap:butt;stroke-linejoin:round;stroke-miterlimit:4;stroke-dasharray:none;stroke-dashoffset:0;stroke-opacity:1"
       id="path867"
       sodipodi:type="arc"
       sodipodi:cx="67.995903"
       sodipodi:cy="27.00041"
       sodipodi:rx="4"
       sodipodi:ry="2"
       sodipodi:start="3.1415926"
       sodipodi:end="0"
       d="m 63.995903,27.00041 a 4,2 0 0 1 2,-1.732051 4,2 0 0 1 4,0 4,2 0 0 1 2,1.732051"
       sodipodi:open="true" />
    <path
       sodipodi:open="true"
       d="m 67.995903,25.00041 a 4,2 0 0 1 2,-1.732051 4,2 0 0 1 4,0 4,2 0 0 1 2,1.732051"
       sodipodi:end="0"
       sodipodi:start="3.1415926"
       sodipodi:ry="2"
       sodipodi:rx="4"
       sodipodi:cy="25.00041"
       sodipodi:cx="71.995903"
       sodipodi:type="arc"
       id="path869"
       style="opacity:1;fill:none;fill-opacity:1;stroke:#000000;stroke-width:1;stroke-linecap:butt;stroke-linejoin:round;stroke-miterlimit:4;stroke-dasharray:none;stroke-dashoffset:0;stroke-opacity:1" />
    <path
       sodipodi:open="true"
       d="m 71.995903,27.00041 a 4,2 0 0 1 2,-1.732051 4,2 0 0 1 4,0 4,2 0 0 1 2,1.732051"
       sodipodi:end="0"
       sodipodi:start="3.1415926"
       sodipodi:ry="2"
       sodipodi:rx="4"
       sodipodi:cy="27.00041"
       sodipodi:cx="75.995903"
       sodipodi:type="arc"
       id="path871"
       style="opacity:1;fill:none;fill-opacity:1;stroke:#000000;stroke-width:1;stroke-linecap:butt;stroke-linejoin:round;stroke-miterlimit:4;stroke-dasharray:none;stroke-dashoffset:0;stroke-opacity:1" />
    <path
       style="opacity:1;fill:none;fill-opacity:1;stroke:#000000;stroke-width:1;stroke-linecap:butt;stroke-linejoin:round;stroke-miterlimit:4;stroke-dasharray:none;stroke-dashoffset:0;stroke-opacity:1"
       id="path873"
       sodipodi:type="arc"
       sodipodi:cx="79.995903"
       sodipodi:cy="25.00041"
       sodipodi:rx="4"
       sodipodi:ry="2"
       sodipodi:start="3.1415926"
       sodipodi:end="0"
       d="m 75.995903,25.00041 a 4,2 0 0 1 2,-1.732051 4,2 0 0 1 4,0 4,2 0 0 1 2,1.732051"
       sodipodi:open="true" />
    <path
       style="opacity:1;fill:none;fill-opacity:1;stroke:#000000;stroke-width:1;stroke-linecap:butt;stroke-linejoin:round;stroke-miterlimit:4;stroke-dasharray:none;stroke-dashoffset:0;stroke-opacity:1"
       id="path875"
       sodipodi:type="arc"
       sodipodi:cx="43.995899"
       sodipodi:cy="23.00041"
       sodipodi:rx="4"
       sodipodi:ry="2"
       sodipodi:start="3.1415926"
       sodipodi:end="0"
       d="m 39.995899,23.00041 a 4,2 0 0 1 2,-1.732051 4,2 0 0 1 4,0 4,2 0 0 1 2,1.732051"
       sodipodi:open="true" />
    <path
       sodipodi:open="true"
       d="m 43.995899,21.00041 a 4,2 0 0 1 2,-1.732051 4,2 0 0 1 4,0 4,2 0 0 1 2,1.732051"
       sodipodi:end="0"
       sodipodi:start="3.1415926"
       sodipodi:ry="2"
       sodipodi:rx="4"
       sodipodi:cy="21.00041"
       sodipodi:cx="47.995899"
       sodipodi:type="arc"
       id="path877"
       style="opacity:1;fill:none;fill-opacity:1;stroke:#000000;stroke-width:1;stroke-linecap:butt;stroke-linejoin:round;stroke-miterlimit:4;stroke-dasharray:none;stroke-dashoffset:0;stroke-opacity:1" />
    <path
       sodipodi:open="true"
       d="m 47.995899,23.00041 a 4,2 0 0 1 2,-1.732051 4,2 0 0 1 4,0 4,2 0 0 1 2,1.732051"
       sodipodi:end="0"
       sodipodi:start="3.1415926"
       sodipodi:ry="2"
       sodipodi:rx="4"
       sodipodi:cy="23.00041"
       sodipodi:cx="51.995899"
       sodipodi:type="arc"
       id="path879"
       style="opacity:1;fill:none;fill-opacity:1;stroke:#000000;stroke-width:1;stroke-linecap:butt;stroke-linejoin:round;stroke-miterlimit:4;stroke-dasharray:none;stroke-dashoffset:0;stroke-opacity:1" />
    <path
       style="opacity:1;fill:none;fill-opacity:1;stroke:#000000;stroke-width:1;stroke-linecap:butt;stroke-linejoin:round;stroke-miterlimit:4;stroke-dasharray:none;stroke-dashoffset:0;stroke-opacity:1"
       id="path881"
       sodipodi:type="arc"
       sodipodi:cx="55.995899"
       sodipodi:cy="21.00041"
       sodipodi:rx="4"
       sodipodi:ry="2"
       sodipodi:start="3.1415926"
       sodipodi:end="0"
       d="m 51.995899,21.00041 a 4,2 0 0 1 2,-1.732051 4,2 0 0 1 4,0 4,2 0 0 1 2,1.732051"
       sodipodi:open="true" />
    <path
       style="opacity:1;fill:none;fill-opacity:1;stroke:#000000;stroke-width:1;stroke-linecap:butt;stroke-linejoin:round;stroke-miterlimit:4;stroke-dasharray:none;stroke-dashoffset:0;stroke-opacity:1"
       id="path883"
       sodipodi:type="arc"
       sodipodi:cx="59.995899"
       sodipodi:cy="23.00041"
       sodipodi:rx="4"
       sodipodi:ry="2"
       sodipodi:start="3.1415926"
       sodipodi:end="0"
       d="m 55.995899,23.00041 a 4,2 0 0 1 2,-1.732051 4,2 0 0 1 4,0 4,2 0 0 1 2,1.732051"
       sodipodi:open="true" />
    <path
       sodipodi:open="true"
       d="m 59.995903,21.00041 a 4,2 0 0 1 2,-1.732051 4,2 0 0 1 4,0 4,2 0 0 1 2,1.732051"
       sodipodi:end="0"
       sodipodi:start="3.1415926"
       sodipodi:ry="2"
       sodipodi:rx="4"
       sodipodi:cy="21.00041"
       sodipodi:cx="63.995903"
       sodipodi:type="arc"
       id="path885"
       style="opacity:1;fill:none;fill-opacity:1;stroke:#000000;stroke-width:1;stroke-linecap:butt;stroke-linejoin:round;stroke-miterlimit:4;stroke-dasharray:none;stroke-dashoffset:0;stroke-opacity:1" />
    <path
       sodipodi:open="true"
       d="m 63.995903,23.00041 a 4,2 0 0 1 2,-1.732051 4,2 0 0 1 4,0 4,2 0 0 1 2,1.732051"
       sodipodi:end="0"
       sodipodi:start="3.1415926"
       sodipodi:ry="2"
       sodipodi:rx="4"
       sodipodi:cy="23.00041"
       sodipodi:cx="67.995903"
       sodipodi:type="arc"
       id="path887"
       style="opacity:1;fill:none;fill-opacity:1;stroke:#000000;stroke-width:1;stroke-linecap:butt;stroke-linejoin:round;stroke-miterlimit:4;stroke-dasharray:none;stroke-dashoffset:0;stroke-opacity:1" />
    <path
       style="opacity:1;fill:none;fill-opacity:1;stroke:#000000;stroke-width:1;stroke-linecap:butt;stroke-linejoin:round;stroke-miterlimit:4;stroke-dasharray:none;stroke-dashoffset:0;stroke-opacity:1"
       id="path889"
       sodipodi:type="arc"
       sodipodi:cx="71.995903"
       sodipodi:cy="21.00041"
       sodipodi:rx="4"
       sodipodi:ry="2"
       sodipodi:start="3.1415926"
       sodipodi:end="0"
       d="m 67.995903,21.00041 a 4,2 0 0 1 2,-1.732051 4,2 0 0 1 4,0 4,2 0 0 1 2,1.732051"
       sodipodi:open="true" />
    <path
       style="opacity:1;fill:none;fill-opacity:1;stroke:#000000;stroke-width:1;stroke-linecap:butt;stroke-linejoin:round;stroke-miterlimit:4;stroke-dasharray:none;stroke-dashoffset:0;stroke-opacity:1"
       id="path891"
       sodipodi:type="arc"
       sodipodi:cx="75.995903"
       sodipodi:cy="23.00041"
       sodipodi:rx="4"
       sodipodi:ry="2"
       sodipodi:start="3.1415926"
       sodipodi:end="0"
       d="m 71.995903,23.00041 a 4,2 0 0 1 2,-1.732051 4,2 0 0 1 4,0 4,2 0 0 1 2,1.732051"
       sodipodi:open="true" />
    <path
       sodipodi:open="true"
       d="m 75.995903,21.00041 a 4,2 0 0 1 2,-1.732051 4,2 0 0 1 4,0 4,2 0 0 1 2,1.732051"
       sodipodi:end="0"
       sodipodi:start="3.1415926"
       sodipodi:ry="2"
       sodipodi:rx="4"
       sodipodi:cy="21.00041"
       sodipodi:cx="79.995903"
       sodipodi:type="arc"
       id="path893"
       style="opacity:1;fill:none;fill-opacity:1;stroke:#000000;stroke-width:1;stroke-linecap:butt;stroke-linejoin:round;stroke-miterlimit:4;stroke-dasharray:none;stroke-dashoffset:0;stroke-opacity:1" />
  </g>
</svg>
