<?xml version="1.0" encoding="UTF-8" standalone="no"?>
<!-- Created with Inkscape (http://www.inkscape.org/) -->

<svg
   xmlns:dc="http://purl.org/dc/elements/1.1/"
   xmlns:cc="http://creativecommons.org/ns#"
   xmlns:rdf="http://www.w3.org/1999/02/22-rdf-syntax-ns#"
   xmlns:svg="http://www.w3.org/2000/svg"
   xmlns="http://www.w3.org/2000/svg"
   xmlns:sodipodi="http://sodipodi.sourceforge.net/DTD/sodipodi-0.dtd"
   xmlns:inkscape="http://www.inkscape.org/namespaces/inkscape"
   width="210mm"
   height="297mm"
   viewBox="0 0 210 297"
   version="1.1"
   id="svg5664"
   inkscape:version="0.92.3 (2405546, 2018-03-11)"
   sodipodi:docname="Hai.svg">
  <defs
     id="defs5658" />
  <sodipodi:namedview
     id="base"
     pagecolor="#ffffff"
     bordercolor="#666666"
     borderopacity="1.0"
     inkscape:pageopacity="0.0"
     inkscape:pageshadow="2"
     inkscape:zoom="3.959798"
     inkscape:cx="94.851362"
     inkscape:cy="1044.7502"
     inkscape:document-units="mm"
     inkscape:current-layer="layer1"
     showgrid="false"
     inkscape:window-width="1920"
     inkscape:window-height="1001"
     inkscape:window-x="-9"
     inkscape:window-y="-9"
     inkscape:window-maximized="1"
     showguides="true"
     inkscape:guide-bbox="true" />
  <metadata
     id="metadata5661">
    <rdf:RDF>
      <cc:Work
         rdf:about="">
        <dc:format>image/svg+xml</dc:format>
        <dc:type
           rdf:resource="http://purl.org/dc/dcmitype/StillImage" />
        <dc:title />
      </cc:Work>
    </rdf:RDF>
  </metadata>
  <g
     inkscape:label="Ebene 1"
     inkscape:groupmode="layer"
     id="layer1">
    <path
       inkscape:connector-curvature="0"
       style="fill:none;stroke:#000000;stroke-width:0.1;stroke-miterlimit:4;stroke-dasharray:none"
       d="M 15.049585,4.9115717 A 13.500003,13.500003 0 0 0 1.9346226,18.41514 a 13.500003,13.500003 0 0 0 0.419614,3.280937 c 0.372901,-0.0525 0.754229,-0.0801 1.135848,-0.0801 0.73365,0 1.46699,0.09713 2.13837,0.290938 0.67137,0.193809 1.234382,0.47051 1.654162,0.834057 0.0744,0.06439 0.14256,0.13389 0.20774,0.205156 0.0653,-0.07136 0.133816,-0.14069 0.208256,-0.205156 0.41978,-0.363547 0.981242,-0.640248 1.652612,-0.834057 0.6713804,-0.193805 1.4047124,-0.290938 2.1383724,-0.290938 0.296728,0 0.592617,0.01991 0.885217,0.05168 0.11629,-0.617347 0.143751,-1.343451 0.15141,-2.205033 0.01511,-1.69965 -0.165298,-2.705206 -0.543118,-3.312976 -0.377769,-0.607768 -0.396182,-1.001483 -0.03307,-1.074353 0.0382,-0.0077 0.0851,-0.009 0.13901,-0.0047 0.80909,0.06598 3.279023,1.431436 4.252454,2.335775 1.565148,1.454067 2.506166,2.67735 3.458187,4.219897 0.62906,0.02355 1.252188,0.114144 1.828829,0.280603 0.671369,0.193809 1.234382,0.470511 1.654162,0.834058 0.0743,0.06439 0.14256,0.133889 0.20774,0.205155 0.0653,-0.07136 0.133815,-0.14069 0.208256,-0.205155 0.419788,-0.363547 0.981231,-0.640249 1.652611,-0.834058 0.67137,-0.193805 1.40471,-0.290938 2.138371,-0.290938 0.350419,0 0.700691,0.02343 1.044382,0.0677 a 13.500003,13.500003 0 0 0 0.400492,-3.268534 13.500003,13.500003 0 0 0 -0.842844,-4.656047 l -0.869714,-0.488342 -1.136365,1.792139 -1.312063,-1.667599 -1.735812,1.221114 -0.573609,-2.043286 -2.07119,0.464055 0.251663,-2.107365 -2.09083,-0.363802 1.039215,-1.8505333 -1.792655,-1.135848 1.668113,-1.312065 -0.646988,-0.919324 a 13.500003,13.500003 0 0 0 -3.771866,-0.436623 z"
       id="path1698" />
    <path
       id="path1700"
       d="m 3.4903096,22.622857 c -0.28836,0 -0.57561,0.0192 -0.8568,0.05168 a 13.500003,13.500003 0 0 0 0.93896,2.191081 c 0.0415,-0.04212 0.0814,-0.08538 0.12661,-0.124539 0.41979,-0.363549 0.98073,-0.64025 1.65209,-0.83406 0.45403,-0.131061 0.93765,-0.213794 1.42937,-0.256315 -0.0439,-0.05 -0.0931,-0.1007 -0.15399,-0.153479 -0.27081,-0.23453 -0.70915,-0.465445 -1.27538,-0.628901 -0.56622,-0.163458 -1.21332,-0.245464 -1.86086,-0.245464 z"
       style="fill:none;stroke:#000000;stroke-width:0.1;stroke-miterlimit:4;stroke-dasharray:none"
       inkscape:connector-curvature="0" />
    <path
       id="path1702"
       d="m 27.48988,22.622857 c -0.64755,0 -1.29516,0.08201 -1.86139,0.245464 -0.56623,0.163456 -1.00457,0.394371 -1.27537,0.628901 -0.0609,0.05277 -0.10963,0.103489 -0.15348,0.153479 0.49172,0.04252 0.97482,0.125251 1.42885,0.256315 0.67137,0.19381 1.234899,0.470511 1.654679,0.83406 0.015,0.01299 0.0273,0.02798 0.0419,0.04134 a 13.500003,13.500003 0 0 0 0.914151,-2.118218 c -0.247089,-0.02478 -0.49743,-0.04134 -0.7493,-0.04134 z"
       style="fill:none;stroke:#000000;stroke-width:0.1;stroke-miterlimit:4;stroke-dasharray:none"
       inkscape:connector-curvature="0" />
    <path
       id="path1704"
       d="m 20.42881,22.682285 c 0.23252,0.403152 0.47333,0.828251 0.7307,1.288811 0.0645,-0.0209 0.12499,-0.04481 0.19172,-0.06408 0.45408,-0.131074 0.93759,-0.213799 1.42937,-0.256315 -0.0439,-0.05 -0.0931,-0.1007 -0.15399,-0.153479 -0.27082,-0.23453 -0.70915,-0.465445 -1.27538,-0.628901 -0.28971,-0.08363 -0.60102,-0.145194 -0.92242,-0.186036 z"
       style="fill:none;stroke:#000000;stroke-width:0.1;stroke-miterlimit:4;stroke-dasharray:none"
       inkscape:connector-curvature="0" />
    <path
       id="path1706"
       d="m 7.4900596,24.622735 c -0.64755,0 -1.29515,0.082 -1.86138,0.245462 -0.56623,0.163457 -1.00457,0.394375 -1.27538,0.628904 -0.0609,0.05278 -0.11014,0.103479 -0.15399,0.15348 0.49177,0.04252 0.97529,0.125754 1.42937,0.256831 0.67137,0.19381 1.23438,0.470511 1.65416,0.834056 0.0743,0.06434 0.14261,0.133432 0.20774,0.20464 0.0653,-0.0713 0.13387,-0.140224 0.20826,-0.20464 0.41978,-0.363545 0.98124,-0.640246 1.65261,-0.834056 0.45407,-0.131077 0.9375904,-0.214315 1.4293704,-0.256831 -0.0439,-0.05 -0.0931,-0.100703 -0.154,-0.15348 -0.27081,-0.234529 -0.7091404,-0.465447 -1.2753704,-0.628904 -0.56623,-0.163457 -1.21384,-0.245462 -1.86139,-0.245462 z"
       style="fill:none;stroke:#000000;stroke-width:0.1;stroke-miterlimit:4;stroke-dasharray:none"
       inkscape:connector-curvature="0" />
    <path
       id="path1708"
       d="m 15.49009,24.622735 c -0.64755,0 -1.29515,0.082 -1.86139,0.245462 -0.56622,0.163457 -1.00456,0.394375 -1.27537,0.628904 -0.0609,0.05278 -0.11014,0.103479 -0.15399,0.15348 0.49177,0.04252 0.97529,0.125754 1.42936,0.256831 0.67138,0.19381 1.23439,0.470511 1.65417,0.834056 0.0744,0.06442 0.14306,0.13334 0.20825,0.20464 0.0652,-0.07121 0.13345,-0.140301 0.20774,-0.20464 0.41979,-0.363545 0.98125,-0.640246 1.65262,-0.834056 0.45407,-0.131077 0.93759,-0.214315 1.42937,-0.256831 -0.0439,-0.05 -0.0931,-0.100703 -0.154,-0.15348 -0.27081,-0.234529 -0.70914,-0.465447 -1.27537,-0.628904 -0.56623,-0.163457 -1.21384,-0.245462 -1.86139,-0.245462 z"
       style="fill:none;stroke:#000000;stroke-width:0.1;stroke-miterlimit:4;stroke-dasharray:none"
       inkscape:connector-curvature="0" />
    <path
       id="path1710"
       d="m 23.49012,24.622735 c -0.64755,0 -1.29515,0.082 -1.86139,0.245462 -0.56623,0.163457 -1.00456,0.394375 -1.27537,0.628904 -0.0609,0.05278 -0.11014,0.103479 -0.154,0.15348 0.49178,0.04252 0.9753,0.125754 1.42937,0.256831 0.67137,0.19381 1.23439,0.470511 1.65417,0.834056 0.0743,0.06434 0.1426,0.133432 0.20774,0.20464 0.0653,-0.0713 0.13387,-0.140224 0.20825,-0.20464 0.41979,-0.363545 0.98124,-0.640246 1.65262,-0.834056 0.45418,-0.131109 0.93746,-0.214329 1.42936,-0.256831 -0.0439,-0.05 -0.0931,-0.100703 -0.15399,-0.15348 -0.27081,-0.234529 -0.70915,-0.465447 -1.27537,-0.628904 -0.56624,-0.163457 -1.21384,-0.245462 -1.86139,-0.245462 z"
       style="fill:none;stroke:#000000;stroke-width:0.1;stroke-miterlimit:4;stroke-dasharray:none"
       inkscape:connector-curvature="0" />
    <path
       id="path1712"
       d="m 11.48982,26.623131 c -0.64755,0 -1.29464,0.08149 -1.8608704,0.244946 -0.56623,0.163457 -1.00456,0.394372 -1.27538,0.628901 -0.0607,0.05261 -0.10971,0.10363 -0.15347,0.15348 0.49155,0.04254 0.97498,0.125812 1.42885,0.256831 0.6713704,0.19381 1.2343804,0.470511 1.6541604,0.834059 0.0743,0.06437 0.14258,0.133392 0.20774,0.204637 0.0653,-0.0713 0.13388,-0.140222 0.20826,-0.204637 0.41979,-0.363548 0.98072,-0.640249 1.65209,-0.834059 0.45392,-0.131033 0.93725,-0.2143 1.42886,-0.256831 -0.0438,-0.04985 -0.0927,-0.10087 -0.15348,-0.15348 -0.27081,-0.234529 -0.70915,-0.465444 -1.27538,-0.628901 -0.56623,-0.163457 -1.21384,-0.244946 -1.86138,-0.244946 z"
       style="fill:none;stroke:#000000;stroke-width:0.1;stroke-miterlimit:4;stroke-dasharray:none"
       inkscape:connector-curvature="0" />
    <path
       id="path1714"
       d="m 19.48985,26.623131 c -0.64755,0 -1.29464,0.08149 -1.86087,0.244946 -0.56623,0.163457 -1.00457,0.394372 -1.27538,0.628901 -0.0607,0.05261 -0.10971,0.10363 -0.15347,0.15348 0.49154,0.04254 0.97498,0.125812 1.42885,0.256831 0.67137,0.19381 1.23438,0.470511 1.65416,0.834059 0.0743,0.06437 0.14258,0.133392 0.20774,0.204637 0.0653,-0.0713 0.13388,-0.140222 0.20825,-0.204637 0.4198,-0.363548 0.98073,-0.640249 1.6521,-0.834059 0.45392,-0.131033 0.93725,-0.2143 1.42886,-0.256831 -0.0438,-0.04985 -0.0927,-0.10087 -0.15348,-0.15348 C 22.35579,27.262449 21.91746,27.031534 21.35123,26.868077 20.785,26.70462 20.13739,26.623131 19.48985,26.623131 Z"
       style="fill:none;stroke:#000000;stroke-width:0.1;stroke-miterlimit:4;stroke-dasharray:none"
       inkscape:connector-curvature="0" />
    <path
       id="path1716"
       d="m 4.8240696,26.74612 a 13.500003,13.500003 0 0 0 0.9245,1.061434 c 0.3347,-0.07439 0.68069,-0.126743 1.03146,-0.157096 -0.0438,-0.04985 -0.0927,-0.10087 -0.15348,-0.15348 -0.27081,-0.234529 -0.70915,-0.465444 -1.27538,-0.628901 -0.16868,-0.0487 -0.34618,-0.0878 -0.5271,-0.121957 z"
       style="fill:none;stroke:#000000;stroke-width:0.1;stroke-miterlimit:4;stroke-dasharray:none"
       inkscape:connector-curvature="0" />
    <path
       id="path1718"
       d="m 26.03053,26.769374 c -0.1373,0.02885 -0.2723,0.06125 -0.40204,0.0987 -0.56623,0.163457 -1.00457,0.394372 -1.27537,0.628902 -0.0607,0.0526 -0.1092,0.103637 -0.15297,0.153479 0.31958,0.02765 0.63436,0.07447 0.94103,0.138494 a 13.500003,13.500003 0 0 0 0.88935,-1.019578 z"
       style="fill:none;stroke:#000000;stroke-width:0.1;stroke-miterlimit:4;stroke-dasharray:none"
       inkscape:connector-curvature="0" />
    <path
       id="path1720"
       d="m 7.4900596,28.623008 c -0.27624,0 -0.5512,0.01783 -0.82114,0.04754 a 13.500003,13.500003 0 0 0 2.06809,1.455208 c 0.19397,-0.08068 0.39613,-0.155572 0.61444,-0.21859 0.45392,-0.131033 0.9372504,-0.214302 1.4288504,-0.256834 -0.0438,-0.04985 -0.0927,-0.10087 -0.15348,-0.153477 -0.27081,-0.234529 -0.7091404,-0.465447 -1.2753704,-0.628904 -0.56623,-0.163457 -1.21384,-0.244946 -1.86139,-0.244946 z"
       style="fill:none;stroke:#000000;stroke-width:0.1;stroke-miterlimit:4;stroke-dasharray:none"
       inkscape:connector-curvature="0" />
    <path
       id="path1722"
       d="m 15.49009,28.623008 c -0.64755,0 -1.29515,0.08149 -1.86139,0.244946 -0.56622,0.163457 -1.00456,0.394374 -1.27537,0.628904 -0.0607,0.05261 -0.10971,0.103629 -0.15348,0.153477 0.4916,0.04253 0.97494,0.125798 1.42885,0.256833 0.67138,0.193808 1.23439,0.470509 1.65417,0.834057 0.0744,0.06447 0.14301,0.133797 0.20825,0.205155 0.0653,-0.07126 0.13339,-0.140766 0.20774,-0.205155 0.41979,-0.363548 0.98125,-0.640249 1.65262,-0.834057 0.45392,-0.131032 0.93724,-0.214302 1.42885,-0.256833 -0.0438,-0.04985 -0.0927,-0.10087 -0.15348,-0.153477 -0.27081,-0.23453 -0.70914,-0.465447 -1.27537,-0.628904 -0.56623,-0.163457 -1.21384,-0.244946 -1.86139,-0.244946 z"
       style="fill:none;stroke:#000000;stroke-width:0.1;stroke-miterlimit:4;stroke-dasharray:none"
       inkscape:connector-curvature="0" />
    <path
       id="path1724"
       d="m 23.49012,28.623008 c -0.64755,0 -1.29515,0.08149 -1.86139,0.244946 -0.56623,0.163457 -1.00456,0.394374 -1.27537,0.628904 -0.0607,0.05261 -0.10971,0.103629 -0.15348,0.153477 0.4916,0.04253 0.97493,0.125798 1.42885,0.256833 0.20083,0.05797 0.38846,0.125521 0.56896,0.198438 a 13.500003,13.500003 0 0 0 2.02107,-1.443842 c -0.24046,-0.02334 -0.4838,-0.03876 -0.72864,-0.03876 z"
       style="fill:none;stroke:#000000;stroke-width:0.1;stroke-miterlimit:4;stroke-dasharray:none"
       inkscape:connector-curvature="0" />
    <path
       id="path1726"
       d="m 11.48982,30.622885 c -0.5034,0 -1.00512,0.051 -1.4702,0.149862 a 13.500003,13.500003 0 0 0 3.74551,1.030944 c 0.32959,-0.07242 0.66987,-0.123624 1.01493,-0.153477 -0.0438,-0.04984 -0.0927,-0.100362 -0.15348,-0.152963 -0.27081,-0.23453 -0.70915,-0.465445 -1.27538,-0.628902 -0.56623,-0.163457 -1.21384,-0.245464 -1.86138,-0.245464 z"
       style="fill:none;stroke:#000000;stroke-width:0.1;stroke-miterlimit:4;stroke-dasharray:none"
       inkscape:connector-curvature="0" />
    <path
       id="path1728"
       d="m 19.48985,30.622885 c -0.64755,0 -1.29464,0.08201 -1.86087,0.245464 -0.56623,0.163457 -1.00457,0.394372 -1.27538,0.628902 -0.0607,0.0526 -0.10971,0.103121 -0.15347,0.152963 0.34535,0.02989 0.68604,0.08094 1.01595,0.153477 a 13.500003,13.500003 0 0 0 3.68815,-1.044379 c -0.44907,-0.09092 -0.93164,-0.136427 -1.41438,-0.136427 z"
       style="fill:none;stroke:#000000;stroke-width:0.1;stroke-miterlimit:4;stroke-dasharray:none"
       inkscape:connector-curvature="0" />
    <path
       inkscape:connector-curvature="0"
       d="m 16.18482,2.6652447 a 0.75000009,0.75000009 0 1 0 -1.5,0 0.75000009,0.75000009 0 1 0 1.5,0 z"
       style="fill:none;stroke:#000000;stroke-width:0.1;stroke-miterlimit:4;stroke-dasharray:none"
       id="path1730" />
    <path
       inkscape:connector-curvature="0"
       d="m 18.24714,3.6812447 a 15,15 0 1 1 -5.62465,0 1.0000001,1.0000001 0 0 0 0.81245,-0.99351 2,2 0 1 1 3.99975,0 1.0000001,1.0000001 0 0 0 0.81245,0.99351 z"
       style="fill:none;stroke:#000000;stroke-width:0.1;stroke-miterlimit:4;stroke-dasharray:none"
       id="path1732" />
    <path
       id="path1734"
       d="m 11.48982,22.622857 c -0.64755,0 -1.29464,0.08201 -1.8608704,0.245464 -0.56623,0.163456 -1.00456,0.394371 -1.27538,0.628901 -0.0609,0.05278 -0.11013,0.103481 -0.15399,0.153479 0.49172,0.04252 0.97534,0.125251 1.42937,0.256315 0.22598,0.06524 0.4344704,0.143738 0.6345904,0.227894 0.48943,-0.202936 1.08652,-0.518853 1.45366,-0.955498 0.13775,-0.163838 0.25145,-0.34118 0.34623,-0.532268 -0.18997,-0.01439 -0.38152,-0.02429 -0.57361,-0.02429 z"
       style="fill:none;stroke:#000000;stroke-width:0.1;stroke-miterlimit:4;stroke-dasharray:none"
       inkscape:connector-curvature="0" />
    <path
       style="fill:none;stroke:#ff0000;stroke-width:0.1;stroke-miterlimit:4;stroke-dasharray:none;stroke-opacity:1"
       d="m 10.254531,24.13107 c 0.3982,0.166587 0.747746,0.367279 1.028358,0.610298 0.0744,0.06442 0.143058,0.13334 0.208256,0.20464 0.0652,-0.07121 0.133451,-0.140301 0.20774,-0.20464 0.419791,-0.363545 0.981242,-0.640246 1.652612,-0.834056 0.45407,-0.131078 0.947192,-0.213857 1.429372,-0.256832 0.470799,-0.04196 0.9472,-0.04196 1.418,0 0.482181,0.04298 0.975301,0.125754 1.429371,0.256832 0.67137,0.19381 1.234382,0.470511 1.654162,0.834056 0.0744,0.06442 0.143055,0.13334 0.208256,0.20464 0.0652,-0.07121 0.133448,-0.140301 0.20774,-0.20464 0.382546,-0.33129 0.887754,-0.58665 1.481564,-0.776695"
       id="path1736"
       inkscape:connector-curvature="0"
       sodipodi:nodetypes="cccccccccccc" />
  </g>
</svg>
