<?xml version="1.0" encoding="UTF-8" standalone="no"?>
<!-- Created with Inkscape (http://www.inkscape.org/) -->

<svg
   xmlns:dc="http://purl.org/dc/elements/1.1/"
   xmlns:cc="http://creativecommons.org/ns#"
   xmlns:rdf="http://www.w3.org/1999/02/22-rdf-syntax-ns#"
   xmlns:svg="http://www.w3.org/2000/svg"
   xmlns="http://www.w3.org/2000/svg"
   xmlns:sodipodi="http://sodipodi.sourceforge.net/DTD/sodipodi-0.dtd"
   xmlns:inkscape="http://www.inkscape.org/namespaces/inkscape"
   width="210mm"
   height="297mm"
   viewBox="0 0 210 297"
   version="1.1"
   id="svg4193"
   inkscape:version="0.92.2 (5c3e80d, 2017-08-06)"
   sodipodi:docname="Front_Kerf02_Width3_2.svg">
  <defs
     id="defs4187" />
  <sodipodi:namedview
     id="base"
     pagecolor="#ffffff"
     bordercolor="#666666"
     borderopacity="1.0"
     inkscape:pageopacity="0.0"
     inkscape:pageshadow="2"
     inkscape:zoom="1.4"
     inkscape:cx="159.31272"
     inkscape:cy="958.07179"
     inkscape:document-units="mm"
     inkscape:current-layer="layer1"
     showgrid="false"
     inkscape:window-width="1920"
     inkscape:window-height="1001"
     inkscape:window-x="-9"
     inkscape:window-y="-9"
     inkscape:window-maximized="1" />
  <metadata
     id="metadata4190">
    <rdf:RDF>
      <cc:Work
         rdf:about="">
        <dc:format>image/svg+xml</dc:format>
        <dc:type
           rdf:resource="http://purl.org/dc/dcmitype/StillImage" />
        <dc:title></dc:title>
      </cc:Work>
    </rdf:RDF>
  </metadata>
  <g
     inkscape:label="Ebene 1"
     inkscape:groupmode="layer"
     id="layer1">
    <path
       inkscape:connector-curvature="0"
       id="path3587"
       style="fill:none;stroke:#00ff00;stroke-width:0.26458332"
       d="M 12.681376,1.1166547 Z M 103.74337,48.801655 Z M 2.7833758,3.1996567 l 0.008,-0.005 0.101,-0.054 0.009,-0.004 0.255,-0.105 0.008,-0.004 0.322,-0.099 0.006,-0.0021 0.387,-0.096 0.004,-0.0011 0.449,-0.092 0.003,-0.0011 0.509,-0.088 h 0.003 l 0.565001,-0.084 h 0.0021 l 0.618998,-0.08 h 0.0021 l 0.671002,-0.075 0.0011,-0.0011 1.484,-0.139999 h 0.0021 l 1.655992,-0.123985 h 0.0011 l 1.8049992,-0.11 h 0.0011 l 0.568,-0.028 1.365999,-0.068 h 0.0011 l 2.038001,-0.081 h 0.0011 l 2.122001,-0.069 h 0.0011 l 2.183998,-0.056 h 0.0011 l 2.224,-0.043 2.242,-0.031 v 0 l 2.237002,-0.02 v 0 l 2.210998,-0.009 h 0.0011 l 2.162001,0.0011 v 0 l 2.091999,0.01101 h 0.0011 l 1.999001,0.02101 h 0.0011 l 1.884,0.03 h 0.0011 l 1.748999,0.038 v 0 l 1.59,0.046 h 0.0011 l 1.409999,0.054 h 0.0011 l 1.207001,0.061 h 0.0011 l 1.836999,0.116999 h 0.0011 l 1.681001,0.127 h 0.0011 l 1.534999,0.137001 0.0011,0.0011 1.397,0.146002 h 0.0021 l 1.268,0.155999 h 0.0021 l 1.148001,0.164999 h 0.003 l 1.037,0.173001 0.003,0.0011 0.933998,0.182001 h 0.003 l 0.842002,0.19 0.003,0.0011 0.757002,0.197998 0.004,0.0011 0.682001,0.206 0.003,0.0021 0.615001,0.213 0.004,0.0011 0.556998,0.221001 0.004,0.0021 0.508,0.226999 0.004,0.0011 0.468001,0.233 0.003,0.0021 0.436999,0.240001 0.003,0.0021 0.414002,0.246002 0.0021,0.0011 0.401003,0.252 0.0011,0.0011 0.396002,0.257 v 0 l 0.4,0.262998 0.411998,0.267002 0.433002,0.270999 0.463999,0.275 0.503,0.280001 0.306001,0.158999 0.307999,0.152 0.311002,0.145 0.312999,0.138001 0.315,0.129998 0.318,0.123002 0.32,0.116999 0.322998,0.108 0.324001,0.102 0.327001,0.094 0.328999,0.087 0.332002,0.079 0.333999,0.072 0.336,0.066 0.339,0.057 0.341,0.051 0.342998,0.043 0.346001,0.035 0.348001,0.029 0.349999,0.02201 0.353002,0.014 0.354999,0.007 0.357,-0.0011 0.361,-0.008 h 0.006 l 0.360003,0.01199 0.357999,0.005 0.355,-0.003 0.352999,-0.01101 0.350001,-0.01701 0.347999,-0.025 0.346001,-0.032 0.344,-0.039 0.341998,-0.047 0.339,-0.055 0.337,-0.06 0.335002,-0.069 0.331999,-0.076 0.329999,-0.084 0.328002,-0.09 0.325998,-0.097 0.323001,-0.106 0.322,-0.112001 0.319001,-0.119999 0.315999,-0.127 0.315,-0.135001 0.311999,-0.140999 0.310002,-0.149 0.307995,-0.156999 0.506,-0.273 0.467,-0.270002 0.436,-0.265999 0.415,-0.262001 0.403,-0.258 0.398,-0.253 0.002,-0.0011 0.403,-0.247999 0.002,-0.0021 0.417,-0.240999 0.003,-0.0011 0.439,-0.235 0.003,-0.0021 0.471,-0.228999 0.004,-0.0021 0.51001,-0.221002 0.004,-0.0011 0.559,-0.215 0.004,-0.0021 0.617,-0.205999 0.004,-0.0011 0.68399,-0.197999 0.004,-0.0011 0.759,-0.19 0.003,-0.0011 0.844,-0.181001 h 0.003 l 0.93701,-0.172 0.003,-0.0011 1.039,-0.161999 h 0.002 l 1.15,-0.152001 h 0.002 l 1.27,-0.141999 0.002,-0.0011 1.398,-0.131001 h 0.001 l 1.536,-0.119999 h 0.002 l 1.683,-0.109 h 10e-4 l 1.837,-0.097 h 0.001 l 1.208,-0.048 h 0.001 l 1.41,-0.038 h 0.001 l 1.589987,-0.029 h 0.001 l 1.749,-0.019 h 0.001 l 1.885,-0.009 1.99901,0.0011 h 0.001 l 2.092,0.01201 v 0 l 2.162,0.02201 v 0 l 2.211,0.033 h 10e-4 l 2.236,0.045 h 0.001 l 2.241,0.056 2.224,0.068 h 10e-4 l 2.183,0.079 v 0 l 2.121,0.092 h 0.001 l 2.038,0.103999 h 0.001 l 1.932,0.117002 h 0.001 l 1.804,0.128997 h 0.002 l 1.654,0.143002 0.001,0.0011 1.482,0.155999 h 0.002 l 0.67,0.083 h 0.002 l 0.619,0.086 h 0.002 l 0.564,0.09 0.002,0.0011 0.508,0.093 h 0.003 l 0.448,0.097 0.004,0.0011 0.386,0.100999 0.006,0.0021 0.321,0.104 0.008,0.003 0.253,0.107 0.009,0.004 0.10091,0.05509 c 0.003,0.0018 0.006,0.0037 0.009,0.0059 l 0.082,0.057 c 0.003,0.0021 0.006,0.0044 0.009,0.0069 l 0.064,0.056 c 0.004,0.0039 0.009,0.0083 0.0122,0.01307 l 0.046,0.058 c 0.004,0.0045 0.007,0.0094 0.01,0.01482 l 0.137,0.254236 0.004,0.007 0.125,0.289999 0.003,0.007 0.112,0.324001 0.001,0.006 0.1,0.354001 0.001,0.004 0.088,0.38 0.001,0.004 0.077,0.403 0.001,0.004 0.065,0.423 v 0.003 l 0.054,0.439 0.001,0.0021 0.044,0.452001 v 0.003 l 0.033,0.460002 v 0.0021 l 0.022,0.466 v 0.0021 l 0.013,0.467 v 0.0021 l 0.003,0.466 v 0.0021 l -0.006,0.461002 v 0.0021 l -0.015,0.4519983 v 0.0021 l -0.024,0.44 v 0.003 l -0.033,0.423999 -10e-4,0.0021 -0.041,0.405 v 0.003 l -0.049,0.382 v 0.003 l -0.056,0.355999 -0.001,0.003 -0.064,0.325998 -0.001,0.005 -0.071,0.293 -0.001,0.005 -0.078,0.256 -0.003,0.008 -0.085,0.214884 c -0.001,0.0031 -0.003,0.0062 -0.004,0.0092 l -0.10486,0.201935 -0.004,0.007 -0.138,0.218998 -0.004,0.005 -0.169,0.237 -0.001,0.0021 -0.195,0.257 -0.001,0.0021 -0.22,0.279 h -0.001 l -0.23999,0.300998 -0.257,0.326001 -0.273,0.350999 -0.28301,0.377002 -0.29199,0.406998 -0.297,0.437002 -0.30001,0.469 -0.299,0.503 -0.295,0.536998 -0.28899,0.572 -0.278,0.612003 -0.26701,0.650999 -0.249,0.691999 -0.232,0.734999 -0.21,0.779 -0.18399,0.825 -0.15601,0.873 -0.126,0.921002 -0.049,0.477999 -0.042,0.494001 -0.072,0.988999 v 0 l -0.072,0.966999 v 0.0011 l -0.074,0.945002 v 0 l -0.076,0.922999 v 0.0011 l -0.081,0.900002 v 0.0011 l -0.088,0.877999 -0.001,0.0011 -0.096,0.856001 v 0.0021 l -0.106,0.834001 v 0.0011 l -0.118,0.812001 v 0.0021 l -0.132,0.790998 -0.001,0.003 -0.147,0.768001 v 0.0021 l -0.164,0.747999 -0.001,0.003 -0.183,0.726001 -0.001,0.004 -0.203,0.703998 -0.001,0.003 -0.226,0.684001 -10e-4,0.004 -0.25101,0.662999 -0.002,0.004 -0.276,0.641 -0.002,0.004 -0.303,0.621001 -0.003,0.005 -0.334,0.599001 -0.002,0.005 -0.364,0.578998 -0.003,0.005 -0.397,0.558001 -0.003,0.004 -0.212,0.271999 -0.002,0.0021 -0.221,0.266999 -0.002,0.0021 -0.229,0.261001 -0.002,0.0021 -0.239,0.257001 -0.002,0.0021 -0.249,0.251 -0.002,0.0021 -0.258,0.247001 -0.003,0.003 -0.443,0.385001 -0.005,0.004 -0.485,0.373999 -0.004,0.003 -0.525,0.361 -0.005,0.003 -0.565,0.348001 -0.004,0.003 -0.605,0.335002 -0.003,0.0021 -0.644,0.320998 -0.004,0.0011 -0.68401,0.307001 -0.004,0.0021 -0.723,0.291999 -0.003,0.0011 -0.761,0.277001 -0.003,0.0011 -0.799,0.260998 -0.003,0.0011 -0.837,0.245002 -0.003,0.0011 -0.875,0.229 h -0.002 l -0.912,0.212 -0.003,0.0011 -0.949,0.194001 h -0.002 l -0.986,0.176998 h -0.003 l -1.021,0.158001 -0.002,0.0011 -1.058,0.138998 h -0.002 l -1.093,0.120002 -0.002,0.0011 -1.128,0.1 h -0.002 l -1.163,0.08 -0.002,0.0011 -1.198,0.059 h -0.002 l -1.231,0.039 h -0.002 l -1.266,0.01799 h -10e-4 l -1.299,-0.005 h -0.001 l -1.197,-0.015 h -0.001 l -1.164,-0.01799 -1.133,-0.025 h -0.001 l -1.104,-0.036 h -0.002 l -1.07499,-0.051 -0.002,-0.0011 -1.047997,-0.07 h -0.002 l -1.023,-0.093 h -0.003 l -0.999,-0.118999 -0.003,-0.0011 -0.977,-0.15 -0.004,-0.0011 -0.954,-0.183999 -0.003,-0.0011 -0.47,-0.106 h -0.002 l -0.465,-0.117002 h -0.003 l -0.461,-0.127 -0.002,-0.0011 -0.456,-0.137999 -0.002,-0.0011 -0.451,-0.149 -0.003,-0.0011 -0.448,-0.161999 -0.003,-0.0011 -0.443,-0.174001 -0.002,-0.0011 -0.44,-0.186999 -0.003,-0.0011 -0.436,-0.199998 -0.002,-0.0021 -0.433,-0.214 -0.003,-0.0011 -0.429,-0.228999 -0.003,-0.0021 -0.426,-0.243001 -0.002,-0.0021 -0.424,-0.258998 -0.003,-0.0021 -0.42,-0.275003 -0.002,-0.0021 -0.418,-0.291002 -0.003,-0.0021 -0.41599,-0.307999 -0.002,-0.0021 -0.413,-0.325001 -0.002,-0.0021 -0.411,-0.344001 -0.002,-0.0021 -0.41,-0.361 -0.002,-0.0021 -0.40701,-0.381 -0.002,-0.0021 -0.406,-0.4 -0.002,-0.0021 -0.405,-0.418999 -0.002,-0.0021 -0.40299,-0.439999 -0.001,-0.0021 -0.403,-0.460999 -0.002,-0.0021 -0.401,-0.481999 -0.001,-0.0011 -0.401,-0.504002 -0.002,-0.0021 -0.401,-0.526 -0.001,-0.0011 -0.4,-0.549 -10e-4,-0.0021 -0.41,-0.595998 -0.002,-0.003 -0.391,-0.606002 -0.002,-0.0021 -0.372,-0.615997 -0.001,-0.003 -0.353,-0.625002 -0.001,-0.0021 -0.336,-0.632 -10e-4,-0.0021 -0.319,-0.638 -0.001,-0.0021 -0.304,-0.644001 -10e-4,-0.0021 -0.29,-0.649 -0.001,-0.0021 -0.276,-0.652 -0.001,-0.0021 -0.264,-0.655 v -0.0011 l -0.252,-0.656 -0.001,-0.0011 -0.242,-0.657 v -0.0021 l -0.455,-1.312 -10e-4,-0.0021 -0.424,-1.303002 v -0.0011 l -0.401,-1.285002 v -0.0011 l -0.385,-1.259999 -0.375994,-1.226 -0.375002,-1.184 -0.382,-1.135001 -0.396,-1.077 -0.205999,-0.513998 -0.212,-0.497001 -0.219001,-0.477999 -0.227999,-0.459002 -0.236001,-0.437999 -0.246999,-0.415999 -0.257,-0.395002 -0.268999,-0.370999 -0.282001,-0.347001 -0.295,-0.321 -0.309002,-0.294 -0.324998,-0.267999 -0.341,-0.241001 -0.359,-0.212 -0.376,-0.180999 -0.397002,-0.152 -0.416999,-0.121 -0.437999,-0.087 -0.462,-0.055 -0.484999,-0.02 -0.486003,0.015 -0.461999,0.049 -0.44,0.083 -0.417999,0.116001 -0.398,0.147 -0.378999,0.178001 -0.36,0.208 -0.344001,0.236 -0.328001,0.264999 -0.313,0.290999 -0.298,0.318 -0.285999,0.343001 -0.272999,0.369001 -0.262001,0.390998 -0.251,0.413002 -0.241001,0.435999 -0.233,0.456001 -0.223999,0.475999 -0.218001,0.494001 -0.211,0.512 -0.408,1.071999 -0.395,1.131001 -0.388,1.18 -0.389999,1.221999 -0.399,1.255001 v 0.0011 l -0.415001,1.280999 v 0.0011 l -0.437999,1.298001 -0.0011,0.0021 -0.47,1.306999 v 0.0021 l -0.249,0.653999 -0.0011,0.0011 -0.259001,0.652999 -0.0011,0.0011 -0.270999,0.651999 v 0.0021 l -0.283999,0.648999 -0.0011,0.0021 -0.297,0.646001 v 0.0021 l -0.312002,0.639998 -0.0011,0.0021 -0.325999,0.635 -0.0021,0.0021 -0.342,0.629002 -0.0021,0.0021 -0.36,0.620001 -0.0011,0.003 -0.379,0.612 -0.0011,0.0021 -0.396999,0.602002 -0.0021,0.003 -0.417999,0.591 -0.0011,0.0021 -0.406,0.544002 -0.0011,0.0021 -0.406,0.522 -0.0021,0.0011 -0.405998,0.499999 -0.0011,0.0011 -0.407001,0.478002 -0.0021,0.0021 -0.407001,0.455999 -0.0021,0.0021 -0.408001,0.434999 -0.0021,0.0021 -0.409001,0.416002 -0.0021,0.0021 -0.410001,0.394999 -0.0021,0.0021 -0.411999,0.376 -0.0021,0.0021 -0.412999,0.356999 -0.0021,0.0021 -0.415001,0.339 -0.0021,0.0021 -0.416999,0.321 -0.003,0.0021 -0.417999,0.303998 -0.003,0.0011 -0.421,0.287002 -0.0021,0.0021 -0.424,0.27 -0.003,0.0021 -0.426001,0.254 -0.0021,0.0021 -0.428998,0.238998 -0.003,0.0011 -0.432001,0.225001 -0.0021,0.0011 -0.434999,0.209999 -0.003,0.0011 -0.438,0.195998 -0.003,0.0011 -0.441,0.182002 -0.003,0.0011 -0.445,0.169 -0.003,0.0011 -0.449,0.156999 -0.003,0.0011 -0.452998,0.144 -0.0021,0.0011 -0.458002,0.133001 -0.0021,0.0011 -0.462003,0.121999 h -0.0021 l -0.465998,0.112001 h -0.003 l -0.471,0.101 -0.003,0.0011 -0.956,0.174 -0.004,0.0011 -0.977998,0.138999 h -0.003 l -1.001001,0.109 h -0.0021 l -1.024001,0.082 h -0.003 l -1.049001,0.059 h -0.0021 l -1.075999,0.04 h -0.0011 l -1.104,0.024 h -0.0011 l -1.132999,0.01299 h -0.0011 l -1.164,0.005 h -0.0011 l -1.196001,0.0021 h -0.0011 l -1.299001,-0.01 h -0.0021 l -1.264999,-0.031 h -0.0021 l -1.232001,-0.052 h -0.0011 l -1.196999,-0.073 h -0.0021 l -1.162,-0.093 -0.0021,-0.0011 -1.127001,-0.112001 -0.003,-0.0011 -1.090999,-0.132 h -0.0021 l -1.056,-0.151001 h -0.0021 l -1.02,-0.168999 -0.0021,-0.0011 -0.984001,-0.186999 -0.0021,-0.0011 -0.947002,-0.203999 -0.003,-0.0011 -0.909,-0.220999 -0.003,-0.0011 -0.872001,-0.238001 -0.003,-0.0011 -0.835002,-0.255 h -0.003 l -0.795999,-0.269999 -0.003,-0.0021 -0.758,-0.285001 -0.003,-0.0011 -0.72,-0.299997 -0.003,-0.0021 -0.680998,-0.314002 -0.003,-0.0021 -0.641001,-0.327999 -0.004,-0.0021 -0.600998,-0.341001 -0.004,-0.003 -0.562002,-0.354 -0.004,-0.003 -0.520999,-0.366999 -0.004,-0.003 -0.479999,-0.379 -0.005,-0.004 -0.438999,-0.390002 -0.003,-0.003 -0.256,-0.25 -0.0021,-0.0021 -0.245999,-0.254 -0.0021,-0.0021 -0.236,-0.258998 -0.0021,-0.0021 -0.226999,-0.264001 -0.0011,-0.0021 -0.218001,-0.268999 -0.0021,-0.003 -0.208,-0.274 -0.003,-0.003 -0.390998,-0.562999 -0.003,-0.005 -0.358,-0.582999 -0.003,-0.005 -0.3269992,-0.603002 -0.0021,-0.005 -0.297,-0.622999 -0.0021,-0.005 -0.269002,-0.643999 -0.0021,-0.005 -0.243001,-0.665001 -0.0011,-0.004 -0.219001,-0.685998 -0.0011,-0.003 -0.195998,-0.706001 v -0.004 l -0.175,-0.728001 -0.0011,-0.003 -0.156001,-0.749001 -0.0011,-0.0021 -0.137999,-0.771001 -0.0011,-0.003 -0.121999,-0.791998 -0.0011,-0.0021 -0.109001,-0.813001 v -0.0011 l -0.09895,-0.835326 v -0.0021 l -0.087,-0.857002 v -0.0011 l -0.078,-0.878973 v -0.0011 l -0.072,-0.90096 v -0.0011 l -0.066,-0.923999 v 0 l -0.063,-0.944999 v -0.0011 l -0.061,-0.968002 h -0.0011 l -0.061,-0.99 -0.036,-0.493998 -0.045,-0.479002 -0.115001,-0.922999 -0.147,-0.874 -0.175001,-0.826 -0.200998,-0.782 -0.224002,-0.737 -0.241998,-0.694999 -0.259001,-0.654 -0.271999,-0.615 -0.282001,-0.576001 -0.29,-0.540001 -0.293,-0.505 -0.295001,-0.472998 -0.292,-0.440002 -0.286999,-0.409999 -0.280001,-0.381 -0.267999,-0.353999 -0.254,-0.328001 -0.237,-0.304001 v 0 l -0.217001,-0.280998 -10e-4,-0.0011 -0.193,-0.260001 -10e-4,-0.003 -0.165999,-0.239001 -0.003,-0.004 -0.136,-0.220001 -0.004,-0.008 -0.103089,-0.202875 c -0.0017,-0.003 -0.0031,-0.0063 -0.0046,-0.0094 l -0.08226,-0.215768 -0.002,-0.008 -0.075,-0.257001 -0.002,-0.005 -0.068,-0.293 -0.001,-0.005 -0.06,-0.326998 -0.001,-0.003 -0.052,-0.355999 -10e-4,-0.003 -0.044,-0.383 -0.001,-0.003 -0.036,-0.405 v -0.0021 l -0.02799,-0.4247833 v -0.003 l -0.02,-0.440002 v -0.0021 l -0.01,-0.451998 v -0.0021 l 0.0062,-0.461637 v -0.0021 l 0.008,-0.466 v -0.0021 l 0.018,-0.467 v -0.0021 l 0.028,-0.466 v -0.0021 l 0.038,-0.459983 v -0.003 l 0.049,-0.451 v -0.0021 l 0.059,-0.438002 v -0.003 l 0.07,-0.422 10e-4,-0.004 0.081,-0.403 0.001,-0.004 0.092,-0.379 10e-4,-0.004 0.104,-0.353002 0.002,-0.006 0.116,-0.323001 0.002,-0.006 0.128001,-0.288999 0.004,-0.009 0.140348,-0.250883 c 0.003,-0.0046 0.006,-0.0091 0.009,-0.01318 l 0.046,-0.058 c 0.0042,-0.005 0.0085,-0.0095 0.01295,-0.01373 l 0.065,-0.056 c 0.0035,-0.0026 0.0069,-0.0052 0.0101,-0.0074 z M 118.14637,2.2146547 Z m -12.944,-0.169 z m -24.846997,3.661 z M 22.162375,1.6896557 Z m -10.48,-0.523 z m -3.2170002,5.893999 z m 0.250999,0.866 v -2.299999 h -2.999999 v 2.299999 h 2.249001 z m -1.250997,-0.866 z m 0.384998,3.8990013 z m 0.865999,0.500001 v -0.751001 h -2.999999 v 2.300999 h 2.999999 z m -0.865999,0.499999 z m 6.9790022,0.608999 z M 40.557375,7.2906547 Z M 32.266376,44.554655 Z m -15.983,-3.512999 0.464,0.335999 0.496001,0.319 0.562999,0.323001 0.575,0.298 0.587,0.273 0.598,0.251 0.607,0.226999 0.617,0.206999 0.624001,0.186002 0.63,0.167 0.637,0.149 0.640998,0.131998 0.645001,0.116002 0.647999,0.1 0.650002,0.087 0.650999,0.074 0.651,0.063 0.649999,0.051 0.648002,0.042 0.644998,0.033 0.642001,0.02601 0.636,0.019 0.629999,0.014 0.624001,0.01 0.616001,0.006 0.607999,0.004 0.619,0.005 h 0.0011 l 0.650999,0.007 0.68,0.008 0.704999,0.006 0.728001,0.0011 0.748001,-0.004 0.764,-0.01299 0.777999,-0.02299 0.788001,-0.036 0.795999,-0.051 0.800999,-0.067 0.803,-0.086 0.802,-0.107 0.797002,-0.13 0.789998,-0.155001 0.780002,-0.182999 0.766998,-0.212 0.751001,-0.242999 0.731999,-0.277 0.357,-0.151 0.352002,-0.160002 0.345998,-0.17 0.339,-0.179999 0.332002,-0.19 0.323998,-0.199001 0.317,-0.211 0.309001,-0.219998 0.301001,-0.232 0.291999,-0.243001 0.287999,-0.257001 0.288999,-0.271999 0.289002,-0.286999 0.288999,-0.3 0.577001,-0.644002 0.573,-0.695999 0.567,-0.745001 0.558001,-0.790998 0.547999,-0.835001 0.535001,-0.872001 0.518999,-0.909 0.502999,-0.942999 0.481999,-0.971999 0.460002,-0.999001 0.436999,-1.021 0.410001,-1.042001 0.381,-1.058 0.349999,-1.072999 0.316,-1.082001 0.282001,-1.088998 0.243999,-1.094002 0.107,-0.546999 0.097,-0.547 0.086,-0.545999 0.076,-0.545 0.064,-0.544002 0.053,-0.540999 0.042,-0.540001 0.029,-0.535998 0.01799,-0.534001 0.005,-0.529 -0.01201,-0.519999 -0.034,-0.504002 -0.054,-0.49 -0.074,-0.473998 -0.094,-0.461 -0.112001,-0.447 -0.132,-0.433001 -0.149,-0.418 -0.167,-0.406 -0.183999,-0.391999 -0.201002,-0.379002 -0.215998,-0.365998 -0.233,-0.353 -0.247001,-0.341 -0.260999,-0.329001 -0.276,-0.316 -0.289001,-0.303998 -0.301998,-0.292003 -0.315,-0.281 -0.327001,-0.268999 -0.338,-0.257 -0.350002,-0.245999 -0.36,-0.236001 -0.369998,-0.2249993 -0.379,-0.213 -0.389042,-0.20404 -0.395999,-0.191997 -0.405001,-0.182002 -0.411998,-0.172 -0.420002,-0.161999 -0.424998,-0.153001 -0.431001,-0.142999 -0.437002,-0.133001 -0.440999,-0.124 -0.895998,-0.220001 -0.909,-0.185999 -0.917001,-0.15 -0.922002,-0.118999 -0.921999,-0.086 -0.919001,-0.056 -0.911997,-0.028 -0.953,-0.02101 h -0.0011 l -1.037,-0.033 v 0 l -1.113001,-0.042 -1.178999,-0.048 -1.236001,-0.049 -1.285,-0.048 -1.324999,-0.042 -1.357,-0.033 -1.38,-0.02 -1.393,-0.004 -1.399,0.015 -1.395,0.039 -1.383,0.066 -1.362001,0.097 -1.333,0.129 -0.652,0.08 -0.642,0.089 -0.63,0.099 -0.617,0.109 -0.601999,0.122 -0.587999,0.132 -0.572,0.145 -0.554001,0.156001 -0.535,0.17 -0.516999,0.182999 -0.495001,0.197001 -0.474001,0.21 -0.450998,0.224999 -0.427001,0.241001 -0.402,0.255 -0.375999,0.2699993 -0.349001,0.286999 -0.321001,0.304001 -0.301,0.316 -0.287999,0.322 -0.274,0.325998 -0.007,0.01 -0.252,0.322001 -0.246999,0.333999 -0.233,0.340001 -0.220001,0.344 -0.208,0.346999 -0.195001,0.351001 -0.183999,0.356 -0.172,0.358 -0.160999,0.362 -0.151,0.366001 -0.139002,0.367998 -0.129998,0.372001 -0.119001,0.374 -0.21,0.755999 -0.174001,0.767 -0.140999,0.774999 -0.110001,0.781 -0.081,0.789001 -0.056,0.793001 -0.032,0.796999 -0.01101,0.799 0.007,0.802002 0.024,0.799999 0.036,0.801 0.047,0.797999 0.055,0.794001 0.061,0.789999 0.063,0.784 0.065,0.776999 0.066,0.762 0.074,0.741003 0.082,0.721997 0.09,0.701001 0.101,0.682 0.112001,0.661001 0.123999,0.641998 0.137001,0.622001 0.151998,0.602001 0.167003,0.582999 0.183999,0.562002 0.200998,0.542999 0.219001,0.523999 0.239001,0.503999 0.260001,0.486 0.280998,0.465003 0.305001,0.446998 0.327999,0.428 0.353001,0.410001 0.379,0.390999 0.406001,0.372001 z M 15.446377,11.780654 Z m 108.749993,0.02 z m -43.292997,9.105 0.047,0.542002 0.058,0.543999 0.07,0.546 0.081,0.547999 0.091,0.548 0.1,0.548002 0.232,1.096 0.27,1.091999 0.305,1.085 0.339,1.077 0.369,1.063001 0.398,1.044998 0.426,1.027001 0.449,1.003999 0.471,0.976 0.492,0.949 0.511,0.914 0.524,0.879002 0.539,0.839999 0.55,0.796999 0.559,0.751001 0.565,0.702001 0.57,0.650999 0.285,0.303001 0.286,0.289999 0.286,0.275 0.286,0.260001 0.289,0.246999 0.299,0.235 0.306,0.223999 0.315,0.213 0.322,0.204002 0.33,0.193 0.336,0.182999 0.345,0.174001 0.349,0.163999 0.356,0.155001 0.729,0.284999 0.749,0.251999 0.764,0.220001 0.778,0.191 0.788,0.164 0.796,0.138001 0.8,0.115999 0.803,0.095 0.798997,0.076 0.796,0.059 0.788,0.045 0.777,0.031 0.764,0.02101 0.748,0.01299 0.728,0.006 0.705,0.0021 h 0.68 0.652 v 0 l 0.619,0.0011 v 0 l 0.608,0.003 0.616,0.0011 0.624,-0.003 0.63,-0.007 0.638,-0.01201 0.641,-0.019 0.645,-0.02601 0.649,-0.035 0.65,-0.045 0.652,-0.055 0.652,-0.067 0.651,-0.079 0.649,-0.094 0.646,-0.109 0.643,-0.125 0.638,-0.141999 0.632,-0.159999 0.626,-0.179001 0.619,-0.199999 0.609,-0.221001 0.601,-0.244001 0.59,-0.266999 0.578,-0.292 0.567,-0.317 0.499,-0.311999 0.467,-0.331002 0.439,-0.349998 0.41,-0.368001 0.384,-0.386998 0.357,-0.405001 0.334,-0.425 0.308,-0.443 0.287,-0.463002 0.265,-0.482 0.244,-0.501999 0.225,-0.521999 0.208,-0.540001 0.189,-0.560999 0.174,-0.580001 0.158,-0.600998 0.144,-0.620001 0.131,-0.640001 0.119,-0.661 0.108,-0.680001 0.099,-0.7 0.089,-0.721 0.082,-0.74 0.074,-0.762997 0.073,-0.775002 0.072,-0.783 0.07,-0.789001 0.064,-0.793999 0.055,-0.796999 0.046,-0.800002 0.031,-0.800999 0.016,-0.801 -0.002,-0.798999 -0.024,-0.797999 -0.046,-0.794002 -0.072,-0.789001 -0.102,-0.782999 -0.132,-0.776 -0.166,-0.769 -0.202,-0.758 -0.115,-0.374999 -0.125,-0.374002 -0.136,-0.368998 -0.146,-0.368002 -0.157,-0.363 -0.169,-0.360997 -0.18,-0.357003 -0.191,-0.353999 -0.205,-0.348999 -0.216,-0.347001 -0.229,-0.341 -0.243,-0.338 -0.256,-0.333999 -0.27,-0.329002 -0.284,-0.324998 -0.009,-0.009 -0.28901,-0.309999 -0.318,-0.308001 -0.34599,-0.289999 -0.37301,-0.275 -0.399,-0.260001 -0.425,-0.2439993 -0.448,-0.229999 -0.47099,-0.216001 -0.49301,-0.202999 -0.515,-0.188002 -0.53399,-0.175998 -0.552,-0.163002 -0.57,-0.15 -0.58601,-0.138999 -0.60199,-0.128 -0.61601,-0.116999 -0.628,-0.105 -0.641,-0.096 -0.651,-0.086 -1.33199,-0.143999 -1.36,-0.112001 -1.38301,-0.081 -1.394,-0.054 -1.399,-0.031 -1.393,-0.01101 -1.38,0.006 -1.356,0.01799 -1.32699,0.027 -1.28501,0.034 -1.23699,0.036 -1.178997,0.034 v 0 l -1.113,0.03 h -0.001 l -1.037,0.02201 h -0.001 l -0.952,0.01101 -0.913,0.01701 -0.919,0.047 -0.923,0.077 -0.924,0.107 -0.918,0.140999 -0.911,0.175001 -0.899,0.211 -0.442,0.118999 -0.438,0.129 -0.433,0.137001 -0.427,0.147998 -0.421,0.158001 -0.414,0.166999 -0.407,0.178002 -0.399,0.188999 -0.39,0.197999 -0.381,0.2100023 -0.374,0.219999 -0.362,0.231999 -0.352,0.242002 -0.341,0.254 -0.33,0.265998 -0.318,0.277 -0.305,0.288999 -0.293,0.301001 -0.279,0.313002 -0.265,0.324998 -0.25,0.339 -0.237,0.350999 -0.22,0.363 -0.205,0.377002 -0.188,0.389999 -0.172,0.404 -0.153,0.415999 -0.137,0.432001 -0.118,0.445 -0.098,0.46 -0.08,0.474001 -0.058,0.489 -0.04,0.504 -0.018,0.518998 v 0.53 l 0.011,0.534001 0.024,0.536001 z m 43.975997,-8.373999 z m 6.888,-0.957 z m -0.251,1.434999 h 3 v -2.300995 h -2.249 -0.751 z m 1.251,-1.434999 z m 1.498,-4.5140003 z m -0.5,0.865999 h 0.751 v -2.299996 h -3 v 2.299999 z m -0.5,-0.865999 z m 0,0 z" />
  </g>
</svg>
