<?xml version="1.0" encoding="UTF-8" standalone="no"?>
<!-- Created with Inkscape (http://www.inkscape.org/) -->

<svg
   xmlns:dc="http://purl.org/dc/elements/1.1/"
   xmlns:cc="http://creativecommons.org/ns#"
   xmlns:rdf="http://www.w3.org/1999/02/22-rdf-syntax-ns#"
   xmlns:svg="http://www.w3.org/2000/svg"
   xmlns="http://www.w3.org/2000/svg"
   xmlns:sodipodi="http://sodipodi.sourceforge.net/DTD/sodipodi-0.dtd"
   xmlns:inkscape="http://www.inkscape.org/namespaces/inkscape"
   width="210mm"
   height="297mm"
   viewBox="0 0 210 297"
   version="1.1"
   id="svg4193"
   inkscape:version="0.92.2 (5c3e80d, 2017-08-06)"
   sodipodi:docname="Front_Kerf02_Width3_2_shrunk.svg">
  <defs
     id="defs4187" />
  <sodipodi:namedview
     id="base"
     pagecolor="#ffffff"
     bordercolor="#666666"
     borderopacity="1.0"
     inkscape:pageopacity="0.0"
     inkscape:pageshadow="2"
     inkscape:zoom="1.979899"
     inkscape:cx="307.54911"
     inkscape:cy="1003.3556"
     inkscape:document-units="mm"
     inkscape:current-layer="layer1"
     showgrid="false"
     inkscape:window-width="1920"
     inkscape:window-height="1001"
     inkscape:window-x="-9"
     inkscape:window-y="-9"
     inkscape:window-maximized="1"
     inkscape:snap-global="false" />
  <metadata
     id="metadata4190">
    <rdf:RDF>
      <cc:Work
         rdf:about="">
        <dc:format>image/svg+xml</dc:format>
        <dc:type
           rdf:resource="http://purl.org/dc/dcmitype/StillImage" />
        <dc:title></dc:title>
      </cc:Work>
    </rdf:RDF>
  </metadata>
  <g
     inkscape:label="Ebene 1"
     inkscape:groupmode="layer"
     id="layer1">
    <path
       style="fill:none;stroke:#00ff00;stroke-width:0.26458332"
       d="M 12.681376,1.1166547 Z"
       id="path1498" />
    <path
       style="fill:none;stroke:#00ff00;stroke-width:0.26458332"
       d="M 103.74337,48.801655 Z"
       id="path1496" />
    <path
       style="fill:none;stroke:#00ff00;stroke-width:0.26458332"
       d="m 2.7833758,3.1996567 0.008,-0.005 0.101,-0.054 0.009,-0.004 0.255,-0.105 0.008,-0.004 0.322,-0.099 0.006,-0.0021 0.387,-0.096 0.004,-0.0011 0.449,-0.092 0.003,-0.0011 0.509,-0.088 h 0.003 l 0.565001,-0.084 h 0.0021 l 0.618998,-0.08 h 0.0021 l 0.671002,-0.075 0.0011,-0.0011 1.484,-0.139999 h 0.0021 l 1.655992,-0.123985 h 0.0011 l 1.8049992,-0.11 h 0.0011 l 0.568,-0.028 1.365999,-0.068 h 0.0011 l 2.038001,-0.081 h 0.0011 l 2.122001,-0.069 h 0.0011 l 2.183998,-0.056 h 0.0011 l 2.224,-0.043 2.242,-0.031 v 0 l 2.237002,-0.02 v 0 l 2.210998,-0.009 h 0.0011 l 2.162001,0.0011 v 0 l 2.091999,0.01101 h 0.0011 l 1.999001,0.02101 h 0.0011 l 1.884,0.03 h 0.0011 l 1.748999,0.038 v 0 l 1.59,0.046 h 0.0011 l 1.409999,0.054 h 0.0011 l 1.207001,0.061 h 0.0011 l 1.836999,0.116999 h 0.0011 l 1.681001,0.127 h 0.0011 l 1.534999,0.137001 0.0011,0.0011 1.397,0.146002 h 0.0021 l 1.268,0.155999 h 0.0021 l 1.148001,0.164999 h 0.003 l 1.037,0.173001 0.003,0.0011 0.933998,0.182001 h 0.003 l 0.842002,0.19 0.003,0.0011 0.757002,0.197998 0.004,0.0011 0.682001,0.206 0.003,0.0021 0.615001,0.213 0.004,0.0011 0.556998,0.221001 0.004,0.0021 0.508,0.226999 0.004,0.0011 0.468001,0.233 0.003,0.0021 0.436999,0.240001 0.003,0.0021 0.414002,0.246002 0.0021,0.0011 0.401003,0.252 0.0011,0.0011 0.396002,0.257 v 0 l 0.4,0.262998 0.411998,0.267002 0.433002,0.270999 0.463999,0.275 0.503,0.280001 0.306001,0.158999 0.307999,0.152 0.311002,0.145 0.312999,0.138001 0.315,0.129998 0.318,0.123002 0.32,0.116999 0.322998,0.108 0.324001,0.102 0.327001,0.094 0.328999,0.087 0.332002,0.079 0.333999,0.072 0.336,0.066 0.339,0.057 0.341,0.051 0.342998,0.043 0.346001,0.035 0.348001,0.029 0.349999,0.02201 0.353002,0.014 0.354999,0.007 0.357,-0.0011 0.361,-0.008 h 0.006 l 0.360003,0.01199 0.357999,0.005 0.355,-0.003 0.352999,-0.01101 0.350001,-0.01701 0.347999,-0.025 0.346001,-0.032 0.344,-0.039 0.341998,-0.047 0.339,-0.055 0.337,-0.06 0.335002,-0.069 0.331999,-0.076 0.329999,-0.084 0.328002,-0.09 0.325998,-0.097 0.323001,-0.106 0.322,-0.112001 0.319001,-0.119999 0.315999,-0.127 0.315,-0.135001 0.311999,-0.140999 0.310002,-0.149 0.307995,-0.156999 0.506,-0.273 0.467,-0.270002 0.436,-0.265999 0.415,-0.262001 0.403,-0.258 0.398,-0.253 0.002,-0.0011 0.403,-0.247999 0.002,-0.0021 0.417,-0.240999 0.003,-0.0011 0.439,-0.235 0.003,-0.0021 0.471,-0.228999 0.004,-0.0021 0.51001,-0.221002 0.004,-0.0011 0.559,-0.215 0.004,-0.0021 0.617,-0.205999 0.004,-0.0011 0.68399,-0.197999 0.004,-0.0011 0.759,-0.19 0.003,-0.0011 0.844,-0.181001 h 0.003 l 0.93701,-0.172 0.003,-0.0011 1.039,-0.161999 h 0.002 l 1.15,-0.152001 h 0.002 l 1.27,-0.141999 0.002,-0.0011 1.398,-0.131001 h 0.001 l 1.536,-0.119999 h 0.002 l 1.683,-0.109 h 10e-4 l 1.837,-0.097 h 0.001 l 1.208,-0.048 h 0.001 l 1.41,-0.038 h 0.001 l 1.589987,-0.029 h 0.001 l 1.749,-0.019 h 0.001 l 1.885,-0.009 1.99901,0.0011 h 0.001 l 2.092,0.01201 v 0 l 2.162,0.02201 v 0 l 2.211,0.033 h 10e-4 l 2.236,0.045 h 0.001 l 2.241,0.056 2.224,0.068 h 10e-4 l 2.183,0.079 v 0 l 2.121,0.092 h 0.001 l 2.038,0.103999 h 0.001 l 1.932,0.117002 h 0.001 l 1.804,0.128997 h 0.002 l 1.654,0.143002 0.001,0.0011 1.482,0.155999 h 0.002 l 0.67,0.083 h 0.002 l 0.619,0.086 h 0.002 l 0.564,0.09 0.002,0.0011 0.508,0.093 h 0.003 l 0.448,0.097 0.004,0.0011 0.386,0.100999 0.006,0.0021 0.321,0.104 0.008,0.003 0.253,0.107 0.009,0.004 0.10091,0.05509 c 0.003,0.0018 0.006,0.0037 0.009,0.0059 l 0.082,0.057 c 0.003,0.0021 0.006,0.0044 0.009,0.0069 l 0.064,0.056 c 0.004,0.0039 0.009,0.0083 0.0122,0.01307 l 0.046,0.058 c 0.004,0.0045 0.007,0.0094 0.01,0.01482 l 0.137,0.254236 0.004,0.007 0.125,0.289999 0.003,0.007 0.112,0.324001 0.001,0.006 0.1,0.354001 0.001,0.004 0.088,0.38 0.001,0.004 0.077,0.403 0.001,0.004 0.065,0.423 v 0.003 l 0.054,0.439 0.001,0.0021 0.044,0.452001 v 0.003 l 0.033,0.460002 v 0.0021 l 0.022,0.466 v 0.0021 l 0.013,0.467 v 0.0021 l 0.003,0.466 v 0.0021 l -0.006,0.461002 v 0.0021 l -0.015,0.4519983 v 0.0021 l -0.024,0.44 v 0.003 l -0.033,0.423999 -10e-4,0.0021 -0.041,0.405 v 0.003 l -0.049,0.382 v 0.003 l -0.056,0.355999 -0.001,0.003 -0.064,0.325998 -0.001,0.005 -0.071,0.293 -0.001,0.005 -0.078,0.256 -0.003,0.008 -0.085,0.214884 c -0.001,0.0031 -0.003,0.0062 -0.004,0.0092 l -0.10486,0.201935 -0.004,0.007 -0.138,0.218998 -0.004,0.005 -0.169,0.237 -0.001,0.0021 -0.195,0.257 -0.001,0.0021 -0.22,0.279 h -0.001 l -0.23999,0.300998 -0.257,0.326001 -0.273,0.350999 -0.28301,0.377002 -0.29199,0.406998 -0.297,0.437002 -0.30001,0.469 -0.299,0.503 -0.295,0.536998 -0.28899,0.572 -0.278,0.612003 -0.26701,0.650999 -0.249,0.691999 -0.232,0.734999 -0.21,0.779 -0.18399,0.825 -0.15601,0.873 -0.126,0.921002 -0.049,0.477999 -0.042,0.494001 -0.072,0.988999 v 0 l -0.072,0.966999 v 0.0011 l -0.074,0.945002 v 0 l -0.076,0.922999 v 0.0011 l -0.081,0.900002 v 0.0011 l -0.088,0.877999 -0.001,0.0011 -0.096,0.856001 v 0.0021 l -0.106,0.834001 v 0.0011 l -0.118,0.812001 v 0.0021 l -0.132,0.790998 -0.001,0.003 -0.147,0.768001 v 0.0021 l -0.164,0.747999 -0.001,0.003 -0.183,0.726001 -0.001,0.004 -0.203,0.703998 -0.001,0.003 -0.226,0.684001 -10e-4,0.004 -0.25101,0.662999 -0.002,0.004 -0.276,0.641 -0.002,0.004 -0.303,0.621001 -0.003,0.005 -0.334,0.599001 -0.002,0.005 -0.364,0.578998 -0.003,0.005 -0.397,0.558001 -0.003,0.004 -0.212,0.271999 -0.002,0.0021 -0.221,0.266999 -0.002,0.0021 -0.229,0.261001 -0.002,0.0021 -0.239,0.257001 -0.002,0.0021 -0.249,0.251 -0.002,0.0021 -0.258,0.247001 -0.003,0.003 -0.443,0.385001 -0.005,0.004 -0.485,0.373999 -0.004,0.003 -0.525,0.361 -0.005,0.003 -0.565,0.348001 -0.004,0.003 -0.605,0.335002 -0.003,0.0021 -0.644,0.320998 -0.004,0.0011 -0.68401,0.307001 -0.004,0.0021 -0.723,0.291999 -0.003,0.0011 -0.761,0.277001 -0.003,0.0011 -0.799,0.260998 -0.003,0.0011 -0.837,0.245002 -0.003,0.0011 -0.875,0.229 h -0.002 l -0.912,0.212 -0.003,0.0011 -0.949,0.194001 h -0.002 l -0.986,0.176998 h -0.003 l -1.021,0.158001 -0.002,0.0011 -1.058,0.138998 h -0.002 l -1.093,0.120002 -0.002,0.0011 -1.128,0.1 h -0.002 l -1.163,0.08 -0.002,0.0011 -1.198,0.059 h -0.002 l -1.231,0.039 h -0.002 l -1.266,0.01799 h -10e-4 l -1.299,-0.005 h -0.001 l -1.197,-0.015 h -0.001 l -1.164,-0.01799 -1.133,-0.025 h -0.001 l -1.104,-0.036 h -0.002 l -1.07499,-0.051 -0.002,-0.0011 -1.047997,-0.07 h -0.002 l -1.023,-0.093 h -0.003 l -0.999,-0.118999 -0.003,-0.0011 -0.977,-0.15 -0.004,-0.0011 -0.954,-0.183999 -0.003,-0.0011 -0.47,-0.106 h -0.002 l -0.465,-0.117002 h -0.003 l -0.461,-0.127 -0.002,-0.0011 -0.456,-0.137999 -0.002,-0.0011 -0.451,-0.149 -0.003,-0.0011 -0.448,-0.161999 -0.003,-0.0011 -0.443,-0.174001 -0.002,-0.0011 -0.44,-0.186999 -0.003,-0.0011 -0.436,-0.199998 -0.002,-0.0021 -0.433,-0.214 -0.003,-0.0011 -0.429,-0.228999 -0.003,-0.0021 -0.426,-0.243001 -0.002,-0.0021 -0.424,-0.258998 -0.003,-0.0021 -0.42,-0.275003 -0.002,-0.0021 -0.418,-0.291002 -0.003,-0.0021 -0.41599,-0.307999 -0.002,-0.0021 -0.413,-0.325001 -0.002,-0.0021 -0.411,-0.344001 -0.002,-0.0021 -0.41,-0.361 -0.002,-0.0021 -0.40701,-0.381 -0.002,-0.0021 -0.406,-0.4 -0.002,-0.0021 -0.405,-0.418999 -0.002,-0.0021 -0.40299,-0.439999 -0.001,-0.0021 -0.403,-0.460999 -0.002,-0.0021 -0.401,-0.481999 -0.001,-0.0011 -0.401,-0.504002 -0.002,-0.0021 -0.401,-0.526 -0.001,-0.0011 -0.4,-0.549 -10e-4,-0.0021 -0.41,-0.595998 -0.002,-0.003 -0.391,-0.606002 -0.002,-0.0021 -0.372,-0.615997 -0.001,-0.003 -0.353,-0.625002 -0.001,-0.0021 -0.336,-0.632 -10e-4,-0.0021 -0.319,-0.638 -0.001,-0.0021 -0.304,-0.644001 -10e-4,-0.0021 -0.29,-0.649 -0.001,-0.0021 -0.276,-0.652 -0.001,-0.0021 -0.264,-0.655 v -0.0011 l -0.252,-0.656 -0.001,-0.0011 -0.242,-0.657 v -0.0021 l -0.455,-1.312 -10e-4,-0.0021 -0.424,-1.303002 v -0.0011 l -0.401,-1.285002 v -0.0011 l -0.385,-1.259999 -0.375994,-1.226 -0.375002,-1.184 -0.382,-1.135001 -0.396,-1.077 -0.205999,-0.513998 -0.212,-0.497001 -0.219001,-0.477999 -0.227999,-0.459002 -0.236001,-0.437999 -0.246999,-0.415999 -0.257,-0.395002 -0.268999,-0.370999 -0.282001,-0.347001 -0.295,-0.321 -0.309002,-0.294 -0.324998,-0.267999 -0.341,-0.241001 -0.359,-0.212 -0.376,-0.180999 -0.397002,-0.152 -0.416999,-0.121 -0.437999,-0.087 -0.462,-0.055 -0.484999,-0.02 -0.486003,0.015 -0.461999,0.049 -0.44,0.083 -0.417999,0.116001 -0.398,0.147 -0.378999,0.178001 -0.36,0.208 -0.344001,0.236 -0.328001,0.264999 -0.313,0.290999 -0.298,0.318 -0.285999,0.343001 -0.272999,0.369001 -0.262001,0.390998 -0.251,0.413002 -0.241001,0.435999 -0.233,0.456001 -0.223999,0.475999 -0.218001,0.494001 -0.211,0.512 -0.408,1.071999 -0.395,1.131001 -0.388,1.18 -0.389999,1.221999 -0.399,1.255001 v 0.0011 l -0.415001,1.280999 v 0.0011 l -0.437999,1.298001 -0.0011,0.0021 -0.47,1.306999 v 0.0021 l -0.249,0.653999 -0.0011,0.0011 -0.259001,0.652999 -0.0011,0.0011 -0.270999,0.651999 v 0.0021 l -0.283999,0.648999 -0.0011,0.0021 -0.297,0.646001 v 0.0021 l -0.312002,0.639998 -0.0011,0.0021 -0.325999,0.635 -0.0021,0.0021 -0.342,0.629002 -0.0021,0.0021 -0.36,0.620001 -0.0011,0.003 -0.379,0.612 -0.0011,0.0021 -0.396999,0.602002 -0.0021,0.003 -0.417999,0.591 -0.0011,0.0021 -0.406,0.544002 -0.0011,0.0021 -0.406,0.522 -0.0021,0.0011 -0.405998,0.499999 -0.0011,0.0011 -0.407001,0.478002 -0.0021,0.0021 -0.407001,0.455999 -0.0021,0.0021 -0.408001,0.434999 -0.0021,0.0021 -0.409001,0.416002 -0.0021,0.0021 -0.410001,0.394999 -0.0021,0.0021 -0.411999,0.376 -0.0021,0.0021 -0.412999,0.356999 -0.0021,0.0021 -0.415001,0.339 -0.0021,0.0021 -0.416999,0.321 -0.003,0.0021 -0.417999,0.303998 -0.003,0.0011 -0.421,0.287002 -0.0021,0.0021 -0.424,0.27 -0.003,0.0021 -0.426001,0.254 -0.0021,0.0021 -0.428998,0.238998 -0.003,0.0011 -0.432001,0.225001 -0.0021,0.0011 -0.434999,0.209999 -0.003,0.0011 -0.438,0.195998 -0.003,0.0011 -0.441,0.182002 -0.003,0.0011 -0.445,0.169 -0.003,0.0011 -0.449,0.156999 -0.003,0.0011 -0.452998,0.144 -0.0021,0.0011 -0.458002,0.133001 -0.0021,0.0011 -0.462003,0.121999 h -0.0021 l -0.465998,0.112001 h -0.003 l -0.471,0.101 -0.003,0.0011 -0.956,0.174 -0.004,0.0011 -0.977998,0.138999 h -0.003 l -1.001001,0.109 h -0.0021 l -1.024001,0.082 h -0.003 l -1.049001,0.059 h -0.0021 l -1.075999,0.04 h -0.0011 l -1.104,0.024 h -0.0011 l -1.132999,0.01299 h -0.0011 l -1.164,0.005 h -0.0011 l -1.196001,0.0021 h -0.0011 l -1.299001,-0.01 h -0.0021 l -1.264999,-0.031 h -0.0021 l -1.232001,-0.052 h -0.0011 l -1.196999,-0.073 h -0.0021 l -1.162,-0.093 -0.0021,-0.0011 -1.127001,-0.112001 -0.003,-0.0011 -1.090999,-0.132 h -0.0021 l -1.056,-0.151001 h -0.0021 l -1.02,-0.168999 -0.0021,-0.0011 -0.984001,-0.186999 -0.0021,-0.0011 -0.947002,-0.203999 -0.003,-0.0011 -0.909,-0.220999 -0.003,-0.0011 -0.872001,-0.238001 -0.003,-0.0011 -0.835002,-0.255 h -0.003 l -0.795999,-0.269999 -0.003,-0.0021 -0.758,-0.285001 -0.003,-0.0011 -0.72,-0.299997 -0.003,-0.0021 -0.680998,-0.314002 -0.003,-0.0021 -0.641001,-0.327999 -0.004,-0.0021 -0.600998,-0.341001 -0.004,-0.003 -0.562002,-0.354 -0.004,-0.003 -0.520999,-0.366999 -0.004,-0.003 -0.479999,-0.379 -0.005,-0.004 -0.438999,-0.390002 -0.003,-0.003 -0.256,-0.25 -0.0021,-0.0021 -0.245999,-0.254 -0.0021,-0.0021 -0.236,-0.258998 -0.0021,-0.0021 -0.226999,-0.264001 -0.0011,-0.0021 -0.218001,-0.268999 -0.0021,-0.003 -0.208,-0.274 -0.003,-0.003 -0.390998,-0.562999 -0.003,-0.005 -0.358,-0.582999 -0.003,-0.005 -0.3269992,-0.603002 -0.0021,-0.005 -0.297,-0.622999 -0.0021,-0.005 -0.269002,-0.643999 -0.0021,-0.005 -0.243001,-0.665001 -0.0011,-0.004 -0.219001,-0.685998 -0.0011,-0.003 -0.195998,-0.706001 v -0.004 l -0.175,-0.728001 -0.0011,-0.003 -0.156001,-0.749001 -0.0011,-0.0021 -0.137999,-0.771001 -0.0011,-0.003 -0.121999,-0.791998 -0.0011,-0.0021 -0.109001,-0.813001 v -0.0011 l -0.09895,-0.835326 v -0.0021 l -0.087,-0.857002 v -0.0011 l -0.078,-0.878973 v -0.0011 l -0.072,-0.90096 v -0.0011 l -0.066,-0.923999 v 0 l -0.063,-0.944999 v -0.0011 l -0.061,-0.968002 h -0.0011 l -0.061,-0.99 -0.036,-0.493998 -0.045,-0.479002 -0.115001,-0.922999 -0.147,-0.874 -0.175001,-0.826 -0.200998,-0.782 -0.224002,-0.737 -0.241998,-0.694999 -0.259001,-0.654 -0.271999,-0.615 -0.282001,-0.576001 -0.29,-0.540001 -0.293,-0.505 -0.295001,-0.472998 -0.292,-0.440002 -0.286999,-0.409999 -0.280001,-0.381 -0.267999,-0.353999 -0.254,-0.328001 -0.237,-0.304001 v 0 l -0.217001,-0.280998 -10e-4,-0.0011 -0.193,-0.260001 -10e-4,-0.003 -0.165999,-0.239001 -0.003,-0.004 -0.136,-0.220001 -0.004,-0.008 -0.103089,-0.202875 c -0.0017,-0.003 -0.0031,-0.0063 -0.0046,-0.0094 l -0.08226,-0.215768 -0.002,-0.008 -0.075,-0.257001 -0.002,-0.005 -0.068,-0.293 -0.001,-0.005 -0.06,-0.326998 -0.001,-0.003 -0.052,-0.355999 -10e-4,-0.003 -0.044,-0.383 -0.001,-0.003 -0.036,-0.405 v -0.0021 l -0.02799,-0.4247833 v -0.003 l -0.02,-0.440002 v -0.0021 l -0.01,-0.451998 v -0.0021 l 0.0062,-0.461637 v -0.0021 l 0.008,-0.466 v -0.0021 l 0.018,-0.467 v -0.0021 l 0.028,-0.466 v -0.0021 l 0.038,-0.459983 v -0.003 l 0.049,-0.451 v -0.0021 l 0.059,-0.438002 v -0.003 l 0.07,-0.422 10e-4,-0.004 0.081,-0.403 0.001,-0.004 0.092,-0.379 10e-4,-0.004 0.104,-0.353002 0.002,-0.006 0.116,-0.323001 0.002,-0.006 0.128001,-0.288999 0.004,-0.009 0.140348,-0.250883 c 0.003,-0.0046 0.006,-0.0091 0.009,-0.01318 l 0.046,-0.058 c 0.0042,-0.005 0.0085,-0.0095 0.01295,-0.01373 l 0.065,-0.056 c 0.0035,-0.0026 0.0069,-0.0052 0.0101,-0.0074 z"
       id="path1494" />
    <path
       style="fill:none;stroke:#00ff00;stroke-width:0.26458332"
       d="M 118.14637,2.2146547 Z"
       id="path1492" />
    <path
       style="fill:none;stroke:#00ff00;stroke-width:0.26458332"
       d="M 105.20237,2.0456547 Z"
       id="path1490" />
    <path
       style="fill:none;stroke:#00ff00;stroke-width:0.26458332"
       d="M 80.355373,5.7066547 Z"
       id="path1488" />
    <path
       style="fill:none;stroke:#00ff00;stroke-width:0.26458332"
       d="M 22.162375,1.6896557 Z"
       id="path1486" />
    <path
       style="fill:none;stroke:#00ff00;stroke-width:0.26458332"
       d="M 11.682375,1.1666557 Z"
       id="path1484" />
    <path
       style="fill:none;stroke:#00ff00;stroke-width:0.26458332"
       d="M 8.4653748,7.0606547 Z"
       id="path1482" />
    <path
       style="fill:none;stroke:#00ff00;stroke-width:0.26458332"
       d="m 8.7163738,7.9266547 v -2.299999 h -2.999999 v 2.299999 h 2.249001 z"
       id="path1480" />
    <path
       style="fill:none;stroke:#00ff00;stroke-width:0.26458332"
       d="M 7.4653768,7.0606547 Z"
       id="path1478" />
    <path
       style="fill:none;stroke:#00ff00;stroke-width:0.26458332"
       d="M 7.8503748,10.959656 Z"
       id="path1476" />
    <path
       style="fill:none;stroke:#00ff00;stroke-width:0.26458332"
       d="m 8.7163738,11.459657 v -0.751001 h -2.999999 v 2.300999 h 2.999999 z"
       id="path1474" />
    <path
       style="fill:none;stroke:#00ff00;stroke-width:0.26458332"
       d="M 7.8503748,11.959656 Z"
       id="path1472" />
    <path
       style="fill:none;stroke:#00ff00;stroke-width:0.26458332"
       d="M 14.829377,12.568655 Z"
       id="path1470" />
    <path
       style="fill:none;stroke:#00ff00;stroke-width:0.26458332"
       d="M 40.557375,7.2906547 Z"
       id="path1468" />
    <path
       style="fill:none;stroke:#00ff00;stroke-width:0.26458332"
       d="M 32.266376,44.554655 Z"
       id="path1466" />
    <path
       style="fill:none;stroke:#00ff00;stroke-width:0.26458332"
       d="m 16.283376,41.041656 0.464,0.335999 0.496001,0.319 0.562999,0.323001 0.575,0.298 0.587,0.273 0.598,0.251 0.607,0.226999 0.617,0.206999 0.624001,0.186002 0.63,0.167 0.637,0.149 0.640998,0.131998 0.645001,0.116002 0.647999,0.1 0.650002,0.087 0.650999,0.074 0.651,0.063 0.649999,0.051 0.648002,0.042 0.644998,0.033 0.642001,0.02601 0.636,0.019 0.629999,0.014 0.624001,0.01 0.616001,0.006 0.607999,0.004 0.619,0.005 h 0.0011 l 0.650999,0.007 0.68,0.008 0.704999,0.006 0.728001,0.0011 0.748001,-0.004 0.764,-0.01299 0.777999,-0.02299 0.788001,-0.036 0.795999,-0.051 0.800999,-0.067 0.803,-0.086 0.802,-0.107 0.797002,-0.13 0.789998,-0.155001 0.780002,-0.182999 0.766998,-0.212 0.751001,-0.242999 0.731999,-0.277 0.357,-0.151 0.352002,-0.160002 0.345998,-0.17 0.339,-0.179999 0.332002,-0.19 0.323998,-0.199001 0.317,-0.211 0.309001,-0.219998 0.301001,-0.232 0.291999,-0.243001 0.287999,-0.257001 0.288999,-0.271999 0.289002,-0.286999 0.288999,-0.3 0.577001,-0.644002 0.573,-0.695999 0.567,-0.745001 0.558001,-0.790998 0.547999,-0.835001 0.535001,-0.872001 0.518999,-0.909 0.502999,-0.942999 0.481999,-0.971999 0.460002,-0.999001 0.436999,-1.021 0.410001,-1.042001 0.381,-1.058 0.349999,-1.072999 0.316,-1.082001 0.282001,-1.088998 0.243999,-1.094002 0.107,-0.546999 0.097,-0.547 0.086,-0.545999 0.076,-0.545 0.064,-0.544002 0.053,-0.540999 0.042,-0.540001 0.029,-0.535998 0.01799,-0.534001 0.005,-0.529 -0.01201,-0.519999 -0.034,-0.504002 -0.054,-0.49 -0.074,-0.473998 -0.094,-0.461 -0.112001,-0.447 -0.132,-0.433001 -0.149,-0.418 -0.167,-0.406 -0.183999,-0.391999 -0.201002,-0.379002 -0.215998,-0.365998 -0.233,-0.353 -0.247001,-0.341 -0.260999,-0.329001 -0.276,-0.316 -0.289001,-0.303998 -0.301998,-0.292003 -0.315,-0.281 -0.327001,-0.268999 -0.338,-0.257 -0.350002,-0.245999 -0.36,-0.236001 -0.369998,-0.2249993 -0.379,-0.213 -0.389042,-0.20404 -0.395999,-0.191997 -0.405001,-0.182002 -0.411998,-0.172 -0.420002,-0.161999 -0.424998,-0.153001 -0.431001,-0.142999 -0.437002,-0.133001 -0.440999,-0.124 -0.895998,-0.220001 -0.909,-0.185999 -0.917001,-0.15 -0.922002,-0.118999 -0.921999,-0.086 -0.919001,-0.056 -0.911997,-0.028 -0.953,-0.02101 h -0.0011 l -1.037,-0.033 v 0 l -1.113001,-0.042 -1.178999,-0.048 -1.236001,-0.049 -1.285,-0.048 -1.324999,-0.042 -1.357,-0.033 -1.38,-0.02 -1.393,-0.004 -1.399,0.015 -1.395,0.039 -1.383,0.066 -1.362001,0.097 -1.333,0.129 -0.652,0.08 -0.642,0.089 -0.63,0.099 -0.617,0.109 -0.601999,0.122 -0.587999,0.132 -0.572,0.145 -0.554001,0.156001 -0.535,0.17 -0.516999,0.182999 -0.495001,0.197001 -0.474001,0.21 -0.450998,0.224999 -0.427001,0.241001 -0.402,0.255 -0.375999,0.2699993 -0.349001,0.286999 -0.321001,0.304001 -0.301,0.316 -0.287999,0.322 -0.274,0.325998 -0.007,0.01 -0.252,0.322001 -0.246999,0.333999 -0.233,0.340001 -0.220001,0.344 -0.208,0.346999 -0.195001,0.351001 -0.183999,0.356 -0.172,0.358 -0.160999,0.362 -0.151,0.366001 -0.139002,0.367998 -0.129998,0.372001 -0.119001,0.374 -0.21,0.755999 -0.174001,0.767 -0.140999,0.774999 -0.110001,0.781 -0.081,0.789001 -0.056,0.793001 -0.032,0.796999 -0.01101,0.799 0.007,0.802002 0.024,0.799999 0.036,0.801 0.047,0.797999 0.055,0.794001 0.061,0.789999 0.063,0.784 0.065,0.776999 0.066,0.762 0.074,0.741003 0.082,0.721997 0.09,0.701001 0.101,0.682 0.112001,0.661001 0.123999,0.641998 0.137001,0.622001 0.151998,0.602001 0.167003,0.582999 0.183999,0.562002 0.200998,0.542999 0.219001,0.523999 0.239001,0.503999 0.260001,0.486 0.280998,0.465003 0.305001,0.446998 0.327999,0.428 0.353001,0.410001 0.379,0.390999 0.406001,0.372001 z"
       id="path1464" />
    <path
       style="fill:none;stroke:#00ff00;stroke-width:0.26458332"
       d="M 15.446377,11.780654 Z"
       id="path1462" />
    <path
       style="fill:none;stroke:#00ff00;stroke-width:0.26458332"
       d="M 124.19637,11.800654 Z"
       id="path1460" />
    <path
       style="fill:none;stroke:#00ff00;stroke-width:0.26458332"
       d="m 80.903373,20.905654 0.047,0.542002 0.058,0.543999 0.07,0.546 0.081,0.547999 0.091,0.548 0.1,0.548002 0.232,1.096 0.27,1.091999 0.305,1.085 0.339,1.077 0.369,1.063001 0.398,1.044998 0.426,1.027001 0.449,1.003999 0.471,0.976 0.492,0.949 0.511,0.914 0.524,0.879002 0.539,0.839999 0.55,0.796999 0.559,0.751001 0.565,0.702001 0.57,0.650999 0.285,0.303001 0.286,0.289999 0.286,0.275 0.286,0.260001 0.289,0.246999 0.299,0.235 0.306,0.223999 0.315,0.213 0.322,0.204002 0.33,0.193 0.336,0.182999 0.345,0.174001 0.349,0.163999 0.356,0.155001 0.729,0.284999 0.749,0.251999 0.764,0.220001 0.778,0.191 0.788,0.164 0.796,0.138001 0.8,0.115999 0.803,0.095 0.798997,0.076 0.796,0.059 0.788,0.045 0.777,0.031 0.764,0.02101 0.748,0.01299 0.728,0.006 0.705,0.0021 h 0.68 0.652 v 0 l 0.619,0.0011 v 0 l 0.608,0.003 0.616,0.0011 0.624,-0.003 0.63,-0.007 0.638,-0.01201 0.641,-0.019 0.645,-0.02601 0.649,-0.035 0.65,-0.045 0.652,-0.055 0.652,-0.067 0.651,-0.079 0.649,-0.094 0.646,-0.109 0.643,-0.125 0.638,-0.141999 0.632,-0.159999 0.626,-0.179001 0.619,-0.199999 0.609,-0.221001 0.601,-0.244001 0.59,-0.266999 0.578,-0.292 0.567,-0.317 0.499,-0.311999 0.467,-0.331002 0.439,-0.349998 0.41,-0.368001 0.384,-0.386998 0.357,-0.405001 0.334,-0.425 0.308,-0.443 0.287,-0.463002 0.265,-0.482 0.244,-0.501999 0.225,-0.521999 0.208,-0.540001 0.189,-0.560999 0.174,-0.580001 0.158,-0.600998 0.144,-0.620001 0.131,-0.640001 0.119,-0.661 0.108,-0.680001 0.099,-0.7 0.089,-0.721 0.082,-0.74 0.074,-0.762997 0.073,-0.775002 0.072,-0.783 0.07,-0.789001 0.064,-0.793999 0.055,-0.796999 0.046,-0.800002 0.031,-0.800999 0.016,-0.801 -0.002,-0.798999 -0.024,-0.797999 -0.046,-0.794002 -0.072,-0.789001 -0.102,-0.782999 -0.132,-0.776 -0.166,-0.769 -0.202,-0.758 -0.115,-0.374999 -0.125,-0.374002 -0.136,-0.368998 -0.146,-0.368002 -0.157,-0.363 -0.169,-0.360997 -0.18,-0.357003 -0.191,-0.353999 -0.205,-0.348999 -0.216,-0.347001 -0.229,-0.341 -0.243,-0.338 -0.256,-0.333999 -0.27,-0.329002 -0.284,-0.324998 -0.009,-0.009 -0.28901,-0.309999 -0.318,-0.308001 -0.34599,-0.289999 -0.37301,-0.275 -0.399,-0.260001 -0.425,-0.2439993 -0.448,-0.229999 -0.47099,-0.216001 -0.49301,-0.202999 -0.515,-0.188002 -0.53399,-0.175998 -0.552,-0.163002 -0.57,-0.15 -0.58601,-0.138999 -0.60199,-0.128 -0.61601,-0.116999 -0.628,-0.105 -0.641,-0.096 -0.651,-0.086 -1.33199,-0.143999 -1.36,-0.112001 -1.38301,-0.081 -1.394,-0.054 -1.399,-0.031 -1.393,-0.01101 -1.38,0.006 -1.356,0.01799 -1.32699,0.027 -1.28501,0.034 -1.23699,0.036 -1.178997,0.034 v 0 l -1.113,0.03 h -0.001 l -1.037,0.02201 h -0.001 l -0.952,0.01101 -0.913,0.01701 -0.919,0.047 -0.923,0.077 -0.924,0.107 -0.918,0.140999 -0.911,0.175001 -0.899,0.211 -0.442,0.118999 -0.438,0.129 -0.433,0.137001 -0.427,0.147998 -0.421,0.158001 -0.414,0.166999 -0.407,0.178002 -0.399,0.188999 -0.39,0.197999 -0.381,0.2100023 -0.374,0.219999 -0.362,0.231999 -0.352,0.242002 -0.341,0.254 -0.33,0.265998 -0.318,0.277 -0.305,0.288999 -0.293,0.301001 -0.279,0.313002 -0.265,0.324998 -0.25,0.339 -0.237,0.350999 -0.22,0.363 -0.205,0.377002 -0.188,0.389999 -0.172,0.404 -0.153,0.415999 -0.137,0.432001 -0.118,0.445 -0.098,0.46 -0.08,0.474001 -0.058,0.489 -0.04,0.504 -0.018,0.518998 v 0.53 l 0.011,0.534001 0.024,0.536001 z"
       id="path1458" />
    <path
       style="fill:none;stroke:#00ff00;stroke-width:0.26458332"
       d="M 124.87937,12.531655 Z"
       id="path1456" />
    <path
       style="fill:none;stroke:#00ff00;stroke-width:0.26458332"
       d="M 131.76737,11.574655 Z"
       id="path1454" />
    <path
       style="fill:none;stroke:#00ff00;stroke-width:0.26458332"
       d="m 131.51637,13.009654 h 3 v -2.300995 h -2.249 -0.751 z"
       id="path1452" />
    <path
       style="fill:none;stroke:#00ff00;stroke-width:0.26458332"
       d="M 132.76737,11.574655 Z"
       id="path1450" />
    <path
       style="fill:none;stroke:#00ff00;stroke-width:0.26458332"
       d="M 134.26537,7.0606547 Z"
       id="path1448" />
    <path
       style="fill:none;stroke:#00ff00;stroke-width:0.26458332"
       d="m 133.76537,7.9266537 h 0.751 v -2.299996 h -3 v 2.299999 z"
       id="path1446" />
    <path
       style="fill:none;stroke:#00ff00;stroke-width:0.26458332"
       d="M 133.26537,7.0606547 Z"
       id="path1444" />
    <path
       style="fill:none;stroke:#00ff00;stroke-width:0.26458332"
       d="M 133.26537,7.0606547 Z"
       id="path3587" />
    <path
       style="fill:none;stroke:#ff0000;stroke-width:0.26458332;stroke-opacity:1"
       d="M 26.662109,2.6386719 C 18.905483,3.0678573 10.598213,2.1450265 3.3261719,4.2988281 2.0464936,7.7949731 2.1756702,12.127281 4.9472656,14.847656 c 3.6345209,5.072415 3.6074631,11.453466 3.9914865,17.376455 0.3753544,5.47601 3.1501659,11.455768 8.9342949,12.887217 8.567974,3.037279 17.918296,2.66479 26.824219,1.644531 9.66606,-2.336551 14.418261,-12.264337 16.6875,-21.169921 1.213104,-4.133516 3.197147,-9.853777 8.255859,-10.25586 4.448418,-0.232552 7.346441,3.985572 8.166016,7.902344 2.643407,8.158233 4.995719,17.554897 13.017578,22.101562 7.726211,3.656998 16.683711,2.534654 24.966801,1.921875 5.9738,-0.641176 12.99211,-3.531078 14.39453,-10.142578 2.04282,-7.486341 0.10108,-16.589995 6.0332,-22.679687 C 138.22956,11.786346 137.83524,8.0159314 137,5.0410156 131.60498,3.2804916 125.43898,3.5516753 119.69531,3.2578125 107.58547,3.3935737 91.228705,1.5788324 83.603423,5.3979725 77.982663,8.3484867 73.614612,10.612432 68.063189,9.7377297 63.630825,9.5374743 60.106136,6.6795457 56.277344,4.9082031 47.179465,2.0572563 37.477543,2.9664465 28.062503,2.6369974 c -0.466798,5.582e-4 -0.933596,0.00112 -1.400394,0.00167 z"
       id="path1502"
       inkscape:connector-curvature="0"
       sodipodi:nodetypes="ccccccccccccccccccccc" />
    <path
       style="fill:none;stroke:#ff0000;stroke-width:0.26458332;stroke-opacity:1"
       d="M 25.263672,3.7050781 C 18.185533,3.970004 11.012076,3.2827964 4.0996094,5.125 c -1.6957047,4.0459817 0.4503949,8.181233 2.9768569,11.263629 4.2586587,7.632967 0.5966367,17.563017 6.1051747,24.607465 4.883015,4.87846 12.408548,4.899722 18.845703,5.501953 5.77279,-0.143888 11.998933,0.23748 17.134765,-2.705078 7.664736,-4.85586 10.058843,-14.156237 12.512633,-22.326423 1.469513,-4.313263 6.010966,-8.643162 10.848696,-6.693108 6.200312,2.514128 6.518732,10.267497 8.655196,15.620305 2.330723,7.142675 7.277449,14.747413 15.332489,15.742674 8.131427,1.463001 16.707667,0.809233 24.721297,-1.111026 4.89871,-1.593727 8.53876,-6.106376 8.60433,-11.403926 0.80789,-7.070971 0.75814,-15.186062 6.10661,-20.640996 1.09115,-2.237849 0.80996,-4.8284964 0.23047,-7.1269534 C 125.01329,3.2980688 113.41864,4.6351726 102.05274,4.0702922 92.740626,3.975141 87.315409,4.3178946 79.542214,8.6047183 73.035965,11.901043 64.805257,11.706544 58.857422,7.2734375 48.709242,2.2936936 37.12207,4.1963861 26.199753,3.6617764 l -0.499466,0.023105 z"
       id="path1508"
       inkscape:connector-curvature="0"
       sodipodi:nodetypes="cccccccccccccccccccc" />
    <path
       style="fill:none;stroke:#ff0000;stroke-width:0.26458332;stroke-opacity:1"
       d="M 24.410156,4.7402344 C 17.848185,5.0490146 10.917018,4.091104 4.7539062,6.2441406 3.1608353,12.185105 9.676615,16.099138 9.9654089,21.788988 c 1.2740551,6.798029 -0.4681478,15.500847 5.9349821,20.080153 7.310945,4.316751 16.261762,3.49719 24.413502,3.412819 5.951581,-0.313916 11.669784,-3.470335 14.492748,-8.697976 3.99186,-5.993586 4.236261,-13.670309 8.214843,-19.615234 3.070486,-4.086464 9.786679,-5.111586 13.195313,-0.859375 5.076355,5.599457 4.542128,13.92501 8.59375,20.132813 2.952467,5.414623 8.613757,9.425095 14.916015,9.332031 8.017438,0.702263 16.597238,0.498548 24.064458,-2.84961 4.91658,-3.068361 5.43216,-9.322117 5.55234,-14.542174 0.48527,-5.838009 2.0609,-11.864484 5.97109,-16.346497 0.7056,-2.1605619 0.90837,-5.9982041 -2.38281,-5.5800786 C 120.55512,4.4349169 108.00056,5.4611664 95.545646,5.1772977 87.376339,5.3411397 84.089987,7.4631693 77.580964,10.549407 70.934471,13.078309 63.179082,11.849951 57.446936,7.7315509 47.013214,3.2577961 35.42141,5.1816323 24.410156,4.7402344 Z"
       id="path1514"
       inkscape:connector-curvature="0"
       sodipodi:nodetypes="cccccccccccccccccc" />
    <path
       style="fill:none;stroke:#ff0000;stroke-width:0.26458332;stroke-opacity:1"
       d="M 36.978516,5.7011719 C 26.699393,6.3034229 16.250986,4.7611103 6.1269531,6.84375 c -1.6563881,1.2707227 0.1368484,3.945199 0.7088934,5.531707 2.2644902,3.768133 4.7370615,7.714169 4.5110895,12.296583 0.496742,5.610749 -0.01051,12.570584 5.106189,16.35921 8.38855,4.522145 18.422128,3.595382 27.569818,2.686512 C 51.475154,41.861139 55.837728,34.536923 57.615234,27.6875 59.298949,22.013798 61.128671,14.457457 67.699219,12.701172 63.018359,12.353893 58.991918,9.8079005 54.909519,7.8348705 49.164072,5.850876 42.997819,5.658787 36.978516,5.7011719 Z M 110.58984,6.1210938 C 103.37709,6.529144 96.024241,5.6096616 88.908203,7.0039062 83.239581,8.0610101 78.536734,12.143479 72.746094,12.742188 c 5.970432,1.713211 7.746001,8.628694 9.403923,13.847191 1.641663,7.233618 5.55701,15.15758 13.300381,17.315957 6.221122,1.443338 12.839062,1.074364 19.106192,0.468592 4.92847,-0.803529 11.36424,-2.334168 12.7246,-8.011668 1.67286,-6.384868 0.56749,-13.530694 3.77973,-19.613194 0.92603,-3.143478 5.1148,-5.696526 3.19103,-9.1885191 -3.52441,-0.9524799 -7.59139,-0.8235822 -11.29101,-1.2050781 -4.12008,-0.2094194 -8.24629,-0.2582674 -12.3711,-0.234375 z"
       id="path1520"
       inkscape:connector-curvature="0" />
    <path
       style="fill:none;stroke:#ff0000;stroke-width:0.26458332;stroke-opacity:1"
       d="M 17.603516,6.7011719 C 13.97663,6.9208433 9.7473122,6.8146367 6.59375,8.1738281 7.0387927,12.893921 11.380554,16.196083 11.955078,21 c 1.324059,6.153105 -0.6328,13.735279 4.390625,18.539062 7.617674,5.1041 17.238049,4.033757 25.908121,3.352834 C 50.102663,42.18868 54.835236,34.564471 56.557754,27.600407 58.23844,22.434821 59.576066,16.365934 64.363281,13.111328 58.114859,11.182011 52.597306,6.898563 45.832229,6.9966401 36.944829,6.3883818 27.954451,7.1446454 19.021505,6.688176 c -0.472663,0.00433 -0.945326,0.00866 -1.417989,0.012996 z m 93.029294,0.4199219 c -10.20305,0.442655 -19.782186,-1.5791311 -30.247998,4.2487082 -1.48626,0.681534 -3.168743,1.23733 -4.426572,1.681072 8.057791,6.260837 6.031861,18.813962 13.119885,25.693267 3.705672,4.398353 9.556796,5.193553 14.958665,5.090111 6.72572,0.133688 14.16362,0.0015 19.93196,-3.894799 4.39816,-4.591141 2.75952,-11.557204 4.07994,-17.267742 0.76701,-4.660485 3.31473,-8.737017 5.6642,-12.6931954 0.80348,-2.0518619 -3.1033,-2.207335 -6.08453,-2.3874224 -2.98123,-0.1800873 -11.05631,-0.5023647 -16.99555,-0.4699994 z"
       id="path1526"
       inkscape:connector-curvature="0"
       sodipodi:nodetypes="cccccccccccccccccczc" />
    <path
       style="fill:none;stroke:#ff0000;stroke-width:0.26458332;stroke-opacity:1"
       d="M 16.332031,7.78125 C 13.447847,7.9586958 10.380299,7.8002884 7.7363281,8.9082031 9.3179328,14.10093 13.722772,18.383189 13.390914,24.14298 c 0.449874,5.135782 -0.404221,11.412167 4.212602,15.01327 8.40125,4.706479 18.428009,3.592071 27.518343,2.063982 7.523053,-2.890638 9.993149,-11.433765 11.925379,-18.45939 1.113127,-3.404919 2.604138,-6.848606 5.292606,-9.31553 C 55.876746,10.658685 49.267459,7.1474903 41.994141,7.8242188 33.441594,7.6973353 24.879506,7.8747397 16.332031,7.78125 Z M 110.66211,8.1210938 C 100.23826,8.8486266 91.657706,6.0288692 78.029913,13.520323 c 7.380587,7.982716 5.514614,21.025604 14.274775,26.725771 6.634437,3.950585 14.818202,2.546507 22.117222,2.076234 4.76463,-0.443806 10.65117,-2.586513 11.28707,-8.086 1.23051,-6.338203 0.37606,-13.360354 3.91211,-19.146484 1.00834,-1.895351 2.35831,-3.653409 2.98438,-5.7226565 -2.61108,-0.9766918 -5.53214,-0.7218963 -8.31361,-0.9079551 -4.53451,-0.3033244 -9.08473,-0.3590413 -13.62975,-0.3381386 z"
       id="path1532"
       inkscape:connector-curvature="0"
       sodipodi:nodetypes="ccccccccccccccccac" />
    <path
       style="fill:none;stroke:#ff0000;stroke-width:0.26458332;stroke-opacity:1"
       d="M 43.380859,8.7460938 C 31.990371,9.1370316 20.393519,8.1124595 9.1386719,9.3984375 c 0.709176,3.3892435 3.5165231,6.1789645 4.3968991,9.6323295 2.363555,6.130145 -0.917049,14.028518 4.360913,19.037592 8.288656,4.895267 18.478171,3.768967 27.5625,1.925782 7.899534,-3.793308 9.051636,-13.413519 11.828125,-20.748047 0.838576,-1.968558 1.905413,-3.862271 3.330079,-5.46875 C 55.144816,11.39078 49.480047,8.6060217 43.380859,8.7460938 Z M 111.4375,9.0839844 C 100.68999,9.37233 88.952529,7.9571791 79.457031,13.929688 c 6.599493,6.994834 4.760732,18.860981 12.679688,24.976562 7.705319,4.869618 17.260291,2.792729 25.733191,1.814573 4.1839,-0.88456 7.58942,-4.718121 7.1965,-9.099729 0.56834,-7.015318 1.13617,-14.539682 5.60742,-20.322266 1.56841,-1.6680368 -0.35349,-1.5487273 -1.68138,-1.4780254 C 123.14465,9.5043767 117.29844,9.024349 111.4375,9.0839844 Z"
       id="path1546"
       inkscape:connector-curvature="0" />
    <path
       style="fill:none;stroke:#ff0000;stroke-width:0.26458332;stroke-opacity:1"
       d="M 41.755859,9.6777344 C 31.350947,10.207113 20.85027,9.1343102 10.496094,10.291016 c 2.508488,5.004731 5.610179,10.132849 5.059526,15.974533 -0.192724,4.719122 0.457651,11.141556 6.015894,12.450719 7.914548,2.913961 16.956076,2.211236 24.834736,-0.409627 C 54.564103,32.766888 53.519242,21.522952 59.027344,14.154297 53.660561,11.626659 47.803827,9.4754868 41.755859,9.6777344 Z m 69.011721,0.4121096 c -9.98697,0.2586 -20.69718,-0.9686643 -29.771486,4.095703 5.951963,7.161615 4.25973,18.669867 12.382812,24.296875 8.148354,4.242909 17.705984,2.320291 26.281254,0.58789 3.73446,-1.707641 4.91579,-6.082251 4.5957,-9.853515 0.52531,-6.383917 1.55428,-13.123449 5.49219,-18.386719 -6.32561,-0.265612 -12.64406,-0.8393427 -18.98047,-0.740234 z"
       id="path1552"
       inkscape:connector-curvature="0" />
    <path
       style="fill:none;stroke:#ff0000;stroke-width:0.26458332;stroke-opacity:1"
       d="m 41.798828,10.677734 c -9.899945,0.499215 -19.867356,-0.441102 -29.720703,0.46875 3.177694,5.505964 5.290102,11.842789 4.468402,18.25142 0.0037,4.017446 2.431887,8.518447 6.799176,8.850143 7.747254,2.160472 16.610725,1.962914 23.806641,-1.789063 6.251721,-5.704761 5.858155,-15.07445 10.376953,-21.892578 -4.962662,-2.25295 -10.21645,-4.054616 -15.730469,-3.888672 z m 68.988282,0.41211 c -9.44707,0.25482 -19.579002,-0.883037 -28.277344,3.439453 5.167055,7.072631 3.890061,17.586796 11.392578,23.095703 8.279726,4.025795 17.808246,2.364243 26.244136,0.0332 4.39968,-3.281994 2.66548,-9.363785 3.73633,-14.025391 0.64928,-4.148005 1.78871,-8.302214 4.03516,-11.888671 -5.70761,-0.275459 -11.41228,-0.732603 -17.13086,-0.654297 z"
       id="path1566"
       inkscape:connector-curvature="0" />
    <path
       style="fill:none;stroke:#ff0000;stroke-width:0.26458332;stroke-opacity:1"
       d="m 41.841797,11.677734 c -9.367388,0.464982 -18.805609,-0.341278 -28.132813,0.345704 3.319762,5.773877 4.413209,12.548588 3.966797,19.113281 0.516067,3.785306 3.868662,6.509345 7.604117,6.553308 7.346122,1.550845 15.904411,1.613123 22.20643,-2.998621 4.846994,-5.584136 4.91184,-13.462608 8.589844,-19.675781 -4.481345,-1.958246 -9.289839,-3.485176 -14.234375,-3.337891 z m 68.964843,0.41211 c -8.97748,0.264954 -18.344324,-0.824304 -26.808593,2.855468 4.531692,6.95306 3.481458,17.005608 10.863281,22.021485 8.071212,3.439619 17.426292,2.316456 25.376952,-0.748047 3.66588,-4.557716 1.30824,-10.875016 3.29297,-16.060547 0.60144,-2.594921 1.45616,-5.14564 2.70898,-7.501953 -5.14108,-0.260057 -10.28266,-0.630392 -15.43359,-0.566406 z"
       id="path1572"
       inkscape:connector-curvature="0" />
  </g>
</svg>
