<?xml version="1.0" encoding="UTF-8" standalone="no"?>
<!-- Created with Inkscape (http://www.inkscape.org/) -->

<svg
   xmlns:dc="http://purl.org/dc/elements/1.1/"
   xmlns:cc="http://creativecommons.org/ns#"
   xmlns:rdf="http://www.w3.org/1999/02/22-rdf-syntax-ns#"
   xmlns:svg="http://www.w3.org/2000/svg"
   xmlns="http://www.w3.org/2000/svg"
   xmlns:sodipodi="http://sodipodi.sourceforge.net/DTD/sodipodi-0.dtd"
   xmlns:inkscape="http://www.inkscape.org/namespaces/inkscape"
   width="210mm"
   height="297mm"
   viewBox="0 0 210 297"
   version="1.1"
   id="svg7319"
   inkscape:version="0.92.2 (5c3e80d, 2017-08-06)"
   sodipodi:docname="Front_Kerf02_Width3_2_concentric.svg">
  <sodipodi:namedview
     id="base"
     pagecolor="#ffffff"
     bordercolor="#666666"
     borderopacity="1.0"
     inkscape:pageopacity="0.0"
     inkscape:pageshadow="2"
     inkscape:zoom="22.4"
     inkscape:cx="520.07732"
     inkscape:cy="1091.5596"
     inkscape:document-units="mm"
     inkscape:current-layer="layer1"
     showgrid="false"
     inkscape:window-width="1920"
     inkscape:window-height="1001"
     inkscape:window-x="-9"
     inkscape:window-y="-9"
     inkscape:window-maximized="1" />
  <defs
     id="defs7313" />
  <metadata
     id="metadata7316">
    <rdf:RDF>
      <cc:Work
         rdf:about="">
        <dc:format>image/svg+xml</dc:format>
        <dc:type
           rdf:resource="http://purl.org/dc/dcmitype/StillImage" />
        <dc:title></dc:title>
      </cc:Work>
    </rdf:RDF>
  </metadata>
  <g
     id="layer1"
     inkscape:groupmode="layer"
     inkscape:label="Ebene 1">
    <path
       id="path10059"
       d="M 133.92898,1.6370789 Z"
       style="fill:none;stroke:#00ff00;stroke-width:0.26458332" />
    <path
       id="path10057"
       d="M 123.24298,1.8030779 Z"
       style="fill:none;stroke:#00ff00;stroke-width:0.26458332" />
    <path
       id="path10055"
       d="M 118.83498,1.6560779 Z"
       style="fill:none;stroke:#00ff00;stroke-width:0.26458332" />
    <path
       id="path10053"
       d="M 114.35698,1.5560779 Z"
       style="fill:none;stroke:#00ff00;stroke-width:0.26458332" />
    <path
       id="path10051"
       d="M 109.98298,1.5000779 Z"
       style="fill:none;stroke:#00ff00;stroke-width:0.26458332" />
    <path
       id="path10049"
       d="M 105.89098,1.4870879 Z"
       style="fill:none;stroke:#00ff00;stroke-width:0.26458332" />
    <path
       id="path10047"
       d="M 60.60198,5.0360799 Z"
       style="fill:none;stroke:#00ff00;stroke-width:0.26458332" />
    <path
       id="path10037"
       d="M 104.43198,48.244079 Z"
       style="fill:none;stroke:#00ff00;stroke-width:0.26458332" />
    <path
       id="path10035"
       d="M 133.24398,26.404079 Z"
       style="fill:none;stroke:#00ff00;stroke-width:0.26458332" />
    <path
       id="path10033"
       d="M 132.93398,1.5320789 Z"
       style="fill:none;stroke:#00ff00;stroke-width:0.26458332" />
    <path
       id="path10031"
       d="M 133.47098,7.1510799 Z"
       style="fill:none;stroke:#00ff00;stroke-width:0.26458332" />
    <path
       id="path10027"
       d="M 133.47098,6.1510789 Z"
       style="fill:none;stroke:#00ff00;stroke-width:0.26458332" />
    <path
       id="path10025"
       d="M 132.87198,11.183079 Z"
       style="fill:none;stroke:#00ff00;stroke-width:0.26458332" />
    <path
       id="path10021"
       d="M 133.87198,11.183079 Z"
       style="fill:none;stroke:#00ff00;stroke-width:0.26458332" />
    <path
       id="path10019"
       d="M 86.714979,10.531079 Z"
       style="fill:none;stroke:#00ff00;stroke-width:0.26458332" />
    <path
       id="path10017"
       d="M 100.37698,7.0550779 Z"
       style="fill:none;stroke:#00ff00;stroke-width:0.26458332" />
    <path
       id="path10013"
       d="M 107.64198,44.40508 Z"
       style="fill:none;stroke:#00ff00;stroke-width:0.26458332" />
    <path
       id="path10011"
       d="M 87.574978,10.021079 Z"
       style="fill:none;stroke:#00ff00;stroke-width:0.26458332" />
    <path
       id="path10009"
       d="M 18.270981,9.5300777 Z"
       style="fill:none;stroke:#00ff00;stroke-width:0.26458332" />
    <path
       id="path10007"
       d="M 41.245979,6.7320799 Z"
       style="fill:none;stroke:#00ff00;stroke-width:0.26458332" />
    <path
       id="path10003"
       d="M 19.164979,9.0820797 Z"
       style="fill:none;stroke:#00ff00;stroke-width:0.26458332" />
    <path
       id="path10001"
       d="M 8.7379803,6.5530789 Z"
       style="fill:none;stroke:#00ff00;stroke-width:0.1;stroke-miterlimit:4;stroke-dasharray:none" />
    <path
       id="path9997"
       d="M 7.7379793,6.5530789 Z"
       style="fill:none;stroke:#00ff00;stroke-width:0.1;stroke-miterlimit:4;stroke-dasharray:none" />
    <path
       id="path9995"
       d="M 8.1389793,10.585081 Z"
       style="fill:none;stroke:#00ff00;stroke-width:0.1;stroke-miterlimit:4;stroke-dasharray:none" />
    <path
       id="path4796"
       d="M 8.1389793,11.585079 Z"
       style="fill:none;stroke:#00ff00;stroke-width:0.1;stroke-miterlimit:4;stroke-dasharray:none" />
    <path
       transform="scale(0.26458333)"
       id="path1010"
       d="M 105.30662 24.985776 A 75.59055 75.59055 0 0 1 132.85715 19.786276 A 75.59055 75.59055 0 0 1 162.06332 25.656448 "
       style="fill:none;stroke:#ff0000;stroke-width:0.75590551" />
    <path
       transform="scale(0.26458333)"
       id="circle9207"
       d="M 162.98348 164.70457 A 75.59055 75.59055 0 0 1 132.85715 170.96738 A 75.59055 75.59055 0 0 1 105.28719 165.76027 "
       style="fill:none;stroke:#ff0000;stroke-width:0.75590551" />
    <path
       transform="scale(0.26458333)"
       id="path1000"
       d="M 85.14753 27.276536 A 83.149605 83.149605 0 0 1 132.85715 12.227221 A 83.149605 83.149605 0 0 1 179.66496 26.653575 "
       style="fill:none;stroke:#ff0000;stroke-width:0.75590551" />
    <path
       transform="scale(0.26458333)"
       id="circle9209"
       d="M 206.65315 133.6914 A 83.149605 83.149605 0 0 1 132.85715 178.52643 A 83.149605 83.149605 0 0 1 83.382547 162.20587 "
       style="fill:none;stroke:#ff0000;stroke-width:0.75590551" />
    <path
       transform="scale(0.26458333)"
       id="path992"
       d="M 223.54254 93.322433 A 90.70866 90.70866 0 0 1 223.56581 95.376826 L 223.56581 95.376826 L 223.56581 95.376826 A 90.70866 90.70866 0 0 1 167.82242 179.07564 "
       style="fill:none;stroke:#ff0000;stroke-width:0.75590551" />
    <path
       transform="scale(0.26458333)"
       id="path987"
       d="M 66.401896 33.637366 A 90.70866 90.70866 0 0 1 132.85715 4.6681657 A 90.70866 90.70866 0 0 1 195.87411 30.131725 "
       style="fill:none;stroke:#ff0000;stroke-width:0.75590551" />
    <path
       transform="scale(0.26458333)"
       id="path983"
       d="M 52.195467 136.87086 A 90.70866 90.70866 0 0 1 42.148485 95.376826 A 90.70866 90.70866 0 0 1 45.823797 69.817929 "
       style="fill:none;stroke:#ff0000;stroke-width:0.75590551" />
    <path
       transform="scale(0.26458333)"
       id="path1133"
       d="M 97.659963 178.97838 A 90.70866 90.70866 0 0 1 59.996519 149.40821 "
       style="fill:none;stroke:#ff0000;stroke-width:0.75590551" />
    <path
       transform="scale(0.26458333)"
       id="path975"
       d="M 226.76365 66.426669 A 98.267716 98.267716 0 0 1 231.12486 95.376826 L 231.12486 95.376826 L 231.12486 95.376826 A 98.267716 98.267716 0 0 1 218.56813 143.44107 "
       style="fill:none;stroke:#ff0000;stroke-width:0.75590551" />
    <path
       transform="scale(0.26458333)"
       id="path1128"
       d="M 172.50933 5.4643759 A 98.267716 98.267716 0 0 1 213.82161 39.687521 "
       style="fill:none;stroke:#ff0000;stroke-width:0.75590551" />
    <path
       transform="scale(0.26458333)"
       id="path1124"
       d="M 73.91548 174.00522 A 98.267717 98.267717 0 0 1 34.58943 95.376827 A 98.267717 98.267717 0 0 1 96.440322 4.1060271 "
       style="fill:none;stroke:#ff0000;stroke-width:0.75590551" />
    <path
       transform="scale(0.26458333)"
       id="path1117"
       d="M 191.42384 7.2334901 A 105.82677 105.82677 0 0 1 238.67996 94.462039 "
       style="fill:none;stroke:#ff0000;stroke-width:0.75590551" />
    <path
       transform="scale(0.26458333)"
       id="path1113"
       d="M 28.319326 78.910207 A 105.82677 105.82677 0 0 1 78.943113 4.3132089 "
       style="fill:none;stroke:#ff0000;stroke-width:0.75590551" />
    <path
       transform="scale(0.26458333)"
       id="circle9215"
       d="M 50.555668 161.9033 A 105.82677 105.82677 0 0 1 36.100742 138.24294 "
       style="fill:none;stroke:#ff0000;stroke-width:0.75590551" />
    <path
       transform="scale(0.26458333)"
       id="path1104"
       d="M 207.26552 9.8213456 A 113.38583 113.38583 0 0 1 244.86998 77.785058 "
       style="fill:none;stroke:#ff0000;stroke-width:0.75590551" />
    <path
       transform="scale(0.26458333)"
       id="circle9217"
       d="M 23.472658 65.520852 A 113.38583 113.38583 0 0 1 64.762167 4.7158138 "
       style="fill:none;stroke:#ff0000;stroke-width:0.75590551" />
    <path
       transform="scale(0.26458333)"
       id="path1095"
       d="M 223.80148 15.64733 A 120.94488 120.94488 0 0 1 250.66796 68.022196 "
       style="fill:none;stroke:#ff0000;stroke-width:0.75590551" />
    <path
       transform="scale(0.26458333)"
       id="circle9219"
       d="M 18.272487 56.672562 A 120.94488 120.94488 0 0 1 52.276009 5.1862252 "
       style="fill:none;stroke:#ff0000;stroke-width:0.75590551" />
    <path
       transform="scale(0.26458333)"
       id="path1086"
       d="M 240.9637 25.905722 A 128.50394 128.50394 0 0 1 257.036 62.318162 "
       style="fill:none;stroke:#ff0000;stroke-width:0.75590551" />
    <path
       transform="scale(0.26458333)"
       id="circle9221"
       d="M 12.834117 49.466761 A 128.50394 128.50394 0 0 1 40.676454 5.8448121 "
       style="fill:none;stroke:#ff0000;stroke-width:0.75590551" />
    <path
       transform="scale(0.26458333)"
       id="path1077"
       d="M 251.89686 29.47778 A 136.06299 136.06299 0 0 1 264.21146 59.891857 "
       style="fill:none;stroke:#ff0000;stroke-width:0.75590551" />
    <path
       transform="scale(0.26458333)"
       id="circle9223"
       d="M 8.9857568 39.082809 A 136.06299 136.06299 0 0 1 29.577497 6.7966283 "
       style="fill:none;stroke:#ff0000;stroke-width:0.75590551" />
    <path
       transform="scale(0.26458333)"
       id="path1068"
       d="M 261.20105 30.916486 A 143.62205 143.62205 0 0 1 272.08771 60.1328 "
       style="fill:none;stroke:#ff0000;stroke-width:0.75590551" />
    <path
       transform="scale(0.26458333)"
       id="circle9225"
       d="M 8.9945769 22.676372 A 143.62205 143.62205 0 0 1 18.765419 8.1393926 "
       style="fill:none;stroke:#ff0000;stroke-width:0.75590551" />
    <path
       transform="scale(0.26458333)"
       id="circle9227"
       d="M 269.6603 31.029144 A 151.1811 151.1811 0 0 1 280.82413 64.368815 "
       style="fill:none;stroke:#ff0000;stroke-width:0.75590551" />
    <path
       transform="scale(0.26458333)"
       id="circle9229"
       d="M 277.78908 30.622124 A 158.74016 158.74016 0 0 1 290.83121 79.800102 "
       style="fill:none;stroke:#ff0000;stroke-width:0.75590551" />
    <path
       style="fill:none;stroke:#ff0000;stroke-width:0.75590551"
       d="M 285.43476 29.229264 A 166.29921 166.29921 0 0 1 299.15636 95.376826 L 299.15636 95.376826 L 299.15636 95.376826 A 166.29921 166.29921 0 0 1 298.92882 104.07321 "
       id="path1051"
       transform="scale(0.26458333)" />
    <path
       style="fill:none;stroke:#ff0000;stroke-width:0.75590551"
       d="M 292.6591 26.893 A 173.85827 173.85827 0 0 1 306.71541 95.376826 L 306.71541 95.376826 L 306.71541 95.376826 A 173.85827 173.85827 0 0 1 304.74455 121.48082 "
       id="path1046"
       transform="scale(0.26458333)" />
    <path
       style="fill:none;stroke:#ff0000;stroke-width:0.75590551"
       d="M 314.07074 103.97196 A 181.41732 181.41732 0 0 1 310.08107 134.15732 "
       id="path1114"
       transform="scale(0.26458333)" />
    <path
       style="fill:none;stroke:#ff0000;stroke-width:0.75590551"
       d="M 299.49154 23.646599 A 181.41732 181.41732 0 0 1 310.10541 56.707768 "
       id="path1041"
       transform="scale(0.26458333)" />
    <path
       style="fill:none;stroke:#ff0000;stroke-width:0.75590551"
       d="M 320.2129 120.07277 A 188.97638 188.97638 0 0 1 315.52996 143.77842 "
       id="path1107"
       transform="scale(0.26458333)" />
    <path
       style="fill:none;stroke:#ff0000;stroke-width:0.75590551"
       d="M 306.01642 19.693693 A 188.97638 188.97638 0 0 1 315.45385 46.688917 "
       id="path1036"
       transform="scale(0.26458333)" />
    <path
       style="fill:none;stroke:#ff0000;stroke-width:0.75590551"
       d="M 326.02084 131.62545 A 196.53543 196.53543 0 0 1 321.10708 151.84044 "
       id="path1099"
       transform="scale(0.26458333)" />
    <path
       style="fill:none;stroke:#ff0000;stroke-width:0.75590551"
       d="M 312.56063 15.797725 A 196.53543 196.53543 0 0 1 321.53102 40.346421 "
       id="path1031"
       transform="scale(0.26458333)" />
    <path
       style="fill:none;stroke:#ff0000;stroke-width:0.75590551"
       d="M 331.84102 140.76377 A 204.09449 204.09449 0 0 1 326.90096 158.63469 "
       id="path1092"
       transform="scale(0.26458333)" />
    <path
       style="fill:none;stroke:#ff0000;stroke-width:0.75590551"
       d="M 319.51889 12.842256 A 204.09449 204.09449 0 0 1 328.07914 35.854291 "
       id="path1026"
       transform="scale(0.26458333)" />
    <path
       style="fill:none;stroke:#ff0000;stroke-width:0.75590551"
       d="M 337.78317 148.3159 A 211.65354 211.65354 0 0 1 332.92042 164.45583 "
       id="path1085"
       transform="scale(0.26458333)" />
    <path
       style="fill:none;stroke:#ff0000;stroke-width:0.75590551"
       d="M 326.86913 10.780308 A 211.65354 211.65354 0 0 1 334.97585 32.565592 "
       id="path1021"
       transform="scale(0.26458333)" />
    <path
       style="fill:none;stroke:#ff0000;stroke-width:0.75590551"
       d="M 343.94334 154.51041 A 219.2126 219.2126 0 0 1 339.20303 169.37371 "
       id="path1078"
       transform="scale(0.26458333)" />
    <path
       style="fill:none;stroke:#ff0000;stroke-width:0.75590551"
       d="M 334.47683 9.3322679 A 219.2126 219.2126 0 0 1 342.14756 30.171888 "
       id="path1016"
       transform="scale(0.26458333)" />
    <path
       style="fill:none;stroke:#ff0000;stroke-width:0.75590551"
       d="M 350.51478 159.02066 A 226.77165 226.77165 0 0 1 345.78949 173.38453 "
       id="path1071"
       transform="scale(0.26458333)" />
    <path
       style="fill:none;stroke:#ff0000;stroke-width:0.75590551"
       d="M 342.23107 8.2680274 A 226.77165 226.77165 0 0 1 349.54505 28.505822 "
       id="path1011"
       transform="scale(0.26458333)" />
    <path
       style="fill:none;stroke:#ff0000;stroke-width:0.75590551"
       d="M 357.45836 162.19878 A 234.33071 234.33071 0 0 1 352.6939 176.51057 "
       id="path1064"
       transform="scale(0.26458333)" />
    <path
       style="fill:none;stroke:#ff0000;stroke-width:0.75590551"
       d="M 350.07755 7.4781511 A 234.33071 234.33071 0 0 1 357.11888 27.424237 "
       id="path1006"
       transform="scale(0.26458333)" />
    <path
       style="fill:none;stroke:#ff0000;stroke-width:0.75590551"
       d="M 364.67633 164.44577 A 241.88976 241.88976 0 0 1 359.89682 178.82527 "
       id="path1057"
       transform="scale(0.26458333)" />
    <path
       style="fill:none;stroke:#ff0000;stroke-width:0.75590551"
       d="M 357.97572 6.8766256 A 241.88976 241.88976 0 0 1 364.85681 26.916541 "
       id="path1001"
       transform="scale(0.26458333)" />
    <path
       style="fill:none;stroke:#ff0000;stroke-width:0.75590551"
       d="M 372.10239 165.99146 A 249.44882 249.44882 0 0 1 367.35862 180.42841 "
       id="path1049"
       transform="scale(0.26458333)" />
    <path
       style="fill:none;stroke:#ff0000;stroke-width:0.75590551"
       d="M 365.8928 6.3875228 A 249.44882 249.44882 0 0 1 372.69139 26.789335 "
       id="path996"
       transform="scale(0.26458333)" />
    <path
       style="fill:none;stroke:#ff0000;stroke-width:0.75590551"
       d="M 379.6841 166.99735 A 257.00787 257.00787 0 0 1 375.0227 181.45175 "
       id="path1042"
       transform="scale(0.26458333)" />
    <path
       style="fill:none;stroke:#ff0000;stroke-width:0.75590551"
       d="M 373.81834 5.9858153 A 257.00787 257.00787 0 0 1 380.48811 26.587646 "
       id="path991"
       transform="scale(0.26458333)" />
    <path
       style="fill:none;stroke:#ff0000;stroke-width:0.75590551"
       d="M 387.3804 167.5819 A 264.56693 264.56693 0 0 1 382.82664 182.04236 "
       id="path1034"
       transform="scale(0.26458333)" />
    <path
       style="fill:none;stroke:#ff0000;stroke-width:0.75590551"
       d="M 381.7743 5.7335868 A 264.56693 264.56693 0 0 1 388.26194 26.354736 "
       id="path986"
       transform="scale(0.26458333)" />
    <path
       style="fill:none;stroke:#ff0000;stroke-width:0.75590551"
       d="M 395.15537 167.84883 A 272.12598 272.12598 0 0 1 390.71206 182.34462 "
       id="path1027"
       transform="scale(0.26458333)" />
    <path
       style="fill:none;stroke:#ff0000;stroke-width:0.75590551"
       d="M 389.74508 5.5929563 A 272.12598 272.12598 0 0 1 396.03284 26.159019 "
       id="path981"
       transform="scale(0.26458333)" />
    <path
       style="fill:none;stroke:#ff0000;stroke-width:0.75590551"
       d="M 402.9714 167.91654 A 279.68504 279.68504 0 0 1 398.63395 182.47682 "
       id="path1019"
       transform="scale(0.26458333)" />
    <path
       style="fill:none;stroke:#ff0000;stroke-width:0.75590551"
       d="M 397.71595 5.5240001 A 279.68504 279.68504 0 0 1 403.80906 26.031442 "
       id="path976"
       transform="scale(0.26458333)" />
    <path
       style="fill:none;stroke:#ff0000;stroke-width:0.75590551"
       d="M 410.78737 167.92997 A 287.24409 287.24409 0 0 1 406.56369 182.51978 "
       id="path1012"
       transform="scale(0.26458333)" />
    <path
       style="fill:none;stroke:#ff0000;stroke-width:0.75590551"
       d="M 405.68122 5.5092061 A 287.24409 287.24409 0 0 1 411.60445 26.029085 "
       id="path971"
       transform="scale(0.26458333)" />
    <path
       style="fill:none;stroke:#ff0000;stroke-width:0.75590551"
       d="M 418.59882 167.90676 A 294.80315 294.80315 0 0 1 414.52609 182.39117 "
       id="path1004"
       transform="scale(0.26458333)" />
    <path
       style="fill:none;stroke:#ff0000;stroke-width:0.75590551"
       d="M 413.64026 5.5451109 A 294.80315 294.80315 0 0 1 419.4188 26.157489 "
       id="path966"
       transform="scale(0.26458333)" />
    <path
       style="fill:none;stroke:#ff0000;stroke-width:0.75590551"
       d="M 426.45347 167.65473 A 302.3622 302.3622 0 0 1 422.51691 182.09543 "
       id="path997"
       transform="scale(0.26458333)" />
    <path
       style="fill:none;stroke:#ff0000;stroke-width:0.75590551"
       d="M 421.59141 5.6248127 A 302.3622 302.3622 0 0 1 427.27221 26.509791 "
       id="path961"
       transform="scale(0.26458333)" />
    <path
       style="fill:none;stroke:#ff0000;stroke-width:0.75590551"
       d="M 434.3772 167.04859 A 309.92126 309.92126 0 0 1 430.56912 181.50908 "
       id="path989"
       transform="scale(0.26458333)" />
    <path
       style="fill:none;stroke:#ff0000;stroke-width:0.75590551"
       d="M 429.53681 5.7533947 A 309.92126 309.92126 0 0 1 435.1611 27.086971 "
       id="path956"
       transform="scale(0.26458333)" />
    <path
       style="fill:none;stroke:#ff0000;stroke-width:0.75590551"
       d="M 442.39566 165.9435 A 317.48031 317.48031 0 0 1 438.68597 180.59699 "
       id="path982"
       transform="scale(0.26458333)" />
    <path
       style="fill:none;stroke:#ff0000;stroke-width:0.75590551"
       d="M 437.4734 5.9191072 A 317.48031 317.48031 0 0 1 443.11095 28.024565 "
       id="path951"
       transform="scale(0.26458333)" />
    <path
       style="fill:none;stroke:#ff0000;stroke-width:0.75590551"
       d="M 450.54494 164.11584 A 325.03937 325.03937 0 0 1 446.87637 179.29651 "
       id="path974"
       transform="scale(0.26458333)" />
    <path
       style="fill:none;stroke:#ff0000;stroke-width:0.75590551"
       d="M 445.40355 6.1281198 A 325.03937 325.03937 0 0 1 451.14045 29.450142 "
       id="path946"
       transform="scale(0.26458333)" />
    <path
       style="fill:none;stroke:#ff0000;stroke-width:0.75590551"
       d="M 458.86965 161.23697 A 332.59843 332.59843 0 0 1 455.16004 177.48987 "
       id="path967"
       transform="scale(0.26458333)" />
    <path
       style="fill:none;stroke:#ff0000;stroke-width:0.75590551"
       d="M 453.32962 6.3874949 A 332.59843 332.59843 0 0 1 459.28704 31.617633 "
       id="path941"
       transform="scale(0.26458333)" />
    <path
       style="fill:none;stroke:#ff0000;stroke-width:0.75590551"
       d="M 467.38098 157.0284 A 340.15748 340.15748 0 0 1 463.56334 175.00421 "
       id="path959"
       transform="scale(0.26458333)" />
    <path
       style="fill:none;stroke:#ff0000;stroke-width:0.75590551"
       d="M 461.23088 6.6198853 A 340.15748 340.15748 0 0 1 467.64195 35.158523 "
       id="path936"
       transform="scale(0.26458333)" />
    <path
       style="fill:none;stroke:#ff0000;stroke-width:0.75590551"
       d="M 476.36433 149.31751 A 347.71654 347.71654 0 0 1 472.14279 171.48224 "
       id="path952"
       transform="scale(0.26458333)" />
    <path
       style="fill:none;stroke:#ff0000;stroke-width:0.75590551"
       d="M 469.12934 6.9019952 A 347.71654 347.71654 0 0 1 476.52965 42.499673 "
       id="path931"
       transform="scale(0.26458333)" />
    <path
       style="fill:none;stroke:#ff0000;stroke-width:0.75590551"
       d="M 487.4098 118.02983 A 355.27559 355.27559 0 0 1 481.04682 165.97917 "
       id="path945"
       transform="scale(0.26458333)" />
    <path
       style="fill:none;stroke:#ff0000;stroke-width:0.75590551"
       d="M 477.02782 7.2446275 A 355.27559 355.27559 0 0 1 486.2192 58.552899 "
       id="path926"
       transform="scale(0.26458333)" />
    <path
       style="fill:none;stroke:#ff0000;stroke-width:0.75590551"
       d="M 484.92885 7.6585856 A 362.83465 362.83465 0 0 1 495.69178 95.376826 L 495.69178 95.376826 L 495.69178 95.376826 A 362.83465 362.83465 0 0 1 490.45332 156.80932 "
       id="path921"
       transform="scale(0.26458333)" />
    <path
       style="fill:none;stroke:#ff0000;stroke-width:0.75590551"
       d="M 492.8364 8.1620083 A 370.3937 370.3937 0 0 1 503.25084 95.376826 L 503.25084 95.376826 L 503.25084 95.376826 A 370.3937 370.3937 0 0 1 502.63289 116.76335 "
       id="path916"
       transform="scale(0.26458333)" />
    <path
       style="fill:none;stroke:#ff0000;stroke-width:0.75590551"
       d="M 500.75702 8.7860756 A 377.95276 377.95276 0 0 1 510.01938 70.94471 "
       id="circle9287"
       transform="scale(0.26458333)" />
    <path
       style="fill:none;stroke:#ff0000;stroke-width:0.75590551"
       d="M 508.70566 9.6024481 A 385.51181 385.51181 0 0 1 516.70939 59.644448 "
       id="circle9289"
       transform="scale(0.26458333)" />
    <path
       style="fill:none;stroke:#ff0000;stroke-width:0.75590551"
       d="M 516.72266 10.807542 A 393.07087 393.07087 0 0 1 523.42156 51.058268 "
       id="circle9291"
       transform="scale(0.26458333)" />
    <path
       id="path10039"
       d="m 3.5910676,2.5772929 0.253913,-0.104214 0.008,-0.0021 0.322,-0.101 0.006,-0.0021 0.3869997,-0.096 0.004,-0.0011 0.449,-0.092 0.003,-0.0011 0.508999,-0.088 h 0.003 l 0.565001,-0.084 h 0.0021 l 0.619998,-0.07899 h 0.0011 l 0.671002,-0.076 0.0011,-0.0011 1.484,-0.139999 h 0.0021 l 1.6559937,-0.124 h 0.0011 l 1.805,-0.110001 h 0.0011 l 1.933998,-0.095 2.039001,-0.082 h 0.0011 l 2.122001,-0.069 h 0.0011 l 2.183998,-0.055 h 0.0011 l 2.224,-0.044 v 0 l 2.242,-0.031 2.237002,-0.02 v 0 l 2.210999,-0.009 h 0.0011 l 2.161999,0.0011 2.092,0.01101 h 0.0011 l 1.999001,0.02101 h 0.0011 l 1.884,0.03 h 0.0011 l 1.748999,0.038 v 0 l 1.59,0.047 h 0.0011 l 1.409999,0.054 h 0.0011 l 1.207,0.061 h 0.0011 l 1.837,0.115999 h 0.0011 l 1.681001,0.127 h 0.0011 l 1.534998,0.137001 0.0011,0.0011 1.397,0.147 h 0.0021 l 1.268,0.154998 h 0.0021 l 1.148,0.165002 h 0.003 l 1.037,0.173998 0.003,0.0011 0.933998,0.182002 h 0.003 l 0.842003,0.19 0.003,0.0011 0.757002,0.197998 0.004,0.0011 0.681,0.205002 0.004,0.0021 0.615,0.213997 0.004,0.0011 0.556998,0.220001 0.004,0.0021 0.508,0.227 0.004,0.0021 0.468,0.234 0.003,0.0011 0.436999,0.240001 0.003,0.0021 0.414002,0.246001 0.0021,0.0011 0.400003,0.251 0.0021,0.0011 0.396002,0.258 0.4,0.261999 0.411998,0.268002 0.433002,0.270999 0.463999,0.274 0.503,0.28 0.306001,0.158999 0.307999,0.153001 0.311002,0.144999 0.312999,0.137002 0.316,0.131 0.317,0.123 0.32,0.115998 0.322998,0.109001 0.324001,0.100999 0.327001,0.095 0.328999,0.086 0.332002,0.08 0.333999,0.072 0.336,0.065 0.339,0.057 0.341,0.051 0.342998,0.044 0.346001,0.035 0.348001,0.029 0.349999,0.02101 0.353002,0.014 0.354999,0.007 h 0.357 l 0.361,-0.008 h 0.006 l 0.360003,0.01199 0.357999,0.004 0.355,-0.003 0.352999,-0.01 0.350001,-0.01799 0.347999,-0.025 0.346001,-0.031 0.344001,-0.04 0.341997,-0.047 0.339,-0.054 0.337,-0.061 0.335002,-0.069 0.331999,-0.076 0.329999,-0.083 0.328002,-0.09 0.325998,-0.098 0.323001,-0.106 0.322,-0.111998 0.319001,-0.119002 0.315999,-0.127 0.315,-0.135001 0.311999,-0.141999 0.310002,-0.149 0.307999,-0.155998 0.506,-0.273003 0.467,-0.270999 0.436001,-0.265999 0.414999,-0.262001 0.403,-0.258001 v 0 l 0.398,-0.252999 0.0021,-0.0011 0.403,-0.247 0.0021,-0.0011 0.417,-0.241998 0.003,-0.0021 0.439,-0.235 0.003,-0.0021 0.471001,-0.229 0.004,-0.0021 0.510001,-0.221001 0.004,-0.0011 0.559001,-0.214 0.004,-0.0021 0.617001,-0.207 0.004,-0.0011 0.683998,-0.197998 0.004,-0.0011 0.759,-0.19 0.003,-0.0011 0.843999,-0.181001 h 0.003 l 0.937001,-0.172001 0.003,-0.0011 1.039001,-0.162002 h 0.0021 l 1.149375,-0.152002 h 0.0021 l 1.27,-0.141999 0.0021,-0.0011 1.398,-0.131 h 0.0011 l 1.536001,-0.12 h 0.002 l 1.68301,-0.108998 h 10e-4 l 1.837,-0.096 h 0.001 l 1.208,-0.048 h 10e-4 l 1.410003,-0.039 h 0.001 l 1.59,-0.029 h 10e-4 l 1.749,-0.019 h 10e-4 l 1.885,-0.009 1.999,0.0011 h 0.001 l 2.092,0.01201 2.162,0.02199 h 10e-4 l 2.211,0.034 2.23601,0.044 h 10e-4 l 2.241,0.056 2.224,0.068 h 0.001 l 2.183,0.079 2.121,0.092 h 10e-4 l 2.038,0.103999 h 10e-4 l 1.932,0.117002 h 0.001 l 1.804,0.129 h 0.002 l 1.654,0.142999 10e-4,0.0011 0.543,0.057 0.939,0.099 h 0.002 l 0.67,0.083 h 0.002 l 0.619,0.087 h 0.002 l 0.564,0.089 0.002,0.0011 0.508,0.094 h 0.003 l 0.44801,0.097 0.004,0.0011 0.386,0.1 0.006,0.0021 0.32101,0.104 0.008,0.003 0.253,0.108 0.009,0.004 0.10091,0.05509 c 0.003,0.0016 0.006,0.0034 0.008,0.0051 l 0.082,0.056 c 0.004,0.0027 0.007,0.0053 0.0106,0.008 l 0.064,0.057 c 0.004,0.004 0.008,0.0082 0.0114,0.01278 l 0.046,0.058 c 0.004,0.0045 0.007,0.0093 0.01,0.01426 l 0.13703,0.252804 0.004,0.008 0.125,0.29 0.003,0.007 0.112,0.324 0.001,0.006 0.1,0.354002 0.001,0.004 0.088,0.379998 0.001,0.004 0.077,0.404 0.001,0.004 0.065,0.423 v 0.003 l 0.054,0.438999 0.001,0.0021 0.044,0.451001 v 0.003 l 0.033,0.459999 v 0.0021 l 0.022,0.466 v 0.0021 l 0.013,0.468001 v 0.0021 l 0.003,0.466 v 0.0021 l -0.006,0.4610018 v 0.0021 l -0.015,0.452001 v 0.0021 l -0.024,0.4399993 v 0.003 l -0.033,0.424 -0.001,0.0021 -0.041,0.405001 v 0.003 l -0.049,0.382 v 0.003 l -0.056,0.356003 -0.001,0.003 -0.064,0.325999 -10e-4,0.005 -0.071,0.292 -0.001,0.005 -0.078,0.256 -0.003,0.008 -0.085,0.214879 c -0.001,0.0031 -0.003,0.0062 -0.004,0.0092 l -0.10487,0.201943 -0.004,0.007 -0.13801,0.219001 -0.004,0.005 -0.169,0.237001 -0.001,0.0021 -0.195,0.257001 -10e-4,0.0021 -0.22,0.279001 h -0.001 l -0.24,0.301 -0.257,0.325999 -0.272,0.350999 -0.284,0.378002 -0.292,0.405998 -0.297,0.438002 -0.3,0.469 -0.299,0.501999 -0.295,0.536999 -0.289,0.573 -0.278,0.612 -0.267,0.651002 -0.249,0.691999 -0.232,0.733999 -0.21,0.780002 -0.184,0.825 -0.156,0.871998 -0.126,0.921001 -0.049,0.478999 -0.042,0.493001 -0.072,0.988999 -0.072,0.967 v 0.0011 l -0.074,0.945002 v 0 l -0.076,0.922999 v 0.0011 l -0.081,0.900001 v 0.0011 l -0.088,0.877998 -10e-4,0.0011 -0.096,0.856001 v 0.0021 l -0.106,0.833999 v 0.0011 l -0.118,0.813001 v 0.0021 l -0.132,0.789998 -10e-4,0.003 -0.147,0.769001 v 0.0021 l -0.164,0.746998 -0.001,0.003 -0.183,0.726001 -0.001,0.004 -0.203,0.704999 -0.001,0.003 -0.226,0.683001 -0.001,0.004 -0.251,0.662001 -0.002,0.004 -0.276,0.642001 -0.002,0.005 -0.303,0.620001 -0.003,0.005 -0.334,0.600001 -0.002,0.004 -0.36401,0.578999 -0.003,0.005 -0.39699,0.559001 -0.003,0.004 -0.212,0.271 -0.002,0.0021 -0.221,0.266999 -0.002,0.0021 -0.229,0.261001 -0.002,0.0021 -0.239,0.256998 -0.002,0.0021 -0.249,0.251 -0.002,0.0021 -0.258,0.247001 -0.003,0.003 -0.443,0.384998 -0.005,0.004 -0.485,0.374002 -0.004,0.003 -0.525,0.361 -0.004,0.003 -0.565,0.349001 -0.005,0.003 -0.605,0.333999 -0.003,0.0011 -0.644,0.321001 -0.004,0.0021 -0.684,0.307001 -0.004,0.0021 -0.723,0.291999 -0.003,0.0011 -0.761,0.277001 -0.003,0.0011 -0.799,0.261001 -0.003,0.0011 -0.837,0.246002 -0.003,0.0011 -0.875,0.228 h -0.002 l -0.912,0.212 -0.003,0.0011 -0.949,0.194 h -0.002 l -0.98601,0.176999 -0.003,0.0011 -1.021,0.158001 h -0.002 l -1.058,0.138999 h -0.002 l -1.093,0.120002 -0.002,0.0011 -1.12801,0.101 h -0.002 l -1.163,0.08 h -0.002 l -1.198,0.06 h -0.002 l -1.231,0.039 h -0.002 l -1.266,0.01701 h -0.001 l -1.299,-0.005 h -0.001 l -1.197,-0.014 h -0.001 l -1.164,-0.01799 -1.133,-0.025 h -10e-4 l -1.104,-0.037 h -0.002 l -1.07501,-0.051 h -0.002 l -1.048,-0.07 h -0.002 l -1.022993,-0.093 -0.003,-0.0011 -0.999,-0.118999 h -0.003 l -0.977,-0.15 -0.004,-0.0011 -0.954,-0.185 h -0.003 l -0.47,-0.106 -0.002,-0.0011 -0.465,-0.116999 -0.003,-0.0011 -0.461,-0.127 h -0.002 l -0.456,-0.138001 -0.0021,-0.0011 -0.451001,-0.149 -0.003,-0.0011 -0.448,-0.161999 -0.003,-0.0011 -0.443,-0.174 -0.0021,-0.0011 -0.439999,-0.187 -0.003,-0.0011 -0.435999,-0.199999 -0.0021,-0.0011 -0.432999,-0.214 -0.003,-0.0021 -0.429001,-0.229 -0.003,-0.0011 -0.426001,-0.244001 -0.0021,-0.0021 -0.424,-0.258998 -0.003,-0.0011 -0.42,-0.275 -0.0021,-0.0021 -0.418,-0.292002 -0.003,-0.0021 -0.415999,-0.308001 -0.0021,-0.0021 -0.412999,-0.325998 -0.0021,-0.0011 -0.411001,-0.343 -0.0021,-0.0021 -0.410001,-0.362 -0.0021,-0.0021 -0.407001,-0.381 -0.0021,-0.0021 -0.406001,-0.399999 -0.0021,-0.0021 -0.405,-0.418999 -0.0021,-0.0021 -0.402997,-0.441 -0.0011,-0.0011 -0.402998,-0.459999 -0.0021,-0.0021 -0.401,-0.481999 -0.0011,-0.0021 -0.400999,-0.503999 -0.0021,-0.0011 -0.401,-0.526002 -0.0011,-0.0021 -0.4,-0.549002 -0.0011,-0.0021 -0.410001,-0.596 -0.0021,-0.003 -0.390999,-0.606002 -0.0021,-0.0021 -0.372002,-0.616001 -0.0011,-0.003 -0.352999,-0.624002 -0.0011,-0.0021 -0.335999,-0.632 -0.0011,-0.0021 -0.319,-0.639 -0.0011,-0.0021 -0.304001,-0.644001 -0.0011,-0.0021 -0.29,-0.648999 -0.0011,-0.0021 -0.276,-0.652 -0.0011,-0.0021 -0.263999,-0.654999 v -0.0011 l -0.252,-0.656 -0.0011,-0.0011 -0.242001,-0.657 v -0.0021 l -0.454999,-1.312 -0.0011,-0.0021 -0.424,-1.302999 v -0.0011 l -0.401,-1.285001 v -0.0011 l -0.385001,-1.259999 -0.375999,-1.224999 -0.375002,-1.185 -0.382,-1.135002 -0.395999,-1.077 -0.206,-0.513998 -0.212,-0.497001 -0.219001,-0.477999 -0.227999,-0.458001 -0.236,-0.439 -0.247,-0.415999 -0.257,-0.394002 -0.268999,-0.370998 -0.282001,-0.347001 -0.295,-0.321001 -0.310002,-0.295 -0.323998,-0.267999 -0.341,-0.241001 -0.359,-0.211 -0.376999,-0.181999 -0.396002,-0.152 -0.416999,-0.119999 -0.438,-0.088 -0.461999,-0.054 -0.486,-0.02101 -0.485002,0.015 -0.462,0.049 -0.439999,0.083 -0.418,0.115998 -0.397999,0.147 -0.379,0.179001 -0.36,0.207 -0.344001,0.236 -0.328001,0.264999 -0.312999,0.290999 -0.298001,0.318 -0.285998,0.344001 -0.273,0.368001 -0.262001,0.390998 -0.251,0.414002 -0.241001,0.435999 -0.233,0.456001 -0.223999,0.474999 -0.218,0.495001 -0.211,0.511 -0.408001,1.072999 -0.394999,1.130001 -0.388001,1.181 -0.389999,1.220999 -0.398999,1.256001 v 0.0011 l -0.415002,1.279999 v 0.0011 l -0.437999,1.298001 -0.0011,0.0021 -0.470001,1.306999 v 0.0021 l -0.248999,0.653999 -0.0011,0.0011 -0.259,0.654 -0.0011,0.0011 -0.270999,0.651999 v 0.0021 l -0.283998,0.648999 -0.0011,0.0021 -0.297,0.645001 v 0.0021 l -0.312002,0.641 -0.0011,0.0021 -0.325999,0.635 -0.0021,0.0021 -0.342001,0.628002 -0.0021,0.0021 -0.36,0.619998 -0.0011,0.003 -0.378999,0.612 -0.0011,0.0021 -0.396999,0.602001 -0.0021,0.003 -0.417999,0.591999 -0.0011,0.0021 -0.406001,0.544002 -0.0011,0.0011 -0.406001,0.520999 -0.0021,0.0021 -0.405998,0.499999 -0.0011,0.0021 -0.407,0.477001 -0.0021,0.0021 -0.407,0.456999 -0.0021,0.0011 -0.408001,0.434999 -0.0021,0.0021 -0.409,0.416002 -0.0021,0.0021 -0.410001,0.394999 -0.0021,0.0021 -0.411998,0.376999 -0.0021,0.0021 -0.412999,0.356999 -0.0021,0.0011 -0.415002,0.339 -0.0021,0.0021 -0.416999,0.321001 -0.003,0.0021 -0.417999,0.303998 -0.003,0.0021 -0.420999,0.287001 -0.003,0.0011 -0.423,0.27 -0.0021,0.0021 -0.427,0.255001 -0.0021,0.0011 -0.428998,0.238998 -0.003,0.0021 -0.432001,0.224001 -0.0021,0.0011 -0.434998,0.209999 -0.003,0.0011 -0.437999,0.196 -0.003,0.0011 -0.442,0.182001 -0.0021,0.0011 -0.445001,0.17 h -0.003 l -0.449001,0.156998 -0.003,0.0011 -0.452998,0.144003 -0.0021,0.0011 -0.458001,0.133001 -0.0021,0.0011 -0.462002,0.121999 h -0.0021 l -0.465997,0.112001 -0.003,0.0011 -0.471001,0.101 h -0.003 l -0.957,0.174 -0.003,0.0011 -0.977998,0.138999 h -0.003 l -1.001,0.109 -0.0021,0.0011 -1.024001,0.082 h -0.003 l -1.049001,0.058 h -0.0021 l -1.076,0.04 h -0.0011 l -1.104,0.024 h -0.0011 l -1.132998,0.01299 h -0.0011 l -1.164,0.006 h -0.0011 l -1.196001,0.0011 h -0.0011 l -1.299001,-0.009 h -0.0021 l -1.266,-0.032 h -0.0011 l -1.226645,-0.05495 h -0.0011 l -1.196999,-0.073 h -0.0021 l -1.162,-0.093 h -0.0021 l -1.127,-0.114001 h -0.003 l -1.090999,-0.132001 h -0.0021 l -1.055899,-0.150997 h -0.0021 l -1.020001,-0.169 -0.0021,-0.0011 -0.984002,-0.186999 h -0.0021 l -0.947002,-0.205002 -0.003,-0.0011 -0.909,-0.220999 -0.003,-0.0011 -0.872,-0.239001 h -0.003 l -0.835001,-0.254 -0.003,-0.0011 -0.795999,-0.27 -0.003,-0.0011 -0.757999,-0.285001 -0.003,-0.0021 -0.72,-0.299998 -0.003,-0.0011 -0.680998,-0.314002 -0.003,-0.0021 -0.641001,-0.328001 -0.004,-0.0021 -0.600999,-0.342 -0.004,-0.0021 -0.562001,-0.353999 -0.004,-0.003 -0.520999,-0.366998 -0.004,-0.004 -0.479999,-0.379 -0.005,-0.003 -0.438999,-0.391001 -0.003,-0.003 -0.256,-0.248999 -0.0021,-0.0021 -0.245999,-0.254 -0.0021,-0.003 -0.236001,-0.258998 -0.0021,-0.0021 -0.227,-0.264001 -0.0011,-0.0021 -0.218001,-0.269 -0.0021,-0.0021 -0.207999,-0.274 -0.003,-0.004 -0.390999,-0.562999 -0.003,-0.005 -0.358,-0.582999 -0.003,-0.004 -0.326998,-0.603001 -0.0021,-0.005 -0.297001,-0.624001 -0.0021,-0.004 -0.269001,-0.643999 -0.0021,-0.005 -0.2430017,-0.665002 -0.0011,-0.004 -0.219001,-0.686001 -0.0011,-0.003 -0.195998,-0.707001 v -0.004 l -0.175,-0.728001 -0.0011,-0.003 -0.156001,-0.748998 -0.0011,-0.0021 -0.137999,-0.770001 -0.0011,-0.003 -0.122,-0.791998 -0.0011,-0.0021 -0.109,-0.814001 v -0.0011 l -0.097,-0.834999 v -0.0021 l -0.087,-0.857002 v -0.0011 l -0.078,-0.878999 v -0.0011 l -0.073,-0.901298 v -0.0011 l -0.066,-0.922999 v 0 l -0.063,-0.945999 v -0.0011 l -0.061,-0.968 h -0.0011 l -0.061,-0.990002 -0.036,-0.493998 -0.045,-0.479002 -0.115001,-0.921999 -0.147,-0.874 -0.175,-0.827001 -0.200999,-0.781999 -0.224002,-0.737 -0.241998,-0.694999 -0.259001,-0.653 -0.271999,-0.615 -0.281999,-0.575917 -0.289999,-0.540999 -0.293001,-0.505002 -0.295,-0.471998 -0.292,-0.441 -0.286999,-0.410001 -0.2800007,-0.379999 -0.267999,-0.354 -0.254,-0.329001 -0.237,-0.303001 v -0.0011 l -0.217001,-0.280998 -10e-4,-0.0011 -0.193,-0.259 -10e-4,-0.003 -0.166,-0.239001 -0.003,-0.005 -0.136,-0.221001 -0.004,-0.007 -0.103087,-0.202872 c -0.0017,-0.003 -0.0031,-0.0063 -0.0046,-0.0094 l -0.08226,-0.215768 -0.002,-0.008 -0.075,-0.256001 -0.002,-0.006 -0.068,-0.293999 -0.001,-0.004 -0.06,-0.326998 -10e-4,-0.003 -0.052,-0.356 -10e-4,-0.003 -0.044,-0.383 -10e-4,-0.003 -0.036,-0.4050003 v -0.0021 l -0.02799,-0.423861 v -0.003 l -0.02,-0.4410018 v -0.0021 l -0.01,-0.451998 v -0.0021 l 9.52e-4,-0.458747 v -0.0021 l 0.008,-0.466 v -0.0021 l 0.018,-0.467001 v -0.0021 l 0.028,-0.464986 v -0.0021 l 0.038,-0.459996 v -0.003 l 0.049,-0.451001 v -0.0021 l 0.059,-0.438999 v -0.003 l 0.07,-0.422 10e-4,-0.004 0.081,-0.402 10e-4,-0.004 0.092,-0.38 10e-4,-0.004 0.104,-0.352999 0.002,-0.006 0.116,-0.322001 0.002,-0.006 0.128,-0.288999 0.004,-0.009 0.140306,-0.251806 c 0.0031,-0.0048 0.0063,-0.0096 0.0098,-0.01408 l 0.046,-0.05701 c 0.0038,-0.0045 0.008,-0.0088 0.01219,-0.01291 l 0.065,-0.056 c 0.0033,-0.0024 0.0065,-0.0049 0.0098,-0.0071 l 0.083,-0.056 c 0.0029,-0.0019 0.0058,-0.0036 0.0084,-0.0052 l 0.101001,-0.054 c 0.0035,-0.0016 0.0066,-0.0032 0.0097,-0.0047 z"
       style="fill:none;stroke:#00ff00;stroke-width:0.26458332" />
    <path
       id="path10015"
       d="m 127.94198,14.100078 -0.18,-0.358 -0.191,-0.352999 -0.205,-0.349998 -0.216,-0.346001 -0.229,-0.342001 -0.243,-0.337 -0.256,-0.334999 -0.27,-0.328001 -0.284,-0.325999 -0.298,-0.319 -0.318,-0.308002 -0.346,-0.288999 -0.373,-0.2760003 -0.399,-0.260001 -0.425,-0.243998 -0.448,-0.23 -0.471,-0.2160008 -0.493,-0.201998 -0.515,-0.189 -0.534,-0.176001 -0.552,-0.162002 -0.57,-0.150997 -0.586,-0.138002 -0.602,-0.128 -0.616,-0.116999 -0.628,-0.105 -0.641,-0.097 -0.651,-0.086 -1.331,-0.143999 -1.361,-0.111001 -1.383,-0.081 -1.394,-0.055 -1.398,-0.03 -1.394,-0.01101 -1.38,0.005 -1.356,0.01799 -1.327,0.028 -1.285,0.033 -1.237,0.036 -1.179,0.035 -1.113003,0.03 h -10e-4 l -1.037,0.02199 h -0.001 l -0.952,0.01 -0.913,0.01799 -0.919,0.046 -0.923,0.077 -0.923997,0.107 -0.918001,0.142 -0.911,0.175 -0.898999,0.21 -0.441999,0.118999 -0.438,0.129 -0.433001,0.138002 -0.427,0.147 -0.421,0.157998 -0.413999,0.168 -0.407,0.178001 -0.399,0.1879998 -0.390001,0.198001 -0.381,0.21 -0.01101,0.006 -0.363,0.215 -0.362001,0.231 -0.352001,0.2420013 -0.340998,0.255 -0.330001,0.265999 -0.318,0.276 -0.304999,0.289002 -0.293002,0.300998 -0.278998,0.313999 -0.265001,0.325001 -0.25,0.338 -0.237,0.351002 -0.219999,0.363997 -0.205002,0.377003 -0.187999,0.388998 -0.172001,0.404 -0.153,0.416999 -0.136999,0.432001 -0.117999,0.444 -0.098,0.461 -0.08,0.473001 -0.058,0.489 -0.04,0.504 -0.01799,0.518998 v 0.53 l 0.01101,0.534001 0.024,0.536001 0.036,0.539999 0.047,0.543001 0.058,0.543999 0.07,0.546 0.081,0.546999 0.091,0.548 0.1,0.548003 0.232,1.095999 0.27,1.092999 0.305001,1.085001 0.339,1.075999 0.368998,1.063001 0.398002,1.045998 0.425998,1.026002 0.449001,1.004001 0.471,0.976997 0.492001,0.948003 0.511,0.914998 0.524,0.878001 0.538998,0.840999 0.55,0.796002 0.559001,0.751998 0.565,0.702001 0.569999,0.649999 0.285002,0.304001 0.285998,0.289999 0.286002,0.275 0.285998,0.260001 0.289002,0.245999 0.299,0.235 0.305999,0.224002 0.315,0.212997 0.322,0.204002 0.329999,0.193 0.336002,0.182999 0.344999,0.174001 0.349001,0.164999 0.355999,0.155001 0.729007,0.284999 0.74899,0.250999 0.764,0.220002 0.778,0.191 0.788,0.163999 0.796,0.138001 0.8,0.116999 0.803003,0.095 0.799,0.075 0.796,0.059 0.788,0.045 0.777,0.031 0.764,0.02199 0.748,0.01199 0.728,0.007 0.705,0.0021 h 0.68 l 0.652,-0.0011 0.619,0.0021 0.608,0.0021 0.616,0.0011 0.624,-0.003 0.631,-0.007 0.637,-0.01199 0.641,-0.019 0.645,-0.02601 0.649,-0.035 0.65,-0.044 0.652,-0.056 0.652,-0.066 0.651,-0.08 0.649,-0.094 0.646,-0.108001 0.643,-0.124999 0.638,-0.142 0.632,-0.160999 0.626,-0.179001 0.619,-0.199998 0.609,-0.220001 0.601,-0.243999 0.59,-0.267002 0.578,-0.291999 0.567,-0.317 0.498,-0.313 0.468,-0.331001 0.439,-0.348999 0.41,-0.368001 0.384,-0.387001 0.357,-0.405997 0.334,-0.425001 0.308,-0.442999 0.287,-0.462 0.265,-0.483002 0.244,-0.501999 0.225,-0.520999 0.208,-0.541002 0.189,-0.559998 0.174,-0.581002 0.158,-0.600001 0.144,-0.619998 0.131,-0.641 0.119,-0.660001 0.108,-0.681 0.099,-0.700001 0.089,-0.720997 0.082,-0.740003 0.074,-0.762 0.073,-0.774999 0.072,-0.784 0.07,-0.789 0.064,-0.792999 0.055,-0.797999 0.046,-0.800002 0.031,-0.801 0.016,-0.800999 -0.002,-0.799 -0.024,-0.797999 -0.046,-0.794001 -0.072,-0.788001 -0.102,-0.784 -0.132,-0.775999 -0.166,-0.769001 -0.202,-0.758 -0.115,-0.374999 -0.125,-0.374002 -0.136,-0.368998 -0.146,-0.368001 -0.157,-0.363 z"
       style="fill:none;stroke:#00ff00;stroke-width:0.26458332" />
    <path
       id="path10005"
       d="m 12.09898,18.756078 -0.081,0.789001 -0.056,0.792001 -0.032,0.797999 -0.01101,0.799 0.007,0.801002 0.024,0.800999 0.036,0.8 0.047,0.797999 0.055,0.795002 0.061,0.788998 0.063,0.784 0.065,0.777002 0.066,0.762 0.074,0.741 0.082,0.721997 0.09,0.702001 0.100999,0.681 0.112001,0.662001 0.123999,0.642001 0.137002,0.620998 0.151997,0.602001 0.167003,0.582999 0.183999,0.562001 0.200999,0.542999 0.219001,0.524 0.239,0.503999 0.260001,0.486 0.280998,0.465003 0.305001,0.446997 0.327999,0.429001 0.353002,0.409001 0.378999,0.390999 0.406001,0.372001 0.434999,0.355 0.463999,0.334999 0.496002,0.319 0.562999,0.323001 0.575,0.298 0.586999,0.274 0.598001,0.25 0.606999,0.227999 0.617001,0.206999 0.623001,0.186002 0.630999,0.166 0.637,0.149 0.640999,0.132001 0.645001,0.115998 0.647999,0.101 0.650002,0.087 0.650999,0.074 0.650999,0.062 0.65,0.051 0.648001,0.042 0.644999,0.033 0.642001,0.02601 0.636,0.019 0.630998,0.014 0.623001,0.01 0.616001,0.006 0.607999,0.004 v 0 l 0.619001,0.005 h 0.0011 l 0.650999,0.008 0.680001,0.007 0.704998,0.006 0.728001,0.0021 0.748001,-0.005 0.764,-0.01299 0.777999,-0.02299 0.788001,-0.036 0.795999,-0.051 0.801,-0.067 0.802999,-0.085 0.802,-0.108 0.797002,-0.129 0.789998,-0.155999 0.780002,-0.183001 0.766998,-0.211 0.751001,-0.242999 0.731999,-0.277 0.357,-0.152001 0.352002,-0.160001 0.345998,-0.17 0.339,-0.179999 0.332002,-0.189 0.323998,-0.200001 0.317,-0.21 0.309001,-0.220998 0.301001,-0.232 0.292,-0.243001 0.287998,-0.257001 0.289,-0.271999 0.289001,-0.285999 0.288999,-0.301001 0.577001,-0.644001 0.573,-0.696 0.567,-0.745 0.558001,-0.790998 0.547999,-0.834001 0.535001,-0.873001 0.518999,-0.909 0.502999,-0.942999 0.482,-0.970999 0.460002,-1.000001 0.436999,-1.021001 0.410001,-1.041 0.381,-1.058998 0.349998,-1.073001 0.316,-1.082001 0.282001,-1.088998 0.243999,-1.093002 0.107,-0.547 0.097,-0.547999 0.086,-0.546 0.076,-0.544999 0.064,-0.543002 0.053,-0.541999 0.042,-0.540001 0.029,-0.535998 0.01799,-0.533001 0.005,-0.53 -0.01201,-0.519999 -0.034,-0.504002 -0.054,-0.489 -0.074,-0.474999 -0.094,-0.460999 -0.112001,-0.446 -0.132,-0.433001 -0.149,-0.419 -0.167,-0.406 -0.183999,-0.390999 -0.201002,-0.379 -0.215997,-0.367001 -0.232,-0.352999 -0.248002,-0.34 -0.260998,-0.329001 -0.276001,-0.317 -0.289001,-0.303999 -0.301998,-0.292002 -0.315,-0.279998 -0.327001,-0.270002 -0.338,-0.256998 -0.350002,-0.2460013 -0.36,-0.235001 -0.369998,-0.225999 -0.379,-0.213 -0.38804,-0.2029858 -0.396999,-0.191997 -0.405001,-0.183002 -0.411998,-0.172 -0.419002,-0.161999 -0.425998,-0.152001 -0.432001,-0.143999 -0.436002,-0.133001 -0.440999,-0.122999 -0.895998,-0.221002 -0.909,-0.185999 -0.917001,-0.15 -0.922002,-0.118999 -0.921998,-0.085 -0.919001,-0.057 -0.911998,-0.027 -0.953,-0.02101 h -0.0011 l -1.037,-0.034 v 0 l -1.113002,-0.042 -1.177999,-0.047 -1.237001,-0.05 -1.284999,-0.047 -1.324999,-0.042 -1.357001,-0.033 -1.38,-0.02101 -1.393,-0.004 -1.398999,0.01601 -1.395,0.039 -1.383001,0.066 -1.362001,0.096 -1.332999,0.13 -0.652,0.079 -0.642001,0.089 -0.629999,0.099 -0.617001,0.109001 -0.601998,0.121999 -0.588,0.132001 -0.572,0.144999 -0.554,0.157001 -0.535001,0.17 -0.516998,0.182999 -0.495001,0.196001 -0.474001,0.21 -0.01101,0.006 -0.439999,0.219998 -0.427001,0.240001 -0.402,0.2549998 -0.375999,0.271 -0.349002,0.286999 -0.321,0.3040013 -0.302001,0.315999 -0.286998,0.321001 -0.274,0.327001 -0.259001,0.330999 -0.246999,0.335 -0.233,0.339 -0.220001,0.344 -0.208,0.346999 -0.195,0.351001 -0.183999,0.356 -0.172001,0.358 -0.160999,0.362 -0.151,0.366001 -0.139002,0.367998 -0.129997,0.372002 -0.119002,0.373999 -0.21,0.755999 -0.174,0.767001 -0.140999,0.774998 z"
       style="fill:none;stroke:#00ff00;stroke-width:0.26458332" />
    <path
       inkscape:connector-curvature="0"
       style="fill:none;stroke:#00ff00;stroke-width:0.1;stroke-miterlimit:4;stroke-dasharray:none"
       d="M 8.9526147,6.6129721 Z"
       id="path856" />
    <path
       inkscape:connector-curvature="0"
       style="fill:none;stroke:#00ff00;stroke-width:0.1;stroke-miterlimit:4;stroke-dasharray:none"
       d="M 9.2036141,7.4789721 V 5.1789731 H 6.2036148 v 2.299999 h 2.249001 z"
       id="path854" />
    <path
       inkscape:connector-curvature="0"
       style="fill:none;stroke:#00ff00;stroke-width:0.1;stroke-miterlimit:4;stroke-dasharray:none"
       d="M 7.9526168,6.6129721 Z"
       id="path852" />
    <path
       inkscape:connector-curvature="0"
       style="fill:none;stroke:#00ff00;stroke-width:0.1;stroke-miterlimit:4;stroke-dasharray:none"
       d="M 8.3376148,10.511974 Z"
       id="path850" />
    <path
       inkscape:connector-curvature="0"
       style="fill:none;stroke:#00ff00;stroke-width:0.1;stroke-miterlimit:4;stroke-dasharray:none"
       d="M 9.2036141,11.011975 V 10.260974 H 6.2036148 v 2.300999 h 2.9999993 z"
       id="path848" />
    <path
       inkscape:connector-curvature="0"
       style="fill:none;stroke:#00ff00;stroke-width:0.1;stroke-miterlimit:4;stroke-dasharray:none"
       d="M 8.3376148,11.511974 Z"
       id="path846" />
    <path
       inkscape:connector-curvature="0"
       style="fill:none;stroke:#00ff00;stroke-width:0.1;stroke-miterlimit:4;stroke-dasharray:none"
       d="M 135.15046,6.5863952 Z"
       id="path856-2" />
    <path
       inkscape:connector-curvature="0"
       style="fill:none;stroke:#00ff00;stroke-width:0.1;stroke-miterlimit:4;stroke-dasharray:none"
       d="m 135.40146,7.4523952 v -2.299999 h -3 v 2.299999 h 2.249 z"
       id="path854-6" />
    <path
       inkscape:connector-curvature="0"
       style="fill:none;stroke:#00ff00;stroke-width:0.1;stroke-miterlimit:4;stroke-dasharray:none"
       d="M 134.15046,6.5863952 Z"
       id="path852-2" />
    <path
       inkscape:connector-curvature="0"
       style="fill:none;stroke:#00ff00;stroke-width:0.1;stroke-miterlimit:4;stroke-dasharray:none"
       d="M 134.53546,10.485395 Z"
       id="path850-8" />
    <path
       inkscape:connector-curvature="0"
       style="fill:none;stroke:#00ff00;stroke-width:0.1;stroke-miterlimit:4;stroke-dasharray:none"
       d="m 135.40146,10.985396 v -0.751001 h -3 v 2.301 h 3 z"
       id="path848-0" />
    <path
       inkscape:connector-curvature="0"
       style="fill:none;stroke:#00ff00;stroke-width:0.1;stroke-miterlimit:4;stroke-dasharray:none"
       d="M 134.53546,11.485395 Z"
       id="path846-8" />
  </g>
</svg>
