<?xml version="1.0" encoding="UTF-8" standalone="no"?>
<!-- Created with Inkscape (http://www.inkscape.org/) -->

<svg
   xmlns:dc="http://purl.org/dc/elements/1.1/"
   xmlns:cc="http://creativecommons.org/ns#"
   xmlns:rdf="http://www.w3.org/1999/02/22-rdf-syntax-ns#"
   xmlns:svg="http://www.w3.org/2000/svg"
   xmlns="http://www.w3.org/2000/svg"
   xmlns:sodipodi="http://sodipodi.sourceforge.net/DTD/sodipodi-0.dtd"
   xmlns:inkscape="http://www.inkscape.org/namespaces/inkscape"
   width="210mm"
   height="297mm"
   viewBox="0 0 210 297"
   version="1.1"
   id="svg4193"
   inkscape:version="0.92.2 (5c3e80d, 2017-08-06)"
   sodipodi:docname="Front_Kerf02_Width3_2_Heart_ud.svg">
  <sodipodi:namedview
     id="base"
     pagecolor="#ffffff"
     bordercolor="#666666"
     borderopacity="1.0"
     inkscape:pageopacity="0.0"
     inkscape:pageshadow="2"
     inkscape:zoom="0.9899495"
     inkscape:cx="137.649"
     inkscape:cy="965.79163"
     inkscape:document-units="mm"
     inkscape:current-layer="layer1"
     showgrid="false"
     inkscape:window-width="1920"
     inkscape:window-height="1001"
     inkscape:window-x="-9"
     inkscape:window-y="-9"
     inkscape:window-maximized="1"
     inkscape:snap-global="false"
     showguides="true"
     inkscape:guide-bbox="true" />
  <defs
     id="defs4187" />
  <metadata
     id="metadata4190">
    <rdf:RDF>
      <cc:Work
         rdf:about="">
        <dc:format>image/svg+xml</dc:format>
        <dc:type
           rdf:resource="http://purl.org/dc/dcmitype/StillImage" />
        <dc:title></dc:title>
      </cc:Work>
    </rdf:RDF>
  </metadata>
  <g
     id="layer1"
     inkscape:groupmode="layer"
     inkscape:label="Ebene 1">
    <path
       id="path882"
       d="m 127.43813,51.735425 c 0,0 0,0 0,0"
       style="fill:none;stroke:#00ff00;stroke-width:0.09900108"
       inkscape:connector-curvature="0" />
    <path
       id="path880"
       d="m 36.376133,4.0504242 c 0,0 0,0 0,0"
       style="fill:none;stroke:#00ff00;stroke-width:0.09900108"
       inkscape:connector-curvature="0" />
    <path
       id="path878"
       d="m 137.33613,49.652423 c 0,0 -0.008,0.005 -0.008,0.005 0,0 -0.101,0.054 -0.101,0.054 0,0 -0.009,0.004 -0.009,0.004 0,0 -0.255,0.105 -0.255,0.105 0,0 -0.008,0.004 -0.008,0.004 0,0 -0.322,0.099 -0.322,0.099 0,0 -0.006,0.0021 -0.006,0.0021 0,0 -0.387,0.096 -0.387,0.096 0,0 -0.004,0.0011 -0.004,0.0011 0,0 -0.449,0.092 -0.449,0.092 0,0 -0.003,0.0011 -0.003,0.0011 0,0 -0.509,0.088 -0.509,0.088 0,0 -0.003,0 -0.003,0 0,0 -0.565,0.084 -0.565,0.084 0,0 -0.002,0 -0.002,0 0,0 -0.619,0.08 -0.619,0.08 0,0 -0.002,0 -0.002,0 0,0 -0.671,0.075 -0.671,0.075 0,0 -0.001,0.0011 -0.001,0.0011 0,0 -1.484,0.139999 -1.484,0.139999 0,0 -0.002,0 -0.002,0 0,0 -1.656,0.123985 -1.656,0.123985 0,0 -0.001,0 -0.001,0 0,0 -1.80499,0.11 -1.80499,0.11 0,0 -0.001,0 -0.001,0 0,0 -0.568,0.028 -0.568,0.028 0,0 -1.366,0.068 -1.366,0.068 0,0 -0.001,0 -0.001,0 0,0 -2.038,0.081 -2.038,0.081 0,0 -0.001,0 -0.001,0 0,0 -2.12201,0.069 -2.12201,0.069 0,0 -0.001,0 -0.001,0 0,0 -2.18399,0.056 -2.18399,0.056 0,0 -0.001,0 -0.001,0 0,0 -2.224,0.043 -2.224,0.043 0,0 -2.242,0.031 -2.242,0.031 0,0 0,0 0,0 0,0 -2.23701,0.02 -2.23701,0.02 0,0 0,0 0,0 0,0 -2.21099,0.009 -2.21099,0.009 0,0 -0.001,0 -0.001,0 0,0 -2.162,-0.0011 -2.162,-0.0011 0,0 0,0 0,0 0,0 -2.092,-0.01101 -2.092,-0.01101 0,0 -0.001,0 -0.001,0 0,0 -1.999,-0.02101 -1.999,-0.02101 0,0 -0.001,0 -0.001,0 0,0 -1.884,-0.03 -1.884,-0.03 0,0 -0.001,0 -0.001,0 0,0 -1.749,-0.038 -1.749,-0.038 0,0 0,0 0,0 0,0 -1.590004,-0.046 -1.590004,-0.046 0,0 -0.0011,0 -0.0011,0 0,0 -1.409999,-0.054 -1.409999,-0.054 0,0 -0.0011,0 -0.0011,0 0,0 -1.207001,-0.061 -1.207001,-0.061 0,0 -0.0011,0 -0.0011,0 0,0 -1.836999,-0.116999 -1.836999,-0.116999 0,0 -0.0011,0 -0.0011,0 0,0 -1.681001,-0.127 -1.681001,-0.127 0,0 -0.0011,0 -0.0011,0 0,0 -1.534999,-0.137001 -1.534999,-0.137001 0,0 -0.0011,-0.0011 -0.0011,-0.0011 0,0 -1.397,-0.146002 -1.397,-0.146002 0,0 -0.0021,0 -0.0021,0 0,0 -1.268,-0.155999 -1.268,-0.155999 0,0 -0.0021,0 -0.0021,0 0,0 -1.148001,-0.164999 -1.148001,-0.164999 0,0 -0.003,0 -0.003,0 0,0 -1.037,-0.173001 -1.037,-0.173001 0,0 -0.003,-0.0011 -0.003,-0.0011 0,0 -0.933998,-0.182001 -0.933998,-0.182001 0,0 -0.003,0 -0.003,0 0,0 -0.842002,-0.19 -0.842002,-0.19 0,0 -0.003,-0.0011 -0.003,-0.0011 0,0 -0.757002,-0.197998 -0.757002,-0.197998 0,0 -0.004,-0.0011 -0.004,-0.0011 0,0 -0.682001,-0.206 -0.682001,-0.206 0,0 -0.003,-0.0021 -0.003,-0.0021 0,0 -0.615001,-0.213 -0.615001,-0.213 0,0 -0.004,-0.0011 -0.004,-0.0011 0,0 -0.556998,-0.221001 -0.556998,-0.221001 0,0 -0.004,-0.0021 -0.004,-0.0021 0,0 -0.508,-0.226999 -0.508,-0.226999 0,0 -0.004,-0.0011 -0.004,-0.0011 0,0 -0.468001,-0.233 -0.468001,-0.233 0,0 -0.003,-0.0021 -0.003,-0.0021 0,0 -0.436999,-0.240001 -0.436999,-0.240001 0,0 -0.003,-0.0021 -0.003,-0.0021 0,0 -0.414002,-0.246002 -0.414002,-0.246002 0,0 -0.0021,-0.0011 -0.0021,-0.0011 0,0 -0.401003,-0.252 -0.401003,-0.252 0,0 -0.0011,-0.0011 -0.0011,-0.0011 0,0 -0.396002,-0.257 -0.396002,-0.257 0,0 0,0 0,0 0,0 -0.4,-0.262998 -0.4,-0.262998 0,0 -0.411998,-0.267002 -0.411998,-0.267002 0,0 -0.433002,-0.270999 -0.433002,-0.270999 0,0 -0.463999,-0.275 -0.463999,-0.275 0,0 -0.503,-0.280001 -0.503,-0.280001 0,0 -0.306001,-0.158999 -0.306001,-0.158999 0,0 -0.307999,-0.152 -0.307999,-0.152 0,0 -0.311002,-0.145 -0.311002,-0.145 0,0 -0.312999,-0.138001 -0.312999,-0.138001 0,0 -0.315,-0.129998 -0.315,-0.129998 0,0 -0.318,-0.123002 -0.318,-0.123002 0,0 -0.32,-0.116999 -0.32,-0.116999 0,0 -0.322998,-0.108 -0.322998,-0.108 0,0 -0.324001,-0.102 -0.324001,-0.102 0,0 -0.327001,-0.094 -0.327001,-0.094 0,0 -0.328999,-0.087 -0.328999,-0.087 0,0 -0.332002,-0.079 -0.332002,-0.079 0,0 -0.333999,-0.072 -0.333999,-0.072 0,0 -0.336,-0.066 -0.336,-0.066 0,0 -0.339,-0.057 -0.339,-0.057 0,0 -0.341,-0.051 -0.341,-0.051 0,0 -0.342998,-0.043 -0.342998,-0.043 0,0 -0.346001,-0.035 -0.346001,-0.035 0,0 -0.348001,-0.029 -0.348001,-0.029 0,0 -0.349999,-0.02201 -0.349999,-0.02201 0,0 -0.353002,-0.014 -0.353002,-0.014 0,0 -0.354999,-0.007 -0.354999,-0.007 0,0 -0.357,0.0011 -0.357,0.0011 0,0 -0.361,0.008 -0.361,0.008 0,0 -0.006,0 -0.006,0 0,0 -0.360003,-0.01199 -0.360003,-0.01199 0,0 -0.357999,-0.005 -0.357999,-0.005 0,0 -0.355,0.003 -0.355,0.003 0,0 -0.352999,0.01101 -0.352999,0.01101 0,0 -0.350001,0.01701 -0.350001,0.01701 0,0 -0.347999,0.025 -0.347999,0.025 0,0 -0.346001,0.032 -0.346001,0.032 0,0 -0.344,0.039 -0.344,0.039 0,0 -0.341998,0.047 -0.341998,0.047 0,0 -0.339,0.055 -0.339,0.055 0,0 -0.337,0.06 -0.337,0.06 0,0 -0.335002,0.069 -0.335002,0.069 0,0 -0.331999,0.076 -0.331999,0.076 0,0 -0.329999,0.084 -0.329999,0.084 0,0 -0.328002,0.09 -0.328002,0.09 0,0 -0.325998,0.097 -0.325998,0.097 0,0 -0.323001,0.106 -0.323001,0.106 0,0 -0.322,0.112001 -0.322,0.112001 0,0 -0.319001,0.119999 -0.319001,0.119999 0,0 -0.315999,0.127 -0.315999,0.127 0,0 -0.315,0.135001 -0.315,0.135001 0,0 -0.311999,0.140999 -0.311999,0.140999 0,0 -0.310002,0.149 -0.310002,0.149 0,0 -0.307995,0.156999 -0.307995,0.156999 0,0 -0.506,0.273 -0.506,0.273 0,0 -0.467,0.270002 -0.467,0.270002 0,0 -0.436,0.265999 -0.436,0.265999 0,0 -0.415,0.262001 -0.415,0.262001 0,0 -0.403,0.258 -0.403,0.258 0,0 -0.398,0.253 -0.398,0.253 0,0 -0.002,0.0011 -0.002,0.0011 0,0 -0.403,0.247999 -0.403,0.247999 0,0 -0.002,0.0021 -0.002,0.0021 0,0 -0.417,0.240999 -0.417,0.240999 0,0 -0.003,0.0011 -0.003,0.0011 0,0 -0.439,0.235 -0.439,0.235 0,0 -0.003,0.0021 -0.003,0.0021 0,0 -0.471,0.228999 -0.471,0.228999 0,0 -0.004,0.0021 -0.004,0.0021 0,0 -0.51001,0.221002 -0.51001,0.221002 0,0 -0.004,0.0011 -0.004,0.0011 0,0 -0.559,0.215 -0.559,0.215 0,0 -0.004,0.0021 -0.004,0.0021 0,0 -0.617,0.205999 -0.617,0.205999 0,0 -0.004,0.0011 -0.004,0.0011 0,0 -0.68399,0.197999 -0.68399,0.197999 0,0 -0.004,0.0011 -0.004,0.0011 0,0 -0.759,0.19 -0.759,0.19 0,0 -0.003,0.0011 -0.003,0.0011 0,0 -0.844,0.181001 -0.844,0.181001 0,0 -0.003,0 -0.003,0 0,0 -0.93701,0.172 -0.93701,0.172 0,0 -0.003,0.0011 -0.003,0.0011 0,0 -1.039,0.161999 -1.039,0.161999 0,0 -0.002,0 -0.002,0 0,0 -1.15,0.152001 -1.15,0.152001 0,0 -0.002,0 -0.002,0 0,0 -1.27,0.141999 -1.27,0.141999 0,0 -0.002,0.0011 -0.002,0.0011 0,0 -1.398,0.131001 -1.398,0.131001 0,0 -10e-4,0 -10e-4,0 0,0 -1.536,0.119999 -1.536,0.119999 0,0 -0.002,0 -0.002,0 0,0 -1.683,0.109 -1.683,0.109 0,0 -10e-4,0 -10e-4,0 0,0 -1.837,0.097 -1.837,0.097 0,0 -10e-4,0 -10e-4,0 0,0 -1.208,0.048 -1.208,0.048 0,0 -10e-4,0 -10e-4,0 0,0 -1.41,0.038 -1.41,0.038 0,0 -10e-4,0 -10e-4,0 0,0 -1.589987,0.029 -1.589987,0.029 0,0 -10e-4,0 -10e-4,0 0,0 -1.749,0.019 -1.749,0.019 0,0 -10e-4,0 -10e-4,0 0,0 -1.885,0.009 -1.885,0.009 0,0 -1.99901,-0.0011 -1.99901,-0.0011 0,0 -10e-4,0 -10e-4,0 0,0 -2.092,-0.01201 -2.092,-0.01201 0,0 0,0 0,0 0,0 -2.162,-0.02201 -2.162,-0.02201 0,0 0,0 0,0 0,0 -2.211,-0.033 -2.211,-0.033 0,0 -10e-4,0 -10e-4,0 0,0 -2.236,-0.045 -2.236,-0.045 0,0 -0.001,0 -0.001,0 0,0 -2.241,-0.056 -2.241,-0.056 0,0 -2.224,-0.068 -2.224,-0.068 0,0 -10e-4,0 -10e-4,0 0,0 -2.183,-0.079 -2.183,-0.079 0,0 0,0 0,0 0,0 -2.121,-0.092 -2.121,-0.092 0,0 -10e-4,0 -10e-4,0 0,0 -2.038,-0.103999 -2.038,-0.103999 0,0 -10e-4,0 -10e-4,0 0,0 -1.932,-0.117002 -1.932,-0.117002 0,0 -10e-4,0 -10e-4,0 0,0 -1.8039999,-0.128997 -1.8039999,-0.128997 0,0 -0.002,0 -0.002,0 0,0 -1.654,-0.143002 -1.654,-0.143002 0,0 -10e-4,-0.0011 -10e-4,-0.0011 0,0 -1.482,-0.155999 -1.482,-0.155999 0,0 -0.002,0 -0.002,0 0,0 -0.67,-0.083 -0.67,-0.083 0,0 -0.002,0 -0.002,0 0,0 -0.619,-0.086 -0.619,-0.086 0,0 -0.002,0 -0.002,0 0,0 -0.564,-0.09 -0.564,-0.09 0,0 -0.002,-0.0011 -0.002,-0.0011 0,0 -0.508,-0.093 -0.508,-0.093 0,0 -0.003,0 -0.003,0 0,0 -0.448,-0.097 -0.448,-0.097 0,0 -0.004,-0.0011 -0.004,-0.0011 0,0 -0.386,-0.100999 -0.386,-0.100999 0,0 -0.006,-0.0021 -0.006,-0.0021 0,0 -0.321,-0.104 -0.321,-0.104 0,0 -0.008,-0.003 -0.008,-0.003 0,0 -0.253,-0.107 -0.253,-0.107 0,0 -0.009,-0.004 -0.009,-0.004 0,0 -0.10091,-0.05509 -0.10091,-0.05509 -0.003,-0.0018 -0.006,-0.0037 -0.009,-0.0059 0,0 -0.082,-0.057 -0.082,-0.057 -0.003,-0.0021 -0.006,-0.0044 -0.009,-0.0069 0,0 -0.064,-0.056 -0.064,-0.056 -0.004,-0.0039 -0.009,-0.0083 -0.0122,-0.01307 0,0 -0.046,-0.058 -0.046,-0.058 -0.004,-0.0045 -0.007,-0.0094 -0.01,-0.01482 0,0 -0.137,-0.254236 -0.137,-0.254236 0,0 -0.004,-0.007 -0.004,-0.007 0,0 -0.125,-0.289999 -0.125,-0.289999 0,0 -0.003,-0.007 -0.003,-0.007 0,0 -0.112,-0.324001 -0.112,-0.324001 0,0 -10e-4,-0.006 -10e-4,-0.006 0,0 -0.1,-0.354001 -0.1,-0.354001 0,0 -0.001,-0.004 -0.001,-0.004 0,0 -0.088,-0.38 -0.088,-0.38 0,0 -0.001,-0.004 -0.001,-0.004 0,0 -0.077,-0.403 -0.077,-0.403 0,0 -0.001,-0.004 -0.001,-0.004 0,0 -0.065,-0.423 -0.065,-0.423 0,0 0,-0.003 0,-0.003 0,0 -0.054,-0.439 -0.054,-0.439 0,0 -10e-4,-0.0021 -10e-4,-0.0021 0,0 -0.044,-0.452001 -0.044,-0.452001 0,0 0,-0.003 0,-0.003 0,0 -0.033,-0.460002 -0.033,-0.460002 0,0 0,-0.0021 0,-0.0021 0,0 -0.022,-0.466 -0.022,-0.466 0,0 0,-0.0021 0,-0.0021 0,0 -0.013,-0.467 -0.013,-0.467 0,0 0,-0.0021 0,-0.0021 0,0 -0.003,-0.466 -0.003,-0.466 0,0 0,-0.0021 0,-0.0021 0,0 0.006,-0.461002 0.006,-0.461002 0,0 0,-0.0021 0,-0.0021 0,0 0.015,-0.451999 0.015,-0.451999 0,0 0,-0.0021 0,-0.0021 0,0 0.024,-0.44 0.024,-0.44 0,0 0,-0.003 0,-0.003 0,0 0.033,-0.423999 0.033,-0.423999 0,0 10e-4,-0.0021 10e-4,-0.0021 0,0 0.041,-0.405 0.041,-0.405 0,0 0,-0.003 0,-0.003 0,0 0.049,-0.382 0.049,-0.382 0,0 0,-0.003 0,-0.003 0,0 0.056,-0.355999 0.056,-0.355999 0,0 0.001,-0.003 0.001,-0.003 0,0 0.064,-0.325998 0.064,-0.325998 0,0 10e-4,-0.005 10e-4,-0.005 0,0 0.071,-0.293 0.071,-0.293 0,0 0.001,-0.005 0.001,-0.005 0,0 0.078,-0.256 0.078,-0.256 0,0 0.003,-0.008 0.003,-0.008 0,0 0.085,-0.214884 0.085,-0.214884 10e-4,-0.0031 0.003,-0.0062 0.004,-0.0092 0,0 0.10486,-0.201935 0.10486,-0.201935 0,0 0.004,-0.007 0.004,-0.007 0,0 0.138,-0.218998 0.138,-0.218998 0,0 0.004,-0.005 0.004,-0.005 0,0 0.169,-0.237 0.169,-0.237 0,0 10e-4,-0.0021 10e-4,-0.0021 0,0 0.195,-0.257 0.195,-0.257 0,0 0.001,-0.0021 0.001,-0.0021 0,0 0.22,-0.279 0.22,-0.279 0,0 10e-4,0 10e-4,0 0,0 0.23999,-0.300998 0.23999,-0.300998 0,0 0.257,-0.326001 0.257,-0.326001 0,0 0.273,-0.350999 0.273,-0.350999 0,0 0.28301,-0.377002 0.28301,-0.377002 0,0 0.29199,-0.406998 0.29199,-0.406998 0,0 0.297,-0.437002 0.297,-0.437002 0,0 0.30001,-0.469 0.30001,-0.469 0,0 0.299,-0.503 0.299,-0.503 0,0 0.295,-0.536998 0.295,-0.536998 0,0 0.28899,-0.572 0.28899,-0.572 0,0 0.278,-0.612003 0.278,-0.612003 0,0 0.26701,-0.650999 0.26701,-0.650999 0,0 0.249,-0.691999 0.249,-0.691999 0,0 0.232,-0.734999 0.232,-0.734999 0,0 0.21,-0.779 0.21,-0.779 0,0 0.18399,-0.825 0.18399,-0.825 0,0 0.15601,-0.873 0.15601,-0.873 0,0 0.126,-0.921002 0.126,-0.921002 0,0 0.049,-0.477999 0.049,-0.477999 0,0 0.042,-0.494001 0.042,-0.494001 0,0 0.072,-0.988999 0.072,-0.988999 0,0 0,0 0,0 0,0 0.072,-0.966999 0.072,-0.966999 0,0 0,-0.0011 0,-0.0011 0,0 0.074,-0.945002 0.074,-0.945002 0,0 0,0 0,0 0,0 0.076,-0.922999 0.076,-0.922999 0,0 0,-0.0011 0,-0.0011 0,0 0.081,-0.900002 0.081,-0.900002 0,0 0,-0.0011 0,-0.0011 0,0 0.088,-0.877999 0.088,-0.877999 0,0 0.001,-0.0011 0.001,-0.0011 0,0 0.096,-0.856001 0.096,-0.856001 0,0 0,-0.0021 0,-0.0021 0,0 0.106,-0.834001 0.106,-0.834001 0,0 0,-0.0011 0,-0.0011 0,0 0.118,-0.812001 0.118,-0.812001 0,0 0,-0.0021 0,-0.0021 0,0 0.132,-0.790998 0.132,-0.790998 0,0 10e-4,-0.003 10e-4,-0.003 0,0 0.147,-0.768001 0.147,-0.768001 0,0 0,-0.0021 0,-0.0021 0,0 0.164,-0.747999 0.164,-0.747999 0,0 0.001,-0.003 0.001,-0.003 0,0 0.183,-0.726001 0.183,-0.726001 0,0 10e-4,-0.004 10e-4,-0.004 0,0 0.203,-0.703998 0.203,-0.703998 0,0 0.001,-0.003 0.001,-0.003 0,0 0.226,-0.684001 0.226,-0.684001 0,0 0.001,-0.004 0.001,-0.004 0,0 0.25101,-0.662999 0.25101,-0.662999 0,0 0.002,-0.004 0.002,-0.004 0,0 0.276,-0.641 0.276,-0.641 0,0 0.002,-0.004 0.002,-0.004 0,0 0.3029999,-0.621001 0.3029999,-0.621001 0,0 0.003,-0.005 0.003,-0.005 0,0 0.334,-0.599001 0.334,-0.599001 0,0 0.002,-0.005 0.002,-0.005 0,0 0.364,-0.578998 0.364,-0.578998 0,0 0.003,-0.005 0.003,-0.005 0,0 0.397,-0.558001 0.397,-0.558001 0,0 0.003,-0.004 0.003,-0.004 0,0 0.212,-0.271999 0.212,-0.271999 0,0 0.002,-0.0021 0.002,-0.0021 0,0 0.221,-0.266999 0.221,-0.266999 0,0 0.002,-0.0021 0.002,-0.0021 0,0 0.229,-0.2610008 0.229,-0.2610008 0,0 0.002,-0.0021 0.002,-0.0021 0,0 0.239,-0.257001 0.239,-0.257001 0,0 0.002,-0.0021 0.002,-0.0021 0,0 0.249,-0.251 0.249,-0.251 0,0 0.002,-0.0021 0.002,-0.0021 0,0 0.258,-0.247001 0.258,-0.247001 0,0 0.003,-0.003 0.003,-0.003 0,0 0.443,-0.385001 0.443,-0.385001 0,0 0.005,-0.004 0.005,-0.004 0,0 0.485,-0.373999 0.485,-0.373999 0,0 0.004,-0.003 0.004,-0.003 0,0 0.525,-0.361 0.525,-0.361 0,0 0.005,-0.003 0.005,-0.003 0,0 0.565,-0.348001 0.565,-0.348001 0,0 0.004,-0.003 0.004,-0.003 0,0 0.605,-0.335002 0.605,-0.335002 0,0 0.003,-0.0021 0.003,-0.0021 0,0 0.644,-0.320998 0.644,-0.320998 0,0 0.004,-0.0011 0.004,-0.0011 0,0 0.68401,-0.307001 0.68401,-0.307001 0,0 0.004,-0.0021 0.004,-0.0021 0,0 0.723,-0.291999 0.723,-0.291999 0,0 0.003,-0.0011 0.003,-0.0011 0,0 0.761,-0.277001 0.761,-0.277001 0,0 0.003,-0.0011 0.003,-0.0011 0,0 0.799,-0.260998 0.799,-0.260998 0,0 0.003,-0.0011 0.003,-0.0011 0,0 0.837,-0.245002 0.837,-0.245002 0,0 0.003,-0.0011 0.003,-0.0011 0,0 0.875,-0.229 0.875,-0.229 0,0 0.002,0 0.002,0 0,0 0.912,-0.212 0.912,-0.212 0,0 0.003,-0.0011 0.003,-0.0011 0,0 0.949,-0.194001 0.949,-0.194001 0,0 0.002,0 0.002,0 0,0 0.986,-0.176998 0.986,-0.176998 0,0 0.003,0 0.003,0 0,0 1.021,-0.158001 1.021,-0.158001 0,0 0.002,-0.0011 0.002,-0.0011 0,0 1.058,-0.138998 1.058,-0.138998 0,0 0.002,0 0.002,0 0,0 1.093,-0.120002 1.093,-0.120002 0,0 0.002,-0.0011 0.002,-0.0011 0,0 1.128,-0.1 1.128,-0.1 0,0 0.002,0 0.002,0 0,0 1.163,-0.08 1.163,-0.08 0,0 0.002,-0.0011 0.002,-0.0011 0,0 1.198,-0.059 1.198,-0.059 0,0 0.002,0 0.002,0 0,0 1.231,-0.039 1.231,-0.039 0,0 0.002,0 0.002,0 0,0 1.266,-0.01799 1.266,-0.01799 0,0 10e-4,0 10e-4,0 0,0 1.299,0.005 1.299,0.005 0,0 0.001,0 0.001,0 0,0 1.197,0.015 1.197,0.015 0,0 0.001,0 0.001,0 0,0 1.164,0.01799 1.164,0.01799 0,0 1.133,0.025 1.133,0.025 0,0 10e-4,0 10e-4,0 0,0 1.104,0.036 1.104,0.036 0,0 0.002,0 0.002,0 0,0 1.07499,0.051 1.07499,0.051 0,0 0.002,0.0011 0.002,0.0011 0,0 1.047997,0.07 1.047997,0.07 0,0 0.002,0 0.002,0 0,0 1.023,0.093 1.023,0.093 0,0 0.003,0 0.003,0 0,0 0.999,0.118999 0.999,0.118999 0,0 0.003,0.0011 0.003,0.0011 0,0 0.977,0.15 0.977,0.15 0,0 0.004,0.0011 0.004,0.0011 0,0 0.954,0.183999 0.954,0.183999 0,0 0.003,0.0011 0.003,0.0011 0,0 0.47,0.106 0.47,0.106 0,0 0.002,0 0.002,0 0,0 0.465,0.117002 0.465,0.117002 0,0 0.003,0 0.003,0 0,0 0.461,0.127 0.461,0.127 0,0 0.002,0.0011 0.002,0.0011 0,0 0.456,0.137999 0.456,0.137999 0,0 0.002,0.0011 0.002,0.0011 0,0 0.451,0.149 0.451,0.149 0,0 0.003,0.0011 0.003,0.0011 0,0 0.448,0.161999 0.448,0.161999 0,0 0.003,0.0011 0.003,0.0011 0,0 0.443,0.174001 0.443,0.174001 0,0 0.002,0.0011 0.002,0.0011 0,0 0.44,0.186999 0.44,0.186999 0,0 0.003,0.0011 0.003,0.0011 0,0 0.436,0.199998 0.436,0.199998 0,0 0.002,0.0021 0.002,0.0021 0,0 0.433,0.214 0.433,0.214 0,0 0.003,0.0011 0.003,0.0011 0,0 0.429,0.228999 0.429,0.228999 0,0 0.003,0.0021 0.003,0.0021 0,0 0.426,0.243001 0.426,0.243001 0,0 0.002,0.0021 0.002,0.0021 0,0 0.424,0.258998 0.424,0.258998 0,0 0.003,0.0021 0.003,0.0021 0,0 0.42,0.275003 0.42,0.275003 0,0 0.002,0.0021 0.002,0.0021 0,0 0.418,0.291002 0.418,0.291002 0,0 0.003,0.0021 0.003,0.0021 0,0 0.41599,0.307999 0.41599,0.307999 0,0 0.002,0.0021 0.002,0.0021 0,0 0.413,0.325001 0.413,0.325001 0,0 0.002,0.0021 0.002,0.0021 0,0 0.411,0.344001 0.411,0.344001 0,0 0.002,0.0021 0.002,0.0021 0,0 0.41,0.361 0.41,0.361 0,0 0.002,0.0021 0.002,0.0021 0,0 0.40701,0.381 0.40701,0.381 0,0 0.002,0.0021 0.002,0.0021 0,0 0.406,0.4 0.406,0.4 0,0 0.002,0.0021 0.002,0.0021 0,0 0.405,0.4189988 0.405,0.4189988 0,0 0.002,0.0021 0.002,0.0021 0,0 0.40299,0.439999 0.40299,0.439999 0,0 10e-4,0.0021 10e-4,0.0021 0,0 0.403,0.460999 0.403,0.460999 0,0 0.002,0.0021 0.002,0.0021 0,0 0.401,0.481999 0.401,0.481999 0,0 10e-4,0.0011 10e-4,0.0011 0,0 0.401,0.504002 0.401,0.504002 0,0 0.002,0.0021 0.002,0.0021 0,0 0.401,0.526 0.401,0.526 0,0 10e-4,0.0011 10e-4,0.0011 0,0 0.4,0.549 0.4,0.549 0,0 10e-4,0.0021 10e-4,0.0021 0,0 0.41,0.595998 0.41,0.595998 0,0 0.002,0.003 0.002,0.003 0,0 0.391,0.606002 0.391,0.606002 0,0 0.002,0.0021 0.002,0.0021 0,0 0.372,0.615997 0.372,0.615997 0,0 10e-4,0.003 10e-4,0.003 0,0 0.353,0.625002 0.353,0.625002 0,0 10e-4,0.0021 10e-4,0.0021 0,0 0.336,0.632 0.336,0.632 0,0 0.001,0.0021 0.001,0.0021 0,0 0.319,0.638 0.319,0.638 0,0 10e-4,0.0021 10e-4,0.0021 0,0 0.304,0.644001 0.304,0.644001 0,0 0.001,0.0021 0.001,0.0021 0,0 0.29,0.649 0.29,0.649 0,0 10e-4,0.0021 10e-4,0.0021 0,0 0.276,0.652 0.276,0.652 0,0 0.001,0.0021 0.001,0.0021 0,0 0.264,0.655 0.264,0.655 0,0 0,0.0011 0,0.0011 0,0 0.252,0.656 0.252,0.656 0,0 10e-4,0.0011 10e-4,0.0011 0,0 0.242,0.657 0.242,0.657 0,0 0,0.0021 0,0.0021 0,0 0.455,1.312 0.455,1.312 0,0 10e-4,0.0021 10e-4,0.0021 0,0 0.424,1.303002 0.424,1.303002 0,0 0,0.0011 0,0.0011 0,0 0.401,1.285002 0.401,1.285002 0,0 0,0.0011 0,0.0011 0,0 0.385,1.259999 0.385,1.259999 0,0 0.375994,1.226 0.375994,1.226 0,0 0.375002,1.184 0.375002,1.184 0,0 0.382,1.135001 0.382,1.135001 0,0 0.396,1.077 0.396,1.077 0,0 0.205999,0.513998 0.205999,0.513998 0,0 0.212,0.497001 0.212,0.497001 0,0 0.219001,0.477999 0.219001,0.477999 0,0 0.227999,0.459002 0.227999,0.459002 0,0 0.236001,0.437999 0.236001,0.437999 0,0 0.246999,0.415999 0.246999,0.415999 0,0 0.257,0.395002 0.257,0.395002 0,0 0.268999,0.370999 0.268999,0.370999 0,0 0.282001,0.347001 0.282001,0.347001 0,0 0.295,0.321 0.295,0.321 0,0 0.309002,0.294 0.309002,0.294 0,0 0.324998,0.267999 0.324998,0.267999 0,0 0.341,0.241001 0.341,0.241001 0,0 0.359,0.212 0.359,0.212 0,0 0.376,0.180999 0.376,0.180999 0,0 0.397002,0.152 0.397002,0.152 0,0 0.416999,0.121 0.416999,0.121 0,0 0.437999,0.087 0.437999,0.087 0,0 0.462,0.055 0.462,0.055 0,0 0.484999,0.02 0.484999,0.02 0,0 0.486003,-0.015 0.486003,-0.015 0,0 0.461999,-0.049 0.461999,-0.049 0,0 0.44,-0.083 0.44,-0.083 0,0 0.417999,-0.116001 0.417999,-0.116001 0,0 0.398,-0.147 0.398,-0.147 0,0 0.378999,-0.178001 0.378999,-0.178001 0,0 0.36,-0.208 0.36,-0.208 0,0 0.344001,-0.236 0.344001,-0.236 0,0 0.328001,-0.264999 0.328001,-0.264999 0,0 0.313,-0.290999 0.313,-0.290999 0,0 0.298,-0.318 0.298,-0.318 0,0 0.285999,-0.343001 0.285999,-0.343001 0,0 0.272999,-0.369001 0.272999,-0.369001 0,0 0.262001,-0.390998 0.262001,-0.390998 0,0 0.251,-0.413002 0.251,-0.413002 0,0 0.241001,-0.435999 0.241001,-0.435999 0,0 0.233,-0.456001 0.233,-0.456001 0,0 0.223999,-0.475999 0.223999,-0.475999 0,0 0.218001,-0.494001 0.218001,-0.494001 0,0 0.211,-0.512 0.211,-0.512 0,0 0.408,-1.071999 0.408,-1.071999 0,0 0.395,-1.131001 0.395,-1.131001 0,0 0.388,-1.18 0.388,-1.18 0,0 0.389999,-1.221999 0.389999,-1.221999 0,0 0.399,-1.255001 0.399,-1.255001 0,0 0,-0.0011 0,-0.0011 0,0 0.415001,-1.280999 0.415001,-1.280999 0,0 0,-0.0011 0,-0.0011 0,0 0.437999,-1.298001 0.437999,-1.298001 0,0 0.0011,-0.0021 0.0011,-0.0021 0,0 0.47,-1.306999 0.47,-1.306999 0,0 0,-0.0021 0,-0.0021 0,0 0.249,-0.653999 0.249,-0.653999 0,0 0.0011,-0.0011 0.0011,-0.0011 0,0 0.259001,-0.652999 0.259001,-0.652999 0,0 0.0011,-0.0011 0.0011,-0.0011 0,0 0.270999,-0.651999 0.270999,-0.651999 0,0 0,-0.0021 0,-0.0021 0,0 0.283999,-0.648999 0.283999,-0.648999 0,0 0.0011,-0.0021 0.0011,-0.0021 0,0 0.297,-0.646001 0.297,-0.646001 0,0 0,-0.0021 0,-0.0021 0,0 0.312002,-0.639998 0.312002,-0.639998 0,0 0.0011,-0.0021 0.0011,-0.0021 0,0 0.325999,-0.635 0.325999,-0.635 0,0 0.0021,-0.0021 0.0021,-0.0021 0,0 0.342,-0.629002 0.342,-0.629002 0,0 0.0021,-0.0021 0.0021,-0.0021 0,0 0.36,-0.620001 0.36,-0.620001 0,0 0.0011,-0.003 0.0011,-0.003 0,0 0.379,-0.612 0.379,-0.612 0,0 0.0011,-0.0021 0.0011,-0.0021 0,0 0.396999,-0.602002 0.396999,-0.602002 0,0 0.0021,-0.003 0.0021,-0.003 0,0 0.417999,-0.591 0.417999,-0.591 0,0 0.0011,-0.0021 0.0011,-0.0021 0,0 0.406,-0.544002 0.406,-0.544002 0,0 0.0011,-0.0021 0.0011,-0.0021 0,0 0.406,-0.522 0.406,-0.522 0,0 0.0021,-0.0011 0.0021,-0.0011 0,0 0.405998,-0.499999 0.405998,-0.499999 0,0 0.0011,-0.0011 0.0011,-0.0011 0,0 0.407001,-0.478002 0.407001,-0.478002 0,0 0.0021,-0.0021 0.0021,-0.0021 0,0 0.407001,-0.455999 0.407001,-0.455999 0,0 0.0021,-0.0021 0.0021,-0.0021 0,0 0.408001,-0.434999 0.408001,-0.434999 0,0 0.0021,-0.0021 0.0021,-0.0021 0,0 0.409001,-0.4160018 0.409001,-0.4160018 0,0 0.0021,-0.0021 0.0021,-0.0021 0,0 0.410001,-0.394999 0.410001,-0.394999 0,0 0.0021,-0.0021 0.0021,-0.0021 0,0 0.411999,-0.376 0.411999,-0.376 0,0 0.0021,-0.0021 0.0021,-0.0021 0,0 0.412999,-0.356999 0.412999,-0.356999 0,0 0.0021,-0.0021 0.0021,-0.0021 0,0 0.415001,-0.339 0.415001,-0.339 0,0 0.0021,-0.0021 0.0021,-0.0021 0,0 0.416999,-0.321 0.416999,-0.321 0,0 0.003,-0.0021 0.003,-0.0021 0,0 0.417999,-0.303998 0.417999,-0.303998 0,0 0.003,-0.0011 0.003,-0.0011 0,0 0.421,-0.287002 0.421,-0.287002 0,0 0.0021,-0.0021 0.0021,-0.0021 0,0 0.424,-0.27 0.424,-0.27 0,0 0.003,-0.0021 0.003,-0.0021 0,0 0.426001,-0.254 0.426001,-0.254 0,0 0.0021,-0.0021 0.0021,-0.0021 0,0 0.428998,-0.238998 0.428998,-0.238998 0,0 0.003,-0.0011 0.003,-0.0011 0,0 0.432001,-0.225001 0.432001,-0.225001 0,0 0.0021,-0.0011 0.0021,-0.0011 0,0 0.434999,-0.209999 0.434999,-0.209999 0,0 0.003,-0.0011 0.003,-0.0011 0,0 0.438,-0.195998 0.438,-0.195998 0,0 0.003,-0.0011 0.003,-0.0011 0,0 0.441,-0.182002 0.441,-0.182002 0,0 0.003,-0.0011 0.003,-0.0011 0,0 0.445,-0.169 0.445,-0.169 0,0 0.003,-0.0011 0.003,-0.0011 0,0 0.449,-0.156999 0.449,-0.156999 0,0 0.003,-0.0011 0.003,-0.0011 0,0 0.452998,-0.144 0.452998,-0.144 0,0 0.0021,-0.0011 0.0021,-0.0011 0,0 0.458002,-0.133001 0.458002,-0.133001 0,0 0.0021,-0.0011 0.0021,-0.0011 0,0 0.462003,-0.121999 0.462003,-0.121999 0,0 0.0021,0 0.0021,0 0,0 0.465998,-0.112001 0.465998,-0.112001 0,0 0.003,0 0.003,0 0,0 0.471,-0.101 0.471,-0.101 0,0 0.003,-0.0011 0.003,-0.0011 0,0 0.956,-0.174 0.956,-0.174 0,0 0.004,-0.0011 0.004,-0.0011 0,0 0.977998,-0.138999 0.977998,-0.138999 0,0 0.003,0 0.003,0 0,0 1.001001,-0.109 1.001001,-0.109 0,0 0.0021,0 0.0021,0 0,0 1.024001,-0.082 1.024001,-0.082 0,0 0.003,0 0.003,0 0,0 1.048997,-0.059 1.048997,-0.059 0,0 0.002,0 0.002,0 0,0 1.076,-0.04 1.076,-0.04 0,0 0.001,0 0.001,0 0,0 1.104,-0.024 1.104,-0.024 0,0 0.001,0 0.001,0 0,0 1.133,-0.01299 1.133,-0.01299 0,0 0.001,0 0.001,0 0,0 1.164,-0.005 1.164,-0.005 0,0 0.001,0 0.001,0 0,0 1.196,-0.0021 1.196,-0.0021 0,0 0.001,0 0.001,0 0,0 1.299,0.01 1.299,0.01 0,0 0.002,0 0.002,0 0,0 1.265,0.031 1.265,0.031 0,0 0.002,0 0.002,0 0,0 1.232,0.052 1.232,0.052 0,0 0.001,0 0.001,0 0,0 1.197,0.073 1.197,0.073 0,0 0.002,0 0.002,0 0,0 1.162,0.093 1.162,0.093 0,0 0.002,0.0011 0.002,0.0011 0,0 1.127,0.112001 1.127,0.112001 0,0 0.003,0.0011 0.003,0.0011 0,0 1.091,0.132 1.091,0.132 0,0 0.002,0 0.002,0 0,0 1.056,0.151001 1.056,0.151001 0,0 0.002,0 0.002,0 0,0 1.02,0.168999 1.02,0.168999 0,0 0.002,0.0011 0.002,0.0011 0,0 0.984,0.186999 0.984,0.186999 0,0 0.002,0.0011 0.002,0.0011 0,0 0.94701,0.203999 0.94701,0.203999 0,0 0.003,0.0011 0.003,0.0011 0,0 0.909,0.220999 0.909,0.220999 0,0 0.003,0.0011 0.003,0.0011 0,0 0.872,0.238001 0.872,0.238001 0,0 0.003,0.0011 0.003,0.0011 0,0 0.835,0.255 0.835,0.255 0,0 0.003,0 0.003,0 0,0 0.796,0.269999 0.796,0.269999 0,0 0.003,0.0021 0.003,0.0021 0,0 0.758,0.285001 0.758,0.285001 0,0 0.003,0.0011 0.003,0.0011 0,0 0.72,0.299997 0.72,0.299997 0,0 0.003,0.0021 0.003,0.0021 0,0 0.681,0.314002 0.681,0.314002 0,0 0.003,0.0021 0.003,0.0021 0,0 0.641,0.327999 0.641,0.327999 0,0 0.004,0.0021 0.004,0.0021 0,0 0.601,0.341001 0.601,0.341001 0,0 0.004,0.003 0.004,0.003 0,0 0.562,0.354 0.562,0.354 0,0 0.004,0.003 0.004,0.003 0,0 0.521,0.366999 0.521,0.366999 0,0 0.004,0.003 0.004,0.003 0,0 0.48,0.379 0.48,0.379 0,0 0.005,0.004 0.005,0.004 0,0 0.43899,0.390002 0.43899,0.390002 0,0 0.003,0.003 0.003,0.003 0,0 0.256,0.25 0.256,0.25 0,0 0.002,0.0021 0.002,0.0021 0,0 0.246,0.2539998 0.246,0.2539998 0,0 0.002,0.0021 0.002,0.0021 0,0 0.236,0.258998 0.236,0.258998 0,0 0.002,0.0021 0.002,0.0021 0,0 0.227,0.264001 0.227,0.264001 0,0 0.001,0.0021 0.001,0.0021 0,0 0.218,0.268999 0.218,0.268999 0,0 0.002,0.003 0.002,0.003 0,0 0.208,0.274 0.208,0.274 0,0 0.003,0.003 0.003,0.003 0,0 0.391,0.562999 0.391,0.562999 0,0 0.003,0.005 0.003,0.005 0,0 0.358,0.582999 0.358,0.582999 0,0 0.003,0.005 0.003,0.005 0,0 0.327,0.603002 0.327,0.603002 0,0 0.002,0.005 0.002,0.005 0,0 0.297,0.622999 0.297,0.622999 0,0 0.002,0.005 0.002,0.005 0,0 0.269,0.643999 0.269,0.643999 0,0 0.002,0.005 0.002,0.005 0,0 0.243,0.665001 0.243,0.665001 0,0 0.001,0.004 0.001,0.004 0,0 0.219,0.685998 0.219,0.685998 0,0 0.001,0.003 0.001,0.003 0,0 0.196,0.706001 0.196,0.706001 0,0 0,0.004 0,0.004 0,0 0.175,0.728001 0.175,0.728001 0,0 0.001,0.003 0.001,0.003 0,0 0.156,0.749001 0.156,0.749001 0,0 0.001,0.0021 0.001,0.0021 0,0 0.138,0.771001 0.138,0.771001 0,0 0.001,0.003 0.001,0.003 0,0 0.122,0.791998 0.122,0.791998 0,0 0.001,0.0021 0.001,0.0021 0,0 0.109,0.813001 0.109,0.813001 0,0 0,0.0011 0,0.0011 0,0 0.099,0.835326 0.099,0.835326 0,0 0,0.0021 0,0.0021 0,0 0.087,0.857002 0.087,0.857002 0,0 0,0.0011 0,0.0011 0,0 0.078,0.878973 0.078,0.878973 0,0 0,0.0011 0,0.0011 0,0 0.072,0.90096 0.072,0.90096 0,0 0,0.0011 0,0.0011 0,0 0.066,0.923999 0.066,0.923999 0,0 0,0 0,0 0,0 0.063,0.944999 0.063,0.944999 0,0 0,0.0011 0,0.0011 0,0 0.061,0.968002 0.061,0.968002 0,0 0.001,0 0.001,0 0,0 0.061,0.99 0.061,0.99 0,0 0.036,0.493998 0.036,0.493998 0,0 0.045,0.479002 0.045,0.479002 0,0 0.115,0.922999 0.115,0.922999 0,0 0.147,0.874 0.147,0.874 0,0 0.175,0.826 0.175,0.826 0,0 0.201,0.782 0.201,0.782 0,0 0.224,0.737 0.224,0.737 0,0 0.242,0.694999 0.242,0.694999 0,0 0.259,0.654 0.259,0.654 0,0 0.272,0.615 0.272,0.615 0,0 0.282,0.576001 0.282,0.576001 0,0 0.29,0.540001 0.29,0.540001 0,0 0.293,0.505 0.293,0.505 0,0 0.295,0.472998 0.295,0.472998 0,0 0.292,0.440002 0.292,0.440002 0,0 0.287,0.409999 0.287,0.409999 0,0 0.28,0.381 0.28,0.381 0,0 0.268,0.353999 0.268,0.353999 0,0 0.254,0.328001 0.254,0.328001 0,0 0.237,0.304001 0.237,0.304001 0,0 0,0 0,0 0,0 0.217,0.280998 0.217,0.280998 0,0 0.001,0.0011 0.001,0.0011 0,0 0.193,0.260001 0.193,0.260001 0,0 10e-4,0.003 10e-4,0.003 0,0 0.166,0.239001 0.166,0.239001 0,0 0.003,0.004 0.003,0.004 0,0 0.136,0.220001 0.136,0.220001 0,0 0.004,0.008 0.004,0.008 0,0 0.10309,0.202875 0.10309,0.202875 0.002,0.003 0.003,0.0063 0.005,0.0094 0,0 0.0823,0.215768 0.0823,0.215768 0,0 0.002,0.008 0.002,0.008 0,0 0.075,0.257001 0.075,0.257001 0,0 0.002,0.005 0.002,0.005 0,0 0.068,0.293 0.068,0.293 0,0 0.001,0.005 0.001,0.005 0,0 0.06,0.326998 0.06,0.326998 0,0 0.001,0.003 0.001,0.003 0,0 0.052,0.355999 0.052,0.355999 0,0 0.001,0.003 0.001,0.003 0,0 0.044,0.383 0.044,0.383 0,0 0.001,0.003 0.001,0.003 0,0 0.036,0.405 0.036,0.405 0,0 0,0.0021 0,0.0021 0,0 0.028,0.424784 0.028,0.424784 0,0 0,0.003 0,0.003 0,0 0.02,0.440002 0.02,0.440002 0,0 0,0.0021 0,0.0021 0,0 0.01,0.451998 0.01,0.451998 0,0 0,0.0021 0,0.0021 0,0 -0.006,0.461637 -0.006,0.461637 0,0 0,0.0021 0,0.0021 0,0 -0.008,0.466 -0.008,0.466 0,0 0,0.0021 0,0.0021 0,0 -0.018,0.467 -0.018,0.467 0,0 0,0.0021 0,0.0021 0,0 -0.028,0.466 -0.028,0.466 0,0 0,0.0021 0,0.0021 0,0 -0.038,0.459983 -0.038,0.459983 0,0 0,0.003 0,0.003 0,0 -0.049,0.451 -0.049,0.451 0,0 0,0.0021 0,0.0021 0,0 -0.059,0.438002 -0.059,0.438002 0,0 0,0.003 0,0.003 0,0 -0.07,0.422 -0.07,0.422 0,0 -10e-4,0.004 -10e-4,0.004 0,0 -0.081,0.403 -0.081,0.403 0,0 -0.001,0.004 -0.001,0.004 0,0 -0.092,0.379 -0.092,0.379 0,0 -0.001,0.004 -0.001,0.004 0,0 -0.104,0.353002 -0.104,0.353002 0,0 -0.002,0.006 -0.002,0.006 0,0 -0.116,0.323001 -0.116,0.323001 0,0 -0.002,0.006 -0.002,0.006 0,0 -0.128,0.288999 -0.128,0.288999 0,0 -0.004,0.009 -0.004,0.009 0,0 -0.14035,0.250883 -0.14035,0.250883 -0.003,0.0046 -0.006,0.0091 -0.009,0.01318 0,0 -0.046,0.058 -0.046,0.058 -0.004,0.005 -0.009,0.0095 -0.013,0.01373 0,0 -0.065,0.056 -0.065,0.056 -0.004,0.0026 -0.007,0.0052 -0.0101,0.0074 0,0 -0.0805,0.05426 -0.0805,0.05426"
       style="fill:none;stroke:#00ff00;stroke-width:0.099;stroke-miterlimit:4;stroke-dasharray:none"
       inkscape:connector-curvature="0" />
    <path
       id="path872"
       d="m 59.76413,47.145425 c 0,0 0,0 0,0"
       style="fill:none;stroke:#00ff00;stroke-width:0.09900108"
       inkscape:connector-curvature="0" />
    <path
       id="path870"
       d="m 117.95713,51.162424 c 0,0 0,0 0,0"
       style="fill:none;stroke:#00ff00;stroke-width:0.09900108"
       inkscape:connector-curvature="0" />
    <path
       id="path868"
       d="m 128.43713,51.685424 c 0,0 0,0 0,0"
       style="fill:none;stroke:#00ff00;stroke-width:0.09900108"
       inkscape:connector-curvature="0" />
    <path
       id="path866"
       d="m 131.65413,45.791425 c 0,0 0,0 0,0"
       style="fill:none;stroke:#00ff00;stroke-width:0.09900108"
       inkscape:connector-curvature="0" />
    <path
       id="path864"
       d="m 131.40313,44.925425 c 0,0 0,2.299999 0,2.299999 0,0 3,0 3,0 0,0 0,-2.299999 0,-2.299999 0,0 -2.249,0 -2.249,0 0,0 -0.751,0 -0.751,0"
       style="fill:none;stroke:#00ff00;stroke-width:0.09900108"
       inkscape:connector-curvature="0" />
    <path
       id="path862"
       d="m 132.65413,45.791425 c 0,0 0,0 0,0"
       style="fill:none;stroke:#00ff00;stroke-width:0.09900108"
       inkscape:connector-curvature="0" />
    <path
       id="path860"
       d="m 132.26913,41.892423 c 0,0 0,0 0,0"
       style="fill:none;stroke:#00ff00;stroke-width:0.09900108"
       inkscape:connector-curvature="0" />
    <path
       id="path858"
       d="m 131.40313,41.392422 c 0,0 0,0.751001 0,0.751001 0,0 3,0 3,0 0,0 0,-2.300999 0,-2.300999 0,0 -3,0 -3,0 0,0 0,1.549998 0,1.549998"
       style="fill:none;stroke:#00ff00;stroke-width:0.09900108"
       inkscape:connector-curvature="0" />
    <path
       id="path856"
       d="m 132.26913,40.892423 c 0,0 0,0 0,0"
       style="fill:none;stroke:#00ff00;stroke-width:0.09900108"
       inkscape:connector-curvature="0" />
    <path
       id="path854"
       d="m 125.29013,40.283424 c 0,0 0,0 0,0"
       style="fill:none;stroke:#00ff00;stroke-width:0.09900108"
       inkscape:connector-curvature="0" />
    <path
       id="path852"
       d="m 99.562128,45.561425 c 0,0 0,0 0,0"
       style="fill:none;stroke:#00ff00;stroke-width:0.09900108"
       inkscape:connector-curvature="0" />
    <path
       id="path850"
       d="m 107.85313,8.2974242 c 0,0 0,0 0,0"
       style="fill:none;stroke:#00ff00;stroke-width:0.09900108"
       inkscape:connector-curvature="0" />
    <path
       id="path848"
       d="m 123.83613,11.810423 c 0,0 -0.464,-0.335999 -0.464,-0.335999 0,0 -0.496,-0.319 -0.496,-0.319 0,0 -0.563,-0.323001 -0.563,-0.323001 0,0 -0.575,-0.298 -0.575,-0.298 0,0 -0.587,-0.273 -0.587,-0.273 0,0 -0.598,-0.251 -0.598,-0.251 0,0 -0.607,-0.2269988 -0.607,-0.2269988 0,0 -0.617,-0.206999 -0.617,-0.206999 0,0 -0.624,-0.186002 -0.624,-0.186002 0,0 -0.63,-0.167 -0.63,-0.167 0,0 -0.637,-0.149 -0.637,-0.149 0,0 -0.641,-0.131998 -0.641,-0.131998 0,0 -0.645,-0.116002 -0.645,-0.116002 0,0 -0.648,-0.1 -0.648,-0.1 0,0 -0.65,-0.087 -0.65,-0.087 0,0 -0.651,-0.074 -0.651,-0.074 0,0 -0.651,-0.063 -0.651,-0.063 0,0 -0.65,-0.051 -0.65,-0.051 0,0 -0.648,-0.042 -0.648,-0.042 0,0 -0.645,-0.033 -0.645,-0.033 0,0 -0.642,-0.02601 -0.642,-0.02601 0,0 -0.636,-0.019 -0.636,-0.019 0,0 -0.63,-0.014 -0.63,-0.014 0,0 -0.624,-0.01 -0.624,-0.01 0,0 -0.616,-0.006 -0.616,-0.006 0,0 -0.608,-0.004 -0.608,-0.004 0,0 -0.619,-0.005 -0.619,-0.005 0,0 -0.001,0 -0.001,0 0,0 -0.651,-0.007 -0.651,-0.007 0,0 -0.68,-0.008 -0.68,-0.008 0,0 -0.705,-0.006 -0.705,-0.006 0,0 -0.728,-0.0011 -0.728,-0.0011 0,0 -0.748,0.004 -0.748,0.004 0,0 -0.764,0.01299 -0.764,0.01299 0,0 -0.778,0.02299 -0.778,0.02299 0,0 -0.788,0.036 -0.788,0.036 0,0 -0.796,0.051 -0.796,0.051 0,0 -0.801001,0.067 -0.801001,0.067 0,0 -0.803,0.086 -0.803,0.086 0,0 -0.802,0.107 -0.802,0.107 0,0 -0.797002,0.13 -0.797002,0.13 0,0 -0.789998,0.155001 -0.789998,0.155001 0,0 -0.780002,0.182999 -0.780002,0.182999 0,0 -0.766998,0.212 -0.766998,0.212 0,0 -0.751001,0.242999 -0.751001,0.242999 0,0 -0.731999,0.277 -0.731999,0.277 0,0 -0.357,0.1509998 -0.357,0.1509998 0,0 -0.352002,0.160002 -0.352002,0.160002 0,0 -0.345998,0.17 -0.345998,0.17 0,0 -0.339,0.179999 -0.339,0.179999 0,0 -0.332002,0.19 -0.332002,0.19 0,0 -0.323998,0.199001 -0.323998,0.199001 0,0 -0.317,0.211 -0.317,0.211 0,0 -0.309001,0.219998 -0.309001,0.219998 0,0 -0.301001,0.232 -0.301001,0.232 0,0 -0.291999,0.243001 -0.291999,0.243001 0,0 -0.287999,0.257001 -0.287999,0.257001 0,0 -0.288999,0.271999 -0.288999,0.271999 0,0 -0.289002,0.286999 -0.289002,0.286999 0,0 -0.288999,0.3 -0.288999,0.3 0,0 -0.577001,0.644002 -0.577001,0.644002 0,0 -0.573,0.695999 -0.573,0.695999 0,0 -0.567,0.745001 -0.567,0.745001 0,0 -0.558001,0.790998 -0.558001,0.790998 0,0 -0.547999,0.835001 -0.547999,0.835001 0,0 -0.535001,0.872001 -0.535001,0.872001 0,0 -0.518999,0.909 -0.518999,0.909 0,0 -0.502999,0.942999 -0.502999,0.942999 0,0 -0.481999,0.971999 -0.481999,0.971999 0,0 -0.460002,0.999001 -0.460002,0.999001 0,0 -0.436999,1.021 -0.436999,1.021 0,0 -0.410001,1.042001 -0.410001,1.042001 0,0 -0.381,1.058 -0.381,1.058 0,0 -0.349999,1.072999 -0.349999,1.072999 0,0 -0.316,1.082001 -0.316,1.082001 0,0 -0.282001,1.088998 -0.282001,1.088998 0,0 -0.243999,1.094002 -0.243999,1.094002 0,0 -0.107,0.546999 -0.107,0.546999 0,0 -0.097,0.547 -0.097,0.547 0,0 -0.086,0.545999 -0.086,0.545999 0,0 -0.076,0.545 -0.076,0.545 0,0 -0.064,0.544002 -0.064,0.544002 0,0 -0.053,0.540999 -0.053,0.540999 0,0 -0.042,0.540001 -0.042,0.540001 0,0 -0.029,0.535998 -0.029,0.535998 0,0 -0.01799,0.534001 -0.01799,0.534001 0,0 -0.005,0.529 -0.005,0.529 0,0 0.01201,0.519999 0.01201,0.519999 0,0 0.034,0.504002 0.034,0.504002 0,0 0.054,0.49 0.054,0.49 0,0 0.074,0.473998 0.074,0.473998 0,0 0.094,0.461 0.094,0.461 0,0 0.112001,0.447 0.112001,0.447 0,0 0.132,0.433001 0.132,0.433001 0,0 0.149,0.418 0.149,0.418 0,0 0.167,0.406 0.167,0.406 0,0 0.183999,0.391999 0.183999,0.391999 0,0 0.201002,0.379002 0.201002,0.379002 0,0 0.215998,0.365998 0.215998,0.365998 0,0 0.233,0.353 0.233,0.353 0,0 0.247001,0.341 0.247001,0.341 0,0 0.260999,0.329001 0.260999,0.329001 0,0 0.276,0.316 0.276,0.316 0,0 0.289001,0.303998 0.289001,0.303998 0,0 0.301998,0.292003 0.301998,0.292003 0,0 0.315,0.281 0.315,0.281 0,0 0.327001,0.268999 0.327001,0.268999 0,0 0.338,0.257 0.338,0.257 0,0 0.350002,0.245999 0.350002,0.245999 0,0 0.36,0.236001 0.36,0.236001 0,0 0.369998,0.225 0.369998,0.225 0,0 0.379,0.213 0.379,0.213 0,0 0.389042,0.20404 0.389042,0.20404 0,0 0.395999,0.191997 0.395999,0.191997 0,0 0.405001,0.182002 0.405001,0.182002 0,0 0.411998,0.172 0.411998,0.172 0,0 0.420002,0.161999 0.420002,0.161999 0,0 0.424998,0.153001 0.424998,0.153001 0,0 0.431001,0.142999 0.431001,0.142999 0,0 0.437002,0.133001 0.437002,0.133001 0,0 0.440999,0.124 0.440999,0.124 0,0 0.895998,0.220001 0.895998,0.220001 0,0 0.909,0.185999 0.909,0.185999 0,0 0.917001,0.15 0.917001,0.15 0,0 0.922002,0.118999 0.922002,0.118999 0,0 0.921999,0.086 0.921999,0.086 0,0 0.919001,0.056 0.919001,0.056 0,0 0.911997,0.028 0.911997,0.028 0,0 0.953,0.02101 0.953,0.02101 0,0 0.0011,0 0.0011,0 0,0 1.037,0.033 1.037,0.033 0,0 0,0 0,0 0,0 1.113001,0.042 1.113001,0.042 0,0 1.179,0.048 1.179,0.048 0,0 1.236,0.049 1.236,0.049 0,0 1.285,0.048 1.285,0.048 0,0 1.325,0.042 1.325,0.042 0,0 1.357,0.033 1.357,0.033 0,0 1.38,0.02 1.38,0.02 0,0 1.393,0.004 1.393,0.004 0,0 1.399,-0.015 1.399,-0.015 0,0 1.395,-0.039 1.395,-0.039 0,0 1.383,-0.066 1.383,-0.066 0,0 1.362,-0.097 1.362,-0.097 0,0 1.333,-0.129 1.333,-0.129 0,0 0.652,-0.08 0.652,-0.08 0,0 0.642,-0.089 0.642,-0.089 0,0 0.63,-0.099 0.63,-0.099 0,0 0.617,-0.109 0.617,-0.109 0,0 0.602,-0.122 0.602,-0.122 0,0 0.588,-0.132 0.588,-0.132 0,0 0.572,-0.145 0.572,-0.145 0,0 0.554,-0.156001 0.554,-0.156001 0,0 0.535,-0.17 0.535,-0.17 0,0 0.517,-0.182999 0.517,-0.182999 0,0 0.495,-0.197001 0.495,-0.197001 0,0 0.474,-0.21 0.474,-0.21 0,0 0.451,-0.224999 0.451,-0.224999 0,0 0.427,-0.241001 0.427,-0.241001 0,0 0.402,-0.255 0.402,-0.255 0,0 0.376,-0.27 0.376,-0.27 0,0 0.349,-0.286999 0.349,-0.286999 0,0 0.321,-0.304001 0.321,-0.304001 0,0 0.301,-0.316 0.301,-0.316 0,0 0.288,-0.322 0.288,-0.322 0,0 0.274,-0.325998 0.274,-0.325998 0,0 0.007,-0.01 0.007,-0.01 0,0 0.252,-0.322001 0.252,-0.322001 0,0 0.247,-0.333999 0.247,-0.333999 0,0 0.233,-0.340001 0.233,-0.340001 0,0 0.22,-0.344 0.22,-0.344 0,0 0.208,-0.346999 0.208,-0.346999 0,0 0.195,-0.351001 0.195,-0.351001 0,0 0.184,-0.356 0.184,-0.356 0,0 0.172,-0.358 0.172,-0.358 0,0 0.161,-0.362 0.161,-0.362 0,0 0.151,-0.366001 0.151,-0.366001 0,0 0.139,-0.367998 0.139,-0.367998 0,0 0.13,-0.372001 0.13,-0.372001 0,0 0.119,-0.374 0.119,-0.374 0,0 0.21,-0.755999 0.21,-0.755999 0,0 0.174,-0.767 0.174,-0.767 0,0 0.141,-0.774999 0.141,-0.774999 0,0 0.11,-0.781 0.11,-0.781 0,0 0.081,-0.789001 0.081,-0.789001 0,0 0.056,-0.793001 0.056,-0.793001 0,0 0.032,-0.796999 0.032,-0.796999 0,0 0.011,-0.799 0.011,-0.799 0,0 -0.007,-0.802002 -0.007,-0.802002 0,0 -0.024,-0.799999 -0.024,-0.799999 0,0 -0.036,-0.801 -0.036,-0.801 0,0 -0.047,-0.797999 -0.047,-0.797999 0,0 -0.055,-0.794001 -0.055,-0.794001 0,0 -0.061,-0.789999 -0.061,-0.789999 0,0 -0.063,-0.784 -0.063,-0.784 0,0 -0.065,-0.776999 -0.065,-0.776999 0,0 -0.066,-0.762 -0.066,-0.762 0,0 -0.074,-0.741003 -0.074,-0.741003 0,0 -0.082,-0.721997 -0.082,-0.721997 0,0 -0.09,-0.701001 -0.09,-0.701001 0,0 -0.101,-0.682 -0.101,-0.682 0,0 -0.112,-0.661001 -0.112,-0.661001 0,0 -0.124,-0.641998 -0.124,-0.641998 0,0 -0.137,-0.622001 -0.137,-0.622001 0,0 -0.152,-0.602001 -0.152,-0.602001 0,0 -0.167,-0.582999 -0.167,-0.582999 0,0 -0.184,-0.562002 -0.184,-0.562002 0,0 -0.201,-0.542999 -0.201,-0.542999 0,0 -0.219,-0.523999 -0.219,-0.523999 0,0 -0.239,-0.503999 -0.239,-0.503999 0,0 -0.26,-0.486 -0.26,-0.486 0,0 -0.281,-0.465003 -0.281,-0.465003 0,0 -0.305,-0.446998 -0.305,-0.446998 0,0 -0.328,-0.428 -0.328,-0.428 0,0 -0.353,-0.410001 -0.353,-0.410001 0,0 -0.379,-0.390999 -0.379,-0.390999 0,0 -0.406,-0.372001 -0.406,-0.372001 0,0 -0.43507,-0.353918 -0.43507,-0.353918"
       style="fill:none;stroke:#00ff00;stroke-width:0.099;stroke-miterlimit:4;stroke-dasharray:none"
       inkscape:connector-curvature="0" />
    <path
       id="path846"
       d="m 124.67313,41.071425 c 0,0 0,0 0,0"
       style="fill:none;stroke:#00ff00;stroke-width:0.09900108"
       inkscape:connector-curvature="0" />
    <path
       id="path844"
       d="m 15.923133,41.051425 c 0,0 0,0 0,0"
       style="fill:none;stroke:#00ff00;stroke-width:0.09900108"
       inkscape:connector-curvature="0" />
    <path
       id="path840"
       d="m 15.240133,40.320424 c 0,0 0,0 0,0"
       style="fill:none;stroke:#00ff00;stroke-width:0.09900108"
       inkscape:connector-curvature="0" />
    <path
       id="path838"
       d="m 8.3521331,41.277424 c 0,0 0,0 0,0"
       style="fill:none;stroke:#00ff00;stroke-width:0.09900108"
       inkscape:connector-curvature="0" />
    <path
       id="path836"
       d="m 8.6031331,39.842425 c 0,0 -3,0 -3,0 0,0 0,2.300995 0,2.300995 0,0 2.249,0 2.249,0 0,0 0.751,0 0.751,0 0,0 0,-2.300995 0,-2.300995"
       style="fill:none;stroke:#00ff00;stroke-width:0.09900108"
       inkscape:connector-curvature="0" />
    <path
       id="path834"
       d="m 7.3521331,41.277424 c 0,0 0,0 0,0"
       style="fill:none;stroke:#00ff00;stroke-width:0.09900108"
       inkscape:connector-curvature="0" />
    <path
       id="path832"
       d="m 5.8541331,45.791425 c 0,0 0,0 0,0"
       style="fill:none;stroke:#00ff00;stroke-width:0.09900108"
       inkscape:connector-curvature="0" />
    <path
       id="path830"
       d="m 6.3541331,44.925426 c 0,0 -0.751,0 -0.751,0 0,0 0,2.299996 0,2.299996 0,0 3,0 3,0 0,0 0,-2.299999 0,-2.299999 0,0 -2.249,3e-6 -2.249,3e-6"
       style="fill:none;stroke:#00ff00;stroke-width:0.09900108"
       inkscape:connector-curvature="0" />
    <path
       id="path828"
       d="m 6.8541331,45.791425 c 0,0 0,0 0,0"
       style="fill:none;stroke:#00ff00;stroke-width:0.09900108"
       inkscape:connector-curvature="0" />
    <path
       id="path3587"
       d="m 6.8541331,45.791425 c 0,0 0,0 0,0"
       style="fill:none;stroke:#00ff00;stroke-width:0.09900108"
       inkscape:connector-curvature="0" />
    <path
       id="path5928"
       d="m 56.913755,31.063521 c 2.810804,8.10147 -4.610424,15.085423 -10.28707,15.150465 -5.676609,0.06505 -9.170052,-3.907043 -11.607492,-6.552723 -2.43743,2.64568 -5.93087,6.61777 -11.6075,6.552723 -5.67662,-0.06505 -13.09785,-7.048995 -10.28706,-15.150465 2.81079,-8.101467 21.89456,-24.0616158 21.89456,-24.0616158 0,0 19.083778,15.9601488 21.894562,24.0616158 0,0 0,0 0,0"
       style="fill:none;stroke:#00ff00;stroke-width:0.11262738;stroke-linecap:butt;stroke-linejoin:miter;stroke-miterlimit:4;stroke-dasharray:none;stroke-opacity:1"
       inkscape:connector-curvature="0" />
    <path
       id="use3238"
       d="m 118.35074,47.677172 c 0.0995,-0.546406 0.7405,-0.703882 1.0627,-0.52674 0.32219,0.177154 0.39269,0.512418 0.44588,0.739256 0.22173,-0.07156 0.54525,-0.184295 0.86331,1.81e-4 0.31807,0.184465 0.51412,0.814712 0.0976,1.18206 -0.41656,0.367347 -2.00113,0.659557 -2.00113,0.659557 0,0 -0.56786,-1.507914 -0.46832,-2.054318 0,0 0,4e-6 0,4e-6"
       style="fill:none;stroke:#ff0000;stroke-width:0.03415967;stroke-linecap:butt;stroke-linejoin:miter;stroke-miterlimit:4;stroke-dasharray:none;stroke-opacity:1"
       inkscape:connector-curvature="0" />
    <path
       id="use3242"
       d="m 136.04259,41.855239 c 0.20588,-0.749875 1.11918,-0.890851 1.54682,-0.604244 0.42764,0.286622 0.48482,0.762876 0.53116,1.085782 0.31804,-0.0726 0.7831,-0.190128 1.20407,0.1062 0.42098,0.296313 0.61708,1.199399 -0.009,1.66063 -0.62607,0.461231 -2.87199,0.674323 -2.87199,0.674323 0,0 -0.60695,-2.172823 -0.40107,-2.922696 0,0 0,5e-6 0,5e-6"
       style="fill:none;stroke:#ff0000;stroke-width:0.04782767;stroke-linecap:butt;stroke-linejoin:miter;stroke-miterlimit:4;stroke-dasharray:none;stroke-opacity:1"
       inkscape:connector-curvature="0" />
    <path
       id="use3244"
       d="m 131.62153,49.375776 c -1.25081,0.104998 -1.9723,-1.20059 -1.77578,-2.008 0.19654,-0.807402 0.88644,-1.158883 1.34999,-1.40867 -0.28687,-0.441562 -0.72357,-1.080959 -0.50861,-1.883653 0.21493,-0.802703 1.47439,-1.602042 2.52146,-0.909794 1.04707,0.692247 2.61886,3.977132 2.61886,3.977132 0,0 -2.95511,2.127991 -4.20593,2.232988 0,0 1e-5,-3e-6 1e-5,-3e-6"
       style="fill:none;stroke:#ff0000;stroke-width:0.07720186;stroke-linecap:butt;stroke-linejoin:miter;stroke-miterlimit:4;stroke-dasharray:none;stroke-opacity:1"
       inkscape:connector-curvature="0" />
    <path
       id="use3248"
       d="m 130.68651,35.925712 c 0.37787,-0.553039 1.16124,-0.411857 1.42921,-0.05855 0.26795,0.353313 0.18103,0.757235 0.12826,1.033222 0.27938,0.03001 0.69111,0.06465 0.95091,0.424003 0.25981,0.359339 0.16639,1.149842 -0.47281,1.350009 -0.6392,0.200168 -2.52816,-0.255817 -2.52816,-0.255817 0,0 0.11471,-1.939828 0.49259,-2.492867 0,0 0,4e-6 0,4e-6"
       style="fill:none;stroke:#ff0000;stroke-width:0.04119651;stroke-linecap:butt;stroke-linejoin:miter;stroke-miterlimit:4;stroke-dasharray:none;stroke-opacity:1"
       inkscape:connector-curvature="0" />
    <path
       id="use3262"
       d="m 92.11917,47.604416 c -0.785958,-0.610351 -0.505785,-1.759264 0.04236,-2.124701 0.548157,-0.365416 1.139285,-0.200003 1.543783,-0.09681 0.06976,-0.411582 0.158348,-1.019009 0.714718,-1.371791 0.556358,-0.352804 1.720167,-0.142809 1.95922,0.823167 0.239054,0.965975 -0.607885,3.725933 -0.607885,3.725933 0,0 -2.866244,-0.34545 -3.6522,-0.9558 0,0 6e-6,2e-6 6e-6,2e-6"
       style="fill:none;stroke:#ff0000;stroke-width:0.0612046;stroke-linecap:butt;stroke-linejoin:miter;stroke-miterlimit:4;stroke-dasharray:none;stroke-opacity:1"
       inkscape:connector-curvature="0" />
    <path
       id="use3266"
       d="m 120.10516,45.034023 c -0.57977,-0.633379 -0.17446,-1.569851 0.34488,-1.800989 0.51935,-0.231119 0.99808,-0.0045 1.32712,0.142069 0.11917,-0.339927 0.28281,-0.843692 0.80731,-1.062871 0.52449,-0.2192 1.48383,0.128585 1.54674,0.984938 0.0629,0.856352 -1.05865,3.080697 -1.05865,3.080697 0,0 -2.38764,-0.710468 -2.96741,-1.343847 0,0 1e-5,3e-6 1e-5,3e-6"
       style="fill:none;stroke:#ff0000;stroke-width:0.05281188;stroke-linecap:butt;stroke-linejoin:miter;stroke-miterlimit:4;stroke-dasharray:none;stroke-opacity:1"
       inkscape:connector-curvature="0" />
    <path
       id="use3272"
       d="m 136.58071,39.964978 c -0.74868,0.382686 -1.52741,-0.243409 -1.61061,-0.793793 -0.0832,-0.550387 0.25522,-0.943434 0.47913,-1.215971 -0.28994,-0.20087 -0.72299,-0.486325 -0.79356,-1.038469 -0.0706,-0.552143 0.50714,-1.367422 1.33196,-1.204188 0.82481,0.163235 2.63319,1.800323 2.63319,1.800323 0,0 -1.29144,2.069417 -2.04012,2.452101 0,0 1e-5,-3e-6 1e-5,-3e-6"
       style="fill:none;stroke:#ff0000;stroke-width:0.05171413;stroke-linecap:butt;stroke-linejoin:miter;stroke-miterlimit:4;stroke-dasharray:none;stroke-opacity:1"
       inkscape:connector-curvature="0" />
    <path
       id="use3282"
       d="m 130.22428,19.386501 c -0.80213,0.35431 -1.57605,-0.343543 -1.63022,-0.921536 -0.0542,-0.577996 0.3214,-0.967294 0.57062,-1.237864 -0.29005,-0.226257 -0.72412,-0.54903 -0.76503,-1.128112 -0.0409,-0.579081 0.60872,-1.393909 1.45792,-1.17529 0.84921,0.218619 2.63562,2.0299 2.63562,2.0299 0,0 -1.46678,2.078598 -2.26891,2.432906 0,0 0,-4e-6 0,-4e-6"
       style="fill:none;stroke:#ff0000;stroke-width:0.05393351;stroke-linecap:butt;stroke-linejoin:miter;stroke-miterlimit:4;stroke-dasharray:none;stroke-opacity:1"
       inkscape:connector-curvature="0" />
    <path
       id="use3284"
       d="m 115.57463,50.115948 c -0.40901,0.925242 -1.61117,0.931107 -2.10631,0.480166 -0.49513,-0.450959 -0.47717,-1.074709 -0.47474,-1.499075 -0.42314,0.03229 -1.0441,0.09413 -1.52878,-0.368039 -0.48469,-0.462147 -0.56344,-1.661769 0.33071,-2.134882 0.89416,-0.473113 3.82477,-0.315662 3.82477,-0.315662 0,0 0.36335,2.912258 -0.0456,3.837498 0,0 0,-6e-6 0,-6e-6"
       style="fill:none;stroke:#ff0000;stroke-width:0.06221903;stroke-linecap:butt;stroke-linejoin:miter;stroke-miterlimit:4;stroke-dasharray:none;stroke-opacity:1"
       inkscape:connector-curvature="0" />
    <path
       id="use3288"
       d="m 101.36652,50.401364 c -0.85248,-0.02299 -1.24165,-0.958726 -1.04835,-1.489165 0.19332,-0.530432 0.68555,-0.715977 1.0173,-0.849847 -0.16055,-0.31969 -0.40743,-0.784213 -0.20203,-1.310083 0.20538,-0.525879 1.11581,-0.97108 1.77086,-0.425055 0.65505,0.546025 1.46981,2.882074 1.46981,2.882074 0,0 -2.15513,1.21507 -3.0076,1.192077 0,0 10e-6,-10e-7 10e-6,-10e-7"
       style="fill:none;stroke:#ff0000;stroke-width:0.0524504;stroke-linecap:butt;stroke-linejoin:miter;stroke-miterlimit:4;stroke-dasharray:none;stroke-opacity:1"
       inkscape:connector-curvature="0" />
    <path
       id="use3290"
       d="m 95.720462,52.073202 c -0.78155,-0.241709 -0.899053,-1.206766 -0.583303,-1.646782 0.315767,-0.440004 0.818461,-0.484105 1.159549,-0.521971 -0.06564,-0.336847 -0.173566,-0.829811 0.152181,-1.262477 0.325731,-0.432678 1.281905,-0.608486 1.745813,0.06533 0.463909,0.673817 0.612401,3.042518 0.612401,3.042518 0,0 -2.305099,0.56509 -3.086647,0.323381 0,0 6e-6,0 6e-6,0"
       style="fill:none;stroke:#ff0000;stroke-width:0.05031549;stroke-linecap:butt;stroke-linejoin:miter;stroke-miterlimit:4;stroke-dasharray:none;stroke-opacity:1"
       inkscape:connector-curvature="0" />
    <path
       id="use3294"
       d="m 72.268859,38.11692 c -1.371492,0.06587 -2.109165,-1.389603 -1.862764,-2.264576 0.246433,-0.874965 1.014374,-1.232224 1.530891,-1.487165 -0.296335,-0.493931 -0.748735,-1.209994 -0.482354,-2.079091 0.266349,-0.869108 1.674442,-1.693693 2.792024,-0.895988 1.117582,0.797706 2.70741,4.450191 2.70741,4.450191 0,0 -3.313726,2.21076 -4.685216,2.276632 0,0 9e-6,-3e-6 9e-6,-3e-6"
       style="fill:none;stroke:#ff0000;stroke-width:0.08445077;stroke-linecap:butt;stroke-linejoin:miter;stroke-miterlimit:4;stroke-dasharray:none;stroke-opacity:1"
       inkscape:connector-curvature="0" />
    <path
       id="use3298"
       d="m 67.517364,41.217275 c 1.084998,0.65012 0.906956,2.142682 0.271099,2.687539 -0.635878,0.544834 -1.407063,0.426402 -1.933245,0.357973 -0.02516,0.530014 -0.04416,1.310032 -0.69233,1.840178 -0.648153,0.530171 -2.14879,0.44296 -2.597995,-0.739447 -0.449204,-1.182407 0.197926,-4.79445 0.197926,-4.79445 0,0 3.669558,-0.0019 4.754553,0.648209 0,0 -8e-6,-2e-6 -8e-6,-2e-6"
       style="fill:none;stroke:#ff0000;stroke-width:0.07779524;stroke-linecap:butt;stroke-linejoin:miter;stroke-miterlimit:4;stroke-dasharray:none;stroke-opacity:1"
       inkscape:connector-curvature="0" />
    <path
       id="use3300"
       d="m 81.512348,38.336105 c -0.700233,0.08257 -1.129935,-0.636774 -1.034858,-1.093771 0.09509,-0.456993 0.475772,-0.667345 0.731294,-0.816332 -0.169388,-0.242478 -0.42663,-0.593193 -0.321109,-1.047891 0.105505,-0.454702 0.79748,-0.927241 1.398384,-0.558381 0.600904,0.368859 1.545352,2.183334 1.545352,2.183334 0,0 -1.618834,1.250476 -2.319067,1.333042 0,0 4e-6,-10e-7 4e-6,-10e-7"
       style="fill:none;stroke:#ff0000;stroke-width:0.04336619;stroke-linecap:butt;stroke-linejoin:miter;stroke-miterlimit:4;stroke-dasharray:none;stroke-opacity:1"
       inkscape:connector-curvature="0" />
    <path
       id="use3306"
       d="m 58.53749,25.60985 c 0.574392,0.262304 0.568928,1.01269 0.283711,1.318312 -0.285227,0.305611 -0.674409,0.28967 -0.939261,0.284934 0.01694,0.264352 0.05082,0.652395 -0.241318,0.951402 -0.292132,0.299018 -1.041481,0.339065 -1.329992,-0.22262 -0.288509,-0.561685 -0.167991,-2.389649 -0.167991,-2.389649 0,0 1.820464,-0.204682 2.394855,0.05762 0,0 -4e-6,-1e-6 -4e-6,-1e-6"
       style="fill:none;stroke:#ff0000;stroke-width:0.03883731;stroke-linecap:butt;stroke-linejoin:miter;stroke-miterlimit:4;stroke-dasharray:none;stroke-opacity:1"
       inkscape:connector-curvature="0" />
    <path
       id="use3308"
       d="m 61.879143,32.089315 c -0.492414,-0.215087 -0.498337,-0.853626 -0.259968,-1.11768 0.238378,-0.264046 0.569736,-0.255966 0.795151,-0.255668 -0.01814,-0.224683 -0.05244,-0.55437 0.191919,-0.812894 0.244346,-0.258534 0.881362,-0.303165 1.134752,0.170676 0.253391,0.473842 0.176602,2.030852 0.176602,2.030852 0,0 -1.546047,0.199801 -2.03846,-0.01529 0,0 4e-6,0 4e-6,0"
       style="fill:none;stroke:#ff0000;stroke-width:0.03304902;stroke-linecap:butt;stroke-linejoin:miter;stroke-miterlimit:4;stroke-dasharray:none;stroke-opacity:1"
       inkscape:connector-curvature="0" />
    <path
       id="use3310"
       d="m 128.51852,23.558165 c 0.81299,-0.812707 2.08935,-0.325754 2.42907,0.355236 0.33969,0.681004 0.0648,1.334635 -0.11188,1.783346 0.46165,0.139365 1.14506,0.328575 1.46908,1.017168 0.32405,0.688582 -0.0846,1.992144 -1.22626,2.126697 -1.14163,0.134553 -4.18265,-1.23453 -4.18265,-1.23453 0,0 0.80966,-3.235218 1.62265,-4.047923 0,0 -1e-5,6e-6 -1e-5,6e-6"
       style="fill:none;stroke:#ff0000;stroke-width:0.0707024;stroke-linecap:butt;stroke-linejoin:miter;stroke-miterlimit:4;stroke-dasharray:none;stroke-opacity:1"
       inkscape:connector-curvature="0" />
    <path
       id="use3312"
       d="m 80.536002,29.321177 c -1.099984,0.831087 -2.535692,0.0418 -2.826731,-0.823253 -0.291008,-0.86506 0.143528,-1.596075 0.427504,-2.099902 -0.525365,-0.241812 -1.305902,-0.579467 -1.577046,-1.450955 -0.271178,-0.871479 0.429615,-2.352432 1.807961,-2.323667 1.378345,0.02876 4.764508,2.15743 4.764508,2.15743 0,0 -1.496219,3.709269 -2.596201,4.540354 0,0 5e-6,-7e-6 5e-6,-7e-6"
       style="fill:none;stroke:#ff0000;stroke-width:0.08479363;stroke-linecap:butt;stroke-linejoin:miter;stroke-miterlimit:4;stroke-dasharray:none;stroke-opacity:1"
       inkscape:connector-curvature="0" />
    <path
       id="use3314"
       d="m 81.736295,21.65961 c 0.04799,0.767763 -0.761387,1.192768 -1.25353,1.061812 -0.492139,-0.130975 -0.698481,-0.558279 -0.845473,-0.845564 -0.274299,0.169997 -0.671772,0.429217 -1.160785,0.28702 -0.489019,-0.142178 -0.962329,-0.92431 -0.524499,-1.556818 0.43783,-0.632508 2.471059,-1.552647 2.471059,-1.552647 0,0 1.265239,1.83844 1.31323,2.606201 0,0 -2e-6,-4e-6 -2e-6,-4e-6"
       style="fill:none;stroke:#ff0000;stroke-width:0.04731338;stroke-linecap:butt;stroke-linejoin:miter;stroke-miterlimit:4;stroke-dasharray:none;stroke-opacity:1"
       inkscape:connector-curvature="0" />
    <path
       id="use3320"
       d="m 66.740587,38.750207 c -0.436432,0.661056 -1.365397,0.508837 -1.688899,0.0961 -0.323487,-0.412746 -0.228295,-0.892005 -0.171089,-1.219344 -0.33092,-0.03024 -0.818426,-0.06346 -1.132387,-0.483497 -0.313977,-0.420025 -0.218366,-1.356527 0.533705,-1.605233 0.752071,-0.248707 2.994277,0.254977 2.994277,0.254977 0,0 -0.09918,2.295945 -0.535609,2.956999 0,0 2e-6,-5e-6 2e-6,-5e-6"
       style="fill:none;stroke:#ff0000;stroke-width:0.0487198;stroke-linecap:butt;stroke-linejoin:miter;stroke-miterlimit:4;stroke-dasharray:none;stroke-opacity:1"
       inkscape:connector-curvature="0" />
    <path
       id="use3326"
       d="m 97.063728,4.4372472 c -0.483628,-1.213105 0.597135,-2.326921 1.46031,-2.376058 0.863177,-0.04911 1.422113,0.531016 1.811232,0.916672 0.35253,-0.419355 0.85655,-1.047804 1.72063,-1.077154 0.86407,-0.02938 2.04139,0.981872 1.66977,2.233835 -0.37162,1.251963 -3.16464,3.812011 -3.16464,3.812011 0,0 -3.013681,-2.296209 -3.497307,-3.509313 0,0 5e-6,7e-6 5e-6,7e-6"
       style="fill:none;stroke:#ff0000;stroke-width:0.08032269;stroke-linecap:butt;stroke-linejoin:miter;stroke-miterlimit:4;stroke-dasharray:none;stroke-opacity:1"
       inkscape:connector-curvature="0" />
    <path
       id="use3346"
       d="m 94.137665,9.2833042 c -0.402871,0.271357 -0.892878,-0.03377 -0.978733,-0.343663 -0.08584,-0.309899 0.08101,-0.55877 0.190542,-0.730592 -0.180206,-0.09511 -0.448352,-0.228825 -0.527084,-0.540606 -0.07874,-0.311778 0.196112,-0.819394 0.680476,-0.782927 0.484365,0.03647 1.634957,0.850081 1.634957,0.850081 0,0 -0.597289,1.276353 -1.00016,1.547709 0,0 2e-6,-2e-6 2e-6,-2e-6"
       style="fill:none;stroke:#ff0000;stroke-width:0.02987517;stroke-linecap:butt;stroke-linejoin:miter;stroke-miterlimit:4;stroke-dasharray:none;stroke-opacity:1"
       inkscape:connector-curvature="0" />
    <path
       id="use3352"
       d="m 110.23503,3.7952722 c 0.43334,1.061777 -0.50773,2.047538 -1.26533,2.096849 -0.75761,0.04928 -1.25255,-0.456132 -1.59699,-0.791999 -0.30657,0.370754 -0.74466,0.926196 -1.5032,0.958137 -0.75853,0.03197 -1.79956,-0.847608 -1.48218,-1.949613 0.31739,-1.102004 2.75166,-3.36993095 2.75166,-3.36993095 0,0 2.66271,1.99478795 3.09605,3.05656295 0,0 -1e-5,-6e-6 -1e-5,-6e-6"
       style="fill:none;stroke:#ff0000;stroke-width:0.07053387;stroke-linecap:butt;stroke-linejoin:miter;stroke-miterlimit:4;stroke-dasharray:none;stroke-opacity:1"
       inkscape:connector-curvature="0" />
    <path
       id="use3364"
       d="m 86.231378,12.361424 c 0.591234,0.458947 0.380678,1.323121 -0.03154,1.598059 -0.412231,0.274922 -0.856861,0.150598 -1.161111,0.07304 -0.05241,0.309574 -0.118947,0.766451 -0.537358,1.031872 -0.418401,0.265437 -1.293769,0.107666 -1.473712,-0.618838 -0.179943,-0.726503 0.456655,-2.802479 0.456655,-2.802479 0,0 2.155842,0.259398 2.747074,0.718345 0,0 -5e-6,-2e-6 -5e-6,-2e-6"
       style="fill:none;stroke:#ff0000;stroke-width:0.04603385;stroke-linecap:butt;stroke-linejoin:miter;stroke-miterlimit:4;stroke-dasharray:none;stroke-opacity:1"
       inkscape:connector-curvature="0" />
    <path
       id="use3368"
       d="m 111.6804,9.1070512 c 0.2625,0.530846 -0.18572,1.0734178 -0.57411,1.1268618 -0.3884,0.05343 -0.66204,-0.18857 -0.85188,-0.3488128 -0.14418,0.2023118 -0.34926,0.5046208 -0.73878,0.5491528 -0.38951,0.04455 -0.95827,-0.369957 -0.8356,-0.9493138 0.12268,-0.579357 1.29254,-1.83761 1.29254,-1.83761 0,0 1.44533,0.92888 1.70783,1.459725 0,0 0,-3e-6 0,-3e-6"
       style="fill:none;stroke:#ff0000;stroke-width:0.03642347;stroke-linecap:butt;stroke-linejoin:miter;stroke-miterlimit:4;stroke-dasharray:none;stroke-opacity:1"
       inkscape:connector-curvature="0" />
    <path
       id="use3376"
       d="m 113.93249,5.5594132 c -0.0843,-0.584893 0.50915,-0.960409 0.89409,-0.890599 0.38492,0.06982 0.56937,0.384232 0.6997,0.595104 0.1995,-0.147142 0.48779,-0.370223 0.87102,-0.291613 0.38324,0.0786 0.79405,0.648166 0.49796,1.159567 -0.29609,0.5114 -1.79595,1.341781 -1.79595,1.341781 0,0 -1.08256,-1.329352 -1.16682,-1.914244 0,0 0,4e-6 0,4e-6"
       style="fill:none;stroke:#ff0000;stroke-width:0.03634524;stroke-linecap:butt;stroke-linejoin:miter;stroke-miterlimit:4;stroke-dasharray:none;stroke-opacity:1"
       inkscape:connector-curvature="0" />
    <path
       id="use3378"
       d="m 134.17322,34.422762 c -0.50284,0.420364 -1.20302,0.0792 -1.36146,-0.324729 -0.15842,-0.403936 0.0308,-0.761208 0.15384,-1.007082 -0.25512,-0.102519 -0.63363,-0.244574 -0.78278,-0.652026 -0.14916,-0.407448 0.14893,-1.127037 0.80406,-1.145642 0.65514,-0.01861 2.31279,0.912864 2.31279,0.912864 0,0 -0.62361,1.796256 -1.12645,2.216619 0,0 0,-4e-6 0,-4e-6"
       style="fill:none;stroke:#ff0000;stroke-width:0.04031055;stroke-linecap:butt;stroke-linejoin:miter;stroke-miterlimit:4;stroke-dasharray:none;stroke-opacity:1"
       inkscape:connector-curvature="0" />
    <path
       id="use3388"
       d="m 118.24674,8.7627342 c -0.47939,-0.0863 -0.61866,-0.648154 -0.46388,-0.931049 0.15478,-0.28289 0.44868,-0.345325 0.64753,-0.392382 -0.0632,-0.194328 -0.16262,-0.477862 -0.001,-0.757137 0.1612,-0.279282 0.71358,-0.452365 1.0365,-0.0877 0.32293,0.364663 0.58207,1.753827 0.58207,1.753827 0,0 -1.32144,0.500748 -1.80082,0.414443 0,0 0,0 0,0"
       style="fill:none;stroke:#ff0000;stroke-width:0.02995858;stroke-linecap:butt;stroke-linejoin:miter;stroke-miterlimit:4;stroke-dasharray:none;stroke-opacity:1"
       inkscape:connector-curvature="0" />
    <path
       id="use3394"
       d="m 122.56467,9.7794132 c 0.46594,-0.368757 1.09222,-0.04254 1.226,0.3273878 0.13376,0.369938 -0.0464,0.689136 -0.1639,0.908982 0.22872,0.09911 0.56832,0.237056 0.69359,0.609955 0.12528,0.372896 -0.16236,1.017816 -0.75657,1.018758 -0.5942,9.42e-4 -2.07389,-0.883534 -2.07389,-0.883534 0,0 0.60883,-1.612796 1.07477,-1.9815518 0,0 0,3e-6 0,3e-6"
       style="fill:none;stroke:#ff0000;stroke-width:0.03654667;stroke-linecap:butt;stroke-linejoin:miter;stroke-miterlimit:4;stroke-dasharray:none;stroke-opacity:1"
       inkscape:connector-curvature="0" />
    <path
       id="use3422"
       d="m 126.88721,49.10448 c 0.0267,0.596545 -0.60729,0.91531 -0.98747,0.806923 -0.38017,-0.108401 -0.53446,-0.442875 -0.64461,-0.667862 -0.21522,0.12818 -0.52726,0.32392 -0.90485,0.206852 -0.3776,-0.117053 -0.73423,-0.730581 -0.38574,-1.21549 0.34848,-0.484908 1.93916,-1.171183 1.93916,-1.171183 0,0 0.95679,1.44422 0.98351,2.040764 0,0 0,-4e-6 0,-4e-6"
       style="fill:none;stroke:#ff0000;stroke-width:0.03672723;stroke-linecap:butt;stroke-linejoin:miter;stroke-miterlimit:4;stroke-dasharray:none;stroke-opacity:1"
       inkscape:connector-curvature="0" />
    <path
       id="use3430"
       d="m 45.823072,42.920064 c 0.651861,-0.132234 1.111931,0.510519 1.058188,0.947563 -0.05376,0.437043 -0.395235,0.664487 -0.623836,0.824479 0.178155,0.214748 0.447344,0.524398 0.383603,0.960096 -0.06373,0.435701 -0.677408,0.933908 -1.271094,0.634001 -0.593686,-0.299906 -1.623085,-1.932066 -1.623085,-1.932066 0,0 1.424368,-1.301842 2.076228,-1.434075 0,0 -4e-6,2e-6 -4e-6,2e-6"
       style="fill:none;stroke:#ff0000;stroke-width:0.04090926;stroke-linecap:butt;stroke-linejoin:miter;stroke-miterlimit:4;stroke-dasharray:none;stroke-opacity:1"
       inkscape:connector-curvature="0" />
    <path
       id="use3432"
       d="m 73.782874,40.687117 c 0.604101,0.372953 0.493061,1.20931 0.132136,1.510369 -0.360938,0.301046 -0.792874,0.228834 -1.087678,0.18651 -0.01807,0.297277 -0.03454,0.734912 -0.402267,1.027623 -0.367717,0.292725 -1.209283,0.232603 -1.452587,-0.434355 -0.243305,-0.666958 0.14679,-2.689356 0.14679,-2.689356 0,0 2.059512,0.02626 2.663611,0.39921 0,0 -5e-6,-10e-7 -5e-6,-10e-7"
       style="fill:none;stroke:#ff0000;stroke-width:0.04366553;stroke-linecap:butt;stroke-linejoin:miter;stroke-miterlimit:4;stroke-dasharray:none;stroke-opacity:1"
       inkscape:connector-curvature="0" />
    <path
       id="use3434"
       d="m 56.61163,36.126159 c -1.122211,-0.08442 -1.575789,-1.34254 -1.287324,-2.029457 0.28849,-0.686907 0.949087,-0.900234 1.394878,-1.055633 -0.191341,-0.431585 -0.487276,-1.059556 -0.18315,-1.739683 0.3041,-0.68014 1.532425,-1.20918 2.36121,-0.447869 0.828784,0.761312 1.754447,3.892243 1.754447,3.892243 0,0 -2.91786,1.46482 -4.040069,1.380401 0,0 8e-6,-2e-6 8e-6,-2e-6"
       style="fill:none;stroke:#ff0000;stroke-width:0.06921652;stroke-linecap:butt;stroke-linejoin:miter;stroke-miterlimit:4;stroke-dasharray:none;stroke-opacity:1"
       inkscape:connector-curvature="0" />
    <path
       id="use3440"
       d="m 18.205633,25.605898 c 0.24048,0.599885 -0.29332,1.152104 -0.72044,1.177231 -0.42713,0.02511 -0.70428,-0.261453 -0.8972,-0.451941 -0.17407,0.207861 -0.42291,0.519341 -0.85049,0.534676 -0.42759,0.01535 -1.01117,-0.483991 -0.82844,-1.103909 0.18274,-0.619919 1.56254,-1.889455 1.56254,-1.889455 0,0 1.49356,1.133516 1.73403,1.733401 0,0 0,-3e-6 0,-3e-6"
       style="fill:none;stroke:#ff0000;stroke-width:0.03975007;stroke-linecap:butt;stroke-linejoin:miter;stroke-miterlimit:4;stroke-dasharray:none;stroke-opacity:1"
       inkscape:connector-curvature="0" />
    <path
       id="use3444"
       d="m 13.529943,26.837283 c -0.0641,0.97456 -1.15225,1.37842 -1.75072,1.133677 -0.59845,-0.244767 -0.78896,-0.816307 -0.92744,-1.201907 -0.37298,0.169561 -0.9155399,0.431488 -1.5082399,0.173099 -0.59271,-0.258368 -1.06181,-1.320022 -0.40788,-2.045451 0.65393,-0.725427 3.3634699,-1.554212 3.3634699,-1.554212 0,0 1.29494,2.520243 1.23081,3.494801 0,0 0,-7e-6 0,-7e-6"
       style="fill:none;stroke:#ff0000;stroke-width:0.06006983;stroke-linecap:butt;stroke-linejoin:miter;stroke-miterlimit:4;stroke-dasharray:none;stroke-opacity:1"
       inkscape:connector-curvature="0" />
    <path
       id="use3446"
       d="m 29.212953,50.085866 c -1.24559,-0.466981 -1.34419,-2.044756 -0.78963,-2.728877 0.55459,-0.684101 1.37481,-0.707693 1.93211,-0.736595 -0.0744,-0.553062 -0.20252,-1.363585 0.36757,-2.03482 0.57006,-0.671258 2.13898,-0.86535 2.8277,0.272735 0.68872,1.138085 0.70361,4.997323 0.70361,4.997323 0,0 -3.79577,0.697214 -5.04136,0.230233 0,0 0,1e-6 0,1e-6"
       style="fill:none;stroke:#ff0000;stroke-width:0.08181718;stroke-linecap:butt;stroke-linejoin:miter;stroke-miterlimit:4;stroke-dasharray:none;stroke-opacity:1"
       inkscape:connector-curvature="0" />
    <path
       id="use3448"
       d="m 56.391657,14.597165 c 0.798621,-0.601344 1.838764,-0.0273 2.04878,0.600322 0.209992,0.62763 -0.105972,1.157197 -0.312491,1.522202 0.380673,0.17597 0.946265,0.42174 1.141847,1.054007 0.195605,0.632261 -0.314321,1.705317 -1.313771,1.682822 -0.99945,-0.02249 -3.452342,-1.57008 -3.452342,-1.57008 0,0 1.089361,-2.687937 1.887981,-3.289279 0,0 -4e-6,6e-6 -4e-6,6e-6"
       style="fill:none;stroke:#ff0000;stroke-width:0.06148676;stroke-linecap:butt;stroke-linejoin:miter;stroke-miterlimit:4;stroke-dasharray:none;stroke-opacity:1"
       inkscape:connector-curvature="0" />
    <path
       id="use3450"
       d="m 52.694315,19.226185 c 0.851069,0.328861 0.90782,1.411653 0.522761,1.877034 -0.385076,0.465366 -0.947787,0.475894 -1.330205,0.491876 0.04721,0.379828 0.129499,0.936606 -0.26612,1.393042 -0.395602,0.456451 -1.47298,0.578756 -1.937492,-0.206542 -0.464512,-0.785299 -0.448126,-3.432248 -0.448126,-3.432248 0,0 2.608121,-0.452023 3.459188,-0.123162 0,0 -6e-6,0 -6e-6,0"
       style="fill:none;stroke:#ff0000;stroke-width:0.0561169;stroke-linecap:butt;stroke-linejoin:miter;stroke-miterlimit:4;stroke-dasharray:none;stroke-opacity:1"
       inkscape:connector-curvature="0" />
    <path
       id="use3452"
       d="m 39.404083,8.1537492 c 1.077152,0.670362 0.873346,2.1642438 0.22643,2.6999278 -0.64694,0.535659 -1.41837,0.403838 -1.94492,0.32631 -0.0342,0.531127 -0.0664,1.313088 -0.72547,1.833809 -0.659,0.520746 -2.16252,0.407897 -2.59302,-0.785541 -0.43051,-1.193438 0.2796,-4.8050208 0.2796,-4.8050208 0,0 3.68024,0.06016 4.75739,0.730518 0,0 -1e-5,-3e-6 -1e-5,-3e-6"
       style="fill:none;stroke:#ff0000;stroke-width:0.0780322;stroke-linecap:butt;stroke-linejoin:miter;stroke-miterlimit:4;stroke-dasharray:none;stroke-opacity:1"
       inkscape:connector-curvature="0" />
    <path
       id="use3454"
       d="m 8.1413131,22.464998 c -0.47282,0.139216 -0.8535,-0.305969 -0.8417,-0.632064 0.0118,-0.326094 0.2494,-0.5158 0.40797,-0.648505 -0.14523,-0.14718 -0.36373,-0.358617 -0.34447,-0.684355 0.0192,-0.32574 0.44054,-0.732714 0.89799,-0.549174 0.45745,0.183541 1.32157,1.322872 1.32157,1.322872 0,0 -0.96854,1.052013 -1.44136,1.191228 0,0 0,-2e-6 0,-2e-6"
       style="fill:none;stroke:#ff0000;stroke-width:0.03031548;stroke-linecap:butt;stroke-linejoin:miter;stroke-miterlimit:4;stroke-dasharray:none;stroke-opacity:1"
       inkscape:connector-curvature="0" />
    <path
       id="use3460"
       d="m 44.94054,16.033916 c -0.07448,-0.759521 0.713095,-1.209248 1.205621,-1.096652 0.492521,0.112614 0.71207,0.529038 0.86787,0.808719 0.265999,-0.178154 0.650994,-0.449082 1.14081,-0.325233 0.489821,0.123832 0.986485,0.882699 0.574555,1.52514 -0.411929,0.642441 -2.395549,1.625945 -2.395549,1.625945 0,0 -1.318832,-1.778404 -1.393309,-2.537923 0,0 2e-6,4e-6 2e-6,4e-6"
       style="fill:none;stroke:#ff0000;stroke-width:0.04693833;stroke-linecap:butt;stroke-linejoin:miter;stroke-miterlimit:4;stroke-dasharray:none;stroke-opacity:1"
       inkscape:connector-curvature="0" />
    <path
       id="use3468"
       d="m 126.72641,11.421711 c 0.0499,-0.513017 0.63052,-0.708126 0.94217,-0.569166 0.31165,0.138971 0.40273,0.443593 0.46942,0.649276 0.19954,-0.0833 0.49005,-0.212526 0.79844,-0.06646 0.30839,0.146052 0.53836,0.713795 0.18146,1.085681 -0.3569,0.371886 -1.79981,0.764429 -1.79981,0.764429 0,0 -0.64156,-1.350744 -0.59168,-1.86376 0,0 0,3e-6 0,3e-6"
       style="fill:none;stroke:#ff0000;stroke-width:0.03170189;stroke-linecap:butt;stroke-linejoin:miter;stroke-miterlimit:4;stroke-dasharray:none;stroke-opacity:1"
       inkscape:connector-curvature="0" />
    <path
       id="use3472"
       d="m 87.884719,11.093663 c 0.03613,-1.062756 1.206315,-1.5398208 1.866032,-1.2941488 0.659707,0.2456958 0.886755,0.8610828 1.050773,1.2759208 0.400031,-0.1974 0.98141,-0.501171 1.635323,-0.24045 0.653925,0.260696 1.201078,1.399818 0.514499,2.211828 -0.686578,0.81201 -3.60655,1.807477 -3.60655,1.807477 0,0 -1.496212,-2.697881 -1.460078,-3.760634 0,0 10e-7,7e-6 10e-7,7e-6"
       style="fill:none;stroke:#ff0000;stroke-width:0.06540246;stroke-linecap:butt;stroke-linejoin:miter;stroke-miterlimit:4;stroke-dasharray:none;stroke-opacity:1"
       inkscape:connector-curvature="0" />
    <path
       id="use3476"
       d="m 110.02924,44.748785 c 0.54093,0.19287 0.59451,0.873233 0.35991,1.172411 -0.2346,0.299169 -0.58849,0.315084 -0.82885,0.331453 0.036,0.238211 0.097,0.587181 -0.14444,0.880905 -0.24138,0.293733 -0.91725,0.388476 -1.22249,-0.09797 -0.30524,-0.486446 -0.33864,-2.152193 -0.33864,-2.152193 0,0 1.63359,-0.327477 2.17451,-0.134607 0,0 0,0 0,0"
       style="fill:none;stroke:#ff0000;stroke-width:0.03532125;stroke-linecap:butt;stroke-linejoin:miter;stroke-miterlimit:4;stroke-dasharray:none;stroke-opacity:1"
       inkscape:connector-curvature="0" />
    <path
       id="use3484"
       d="m 90.099408,46.745389 c 0.363998,0.505592 -0.0075,1.145974 -0.401363,1.268445 -0.393837,0.122456 -0.719558,-0.08147 -0.944212,-0.215006 -0.114715,0.234823 -0.275386,0.583926 -0.67192,0.697342 -0.396529,0.11343 -1.058273,-0.218591 -1.03092,-0.840981 0.02735,-0.62239 1.024285,-2.12997 1.024285,-2.12997 0,0 1.660136,0.71458 2.024133,1.220172 0,0 -3e-6,-2e-6 -3e-6,-2e-6"
       style="fill:none;stroke:#ff0000;stroke-width:0.03831707;stroke-linecap:butt;stroke-linejoin:miter;stroke-miterlimit:4;stroke-dasharray:none;stroke-opacity:1"
       inkscape:connector-curvature="0" />
    <path
       id="use3488"
       d="m 51.383756,47.159505 c 0.09813,-0.739125 0.947422,-0.991746 1.390927,-0.775053 0.443496,0.21671 0.559713,0.661712 0.645707,0.962444 0.292689,-0.110304 0.719223,-0.282393 1.157646,-0.0556 0.438432,0.226781 0.742091,1.059212 0.20728,1.57874 -0.534812,0.519528 -2.640701,1.01385 -2.640701,1.01385 0,0 -0.858986,-1.985264 -0.76086,-2.724388 0,0 10e-7,4e-6 10e-7,4e-6"
       style="fill:none;stroke:#ff0000;stroke-width:0.04585871;stroke-linecap:butt;stroke-linejoin:miter;stroke-miterlimit:4;stroke-dasharray:none;stroke-opacity:1"
       inkscape:connector-curvature="0" />
    <path
       id="use3490"
       d="m 40.861012,45.782756 c 0.603769,0.764683 0.06771,1.79097 -0.539111,2.009629 -0.606828,0.218637 -1.129868,-0.07738 -1.490128,-0.270437 -0.16294,0.374839 -0.38976,0.931413 -1.00143,1.136112 -0.61166,0.204723 -1.66859,-0.268127 -1.66902,-1.242433 -4.2e-4,-0.974307 1.45261,-3.398859 1.45261,-3.398859 0,0 2.643317,1.001309 3.247084,1.765992 0,0 -5e-6,-4e-6 -5e-6,-4e-6"
       style="fill:none;stroke:#ff0000;stroke-width:0.05992476;stroke-linecap:butt;stroke-linejoin:miter;stroke-miterlimit:4;stroke-dasharray:none;stroke-opacity:1"
       inkscape:connector-curvature="0" />
    <path
       id="use3498"
       d="m 15.037183,43.031747 c -0.20382,0.694967 -1.05657,0.811499 -1.45017,0.537702 -0.39359,-0.273811 -0.43915,-0.718228 -0.47709,-1.019669 -0.29733,0.06247 -0.73231,0.164404 -1.11953,-0.118337 -0.38723,-0.282727 -0.55526,-1.126858 0.0352,-1.546252 0.59045,-0.419394 2.68531,-0.581563 2.68531,-0.581563 0,0 0.53012,2.033158 0.32629,2.728124 0,0 0,-5e-6 0,-5e-6"
       style="fill:none;stroke:#ff0000;stroke-width:0.04454436;stroke-linecap:butt;stroke-linejoin:miter;stroke-miterlimit:4;stroke-dasharray:none;stroke-opacity:1"
       inkscape:connector-curvature="0" />
    <path
       id="use3504"
       d="m 7.0527631,35.953372 c 0.43049,1.207591 -0.6701,2.261106 -1.51866,2.278041 -0.84857,0.0169 -1.37588,-0.572451 -1.74363,-0.964881 -0.36103,0.398621 -0.87825,0.996879 -1.72698,0.994369 -0.84873,-0.0025 -1.96706996,-1.037181 -1.55713996,-2.251909 0.40992,-1.214729 3.24263996,-3.624987 3.24263996,-3.624987 0,0 2.87327,2.361785 3.30377,3.569374 0,0 0,-7e-6 0,-7e-6"
       style="fill:none;stroke:#ff0000;stroke-width:0.07885127;stroke-linecap:butt;stroke-linejoin:miter;stroke-miterlimit:4;stroke-dasharray:none;stroke-opacity:1"
       inkscape:connector-curvature="0" />
    <path
       id="use3506"
       d="m 1.3350931,41.073199 c -0.19233,-1.28829 1.11148,-2.122699 1.96074,-1.973158 0.84926,0.149573 1.25935,0.840523 1.54901,1.303865 0.43809,-0.326583 1.07105,-0.821553 1.91666,-0.652596 0.84562,0.168926 1.75757,1.419762 1.11068,2.550342 -0.64689,1.13058 -3.94357,2.977828 -3.94357,2.977828 0,0 -2.40119,-2.918001 -2.59352,-4.206289 0,0 0,8e-6 0,8e-6"
       style="fill:none;stroke:#ff0000;stroke-width:0.08011433;stroke-linecap:butt;stroke-linejoin:miter;stroke-miterlimit:4;stroke-dasharray:none;stroke-opacity:1"
       inkscape:connector-curvature="0" />
    <path
       id="use3508"
       d="m 11.576033,34.747946 c 0.106,0.572179 -0.46308,0.965084 -0.84459,0.911584 -0.3815,-0.05351 -0.57539,-0.355597 -0.71195,-0.557941 -0.1904999,0.152652 -0.4653599,0.383529 -0.8455399,0.321304 -0.38019,-0.06221 -0.80688,-0.606429 -0.53572,-1.121304 0.27115,-0.514876 1.7141699,-1.391113 1.7141699,-1.391113 0,0 1.11764,1.265295 1.22363,1.837473 0,0 0,-3e-6 0,-3e-6"
       style="fill:none;stroke:#ff0000;stroke-width:0.03579059;stroke-linecap:butt;stroke-linejoin:miter;stroke-miterlimit:4;stroke-dasharray:none;stroke-opacity:1"
       inkscape:connector-curvature="0" />
    <path
       id="use3510"
       d="m 44.774998,47.358794 c 0.275659,-0.583992 1.042944,-0.568707 1.351791,-0.273091 0.308836,0.295627 0.287505,0.693404 0.27924,0.964184 0.270549,-0.01391 0.667805,-0.04354 0.969798,0.25907 0.302006,0.302602 0.333275,1.069416 -0.244841,1.357192 -0.578115,0.287776 -2.44586,0.140909 -2.44586,0.140909 0,0 -0.185785,-1.864277 0.08987,-2.448268 0,0 -1e-6,4e-6 -1e-6,4e-6"
       style="fill:none;stroke:#ff0000;stroke-width:0.03971876;stroke-linecap:butt;stroke-linejoin:miter;stroke-miterlimit:4;stroke-dasharray:none;stroke-opacity:1"
       inkscape:connector-curvature="0" />
    <path
       id="use3518"
       d="m 15.986223,18.486373 c 0.56758,0.15081 0.67972,0.839646 0.46594,1.164382 -0.21379,0.324728 -0.57309,0.370876 -0.81666,0.407885 0.0568,0.239722 0.14846,0.590205 -0.0727,0.909958 -0.22115,0.319762 -0.90193,0.473475 -1.25414,0.0035 -0.35221,-0.469929 -0.52712,-2.164692 -0.52712,-2.164692 0,0 1.63712,-0.471888 2.20469,-0.321078 0,0 0,0 0,0"
       style="fill:none;stroke:#ff0000;stroke-width:0.03612012;stroke-linecap:butt;stroke-linejoin:miter;stroke-miterlimit:4;stroke-dasharray:none;stroke-opacity:1"
       inkscape:connector-curvature="0" />
    <path
       id="use3524"
       d="m 48.699235,12.678802 c -1.108901,0.418819 -2.101808,-0.580409 -2.132116,-1.364557 -0.03028,-0.784148 0.505433,-1.281785 0.861856,-1.6285258 -0.374731,-0.326866 -0.936711,-0.794669 -0.949046,-1.579304 -0.01237,-0.784635 0.924834,-1.836323 2.054845,-1.478356 1.130011,0.357967 3.407044,2.935006 3.407044,2.935006 0,0 -2.133691,2.6969248 -3.24259,3.1157418 0,0 7e-6,-5e-6 7e-6,-5e-6"
       style="fill:none;stroke:#ff0000;stroke-width:0.07290526;stroke-linecap:butt;stroke-linejoin:miter;stroke-miterlimit:4;stroke-dasharray:none;stroke-opacity:1"
       inkscape:connector-curvature="0" />
    <path
       id="use3538"
       d="m 22.298053,9.0604632 c 0.5409,-0.936438 1.81929,-0.804683 2.29378,-0.268571 0.47448,0.53613 0.3838,1.197015 0.33251,1.6477688 0.45344,0.01425 1.12051,0.0198 1.58259,0.566644 0.46211,0.546824 0.40811,1.830869 -0.59654,2.231078 -1.00465,0.40021 -4.10134,-0.103521 -4.10134,-0.103521 0,0 -0.0519,-3.1369698 0.489,-4.0734058 0,0 0,7e-6 0,7e-6"
       style="fill:none;stroke:#ff0000;stroke-width:0.06651338;stroke-linecap:butt;stroke-linejoin:miter;stroke-miterlimit:4;stroke-dasharray:none;stroke-opacity:1"
       inkscape:connector-curvature="0" />
    <path
       id="use3544"
       d="m 64.508518,24.958976 c -0.253604,1.168028 -1.643601,1.460368 -2.323788,1.05606 -0.680172,-0.404334 -0.807551,-1.130528 -0.905543,-1.622265 -0.482073,0.137885 -1.186081,0.356948 -1.856825,-0.06284 -0.670762,-0.41976 -1.046856,-1.789497 -0.124338,-2.549469 0.922519,-0.759972 4.351806,-1.273849 4.351806,-1.273849 0,0 1.112293,3.284342 0.858689,4.452367 0,0 -1e-6,-8e-6 -1e-6,-8e-6"
       style="fill:none;stroke:#ff0000;stroke-width:0.07351325;stroke-linecap:butt;stroke-linejoin:miter;stroke-miterlimit:4;stroke-dasharray:none;stroke-opacity:1"
       inkscape:connector-curvature="0" />
    <path
       id="use3546"
       d="m 54.668641,21.027387 c 0.242361,-0.476808 0.877223,-0.445571 1.125757,-0.193352 0.248525,0.252229 0.221231,0.58103 0.20783,0.805009 0.224323,-0.005 0.553929,-0.01988 0.796619,0.23797 0.2427,0.257838 0.250016,0.893438 -0.235574,1.117685 -0.48559,0.224247 -2.028332,0.05742 -2.028332,0.05742 0,0 -0.108659,-1.547929 0.133701,-2.024736 0,0 -10e-7,3e-6 -10e-7,3e-6"
       style="fill:none;stroke:#ff0000;stroke-width:0.0328971;stroke-linecap:butt;stroke-linejoin:miter;stroke-miterlimit:4;stroke-dasharray:none;stroke-opacity:1"
       inkscape:connector-curvature="0" />
    <path
       id="use3556"
       d="m 6.7664331,18.490826 c -0.77063,-0.02484 -1.11805,-0.872701 -0.94076,-1.351365 0.1773,-0.478657 0.62322,-0.644075 0.9238,-0.763534 -0.14364,-0.289801 -0.36465,-0.710959 -0.17644,-1.185434 0.18818,-0.474484 1.01344,-0.872676 1.60309,-0.375892 0.58966,0.496784 1.3152,2.612726 1.3152,2.612726 0,0 -1.95427,1.088337 -2.7249,1.063501 0,0 1e-5,-2e-6 1e-5,-2e-6"
       style="fill:none;stroke:#ff0000;stroke-width:0.04742221;stroke-linecap:butt;stroke-linejoin:miter;stroke-miterlimit:4;stroke-dasharray:none;stroke-opacity:1"
       inkscape:connector-curvature="0" />
    <path
       id="use3560"
       d="m 23.983793,6.3170922 c -0.086,0.476179 -0.64422,0.614221 -0.92517,0.460313 -0.28094,-0.153918 -0.3428,-0.445918 -0.38944,-0.643477 -0.19308,0.06264 -0.4748,0.161282 -0.75215,9.79e-4 -0.27735,-0.160293 -0.44899,-0.709128 -0.0865,-1.029723 0.36243,-0.320594 1.74258,-0.577264 1.74258,-0.577264 0,0 0.49673,1.312998 0.41073,1.789175 0,0 0,-3e-6 0,-3e-6"
       style="fill:none;stroke:#ff0000;stroke-width:0.02976111;stroke-linecap:butt;stroke-linejoin:miter;stroke-miterlimit:4;stroke-dasharray:none;stroke-opacity:1"
       inkscape:connector-curvature="0" />
    <path
       id="use3562"
       d="m 16.215583,8.3864612 c -0.94742,-0.151062 -1.24381,-1.251989 -0.95018,-1.815175 0.29366,-0.563176 0.86996,-0.697706 1.25968,-0.79821 -0.13204,-0.380188 -0.33906,-0.934615 -0.0326,-1.490925 0.30644,-0.556324 1.38739,-0.918934 2.03767,-0.213552 0.65028,0.705382 1.21533,3.430762 1.21533,3.430762 0,0 -2.58248,1.038163 -3.5299,0.8871 0,0 0,0 0,0"
       style="fill:none;stroke:#ff0000;stroke-width:0.05900731;stroke-linecap:butt;stroke-linejoin:miter;stroke-miterlimit:4;stroke-dasharray:none;stroke-opacity:1"
       inkscape:connector-curvature="0" />
    <path
       id="use3568"
       d="m 21.145603,43.830686 c 0.44736,-1.06418 1.81886,-1.095924 2.39318,-0.591741 0.57431,0.504205 0.56682,1.216248 0.5729,1.700479 0.48211,-0.04566 1.1893,-0.129152 1.75192,0.388055 0.56265,0.517188 0.6775,1.884256 -0.33283,2.442688 -1.01033,0.558433 -4.35729,0.43986 -4.35729,0.43986 0,0 -0.47525,-3.315171 -0.0279,-4.379349 0,0 0,8e-6 0,8e-6"
       style="fill:none;stroke:#ff0000;stroke-width:0.0710007;stroke-linecap:butt;stroke-linejoin:miter;stroke-miterlimit:4;stroke-dasharray:none;stroke-opacity:1"
       inkscape:connector-curvature="0" />
    <path
       id="use3576"
       d="m 14.186003,49.885498 c -0.72807,0.301958 -1.40924,-0.341003 -1.44608,-0.861511 -0.0368,-0.520509 0.30863,-0.862648 0.53813,-1.100683 -0.25601,-0.209262 -0.63946,-0.508206 -0.66436,-1.02942 -0.0249,-0.521214 0.57556,-1.240128 1.3342,-1.026275 0.75864,0.213853 2.32684,1.878109 2.32684,1.878109 0,0 -1.36067,1.837827 -2.08874,2.139784 0,0 10e-6,-4e-6 10e-6,-4e-6"
       style="fill:none;stroke:#ff0000;stroke-width:0.04847848;stroke-linecap:butt;stroke-linejoin:miter;stroke-miterlimit:4;stroke-dasharray:none;stroke-opacity:1"
       inkscape:connector-curvature="0" />
    <path
       id="use3582"
       d="m 21.334883,18.022609 c -0.53052,0.343636 -1.16093,-0.06483 -1.26539,-0.470044 -0.10444,-0.40522 0.11847,-0.725122 0.26501,-0.946118 -0.23224,-0.127971 -0.57799,-0.308217 -0.67314,-0.715718 -0.0952,-0.407498 0.27434,-1.061527 0.9037,-1.002744 0.62935,0.05878 2.10735,1.144303 2.10735,1.144303 0,0 -0.807,1.64669 -1.33753,1.990324 0,0 0,-3e-6 0,-3e-6"
       style="fill:none;stroke:#ff0000;stroke-width:0.03887697;stroke-linecap:butt;stroke-linejoin:miter;stroke-miterlimit:4;stroke-dasharray:none;stroke-opacity:1"
       inkscape:connector-curvature="0" />
    <path
       id="use3588"
       d="m 18.302033,14.55111 c 0.14255,1.32783 -1.22832,2.127453 -2.09197,1.938358 -0.86364,-0.189128 -1.25451,-0.914262 -1.53164,-1.401148 -0.46258,0.316021 -1.1319,0.796296 -1.99098,0.587465 -0.85909,-0.208799 -1.74039,-1.528688 -1.02992,-2.659479 0.71046,-1.13079 4.16562,-2.883681 4.16562,-2.883681 0,0 2.33635,3.090666 2.4789,4.418494 0,0 -10e-6,-9e-6 -10e-6,-9e-6"
       style="fill:none;stroke:#ff0000;stroke-width:0.08213733;stroke-linecap:butt;stroke-linejoin:miter;stroke-miterlimit:4;stroke-dasharray:none;stroke-opacity:1"
       inkscape:connector-curvature="0" />
    <path
       id="use3604"
       d="m 37.114583,4.4257482 c -0.18064,0.891833 -1.23564,1.12915 -1.75771,0.82861 -0.52207,-0.300561 -0.62675,-0.852007 -0.70658,-1.22529 -0.3655,0.110087 -0.89908,0.284329 -1.41414,-0.02809 -0.51506,-0.312403 -0.81592,-1.35109 -0.12175,-1.939411 0.69417,-0.588321 3.29918,-1.015957 3.29918,-1.015957 0,0 0.88163,2.488314 0.701,3.380146 0,0 0,-6e-6 0,-6e-6"
       style="fill:none;stroke:#ff0000;stroke-width:0.05596595;stroke-linecap:butt;stroke-linejoin:miter;stroke-miterlimit:4;stroke-dasharray:none;stroke-opacity:1"
       inkscape:connector-curvature="0" />
    <path
       id="use3610"
       d="m 51.660032,12.023215 c 0.406967,-0.269968 0.897457,0.04027 0.98158,0.352447 0.08411,0.312179 -0.0854,0.561212 -0.196743,0.733185 0.180504,0.0969 0.449149,0.233235 0.526098,0.547255 0.07696,0.314018 -0.202972,0.822427 -0.689691,0.782332 -0.48672,-0.0401 -1.637757,-0.866245 -1.637757,-0.866245 0,0 0.60955,-1.27901 1.016515,-1.548977 0,0 -2e-6,3e-6 -2e-6,3e-6"
       style="fill:none;stroke:#ff0000;stroke-width:0.0300371;stroke-linecap:butt;stroke-linejoin:miter;stroke-miterlimit:4;stroke-dasharray:none;stroke-opacity:1"
       inkscape:connector-curvature="0" />
    <path
       id="use3614"
       d="m 42.220128,2.8055902 c 0.549831,0.247457 0.548538,0.963994 0.277797,1.257309 -0.270752,0.293305 -0.642446,0.280119 -0.895366,0.276982 0.01756,0.252328 0.05194,0.622675 -0.225447,0.909711 -0.277379,0.287046 -0.992688,0.329204 -1.271109,-0.205614 -0.27842,-0.534817 -0.17291,-2.280883 -0.17291,-2.280883 0,0 1.737208,-0.204962 2.287038,0.0425 0,0 -3e-6,0 -3e-6,0"
       style="fill:none;stroke:#ff0000;stroke-width:0.03708445;stroke-linecap:butt;stroke-linejoin:miter;stroke-miterlimit:4;stroke-dasharray:none;stroke-opacity:1"
       inkscape:connector-curvature="0" />
    <path
       id="use3632"
       d="m 52.633981,40.58335 c 0.462608,-0.600692 1.338819,-0.390761 1.618928,0.02574 0.280092,0.416515 0.155882,0.8674 0.0785,1.175902 0.313797,0.05189 0.776864,0.117513 1.047356,0.540324 0.270509,0.422801 0.114091,1.310146 -0.621145,1.495248 -0.735236,0.185102 -2.840635,-0.451694 -2.840635,-0.451694 0,0 0.254388,-2.184837 0.716996,-2.785528 0,0 -2e-6,5e-6 -2e-6,5e-6"
       style="fill:none;stroke:#ff0000;stroke-width:0.04663181;stroke-linecap:butt;stroke-linejoin:miter;stroke-miterlimit:4;stroke-dasharray:none;stroke-opacity:1"
       inkscape:connector-curvature="0" />
    <path
       id="use3634"
       d="m 127.18776,45.555958 c -0.73055,0.15986 -1.25881,-0.554818 -1.2059,-1.047068 0.0529,-0.492249 0.43291,-0.753811 0.68715,-0.937603 -0.20397,-0.238358 -0.51192,-0.581842 -0.44775,-1.072751 0.0641,-0.490911 0.7455,-1.061544 1.41808,-0.734591 0.67257,0.326953 1.85788,2.144143 1.85788,2.144143 0,0 -1.57891,1.488013 -2.30946,1.647872 0,0 0,-2e-6 0,-2e-6"
       style="fill:none;stroke:#ff0000;stroke-width:0.0459957;stroke-linecap:butt;stroke-linejoin:miter;stroke-miterlimit:4;stroke-dasharray:none;stroke-opacity:1"
       inkscape:connector-curvature="0" />
    <path
       id="use3642"
       d="m 79.702898,37.32855 c 0.473137,0.05624 0.641972,0.596714 0.507385,0.881993 -0.134598,0.285274 -0.417927,0.36342 -0.609334,0.420994 0.07304,0.186057 0.186722,0.457097 0.04564,0.739217 -0.141077,0.282126 -0.670324,0.483426 -1.006959,0.146234 -0.336634,-0.337192 -0.670884,-1.678477 -0.670884,-1.678477 0,0 1.261024,-0.566206 1.73416,-0.509961 0,0 -3e-6,0 -3e-6,0"
       style="fill:none;stroke:#ff0000;stroke-width:0.02930513;stroke-linecap:butt;stroke-linejoin:miter;stroke-miterlimit:4;stroke-dasharray:none;stroke-opacity:1"
       inkscape:connector-curvature="0" />
    <path
       id="use3658"
       d="m 39.554413,40.819674 c 0.54877,0.387639 0.39492,1.171122 0.0364,1.434359 -0.35855,0.263224 -0.76231,0.169729 -1.03829,0.112494 -0.0345,0.279736 -0.0756,0.692141 -0.44012,0.947094 -0.36447,0.254968 -1.15585,0.148912 -1.34662,-0.495309 -0.19077,-0.64422 0.29609,-2.531645 0.29609,-2.531645 0,0 1.94378,0.145369 2.49255,0.533008 0,0 0,-10e-7 0,-10e-7"
       style="fill:none;stroke:#ff0000;stroke-width:0.04132354;stroke-linecap:butt;stroke-linejoin:miter;stroke-miterlimit:4;stroke-dasharray:none;stroke-opacity:1"
       inkscape:connector-curvature="0" />
    <path
       id="use3668"
       d="m 108.6325,48.64627 c 0.27707,0.431425 -0.0562,0.9415 -0.38527,1.024951 -0.32903,0.08344 -0.58782,-0.09839 -0.76662,-0.217948 -0.10454,0.187981 -0.25184,0.467875 -0.58268,0.543767 -0.33085,0.0759 -0.86021,-0.225876 -0.81054,-0.736198 0.0497,-0.510322 0.93485,-1.705793 0.93485,-1.705793 0,0 1.33319,0.659799 1.61026,1.091223 0,0 0,-2e-6 0,-2e-6"
       style="fill:none;stroke:#ff0000;stroke-width:0.03153565;stroke-linecap:butt;stroke-linejoin:miter;stroke-miterlimit:4;stroke-dasharray:none;stroke-opacity:1"
       inkscape:connector-curvature="0" />
    <path
       id="use3676"
       d="m 83.854146,16.928801 c 0.480485,-0.336611 1.078968,0.02099 1.189511,0.393313 0.110528,0.372326 -0.08544,0.676554 -0.213905,0.88647 0.21972,0.110865 0.546489,0.26639 0.648473,0.641144 0.101997,0.374752 -0.218664,0.993829 -0.80438,0.960523 -0.585716,-0.0333 -1.993174,-0.990311 -1.993174,-0.990311 0,0 0.692992,-1.554531 1.173477,-1.891142 0,0 -2e-6,3e-6 -2e-6,3e-6"
       style="fill:none;stroke:#ff0000;stroke-width:0.03608268;stroke-linecap:butt;stroke-linejoin:miter;stroke-miterlimit:4;stroke-dasharray:none;stroke-opacity:1"
       inkscape:connector-curvature="0" />
    <path
       id="use3690"
       d="m 84.179154,45.658413 c 0.56588,0.119998 0.710622,0.792025 0.516545,1.12216 -0.19409,0.330128 -0.545245,0.393478 -0.783,0.442055 0.06786,0.232984 0.175531,0.573187 -0.02606,0.898789 -0.201577,0.32561 -0.863602,0.510838 -1.233566,0.06615 -0.369963,-0.444687 -0.626701,-2.103142 -0.626701,-2.103142 0,0 1.586904,-0.546012 2.152783,-0.426014 0,0 -3e-6,10e-7 -3e-6,10e-7"
       style="fill:none;stroke:#ff0000;stroke-width:0.03557836;stroke-linecap:butt;stroke-linejoin:miter;stroke-miterlimit:4;stroke-dasharray:none;stroke-opacity:1"
       inkscape:connector-curvature="0" />
    <path
       id="use3698"
       d="m 43.540737,11.979152 c -0.231167,0.492947 -0.878095,0.481689 -1.139111,0.233112 -0.261006,-0.248587 -0.243866,-0.583997 -0.237472,-0.812309 -0.228069,0.0123 -0.562932,0.03813 -0.818184,-0.216362 -0.255262,-0.254482 -0.283252,-0.900913 0.203544,-1.144763 0.486797,-0.2438498 2.061798,-0.1239918 2.061798,-0.1239918 0,0 0.160592,1.5713718 -0.07058,2.0643168 0,0 1e-6,-3e-6 1e-6,-3e-6"
       style="fill:none;stroke:#ff0000;stroke-width:0.03348686;stroke-linecap:butt;stroke-linejoin:miter;stroke-miterlimit:4;stroke-dasharray:none;stroke-opacity:1"
       inkscape:connector-curvature="0" />
    <path
       id="use3704"
       d="m 27.743993,10.268405 c -1.02999,-0.006 -1.52379,-1.1260448 -1.3039,-1.7715068 0.21992,-0.645453 0.80957,-0.882061 1.20677,-1.052176 -0.20203,-0.381948 -0.512,-0.936586 -0.27738,-1.576839 0.2346,-0.640263 1.32263,-1.201084 2.12757,-0.558437 0.80493,0.642647 1.84836,3.442765 1.84836,3.442765 0,0 -2.57143,1.5222208 -3.60142,1.5161958 0,0 0,-2e-6 0,-2e-6"
       style="fill:none;stroke:#ff0000;stroke-width:0.06335063;stroke-linecap:butt;stroke-linejoin:miter;stroke-miterlimit:4;stroke-dasharray:none;stroke-opacity:1"
       inkscape:connector-curvature="0" />
    <path
       id="use3706"
       d="m 9.6605831,43.377201 c 0.3827599,-0.302246 0.8964999,-0.03394 1.0059699,0.269811 0.10946,0.303754 -0.0387,0.56558 -0.13533,0.745917 0.18763,0.08155 0.46624,0.195078 0.56872,0.501255 0.1025,0.306174 -0.13417,0.835247 -0.62188,0.835486 -0.4876999,2.39e-4 -1.7013899,-0.72704 -1.7013899,-0.72704 0,0 0.50115,-1.323186 0.88391,-1.625431 0,0 0,2e-6 0,2e-6"
       style="fill:none;stroke:#ff0000;stroke-width:0.0299964;stroke-linecap:butt;stroke-linejoin:miter;stroke-miterlimit:4;stroke-dasharray:none;stroke-opacity:1"
       inkscape:connector-curvature="0" />
    <path
       id="use3712"
       d="m 7.2226931,30.79758 c -0.45944,-0.402969 -0.24558,-1.097017 0.10384,-1.30095 0.34943,-0.20392 0.70575,-0.08085 0.94993,-0.0028 0.0579,-0.249755 0.13442,-0.618878 0.48843,-0.814752 0.35399,-0.195887 1.05974,-0.0245 1.17088,0.576433 0.1111499,0.600932 -0.50921,2.261824 -0.50921,2.261824 0,0 -1.74443,-0.316823 -2.20387,-0.719792 0,0 0,2e-6 0,2e-6"
       style="fill:none;stroke:#ff0000;stroke-width:0.03758716;stroke-linecap:butt;stroke-linejoin:miter;stroke-miterlimit:4;stroke-dasharray:none;stroke-opacity:1"
       inkscape:connector-curvature="0" />
    <path
       id="use3718"
       d="m 60.525201,42.914666 c 0.387423,0.72283 -0.208337,1.494144 -0.743485,1.585742 -0.535151,0.09158 -0.92488,-0.230955 -1.194911,-0.444133 -0.190375,0.286563 -0.460517,0.714295 -0.997622,0.793609 -0.537103,0.07933 -1.343137,-0.468568 -1.19963,-1.276022 0.143506,-0.807454 1.705607,-2.60209 1.705607,-2.60209 0,0 2.042624,1.22007 2.430045,1.942898 0,0 -4e-6,-4e-6 -4e-6,-4e-6"
       style="fill:none;stroke:#ff0000;stroke-width:0.05044073;stroke-linecap:butt;stroke-linejoin:miter;stroke-miterlimit:4;stroke-dasharray:none;stroke-opacity:1"
       inkscape:connector-curvature="0" />
    <path
       id="use3720"
       d="m 5.2688431,48.249051 c -0.0902,-0.505382 0.41413,-0.848695 0.75038,-0.799286 0.33625,0.04942 0.50554,0.317041 0.62483,0.496338 0.16894,-0.133563 0.41276,-0.335644 0.74779,-0.278544 0.33503,0.05709 0.7083,0.539662 0.4661,0.992305 -0.2422,0.452642 -1.52029,1.217273 -1.52029,1.217273 0,0 -0.97862,-1.122707 -1.06881,-1.628089 0,0 0,3e-6 0,3e-6"
       style="fill:none;stroke:#ff0000;stroke-width:0.03157458;stroke-linecap:butt;stroke-linejoin:miter;stroke-miterlimit:4;stroke-dasharray:none;stroke-opacity:1"
       inkscape:connector-curvature="0" />
    <path
       inkscape:connector-curvature="0"
       style="fill:none;stroke:#ff0000;stroke-width:0.05817781;stroke-linecap:butt;stroke-linejoin:miter;stroke-miterlimit:4;stroke-dasharray:none;stroke-opacity:1"
       d="m 83.482397,43.7161 c 0.05151,0.944502 -0.947848,1.459174 -1.551702,1.293343 -0.603848,-0.165854 -0.853389,-0.693278 -1.031321,-1.047958 -0.338936,0.206347 -0.830198,0.521196 -1.430092,0.341574 -0.599903,-0.179599 -1.174236,-1.145924 -0.629705,-1.919371 0.544531,-0.773446 3.053558,-1.884969 3.053558,-1.884969 0,0 1.537758,2.272887 1.589264,3.217387 0,0 -2e-6,-6e-6 -2e-6,-6e-6"
       id="path2146" />
  </g>
</svg>
