<?xml version="1.0" encoding="UTF-8" standalone="no"?>
<!-- Created with Inkscape (http://www.inkscape.org/) -->

<svg
   xmlns:dc="http://purl.org/dc/elements/1.1/"
   xmlns:cc="http://creativecommons.org/ns#"
   xmlns:rdf="http://www.w3.org/1999/02/22-rdf-syntax-ns#"
   xmlns:svg="http://www.w3.org/2000/svg"
   xmlns="http://www.w3.org/2000/svg"
   xmlns:sodipodi="http://sodipodi.sourceforge.net/DTD/sodipodi-0.dtd"
   xmlns:inkscape="http://www.inkscape.org/namespaces/inkscape"
   width="210mm"
   height="297mm"
   viewBox="0 0 210 297"
   version="1.1"
   id="svg4193"
   inkscape:version="0.92.2 (5c3e80d, 2017-08-06)"
   sodipodi:docname="Temples_Kerf02_Width3_2.svg">
  <defs
     id="defs4187" />
  <sodipodi:namedview
     id="base"
     pagecolor="#ffffff"
     bordercolor="#666666"
     borderopacity="1.0"
     inkscape:pageopacity="0.0"
     inkscape:pageshadow="2"
     inkscape:zoom="1.4"
     inkscape:cx="159.31272"
     inkscape:cy="958.07179"
     inkscape:document-units="mm"
     inkscape:current-layer="layer1"
     showgrid="false"
     inkscape:window-width="1920"
     inkscape:window-height="1001"
     inkscape:window-x="-9"
     inkscape:window-y="-9"
     inkscape:window-maximized="1" />
  <metadata
     id="metadata4190">
    <rdf:RDF>
      <cc:Work
         rdf:about="">
        <dc:format>image/svg+xml</dc:format>
        <dc:type
           rdf:resource="http://purl.org/dc/dcmitype/StillImage" />
        <dc:title></dc:title>
      </cc:Work>
    </rdf:RDF>
  </metadata>
  <g
     inkscape:label="Ebene 1"
     inkscape:groupmode="layer"
     id="layer1">
    <path
       inkscape:connector-curvature="0"
       id="path3717"
       style="fill:none;stroke:#ff0000;stroke-width:0.26458332"
       d="m 150.74968,26.578463 c 2e-4,0.0083 -5.6e-4,0.0164 -0.002,0.0241 l -0.033,0.150992 c -0.002,0.0068 -0.004,0.01312 -0.006,0.019 l -0.069,0.155998 c -0.002,0.0049 -0.005,0.0094 -0.007,0.01376 l -0.1025,0.160003 c -0.002,0.0032 -0.004,0.0063 -0.007,0.0091 l -0.13323,0.162877 -0.006,0.007 -0.16,0.164 -0.005,0.005 -0.185,0.163999 -0.004,0.003 -0.204,0.161999 -0.003,0.003 -0.219,0.158999 -0.003,0.0021 -0.23,0.155001 -0.004,0.003 -0.475,0.287999 -0.005,0.0021 -0.473,0.253 -0.004,0.0021 -0.45,0.212 -0.005,0.003 -0.419,0.17 -0.006,0.0021 -0.384,0.13 -0.006,0.0021 -0.352,0.093 -0.007,0.0011 -0.323,0.062 -0.007,0.0011 -0.3,0.034 -0.008,0.0011 -0.284,0.01 h -0.006 l -0.275,-0.008 h -0.006 l -0.274,-0.024 -0.005,-0.0011 -0.279,-0.039 -0.005,-0.0011 -0.285,-0.055 -0.005,-0.0011 -0.294,-0.07 -0.005,-0.0011 -0.304,-0.088 -0.004,-0.0011 -0.316,-0.104 -0.004,-0.0011 -0.329,-0.122002 -0.003,-0.0011 -0.343,-0.139999 -0.002,-0.0011 -0.357,-0.156001 -0.003,-0.0021 -0.372,-0.175 h -0.001 l -0.387,-0.192001 -0.002,-0.0011 -0.401,-0.209999 -0.002,-0.0011 -0.416,-0.227 -0.007,-0.005 -4.367,-2.877 -3.666,-2.388002 -3.129,-2.012997 -2.708,-1.717 -2.373,-1.482 -2.10301,-1.288 -1.883,-1.131001 -1.70099,-0.998001 -1.548,-0.886999 -1.42201,-0.790999 -1.314,-0.710001 -1.22299,-0.638 -1.14601,-0.575001 -1.081,-0.5219987 -1.025,-0.471001 -0.97699,-0.427998 -0.93801,-0.389001 -0.90599,-0.353999 -0.87801,-0.321 -0.85599,-0.291 -0.84001,-0.264001 -0.829,-0.239001 -0.821,-0.213 -0.81799,-0.191 -0.819,-0.17 -0.825,-0.148 -0.835,-0.129 -0.850005,-0.108998 -0.869001,-0.089 -0.894,-0.069 -0.923999,-0.05 -0.961001,-0.03 -1.003999,-0.008 -1.055999,0.01299 -1.115002,0.037 -1.185998,0.062 -1.27,0.088 -1.366001,0.118999 -1.481,0.151 -1.617001,0.188 -1.779,0.231999 -1.972998,0.281001 -2.207001,0.339 -2.492999,0.409001 -2.849002,0.491998 -3.294999,0.597001 -3.863999,0.729001 -4.608951,0.8990797 c -0.562002,0.111176 -1.143845,0.06434 -1.68097,-0.135157 l -1.31608,-0.4829247 -1.124,-0.399 -0.977,-0.334999 -0.864,-0.285999 -0.774999,-0.245001 -0.703,-0.212001 -1.248,-0.347998 -1.097,-0.271002 -1.001001,-0.213998 -0.941004,-0.169 -0.909,-0.135001 -0.9,-0.108 -0.912,-0.082 -0.94,-0.062 -0.989,-0.043 -1.058,-0.025 -1.15,-0.007 -1.268,0.01101 -1.423,0.031 -1.621,0.051 -1.88,0.078 -2.221,0.107 -2.68,0.146 -3.32,0.198001 -4.235,0.269999 -5.618,0.375002 -7.837996,0.542999 -9.4149697,0.854795 c -0.055,0.0048 -0.10362,-0.03575 -0.10883,-0.09077 l -0.22599,-2.490007 c -0.005,-0.05498 0.0358,-0.103611 0.0908,-0.108813 l 3.24602,-0.295206 -0.215,-2.371 -3.24599,0.293798 c -0.055,0.0048 -0.10358,-0.03574 -0.1088,-0.09076 l -0.227,-2.488999 c -0.005,-0.05498 0.0357,-0.103642 0.0908,-0.108836 l 3.34702,-0.304205 h 0.009 81.2189937 v 0 l 1.345001,0.0021 h 0.0011 l 1.300999,0.005 h 0.0011 l 1.258001,0.01 h 0.0011 l 1.215998,0.014 v 0 l 1.176002,0.02 v 0 l 1.136999,0.02601 1.1,0.032 h 0.0011 l 1.065001,0.041 h 0.0011 l 1.032,0.05 h 0.0011 l 1.002998,0.061 h 0.0011 l 0.975997,0.072 h 0.0021 l 0.951,0.086 0.0021,0.0011 0.929995,0.1 h 0.002 l 0.912,0.116001 h 0.002 l 0.89571,0.134394 h 0.002 l 0.88499,0.151998 0.002,0.0011 0.874,0.173001 h 0.003 l 0.868,0.193 0.002,0.0011 0.864,0.216 0.002,0.0011 0.863,0.239999 h 0.002 l 0.86401,0.263001 0.002,0.0011 0.867,0.288999 0.002,0.0011 0.873,0.313999 0.002,0.0011 0.881,0.341001 0.002,0.0011 0.89,0.366001 h 0.002 l 0.901,0.392999 0.002,0.0011 0.915,0.420002 0.001,0.0011 0.929,0.447 0.002,0.0011 0.945,0.474001 h 0.001 l 0.963,0.499999 0.001,0.0011 0.981,0.527999 0.001,0.0011 1.001,0.554 h 0.001 l 1.022,0.581001 0.001,0.0011 1.044,0.607002 h 0.001 l 1.0656,0.633426 h 0.001 l 1.09,0.6600007 0.001,0.0011 1.114,0.686999 1.14,0.713002 v 0.0011 l 1.165,0.739 1.191,0.764997 v 0 l 1.217,0.792002 v 0 l 1.24292,0.817915 v 0.0011 l 0.859,0.566999 0.807,0.533001 0.758,0.498001 0.712,0.468001 0.667,0.438999 0.629,0.413001 0.594,0.389999 0.564,0.370998 0.541,0.355002 0.524,0.344001 0.512,0.335 0.506,0.330999 0.508,0.328001 0.515,0.326999 0.528,0.330999 0.548,0.332001 0.572,0.336 0.601,0.34 0.633,0.34 0.67,0.339 0.71,0.331958 0.752,0.319 0.791,0.301 0.827,0.280001 0.848,0.256998 0.856,0.236 0.841,0.219001 0.803,0.206999 0.001,0.0011 0.739,0.204 0.004,0.0011 0.652,0.205001 0.005,0.0011 0.287,0.106 0.004,0.0021 0.257,0.108998 0.006,0.003 0.225,0.113001 0.008,0.004 0.19123,0.11793 c 0.003,0.0019 0.007,0.004 0.01,0.0062 l 0.15551,0.121987 c 0.004,0.0034 0.008,0.007 0.0118,0.01087 l 0.119,0.127996 c 0.005,0.005 0.009,0.01053 0.0122,0.01619 l 0.0805,0.134 c 0.004,0.0073 0.007,0.01492 0.01,0.02283 l 0.0425,0.139995 c 0.003,0.0085 0.004,0.01733 0.004,0.02609 z" />
    <path
       d="m 151.12766,37.350784 c 2e-4,0.0083 -5.6e-4,0.0164 -0.002,0.0241 l -0.033,0.150992 c -0.002,0.0068 -0.004,0.01312 -0.006,0.019 l -0.069,0.155998 c -0.002,0.0049 -0.005,0.0094 -0.007,0.01376 l -0.1025,0.160003 c -0.002,0.0032 -0.004,0.0063 -0.007,0.0091 l -0.13323,0.162877 -0.006,0.007 -0.16,0.164 -0.005,0.005 -0.185,0.163999 -0.004,0.003 -0.204,0.161999 -0.003,0.003 -0.219,0.158999 -0.003,0.0021 -0.23,0.155001 -0.004,0.003 -0.475,0.287999 -0.005,0.0021 -0.473,0.253 -0.004,0.0021 -0.45,0.212 -0.005,0.003 -0.419,0.17 -0.006,0.0021 -0.384,0.13 -0.006,0.0021 -0.352,0.093 -0.007,0.0011 -0.323,0.062 -0.007,0.0011 -0.3,0.034 -0.008,0.0011 -0.284,0.01 h -0.006 l -0.275,-0.008 h -0.006 l -0.274,-0.024 -0.005,-0.0011 -0.279,-0.039 -0.005,-0.0011 -0.285,-0.055 -0.005,-0.0011 -0.294,-0.07 -0.005,-0.0011 -0.304,-0.088 -0.004,-0.0011 -0.316,-0.104 -0.004,-0.0011 -0.329,-0.122002 -0.003,-0.0011 -0.343,-0.139999 -0.002,-0.0011 -0.357,-0.156001 -0.003,-0.0021 -0.372,-0.175 h -0.001 l -0.387,-0.192001 -0.002,-0.0011 -0.401,-0.209999 -0.002,-0.0011 -0.416,-0.227 -0.007,-0.005 -4.367,-2.877 -3.666,-2.388002 -3.129,-2.012997 -2.708,-1.717 -2.373,-1.482 -2.10301,-1.288 -1.883,-1.131001 -1.70099,-0.998001 -1.548,-0.886999 -1.42201,-0.790999 -1.314,-0.710001 -1.22299,-0.638 -1.14601,-0.575001 -1.081,-0.521998 -1.025,-0.471001 -0.97699,-0.427998 -0.93801,-0.389001 -0.90599,-0.353999 -0.87801,-0.321 -0.85599,-0.291 -0.84001,-0.264001 -0.829,-0.239001 -0.821,-0.213 -0.81799,-0.191 -0.819,-0.17 -0.825,-0.148 -0.835,-0.129 -0.850009,-0.108998 -0.869001,-0.089 -0.894,-0.069 -0.923999,-0.05 -0.961001,-0.03 -1.003999,-0.008 -1.055999,0.01299 -1.115002,0.037 -1.185998,0.062 -1.27,0.088 -1.366001,0.118999 -1.481,0.151 -1.617001,0.188 -1.779,0.231999 -1.972998,0.281001 -2.207001,0.339 -2.492999,0.409001 -2.849002,0.491998 -3.294999,0.597001 -3.863999,0.729001 -4.608951,0.899079 c -0.562002,0.111176 -1.143845,0.06434 -1.68097,-0.135157 l -1.31608,-0.482924 -1.124,-0.399 -0.977,-0.334999 -0.864,-0.285999 -0.774999,-0.245001 -0.703,-0.212001 -1.248,-0.347998 -1.097,-0.271002 -1.001001,-0.213998 -0.941004,-0.169 -0.909,-0.135001 -0.9,-0.108 -0.912,-0.082 -0.94,-0.062 -0.989,-0.043 -1.058,-0.025 -1.15,-0.007 -1.268,0.01101 -1.423,0.031 -1.621,0.051 -1.88,0.078 -2.221,0.107 -2.68,0.146 -3.32,0.198001 -4.235,0.269999 -5.618,0.375002 -7.837996,0.542999 -9.4149695,0.854795 c -0.055,0.0048 -0.10362,-0.03575 -0.10883,-0.09077 l -0.22599,-2.490007 c -0.005,-0.05498 0.0358,-0.103611 0.0908,-0.108813 l 3.24602,-0.295206 -0.215,-2.371 -3.24599,0.293798 c -0.055,0.0048 -0.10358,-0.03574 -0.1088,-0.09076 l -0.227,-2.488999 c -0.005,-0.05498 0.0357,-0.103642 0.0908,-0.108836 l 3.34702,-0.304205 h 0.009 81.2189935 v 0 l 1.345001,0.0021 h 0.0011 l 1.300999,0.005 h 0.0011 l 1.258001,0.01 h 0.0011 l 1.215998,0.014 v 0 l 1.176002,0.02 v 0 l 1.136999,0.02601 1.1,0.032 h 0.0011 l 1.065001,0.041 h 0.0011 l 1.032,0.05 h 0.0011 l 1.002998,0.061 h 0.0011 l 0.975997,0.072 h 0.0021 l 0.950999,0.086 0.002,0.0011 0.93,0.1 h 0.002 l 0.912,0.116001 h 0.002 l 0.89571,0.134394 h 0.002 l 0.88499,0.151998 0.002,0.0011 0.874,0.173001 h 0.003 l 0.868,0.193 0.002,0.0011 0.864,0.216 0.002,0.0011 0.863,0.239999 h 0.002 l 0.86401,0.263001 0.002,0.0011 0.867,0.288999 0.002,0.0011 0.873,0.313999 0.002,0.0011 0.881,0.341001 0.002,0.0011 0.89,0.366001 h 0.002 l 0.901,0.392999 0.002,0.0011 0.915,0.420002 0.001,0.0011 0.929,0.447 0.002,0.0011 0.945,0.474001 h 10e-4 l 0.963,0.499999 10e-4,0.0011 0.981,0.527999 0.001,0.0011 1.001,0.554 h 0.001 l 1.022,0.581001 0.001,0.0011 1.044,0.607002 h 0.001 l 1.0656,0.633426 h 10e-4 l 1.09,0.66 0.001,0.0011 1.114,0.686999 1.14,0.713002 v 0.0011 l 1.165,0.739 1.191,0.764997 v 0 l 1.217,0.792002 v 0 l 1.24292,0.817915 v 0.0011 l 0.859,0.566999 0.807,0.533001 0.758,0.498001 0.712,0.468001 0.667,0.438999 0.629,0.413001 0.594,0.389999 0.564,0.370998 0.541,0.355002 0.524,0.344001 0.512,0.335 0.506,0.330999 0.508,0.328001 0.515,0.326999 0.528,0.330999 0.548,0.332001 0.572,0.336 0.601,0.34 0.633,0.34 0.67,0.339 0.71,0.331958 0.752,0.319 0.791,0.301 0.827,0.280001 0.848,0.256998 0.856,0.236 0.841,0.219001 0.803,0.206999 0.001,0.0011 0.739,0.204 0.004,0.0011 0.652,0.205001 0.005,0.0011 0.287,0.106 0.004,0.0021 0.257,0.108998 0.006,0.003 0.225,0.113001 0.008,0.004 0.19123,0.11793 c 0.003,0.0019 0.007,0.004 0.01,0.0062 l 0.15551,0.121987 c 0.004,0.0034 0.008,0.007 0.0118,0.01087 l 0.119,0.127996 c 0.005,0.005 0.009,0.01053 0.0122,0.01619 l 0.0805,0.134 c 0.004,0.0073 0.007,0.01492 0.01,0.02283 l 0.0425,0.139995 c 0.003,0.0085 0.004,0.01733 0.004,0.02609 z"
       style="fill:none;stroke:#ff0000;stroke-width:0.26458332"
       id="path4774"
       inkscape:connector-curvature="0" />
  </g>
</svg>
