<?xml version="1.0" encoding="UTF-8" standalone="no"?>
<!-- Created with Inkscape (http://www.inkscape.org/) -->

<svg
   xmlns:dc="http://purl.org/dc/elements/1.1/"
   xmlns:cc="http://creativecommons.org/ns#"
   xmlns:rdf="http://www.w3.org/1999/02/22-rdf-syntax-ns#"
   xmlns:svg="http://www.w3.org/2000/svg"
   xmlns="http://www.w3.org/2000/svg"
   xmlns:sodipodi="http://sodipodi.sourceforge.net/DTD/sodipodi-0.dtd"
   xmlns:inkscape="http://www.inkscape.org/namespaces/inkscape"
   width="210mm"
   height="297mm"
   viewBox="0 0 210 297"
   version="1.1"
   id="svg4193"
   inkscape:version="0.92.2 (5c3e80d, 2017-08-06)"
   sodipodi:docname="Temples_Kerf02_Width3_2_Heart.svg">
  <defs
     id="defs4187" />
  <sodipodi:namedview
     id="base"
     pagecolor="#ffffff"
     bordercolor="#666666"
     borderopacity="1.0"
     inkscape:pageopacity="0.0"
     inkscape:pageshadow="2"
     inkscape:zoom="0.98994949"
     inkscape:cx="159.65559"
     inkscape:cy="1083.8916"
     inkscape:document-units="mm"
     inkscape:current-layer="layer1"
     showgrid="false"
     inkscape:window-width="1920"
     inkscape:window-height="1001"
     inkscape:window-x="-9"
     inkscape:window-y="-9"
     inkscape:window-maximized="1" />
  <metadata
     id="metadata4190">
    <rdf:RDF>
      <cc:Work
         rdf:about="">
        <dc:format>image/svg+xml</dc:format>
        <dc:type
           rdf:resource="http://purl.org/dc/dcmitype/StillImage" />
        <dc:title></dc:title>
      </cc:Work>
    </rdf:RDF>
  </metadata>
  <g
     inkscape:label="Ebene 1"
     inkscape:groupmode="layer"
     id="layer1">
    <path
       inkscape:connector-curvature="0"
       id="path3717"
       style="fill:none;stroke:#00ff00;stroke-width:0.26458332;stroke-opacity:1"
       d="m 150.74968,26.578463 c 2e-4,0.0083 -5.6e-4,0.0164 -0.002,0.0241 l -0.033,0.150992 c -0.002,0.0068 -0.004,0.01312 -0.006,0.019 l -0.069,0.155998 c -0.002,0.0049 -0.005,0.0094 -0.007,0.01376 l -0.1025,0.160003 c -0.002,0.0032 -0.004,0.0063 -0.007,0.0091 l -0.13323,0.162877 -0.006,0.007 -0.16,0.164 -0.005,0.005 -0.185,0.163999 -0.004,0.003 -0.204,0.161999 -0.003,0.003 -0.219,0.158999 -0.003,0.0021 -0.23,0.155001 -0.004,0.003 -0.475,0.287999 -0.005,0.0021 -0.473,0.253 -0.004,0.0021 -0.45,0.212 -0.005,0.003 -0.419,0.17 -0.006,0.0021 -0.384,0.13 -0.006,0.0021 -0.352,0.093 -0.007,0.0011 -0.323,0.062 -0.007,0.0011 -0.3,0.034 -0.008,0.0011 -0.284,0.01 h -0.006 l -0.275,-0.008 h -0.006 l -0.274,-0.024 -0.005,-0.0011 -0.279,-0.039 -0.005,-0.0011 -0.285,-0.055 -0.005,-0.0011 -0.294,-0.07 -0.005,-0.0011 -0.304,-0.088 -0.004,-0.0011 -0.316,-0.104 -0.004,-0.0011 -0.329,-0.122002 -0.003,-0.0011 -0.343,-0.139999 -0.002,-0.0011 -0.357,-0.156001 -0.003,-0.0021 -0.372,-0.175 h -0.001 l -0.387,-0.192001 -0.002,-0.0011 -0.401,-0.209999 -0.002,-0.0011 -0.416,-0.227 -0.007,-0.005 -4.367,-2.877 -3.666,-2.388002 -3.129,-2.012997 -2.708,-1.717 -2.373,-1.482 -2.10301,-1.288 -1.883,-1.131001 -1.70099,-0.998001 -1.548,-0.886999 -1.42201,-0.790999 -1.314,-0.710001 -1.22299,-0.638 -1.14601,-0.575001 -1.081,-0.5219987 -1.025,-0.471001 -0.97699,-0.427998 -0.93801,-0.389001 -0.90599,-0.353999 -0.87801,-0.321 -0.85599,-0.291 -0.84001,-0.264001 -0.829,-0.239001 -0.821,-0.213 -0.81799,-0.191 -0.819,-0.17 -0.825,-0.148 -0.835,-0.129 -0.850005,-0.108998 -0.869001,-0.089 -0.894,-0.069 -0.923999,-0.05 -0.961001,-0.03 -1.003999,-0.008 -1.055999,0.01299 -1.115002,0.037 -1.185998,0.062 -1.27,0.088 -1.366001,0.118999 -1.481,0.151 -1.617001,0.188 -1.779,0.231999 -1.972998,0.281001 -2.207001,0.339 -2.492999,0.409001 -2.849002,0.491998 -3.294999,0.597001 -3.863999,0.729001 -4.608951,0.8990797 c -0.562002,0.111176 -1.143845,0.06434 -1.68097,-0.135157 l -1.31608,-0.4829247 -1.124,-0.399 -0.977,-0.334999 -0.864,-0.285999 -0.774999,-0.245001 -0.703,-0.212001 -1.248,-0.347998 -1.097,-0.271002 -1.001001,-0.213998 -0.941004,-0.169 -0.909,-0.135001 -0.9,-0.108 -0.912,-0.082 -0.94,-0.062 -0.989,-0.043 -1.058,-0.025 -1.15,-0.007 -1.268,0.01101 -1.423,0.031 -1.621,0.051 -1.88,0.078 -2.221,0.107 -2.68,0.146 -3.32,0.198001 -4.235,0.269999 -5.618,0.375002 -7.837996,0.542999 -9.4149697,0.854795 c -0.055,0.0048 -0.10362,-0.03575 -0.10883,-0.09077 l -0.22599,-2.490007 c -0.005,-0.05498 0.0358,-0.103611 0.0908,-0.108813 l 3.24602,-0.295206 -0.215,-2.371 -3.24599,0.293798 c -0.055,0.0048 -0.10358,-0.03574 -0.1088,-0.09076 l -0.227,-2.488999 c -0.005,-0.05498 0.0357,-0.103642 0.0908,-0.108836 l 3.34702,-0.304205 h 0.009 81.2189937 v 0 l 1.345001,0.0021 h 0.0011 l 1.300999,0.005 h 0.0011 l 1.258001,0.01 h 0.0011 l 1.215998,0.014 v 0 l 1.176002,0.02 v 0 l 1.136999,0.02601 1.1,0.032 h 0.0011 l 1.065001,0.041 h 0.0011 l 1.032,0.05 h 0.0011 l 1.002998,0.061 h 0.0011 l 0.975997,0.072 h 0.0021 l 0.951,0.086 0.0021,0.0011 0.929995,0.1 h 0.002 l 0.912,0.116001 h 0.002 l 0.89571,0.134394 h 0.002 l 0.88499,0.151998 0.002,0.0011 0.874,0.173001 h 0.003 l 0.868,0.193 0.002,0.0011 0.864,0.216 0.002,0.0011 0.863,0.239999 h 0.002 l 0.86401,0.263001 0.002,0.0011 0.867,0.288999 0.002,0.0011 0.873,0.313999 0.002,0.0011 0.881,0.341001 0.002,0.0011 0.89,0.366001 h 0.002 l 0.901,0.392999 0.002,0.0011 0.915,0.420002 0.001,0.0011 0.929,0.447 0.002,0.0011 0.945,0.474001 h 0.001 l 0.963,0.499999 0.001,0.0011 0.981,0.527999 0.001,0.0011 1.001,0.554 h 0.001 l 1.022,0.581001 0.001,0.0011 1.044,0.607002 h 0.001 l 1.0656,0.633426 h 0.001 l 1.09,0.6600007 0.001,0.0011 1.114,0.686999 1.14,0.713002 v 0.0011 l 1.165,0.739 1.191,0.764997 v 0 l 1.217,0.792002 v 0 l 1.24292,0.817915 v 0.0011 l 0.859,0.566999 0.807,0.533001 0.758,0.498001 0.712,0.468001 0.667,0.438999 0.629,0.413001 0.594,0.389999 0.564,0.370998 0.541,0.355002 0.524,0.344001 0.512,0.335 0.506,0.330999 0.508,0.328001 0.515,0.326999 0.528,0.330999 0.548,0.332001 0.572,0.336 0.601,0.34 0.633,0.34 0.67,0.339 0.71,0.331958 0.752,0.319 0.791,0.301 0.827,0.280001 0.848,0.256998 0.856,0.236 0.841,0.219001 0.803,0.206999 0.001,0.0011 0.739,0.204 0.004,0.0011 0.652,0.205001 0.005,0.0011 0.287,0.106 0.004,0.0021 0.257,0.108998 0.006,0.003 0.225,0.113001 0.008,0.004 0.19123,0.11793 c 0.003,0.0019 0.007,0.004 0.01,0.0062 l 0.15551,0.121987 c 0.004,0.0034 0.008,0.007 0.0118,0.01087 l 0.119,0.127996 c 0.005,0.005 0.009,0.01053 0.0122,0.01619 l 0.0805,0.134 c 0.004,0.0073 0.007,0.01492 0.01,0.02283 l 0.0425,0.139995 c 0.003,0.0085 0.004,0.01733 0.004,0.02609 z" />
    <path
       d="m 151.12766,37.350784 c 2e-4,0.0083 -5.6e-4,0.0164 -0.002,0.0241 l -0.033,0.150992 c -0.002,0.0068 -0.004,0.01312 -0.006,0.019 l -0.069,0.155998 c -0.002,0.0049 -0.005,0.0094 -0.007,0.01376 l -0.1025,0.160003 c -0.002,0.0032 -0.004,0.0063 -0.007,0.0091 l -0.13323,0.162877 -0.006,0.007 -0.16,0.164 -0.005,0.005 -0.185,0.163999 -0.004,0.003 -0.204,0.161999 -0.003,0.003 -0.219,0.158999 -0.003,0.0021 -0.23,0.155001 -0.004,0.003 -0.475,0.287999 -0.005,0.0021 -0.473,0.253 -0.004,0.0021 -0.45,0.212 -0.005,0.003 -0.419,0.17 -0.006,0.0021 -0.384,0.13 -0.006,0.0021 -0.352,0.093 -0.007,0.0011 -0.323,0.062 -0.007,0.0011 -0.3,0.034 -0.008,0.0011 -0.284,0.01 h -0.006 l -0.275,-0.008 h -0.006 l -0.274,-0.024 -0.005,-0.0011 -0.279,-0.039 -0.005,-0.0011 -0.285,-0.055 -0.005,-0.0011 -0.294,-0.07 -0.005,-0.0011 -0.304,-0.088 -0.004,-0.0011 -0.316,-0.104 -0.004,-0.0011 -0.329,-0.122002 -0.003,-0.0011 -0.343,-0.139999 -0.002,-0.0011 -0.357,-0.156001 -0.003,-0.0021 -0.372,-0.175 h -0.001 l -0.387,-0.192001 -0.002,-0.0011 -0.401,-0.209999 -0.002,-0.0011 -0.416,-0.227 -0.007,-0.005 -4.367,-2.877 -3.666,-2.388002 -3.129,-2.012997 -2.708,-1.717 -2.373,-1.482 -2.10301,-1.288 -1.883,-1.131001 -1.70099,-0.998001 -1.548,-0.886999 -1.42201,-0.790999 -1.314,-0.710001 -1.22299,-0.638 -1.14601,-0.575001 -1.081,-0.521998 -1.025,-0.471001 -0.97699,-0.427998 -0.93801,-0.389001 -0.90599,-0.353999 -0.87801,-0.321 -0.85599,-0.291 -0.84001,-0.264001 -0.829,-0.239001 -0.821,-0.213 -0.81799,-0.191 -0.819,-0.17 -0.825,-0.148 -0.835,-0.129 -0.850009,-0.108998 -0.869001,-0.089 -0.894,-0.069 -0.923999,-0.05 -0.961001,-0.03 -1.003999,-0.008 -1.055999,0.01299 -1.115002,0.037 -1.185998,0.062 -1.27,0.088 -1.366001,0.118999 -1.481,0.151 -1.617001,0.188 -1.779,0.231999 -1.972998,0.281001 -2.207001,0.339 -2.492999,0.409001 -2.849002,0.491998 -3.294999,0.597001 -3.863999,0.729001 -4.608951,0.899079 c -0.562002,0.111176 -1.143845,0.06434 -1.68097,-0.135157 l -1.31608,-0.482924 -1.124,-0.399 -0.977,-0.334999 -0.864,-0.285999 -0.774999,-0.245001 -0.703,-0.212001 -1.248,-0.347998 -1.097,-0.271002 -1.001001,-0.213998 -0.941004,-0.169 -0.909,-0.135001 -0.9,-0.108 -0.912,-0.082 -0.94,-0.062 -0.989,-0.043 -1.058,-0.025 -1.15,-0.007 -1.268,0.01101 -1.423,0.031 -1.621,0.051 -1.88,0.078 -2.221,0.107 -2.68,0.146 -3.32,0.198001 -4.235,0.269999 -5.618,0.375002 -7.837996,0.542999 -9.4149695,0.854795 c -0.055,0.0048 -0.10362,-0.03575 -0.10883,-0.09077 l -0.22599,-2.490007 c -0.005,-0.05498 0.0358,-0.103611 0.0908,-0.108813 l 3.24602,-0.295206 -0.215,-2.371 -3.24599,0.293798 c -0.055,0.0048 -0.10358,-0.03574 -0.1088,-0.09076 l -0.227,-2.488999 c -0.005,-0.05498 0.0357,-0.103642 0.0908,-0.108836 l 3.34702,-0.304205 h 0.009 81.2189935 v 0 l 1.345001,0.0021 h 0.0011 l 1.300999,0.005 h 0.0011 l 1.258001,0.01 h 0.0011 l 1.215998,0.014 v 0 l 1.176002,0.02 v 0 l 1.136999,0.02601 1.1,0.032 h 0.0011 l 1.065001,0.041 h 0.0011 l 1.032,0.05 h 0.0011 l 1.002998,0.061 h 0.0011 l 0.975997,0.072 h 0.0021 l 0.950999,0.086 0.002,0.0011 0.93,0.1 h 0.002 l 0.912,0.116001 h 0.002 l 0.89571,0.134394 h 0.002 l 0.88499,0.151998 0.002,0.0011 0.874,0.173001 h 0.003 l 0.868,0.193 0.002,0.0011 0.864,0.216 0.002,0.0011 0.863,0.239999 h 0.002 l 0.86401,0.263001 0.002,0.0011 0.867,0.288999 0.002,0.0011 0.873,0.313999 0.002,0.0011 0.881,0.341001 0.002,0.0011 0.89,0.366001 h 0.002 l 0.901,0.392999 0.002,0.0011 0.915,0.420002 0.001,0.0011 0.929,0.447 0.002,0.0011 0.945,0.474001 h 10e-4 l 0.963,0.499999 10e-4,0.0011 0.981,0.527999 0.001,0.0011 1.001,0.554 h 0.001 l 1.022,0.581001 0.001,0.0011 1.044,0.607002 h 0.001 l 1.0656,0.633426 h 10e-4 l 1.09,0.66 0.001,0.0011 1.114,0.686999 1.14,0.713002 v 0.0011 l 1.165,0.739 1.191,0.764997 v 0 l 1.217,0.792002 v 0 l 1.24292,0.817915 v 0.0011 l 0.859,0.566999 0.807,0.533001 0.758,0.498001 0.712,0.468001 0.667,0.438999 0.629,0.413001 0.594,0.389999 0.564,0.370998 0.541,0.355002 0.524,0.344001 0.512,0.335 0.506,0.330999 0.508,0.328001 0.515,0.326999 0.528,0.330999 0.548,0.332001 0.572,0.336 0.601,0.34 0.633,0.34 0.67,0.339 0.71,0.331958 0.752,0.319 0.791,0.301 0.827,0.280001 0.848,0.256998 0.856,0.236 0.841,0.219001 0.803,0.206999 0.001,0.0011 0.739,0.204 0.004,0.0011 0.652,0.205001 0.005,0.0011 0.287,0.106 0.004,0.0021 0.257,0.108998 0.006,0.003 0.225,0.113001 0.008,0.004 0.19123,0.11793 c 0.003,0.0019 0.007,0.004 0.01,0.0062 l 0.15551,0.121987 c 0.004,0.0034 0.008,0.007 0.0118,0.01087 l 0.119,0.127996 c 0.005,0.005 0.009,0.01053 0.0122,0.01619 l 0.0805,0.134 c 0.004,0.0073 0.007,0.01492 0.01,0.02283 l 0.0425,0.139995 c 0.003,0.0085 0.004,0.01733 0.004,0.02609 z"
       style="fill:none;stroke:#00ff00;stroke-width:0.26458332;stroke-opacity:1"
       id="path4774"
       inkscape:connector-curvature="0" />
    <path
       inkscape:connector-curvature="0"
       style="fill:none;stroke:#ff0000;stroke-width:0.05817781;stroke-linecap:butt;stroke-linejoin:miter;stroke-miterlimit:4;stroke-dasharray:none;stroke-opacity:1"
       d="m 8.9258424,3.9701456 c -0.05151,-0.944502 0.947848,-1.459174 1.5517016,-1.293343 0.603848,0.165854 0.853389,0.693279 1.031321,1.047958 0.338936,-0.206347 0.830198,-0.521196 1.430092,-0.341574 0.599903,0.179599 1.174236,1.145924 0.629705,1.919371 -0.544531,0.773446 -3.053558,1.884969 -3.053558,1.884969 0,0 -1.5377576,-2.272887 -1.5892636,-3.217387 0,0 2e-6,6e-6 2e-6,6e-6"
       id="path2146" />
    <path
       id="path820"
       d="m 28.063476,4.9174912 c 1.121597,-0.1872516 1.869518,0.9382405 1.75176,1.6817723 -0.117786,0.7435277 -0.714719,1.1118677 -1.114793,1.3716601 0.291646,0.3774831 0.7332,0.9225182 0.598438,1.6631551 -0.134733,0.7406443 -1.212818,1.5554473 -2.209376,1.0078073 -0.996557,-0.547641 -2.658503,-3.397387 -2.658503,-3.397387 0,0 2.510885,-2.1397643 3.632481,-2.327011 0,0 -7e-6,3.2e-6 -7e-6,3.2e-6"
       style="fill:none;stroke:#ff0000;stroke-width:0.06993849;stroke-linecap:butt;stroke-linejoin:miter;stroke-miterlimit:4;stroke-dasharray:none;stroke-opacity:1"
       inkscape:connector-curvature="0"
       inkscape:spray-origin="#path2146" />
    <path
       id="path822"
       d="m 18.781257,0.49874603 c 1.0221,-0.6387418 2.21136,0.1595196 2.397966,0.93530807 0.186578,0.7757963 -0.248307,1.3788046 -0.534526,1.7956059 0.438816,0.2511659 1.092434,0.6055106 1.261217,1.3853687 0.168813,0.7798536 -0.555875,2.0153499 -1.753944,1.8838053 -1.198068,-0.1315453 -3.982336,-2.2468571 -3.982336,-2.2468571 0,0 1.589529,-3.1145008 2.611629,-3.75323677 0,0 -6e-6,5.9e-6 -6e-6,5.9e-6"
       style="fill:none;stroke:#ff0000;stroke-width:0.07413004;stroke-linecap:butt;stroke-linejoin:miter;stroke-miterlimit:4;stroke-dasharray:none;stroke-opacity:1"
       inkscape:connector-curvature="0"
       inkscape:spray-origin="#path2146" />
    <path
       id="path824"
       d="m 21.388652,9.2911093 c 1.126362,-0.5862615 2.309352,0.3505738 2.44113,1.1808167 0.131746,0.83025 -0.374917,1.427584 -0.710025,1.841654 0.440091,0.300117 1.097248,0.726379 1.209969,1.559421 0.112754,0.83304 -0.750636,2.070679 -1.998061,1.833357 -1.247423,-0.237324 -3.996612,-2.689454 -3.996612,-2.689454 0,0 1.927243,-3.1395449 3.053605,-3.7258004 0,0 -6e-6,5.7e-6 -6e-6,5.7e-6"
       style="fill:none;stroke:#ff0000;stroke-width:0.07809898;stroke-linecap:butt;stroke-linejoin:miter;stroke-miterlimit:4;stroke-dasharray:none;stroke-opacity:1"
       inkscape:connector-curvature="0"
       inkscape:spray-origin="#path2146" />
    <path
       id="path830"
       d="m 23.793286,19.077136 c -0.0906,0.56572 -0.748181,0.74226 -1.084381,0.566672 -0.336196,-0.175601 -0.416293,-0.519815 -0.47615,-0.752587 -0.227096,0.0787 -0.558275,0.202091 -0.890365,0.01885 -0.332097,-0.183232 -0.548189,-0.828903 -0.126679,-1.216944 0.421511,-0.388041 2.049289,-0.72434 2.049289,-0.72434 0,0 0.618893,1.542638 0.528287,2.108356 0,0 -1e-6,-3e-6 -1e-6,-3e-6"
       style="fill:none;stroke:#ff0000;stroke-width:0.03523798;stroke-linecap:butt;stroke-linejoin:miter;stroke-miterlimit:4;stroke-dasharray:none;stroke-opacity:1"
       inkscape:connector-curvature="0"
       inkscape:spray-origin="#path2146" />
    <path
       id="path834"
       d="m 29.370884,19.702859 c -1.303286,0.181314 -2.133025,-1.144116 -1.973417,-2.000483 0.159639,-0.856362 0.861724,-1.263654 1.332679,-1.551579 -0.325483,-0.445825 -0.819098,-1.09018 -0.639912,-1.942664 0.179152,-0.852492 1.45185,-1.761089 2.587378,-1.096259 1.135526,0.664831 2.968305,4.013529 2.968305,4.013529 0,0 -2.971757,2.396151 -4.275041,2.57746 0,0 8e-6,-4e-6 8e-6,-4e-6"
       style="fill:none;stroke:#ff0000;stroke-width:0.08093046;stroke-linecap:butt;stroke-linejoin:miter;stroke-miterlimit:4;stroke-dasharray:none;stroke-opacity:1"
       inkscape:connector-curvature="0"
       inkscape:spray-origin="#path2146" />
    <path
       id="path836"
       d="M 33.635168,8.9808527 C 32.793377,9.0363737 32.324248,8.1503614 32.46601,7.6101575 32.607792,7.0699584 33.075622,6.842065 33.390122,6.6797843 33.202661,6.3796127 32.916891,5.9446969 33.070992,5.4078838 c 0.154081,-0.5368197 1.010028,-1.05882 1.705319,-0.5810517 0.695291,0.4777693 1.712014,2.7040587 1.712014,2.7040587 0,0 -2.011373,1.3944464 -2.853162,1.4499638 0,0 5e-6,-1.9e-6 5e-6,-1.9e-6"
       style="fill:none;stroke:#ff0000;stroke-width:0.05188675;stroke-linecap:butt;stroke-linejoin:miter;stroke-miterlimit:4;stroke-dasharray:none;stroke-opacity:1"
       inkscape:connector-curvature="0"
       inkscape:spray-origin="#path2146" />
    <path
       id="path838"
       d="m 40.715382,15.336461 c -0.961719,-0.796502 -0.565025,-2.226467 0.136879,-2.663203 0.701921,-0.436709 1.436814,-0.205941 1.940081,-0.06057 0.103721,-0.513471 0.238775,-1.271836 0.950498,-1.692374 0.71171,-0.420568 2.163121,-0.111309 2.424873,1.109674 0.261752,1.220982 -0.909302,4.649231 -0.909302,4.649231 0,0 -3.581324,-0.546259 -4.543037,-1.342764 0,0 8e-6,4e-6 8e-6,4e-6"
       style="fill:none;stroke:#ff0000;stroke-width:0.0768028;stroke-linecap:butt;stroke-linejoin:miter;stroke-miterlimit:4;stroke-dasharray:none;stroke-opacity:1"
       inkscape:connector-curvature="0"
       inkscape:spray-origin="#path2146" />
    <path
       id="path840"
       d="m 58.696659,6.852585 c 0.71517,0.1975758 0.848289,1.069203 0.574177,1.4767986 -0.274128,0.4075843 -0.728626,0.4614189 -1.036792,0.5051476 0.06879,0.3035558 0.180216,0.7474738 -0.103162,1.148681 -0.283362,0.4012188 -1.145327,0.5869498 -1.584451,-0.011107 -0.439124,-0.5980563 -0.639026,-2.741288 -0.639026,-2.741288 0,0 2.074092,-0.57581 2.789259,-0.3782318 0,0 -5e-6,-10e-8 -5e-6,-10e-8"
       style="fill:none;stroke:#ff0000;stroke-width:0.04563412;stroke-linecap:butt;stroke-linejoin:miter;stroke-miterlimit:4;stroke-dasharray:none;stroke-opacity:1"
       inkscape:connector-curvature="0"
       inkscape:spray-origin="#path2146" />
    <path
       id="path846"
       d="m 70.194051,8.0139452 c 0.07047,-0.9284229 1.111641,-1.3029894 1.679806,-1.0639423 0.568155,0.2390688 0.744284,0.7857387 0.872604,1.1546532 0.357183,-0.1580667 0.876906,-0.4025588 1.439442,-0.1505579 0.562549,0.2519796 0.999568,1.2685386 0.369228,1.9538146 -0.63034,0.6852752 -3.221256,1.4493782 -3.221256,1.4493782 0,0 -1.210298,-2.4149313 -1.139826,-3.3433519 0,0 2e-6,6.1e-6 2e-6,6.1e-6"
       style="fill:none;stroke:#ff0000;stroke-width:0.0572668;stroke-linecap:butt;stroke-linejoin:miter;stroke-miterlimit:4;stroke-dasharray:none;stroke-opacity:1"
       inkscape:connector-curvature="0"
       inkscape:spray-origin="#path2146" />
    <path
       id="path848"
       d="m 86.268624,11.309909 c 0.21436,-0.493397 0.853614,-0.500583 1.118438,-0.262464 0.264815,0.238129 0.257378,0.569879 0.257524,0.795551 0.224903,-0.0186 0.554897,-0.05359 0.814195,0.190536 0.259309,0.244114 0.305246,0.881766 -0.168635,1.136378 -0.473881,0.254611 -2.032811,0.180801 -2.032811,0.180801 0,0 -0.203072,-1.547409 0.01129,-2.040805 0,0 -10e-7,3e-6 -10e-7,3e-6"
       style="fill:none;stroke:#ff0000;stroke-width:0.03308663;stroke-linecap:butt;stroke-linejoin:miter;stroke-miterlimit:4;stroke-dasharray:none;stroke-opacity:1"
       inkscape:connector-curvature="0"
       inkscape:spray-origin="#path2146" />
    <path
       id="path850"
       d="M 84.888483,4.500809 C 84.244043,5.1006214 83.280457,4.6930477 83.039055,4.1625569 82.797672,3.6320556 83.025938,3.1392961 83.173408,2.8006931 82.823877,2.6814144 82.305991,2.5179266 82.076807,1.9820456 81.8476,1.4461714 82.196,0.4596296 83.073451,0.3878375 c 0.877451,-0.071791 3.167548,1.0591488 3.167548,1.0591488 0,0 -0.708077,2.4540193 -1.352519,3.0538277 0,0 3e-6,-5e-6 3e-6,-5e-6"
       style="fill:none;stroke:#ff0000;stroke-width:0.054148;stroke-linecap:butt;stroke-linejoin:miter;stroke-miterlimit:4;stroke-dasharray:none;stroke-opacity:1"
       inkscape:connector-curvature="0"
       inkscape:spray-origin="#path2146" />
    <path
       id="path852"
       d="m 99.395539,15.710774 c -0.511196,0.661826 -1.477314,0.428889 -1.785611,-0.03095 -0.308281,-0.459851 -0.170567,-0.956975 -0.08473,-1.297125 -0.346032,-0.05772 -0.856684,-0.130842 -1.154364,-0.597622 -0.2977,-0.46677 -0.123773,-1.445251 0.687473,-1.648255 0.811246,-0.203004 3.132463,0.502696 3.132463,0.502696 0,0 -0.284035,2.409439 -0.795233,3.071261 0,0 3e-6,-5e-6 3e-6,-5e-6"
       style="fill:none;stroke:#ff0000;stroke-width:0.05143421;stroke-linecap:butt;stroke-linejoin:miter;stroke-miterlimit:4;stroke-dasharray:none;stroke-opacity:1"
       inkscape:connector-curvature="0"
       inkscape:spray-origin="#path2146" />
    <path
       id="path854"
       d="m 111.60343,19.661508 c -0.40924,0.567463 -1.22348,0.39927 -1.49392,0.02325 -0.27043,-0.376032 -0.16896,-0.795501 -0.10654,-1.082285 -0.29093,-0.03875 -0.71994,-0.08584 -0.98169,-0.467952 -0.26177,-0.382109 -0.14326,-1.205069 0.5295,-1.397135 0.67275,-0.192065 2.6331,0.334154 2.6331,0.334154 0,0 -0.17121,2.022512 -0.58045,2.589972 0,0 0,-4e-6 0,-4e-6"
       style="fill:none;stroke:#ff0000;stroke-width:0.04303096;stroke-linecap:butt;stroke-linejoin:miter;stroke-miterlimit:4;stroke-dasharray:none;stroke-opacity:1"
       inkscape:connector-curvature="0"
       inkscape:spray-origin="#path2146" />
    <path
       id="path856"
       d="m 97.171996,5.8430029 c 0.24285,0.6798957 -0.376572,1.2735606 -0.854428,1.283394 -0.477859,0.00982 -0.775014,-0.3218914 -0.98225,-0.5427563 -0.203174,0.2246071 -0.494234,0.5616928 -0.97219,0.5605756 -0.477957,-0.0011 -1.1081,-0.5833931 -0.877682,-1.2676028 0.230419,-0.6842088 1.824807,-2.0425196 1.824807,-2.0425196 0,0 1.618883,1.329018 1.861743,2.0089131 0,0 0,-4e-6 0,-4e-6"
       style="fill:none;stroke:#ff0000;stroke-width:0.04440455;stroke-linecap:butt;stroke-linejoin:miter;stroke-miterlimit:4;stroke-dasharray:none;stroke-opacity:1"
       inkscape:connector-curvature="0"
       inkscape:spray-origin="#path2146" />
    <path
       id="path858"
       d="m 103.16951,4.5981998 c 0.0901,-0.6195603 0.80578,-0.8228374 1.1759,-0.6362905 0.37011,0.1865613 0.46307,0.5613989 0.53214,0.8147906 0.24689,-0.089571 0.60681,-0.2296268 0.97255,-0.034649 0.36576,0.1949638 0.61207,0.8970395 0.15763,1.3276848 -0.45443,0.4306445 -2.2277,0.8237994 -2.2277,0.8237994 0,0 -0.70058,-1.6757805 -0.61052,-2.2953391 0,0 0,4.1e-6 0,4.1e-6"
       style="fill:none;stroke:#ff0000;stroke-width:0.03850653;stroke-linecap:butt;stroke-linejoin:miter;stroke-miterlimit:4;stroke-dasharray:none;stroke-opacity:1"
       inkscape:connector-curvature="0"
       inkscape:spray-origin="#path2146" />
    <path
       id="path860"
       d="m 91.274318,4.0644562 c 0.680508,0.2786664 0.708842,1.1520933 0.391086,1.5209105 -0.317769,0.3688051 -0.771371,0.368249 -1.07978,0.3749839 0.03194,0.3068236 0.0893,0.7567976 -0.236818,1.118237 -0.326108,0.3614525 -1.196223,0.4426987 -1.557911,-0.1975564 -0.361688,-0.6402549 -0.305962,-2.7729018 -0.305962,-2.7729018 0,0 2.108883,-0.3223412 2.789389,-0.043673 0,0 -4e-6,-6e-7 -4e-6,-6e-7"
       style="fill:none;stroke:#ff0000;stroke-width:0.04522794;stroke-linecap:butt;stroke-linejoin:miter;stroke-miterlimit:4;stroke-dasharray:none;stroke-opacity:1"
       inkscape:connector-curvature="0"
       inkscape:spray-origin="#path2146" />
    <path
       id="path862"
       d="m 91.93743,12.912253 c 0.818991,-0.224978 1.460834,0.55399 1.430257,1.115434 -0.0306,0.561442 -0.445914,0.880805 -0.723275,1.104449 0.245583,0.258139 0.615369,0.62929 0.571937,1.189884 -0.04341,0.560597 -0.782037,1.248504 -1.56438,0.9179 -0.782343,-0.330604 -2.235272,-2.320694 -2.235272,-2.320694 0,0 1.701747,-1.782001 2.520738,-2.006976 0,0 -5e-6,3e-6 -5e-6,3e-6"
       style="fill:none;stroke:#ff0000;stroke-width:0.05223798;stroke-linecap:butt;stroke-linejoin:miter;stroke-miterlimit:4;stroke-dasharray:none;stroke-opacity:1"
       inkscape:connector-curvature="0"
       inkscape:spray-origin="#path2146" />
    <path
       id="path864"
       d="m 110.73427,5.718633 c 0.66557,-0.8068367 1.86396,-0.476904 2.23092,0.1102961 0.36693,0.5872142 0.17484,1.2031369 0.0539,1.6249102 0.43025,0.086037 1.06568,0.1979179 1.41908,0.7933693 0.35343,0.5954395 0.0968,1.8116454 -0.92549,2.0328854 -1.02227,0.221238 -3.89568,-0.7540292 -3.89568,-0.7540292 0,0 0.45169,-3.000606 1.11727,-3.8074382 0,0 -10e-6,6.4e-6 -10e-6,6.4e-6"
       style="fill:none;stroke:#ff0000;stroke-width:0.06433006;stroke-linecap:butt;stroke-linejoin:miter;stroke-miterlimit:4;stroke-dasharray:none;stroke-opacity:1"
       inkscape:connector-curvature="0"
       inkscape:spray-origin="#path2146" />
    <path
       id="path866"
       d="m 81.119648,13.459949 c 0.298057,0.4346 -0.02851,0.968979 -0.363931,1.064941 -0.335425,0.09595 -0.606939,-0.0828 -0.794343,-0.20007 -0.10155,0.196369 -0.244171,0.488493 -0.581701,0.576744 -0.337527,0.08826 -0.890733,-0.205304 -0.855577,-0.731116 0.03516,-0.525812 0.907367,-1.781476 0.907367,-1.781476 0,0 1.390132,0.636379 1.688187,1.070979 0,0 -2e-6,-2e-6 -2e-6,-2e-6"
       style="fill:none;stroke:#ff0000;stroke-width:0.03241231;stroke-linecap:butt;stroke-linejoin:miter;stroke-miterlimit:4;stroke-dasharray:none;stroke-opacity:1"
       inkscape:connector-curvature="0"
       inkscape:spray-origin="#path2146" />
    <path
       id="path870"
       d="m 41.205599,-0.29876731 c 1.176101,0.2839835 1.439409,1.69749771 1.01433,2.37637771 -0.425105,0.6788643 -1.16299,0.7907717 -1.662919,0.8784287 0.128255,0.491082 0.333465,1.2086626 -0.107055,1.8776237 C 40.00946,5.5026427 38.614493,5.8511844 37.867,4.8998118 37.119508,3.9484404 36.679742,0.46599719 36.679742,0.46599719 c 0,0 3.349769,-1.0487525 4.525865,-0.7647648 0,0 -8e-6,3e-7 -8e-6,3e-7"
       style="fill:none;stroke:#ff0000;stroke-width:0.07441479;stroke-linecap:butt;stroke-linejoin:miter;stroke-miterlimit:4;stroke-dasharray:none;stroke-opacity:1"
       inkscape:connector-curvature="0"
       inkscape:spray-origin="#path2146" />
    <path
       id="path872"
       d="M 44.968572,7.7469266 C 44.41705,8.1932956 43.665021,7.8119616 43.500469,7.3720096 43.335933,6.9320499 43.546892,6.5485805 43.684308,6.2845551 43.409927,6.1691962 43.00265,6.0089194 42.84822,5.5653128 42.693773,5.1217115 43.028809,4.3479312 43.738275,4.3390614 c 0.709465,-0.00887 2.487732,1.0279004 2.487732,1.0279004 0,0 -0.705916,1.9336028 -1.257438,2.3799688 0,0 3e-6,-4e-6 3e-6,-4e-6"
       style="fill:none;stroke:#ff0000;stroke-width:0.04363907;stroke-linecap:butt;stroke-linejoin:miter;stroke-miterlimit:4;stroke-dasharray:none;stroke-opacity:1"
       inkscape:connector-curvature="0"
       inkscape:spray-origin="#path2146" />
    <path
       id="path874"
       d="m 51.142592,5.7245138 c -0.3939,0.6820826 -1.32501,0.5862017 -1.670637,0.1957614 C 49.126342,5.5298215 49.192344,5.0484651 49.229671,4.7201598 48.899413,4.709813 48.413555,4.7058094 48.076965,4.3075538 47.740358,3.9093105 47.779602,2.9740852 48.511304,2.6825309 c 0.731701,-0.2915541 2.98718,0.075131 2.98718,0.075131 0,0 0.03801,2.2847777 -0.355894,2.966857 0,0 2e-6,-5.1e-6 2e-6,-5.1e-6"
       style="fill:none;stroke:#ff0000;stroke-width:0.04844437;stroke-linecap:butt;stroke-linejoin:miter;stroke-miterlimit:4;stroke-dasharray:none;stroke-opacity:1"
       inkscape:connector-curvature="0"
       inkscape:spray-origin="#path2146" />
    <path
       id="path876"
       d="m 60.337699,10.437983 c -0.563183,-0.4593062 -0.338608,-1.2932337 0.06795,-1.5504821 0.406571,-0.2572328 0.835264,-0.1261644 1.128785,-0.043775 0.0581,-0.2992755 0.133367,-0.7412084 0.545714,-0.989073 0.412339,-0.2478818 1.258363,-0.074285 1.416059,0.6351292 0.157696,0.7094131 -0.508744,2.7096679 -0.508744,2.7096679 0,0 -2.086592,-0.302161 -2.649772,-0.761469 0,0 4e-6,2e-6 4e-6,2e-6"
       style="fill:none;stroke:#ff0000;stroke-width:0.04469751;stroke-linecap:butt;stroke-linejoin:miter;stroke-miterlimit:4;stroke-dasharray:none;stroke-opacity:1"
       inkscape:connector-curvature="0"
       inkscape:spray-origin="#path2146" />
    <path
       id="path878"
       d="m 67.752901,3.0225847 c -0.182839,-0.6030153 0.382358,-1.0942406 0.799349,-1.0825199 0.416992,0.011736 0.661953,0.313522 0.833232,0.5148627 0.186656,-0.1871743 0.454704,-0.46867 0.871317,-0.4473989 0.416614,0.021255 0.941217,0.5556325 0.711291,1.1423105 -0.229925,0.5866772 -1.677522,1.7030826 -1.677522,1.7030826 0,0 -1.354834,-1.2273259 -1.537669,-1.8303406 0,0 2e-6,3.6e-6 2e-6,3.6e-6"
       style="fill:none;stroke:#ff0000;stroke-width:0.03875577;stroke-linecap:butt;stroke-linejoin:miter;stroke-miterlimit:4;stroke-dasharray:none;stroke-opacity:1"
       inkscape:connector-curvature="0"
       inkscape:spray-origin="#path2146" />
    <path
       id="path882"
       d="M 80.657404,6.6677224 C 80.117527,6.7932983 79.719078,6.2687643 79.753506,5.9034313 79.787947,5.5380999 80.067019,5.3405584 80.253659,5.201875 80.100175,5.027204 79.868611,4.7756303 79.9114,4.4111837 c 0.04278,-0.3644501 0.54219,-0.7939784 1.043831,-0.5582008 0.501641,0.2357778 1.397753,1.5710242 1.397753,1.5710242 0,0 -1.155708,1.1181437 -1.695584,1.2437171 0,0 4e-6,-1.8e-6 4e-6,-1.8e-6"
       style="fill:none;stroke:#ff0000;stroke-width:0.03409147;stroke-linecap:butt;stroke-linejoin:miter;stroke-miterlimit:4;stroke-dasharray:none;stroke-opacity:1"
       inkscape:connector-curvature="0"
       inkscape:spray-origin="#path2146" />
    <path
       id="path884"
       d="m 132.41277,29.565656 c -1.07997,0.633349 -2.2915,-0.230302 -2.46258,-1.041298 -0.17104,-0.811004 0.29815,-1.424422 0.60754,-1.848837 -0.4483,-0.27363 -1.11663,-0.660677 -1.26908,-1.475377 -0.15248,-0.814699 0.63613,-2.076384 1.8763,-1.90476 1.24016,0.171623 4.06935,2.449475 4.06935,2.449475 0,0 -1.74156,3.18746 -2.82154,3.820803 0,0 1e-5,-6e-6 1e-5,-6e-6"
       style="fill:none;stroke:#ff0000;stroke-width:0.07700343;stroke-linecap:butt;stroke-linejoin:miter;stroke-miterlimit:4;stroke-dasharray:none;stroke-opacity:1"
       inkscape:connector-curvature="0"
       inkscape:spray-origin="#path2146" />
    <path
       id="path886"
       d="m 103.95272,13.895913 c 0.50336,-0.01762 0.76698,0.519752 0.67242,0.839502 -0.0946,0.319747 -0.37793,0.447119 -0.5686,0.538162 0.10633,0.182581 0.26885,0.447381 0.16699,0.764881 -0.10184,0.317504 -0.62224,0.613228 -1.02834,0.315307 -0.40611,-0.297919 -0.9718,-1.645183 -0.9718,-1.645183 0,0 1.22598,-0.795056 1.72933,-0.81267 0,0 0,1e-6 0,1e-6"
       style="fill:none;stroke:#ff0000;stroke-width:0.03097785;stroke-linecap:butt;stroke-linejoin:miter;stroke-miterlimit:4;stroke-dasharray:none;stroke-opacity:1"
       inkscape:connector-curvature="0"
       inkscape:spray-origin="#path2146" />
    <path
       id="path888"
       d="m 119.208,23.668327 c 0.31333,-1.320033 1.8972,-1.621429 2.6603,-1.147724 0.76308,0.473734 0.89177,1.300663 0.99224,1.860868 0.55011,-0.14595 1.35386,-0.379176 2.1059,0.111887 0.75206,0.491035 1.14895,2.053743 0.0854,2.896064 -1.06356,0.842319 -4.96662,1.350571 -4.96662,1.350571 0,0 -1.19055,-3.751646 -0.87722,-5.071675 0,0 0,9e-6 0,9e-6"
       style="fill:none;stroke:#ff0000;stroke-width:0.08344433;stroke-linecap:butt;stroke-linejoin:miter;stroke-miterlimit:4;stroke-dasharray:none;stroke-opacity:1"
       inkscape:connector-curvature="0"
       inkscape:spray-origin="#path2146" />
    <path
       id="path892"
       d="m 143.16463,29.816892 c 1.12274,0.546682 1.07522,2.029936 0.49639,2.620196 -0.57885,0.590238 -1.34749,0.539677 -1.87087,0.517354 0.0206,0.523455 0.0685,1.292279 -0.52365,1.86912 -0.59218,0.576867 -2.07561,0.619372 -2.61851,-0.505203 -0.5429,-1.124574 -0.21518,-4.732574 -0.21518,-4.732574 0,0 3.60909,-0.315575 4.73182,0.231109 0,0 0,-2e-6 0,-2e-6"
       style="fill:none;stroke:#ff0000;stroke-width:0.07680518;stroke-linecap:butt;stroke-linejoin:miter;stroke-miterlimit:4;stroke-dasharray:none;stroke-opacity:1"
       inkscape:connector-curvature="0"
       inkscape:spray-origin="#path2146" />
    <path
       id="path896"
       d="m 143.07912,27.818233 c -0.57388,-0.09933 -0.74492,-0.769982 -0.56215,-1.109474 0.18279,-0.339485 0.53369,-0.416504 0.77106,-0.474371 -0.0771,-0.231839 -0.19829,-0.570047 -0.008,-0.905262 0.19049,-0.335223 0.84955,-0.546623 1.23859,-0.113215 0.38904,0.433408 0.71008,2.092279 0.71008,2.092279 0,0 -1.57594,0.60937 -2.14982,0.510043 0,0 1e-5,0 1e-5,0"
       style="fill:none;stroke:#ff0000;stroke-width:0.03582089;stroke-linecap:butt;stroke-linejoin:miter;stroke-miterlimit:4;stroke-dasharray:none;stroke-opacity:1"
       inkscape:connector-curvature="0"
       inkscape:spray-origin="#path2146" />
    <path
       id="path902"
       d="M 99.113518,3.8089323 C 98.53303,3.627202 98.448149,2.9093432 98.684053,2.5829889 98.919969,2.2566435 99.293854,2.2251486 99.547562,2.197871 99.499622,1.9472454 99.420647,1.5804302 99.663966,1.259568 c 0.243307,-0.32087301 0.954714,-0.44913051 1.297904,0.053072 0.3432,0.5022018 0.44751,2.2637974 0.44751,2.2637974 0,0 -1.71538,0.4142273 -2.295867,0.232495 0,0 5e-6,3e-7 5e-6,3e-7"
       style="fill:none;stroke:#ff0000;stroke-width:0.03741157;stroke-linecap:butt;stroke-linejoin:miter;stroke-miterlimit:4;stroke-dasharray:none;stroke-opacity:1"
       inkscape:connector-curvature="0"
       inkscape:spray-origin="#path2146" />
    <path
       id="path914"
       d="m 112.922,19.77809 c -0.0522,-0.986082 0.99184,-1.521759 1.62196,-1.34767 0.63011,0.174112 0.88977,0.725112 1.07495,1.09566 0.35416,-0.214867 0.86751,-0.542759 1.49347,-0.35428 0.62597,0.188455 1.22399,1.198161 0.65429,2.004714 -0.5697,0.806552 -3.19076,1.962873 -3.19076,1.962873 0,0 -1.60166,-2.375223 -1.65391,-3.361303 0,0 0,6e-6 0,6e-6"
       style="fill:none;stroke:#ff0000;stroke-width:0.06073398;stroke-linecap:butt;stroke-linejoin:miter;stroke-miterlimit:4;stroke-dasharray:none;stroke-opacity:1"
       inkscape:connector-curvature="0"
       inkscape:spray-origin="#path2146" />
    <path
       id="path916"
       d="m 139.07516,24.397153 c -1.22672,0.389529 -2.24509,-0.751716 -2.23228,-1.603694 0.0128,-0.851979 0.62266,-1.360345 1.02931,-1.715541 -0.38727,-0.376229 -0.96935,-0.916176 -0.93703,-1.767636 0.0323,-0.851463 1.1097,-1.937177 2.31407,-1.48324 1.20437,0.453936 3.52316,3.38071 3.52316,3.38071 0,0 -2.47052,2.799883 -3.69724,3.189406 0,0 1e-5,-5e-6 1e-5,-5e-6"
       style="fill:none;stroke:#ff0000;stroke-width:0.07916167;stroke-linecap:butt;stroke-linejoin:miter;stroke-miterlimit:4;stroke-dasharray:none;stroke-opacity:1"
       inkscape:connector-curvature="0"
       inkscape:spray-origin="#path2146" />
    <path
       id="path924"
       d="m 120.93003,13.86476 c -0.96984,0.03395 -1.47777,-1.001418 -1.2956,-1.617495 0.1822,-0.616071 0.72819,-0.861487 1.09555,-1.036906 -0.20488,-0.351784 -0.51801,-0.861984 -0.32177,-1.4737236 0.19622,-0.6117497 1.1989,-1.1815398 1.98136,-0.6075298 0.78246,0.57401 1.87241,3.1698314 1.87241,3.1698314 0,0 -2.36212,1.53188 -3.33196,1.565825 0,0 1e-5,-2e-6 1e-5,-2e-6"
       style="fill:none;stroke:#ff0000;stroke-width:0.05968629;stroke-linecap:butt;stroke-linejoin:miter;stroke-miterlimit:4;stroke-dasharray:none;stroke-opacity:1"
       inkscape:connector-curvature="0"
       inkscape:spray-origin="#path2146" />
    <path
       id="path934"
       d="m 128.2245,19.00293 c 0.43246,-0.549531 1.23853,-0.347446 1.49284,0.03939 0.2543,0.386847 0.13538,0.801485 0.061,1.085259 0.28891,0.05089 0.71535,0.11589 0.96073,0.50845 0.24539,0.392553 0.0926,1.209413 -0.58732,1.373021 -0.67988,0.163606 -2.61547,-0.444045 -2.61547,-0.444045 0,0 0.25573,-2.012553 0.68819,-2.562081 0,0 0,4e-6 0,4e-6"
       style="fill:none;stroke:#ff0000;stroke-width:0.04300955;stroke-linecap:butt;stroke-linejoin:miter;stroke-miterlimit:4;stroke-dasharray:none;stroke-opacity:1"
       inkscape:connector-curvature="0"
       inkscape:spray-origin="#path2146" />
    <path
       id="path938"
       d="m 128.00319,14.27452 c 0.5429,0.172385 0.61965,0.844929 0.3975,1.149637 -0.22216,0.3047 -0.57239,0.33277 -0.81008,0.357347 0.0439,0.234875 0.1165,0.57867 -0.11257,0.878208 -0.22906,0.299547 -0.89572,0.416943 -1.21519,-0.05464 -0.31946,-0.471579 -0.41044,-2.121576 -0.41044,-2.121576 0,0 1.6079,-0.381366 2.15079,-0.208979 0,0 -1e-5,0 -1e-5,0"
       style="fill:none;stroke:#ff0000;stroke-width:0.03503338;stroke-linecap:butt;stroke-linejoin:miter;stroke-miterlimit:4;stroke-dasharray:none;stroke-opacity:1"
       inkscape:connector-curvature="0"
       inkscape:spray-origin="#path2146" />
    <path
       id="path940"
       d="m 120.28915,17.825204 c -0.64133,0.02431 -0.97923,-0.65945 -0.85993,-1.067238 0.11931,-0.407783 0.47993,-0.571131 0.72254,-0.687847 -0.13617,-0.232258 -0.34423,-0.569075 -0.21562,-0.974021 0.1286,-0.404951 0.79062,-0.783698 1.30919,-0.405579 0.51858,0.378119 1.24438,2.092758 1.24438,2.092758 0,0 -1.55924,1.017622 -2.20057,1.041929 0,0 1e-5,-2e-6 1e-5,-2e-6"
       style="fill:none;stroke:#ff0000;stroke-width:0.03947326;stroke-linecap:butt;stroke-linejoin:miter;stroke-miterlimit:4;stroke-dasharray:none;stroke-opacity:1"
       inkscape:connector-curvature="0"
       inkscape:spray-origin="#path2146" />
    <path
       id="path946"
       d="m 128.59899,27.876831 c 0.54603,0.375348 0.40418,1.149882 0.0539,1.413971 -0.35025,0.264077 -0.74958,0.17696 -1.02244,0.123992 -0.0305,0.276283 -0.0659,0.683476 -0.42209,0.939471 -0.3562,0.25601 -1.13792,0.161383 -1.33414,-0.471485 -0.19622,-0.63287 0.26013,-2.500193 0.26013,-2.500193 0,0 1.9186,0.118896 2.46462,0.494246 0,0 0,-2e-6 0,-2e-6"
       style="fill:none;stroke:#ff0000;stroke-width:0.04075266;stroke-linecap:butt;stroke-linejoin:miter;stroke-miterlimit:4;stroke-dasharray:none;stroke-opacity:1"
       inkscape:connector-curvature="0"
       inkscape:spray-origin="#path2146" />
    <path
       id="path948"
       d="m 135.19065,18.597578 c 0.1581,0.666664 -0.48814,1.161976 -0.93991,1.121368 -0.45176,-0.04063 -0.69743,-0.384529 -0.86985,-0.614494 -0.21509,0.190651 -0.52482,0.478223 -0.97553,0.427275 -0.45072,-0.05093 -0.98432,-0.665962 -0.69555,-1.28729 0.28877,-0.621326 1.93447,-1.736113 1.93447,-1.736113 0,0 1.38828,1.422595 1.54638,2.089258 0,0 -1e-5,-4e-6 -1e-5,-4e-6"
       style="fill:none;stroke:#ff0000;stroke-width:0.04214033;stroke-linecap:butt;stroke-linejoin:miter;stroke-miterlimit:4;stroke-dasharray:none;stroke-opacity:1"
       inkscape:connector-curvature="0"
       inkscape:spray-origin="#path2146" />
    <path
       id="path958"
       d="m 145.84767,39.20909 c -0.62153,0.412214 -1.37051,-0.06163 -1.49893,-0.538374 -0.1284,-0.476745 0.13049,-0.85702 0.30055,-1.119627 -0.27563,-0.14801 -0.68586,-0.356244 -0.80333,-0.835799 -0.11748,-0.479553 0.31009,-1.255909 1.05336,-1.194608 0.74327,0.0613 2.50091,1.3231 2.50091,1.3231 0,0 -0.93104,1.953102 -1.55257,2.365312 0,0 1e-5,-4e-6 1e-5,-4e-6"
       style="fill:none;stroke:#ff0000;stroke-width:0.04587008;stroke-linecap:butt;stroke-linejoin:miter;stroke-miterlimit:4;stroke-dasharray:none;stroke-opacity:1"
       inkscape:connector-curvature="0"
       inkscape:spray-origin="#path2146" />
    <path
       id="path968"
       d="m 150.15492,23.613138 c 0.83147,0.460449 0.73598,1.585909 0.27241,2.011373 -0.46359,0.425447 -1.04578,0.356251 -1.44269,0.318336 -0.005,0.398679 3.9e-4,0.984953 -0.47281,1.399683 -0.47318,0.414749 -1.60238,0.38768 -1.97,-0.488794 -0.36763,-0.876474 0.0259,-3.605653 0.0259,-3.605653 0,0 2.75576,-0.0954 3.58722,0.365056 0,0 0,-1e-6 0,-1e-6"
       style="fill:none;stroke:#ff0000;stroke-width:0.05845741;stroke-linecap:butt;stroke-linejoin:miter;stroke-miterlimit:4;stroke-dasharray:none;stroke-opacity:1"
       inkscape:connector-curvature="0"
       inkscape:spray-origin="#path2146" />
    <path
       id="path972"
       d="m 109.36287,12.454588 c 0.61382,0.03438 0.87471,0.716807 0.72434,1.095006 -0.15039,0.378194 -0.50897,0.501616 -0.75083,0.591153 0.10902,0.233726 0.27722,0.573622 0.11822,0.948277 -0.15899,0.374661 -0.82436,0.676455 -1.28498,0.2693 -0.46063,-0.407155 -0.99894,-2.107552 -0.99894,-2.107552 0,0 1.57838,-0.830564 2.1922,-0.796185 0,0 -1e-5,10e-7 -1e-5,10e-7"
       style="fill:none;stroke:#ff0000;stroke-width:0.03781204;stroke-linecap:butt;stroke-linejoin:miter;stroke-miterlimit:4;stroke-dasharray:none;stroke-opacity:1"
       inkscape:connector-curvature="0"
       inkscape:spray-origin="#path2146" />
    <path
       id="path978"
       d="m 66.221251,13.608426 c 3.95e-4,-0.691598 0.750674,-1.027125 1.184841,-0.881767 0.434162,0.145374 0.595118,0.540456 0.710747,0.806545 0.255739,-0.137006 0.627048,-0.347094 1.057769,-0.191828 0.430729,0.15525 0.811139,0.883814 0.382492,1.426555 -0.428648,0.542741 -2.305061,1.253257 -2.305061,1.253257 0,0 -1.031186,-1.72117 -1.030789,-2.412766 0,0 10e-7,4e-6 10e-7,4e-6"
       style="fill:none;stroke:#ff0000;stroke-width:0.04253669;stroke-linecap:butt;stroke-linejoin:miter;stroke-miterlimit:4;stroke-dasharray:none;stroke-opacity:1"
       inkscape:connector-curvature="0"
       inkscape:spray-origin="#path2146" />
    <path
       id="path984"
       d="m 60.45734,3.8860134 c -0.358721,-0.9913621 0.542227,-1.8619899 1.239963,-1.8792226 0.697737,-0.017206 1.133655,0.465384 1.437601,0.7866575 0.295335,-0.3292058 0.71833,-0.8231877 1.416276,-0.8244302 0.697947,-0.00127 1.621619,0.8452407 1.289262,1.8457482 -0.332357,1.0005065 -2.652404,2.9935758 -2.652404,2.9935758 0,0 -2.371985,-1.9309732 -2.730702,-2.9223344 0,0 4e-6,5.7e-6 4e-6,5.7e-6"
       style="fill:none;stroke:#ff0000;stroke-width:0.0648426;stroke-linecap:butt;stroke-linejoin:miter;stroke-miterlimit:4;stroke-dasharray:none;stroke-opacity:1"
       inkscape:connector-curvature="0"
       inkscape:spray-origin="#path2146" />
    <path
       id="path986"
       d="m 23.729338,3.692894 c -0.332897,-0.4144212 -0.04514,-0.9767824 0.284923,-1.0988523 0.330065,-0.1220574 0.616774,0.037045 0.814201,0.1407222 0.08718,-0.2052458 0.208379,-0.5099315 0.541148,-0.6244072 0.332765,-0.114489 0.91155,0.1386445 0.916243,0.6701913 0.0047,0.5315465 -0.776935,1.8609489 -0.776935,1.8609489 0,0 -1.446688,-0.5341836 -1.779583,-0.948605 0,0 3e-6,2.1e-6 3e-6,2.1e-6"
       style="fill:none;stroke:#ff0000;stroke-width:0.03269406;stroke-linecap:butt;stroke-linejoin:miter;stroke-miterlimit:4;stroke-dasharray:none;stroke-opacity:1"
       inkscape:connector-curvature="0"
       inkscape:spray-origin="#path2146" />
    <path
       id="path988"
       d="m 74.492388,4.8024912 c -0.457919,-0.4715271 -0.168955,-1.1972231 0.223193,-1.385812 0.392156,-0.188574 0.763577,-0.025993 1.018653,0.078719 0.0835,-0.2627866 0.197329,-0.6519377 0.593693,-0.8314915 0.396359,-0.1795704 1.138254,0.064861 1.205736,0.7186738 0.06748,0.6538128 -0.740416,2.3811018 -0.740416,2.3811018 0,0 -1.842948,-0.4896658 -2.300863,-0.9611937 0,0 4e-6,2.3e-6 4e-6,2.3e-6"
       style="fill:none;stroke:#ff0000;stroke-width:0.0404264;stroke-linecap:butt;stroke-linejoin:miter;stroke-miterlimit:4;stroke-dasharray:none;stroke-opacity:1"
       inkscape:connector-curvature="0"
       inkscape:spray-origin="#path2146" />
    <path
       id="path990"
       d="m 52.040239,19.611515 c -0.630123,0.306703 -1.268856,-0.227724 -1.329221,-0.687724 -0.06035,-0.460005 0.228051,-0.782026 0.419082,-1.005487 -0.238338,-0.172113 -0.594557,-0.417045 -0.644367,-0.878307 -0.04983,-0.461262 0.444891,-1.131236 1.129566,-0.981771 0.684674,0.149465 2.164961,1.543147 2.164961,1.543147 0,0 -1.109903,1.703445 -1.740025,2.010145 0,0 4e-6,-3e-6 4e-6,-3e-6"
       style="fill:none;stroke:#ff0000;stroke-width:0.04310265;stroke-linecap:butt;stroke-linejoin:miter;stroke-miterlimit:4;stroke-dasharray:none;stroke-opacity:1"
       inkscape:connector-curvature="0"
       inkscape:spray-origin="#path2146" />
    <path
       id="path996"
       d="m 55.392287,2.1155917 c 0.118042,-0.5719208 0.795672,-0.7217145 1.130009,-0.5275973 0.334331,0.1941302 0.400203,0.5482795 0.450544,0.7880302 0.234829,-0.069782 0.57768,-0.1803364 0.907481,0.021389 0.329811,0.2017138 0.520422,0.8690234 0.07353,1.2449391 -0.446893,0.3759152 -2.11972,0.6441675 -2.11972,0.6441675 0,0 -0.559887,-1.5990137 -0.441842,-2.1709326 0,0 0,3.8e-6 0,3.8e-6"
       style="fill:none;stroke:#ff0000;stroke-width:0.03591735;stroke-linecap:butt;stroke-linejoin:miter;stroke-miterlimit:4;stroke-dasharray:none;stroke-opacity:1"
       inkscape:connector-curvature="0"
       inkscape:spray-origin="#path2146" />
    <path
       id="path1008"
       d="m 9.0039806,18.000908 c -0.9937809,-0.39979 -1.0429249,-1.67182 -0.5833859,-2.211925 0.4595589,-0.540088 1.1203069,-0.543364 1.5694929,-0.555954 -0.04929,-0.44665 -0.136905,-1.101592 0.3348864,-1.631025 0.471772,-0.529453 1.7385,-0.655641 2.271127,0.273734 0.532626,0.929374 0.470671,4.036417 0.470671,4.036417 0,0 -3.0690224,0.488545 -4.0627984,0.08875 0,0 7e-6,1e-6 7e-6,1e-6"
       style="fill:none;stroke:#ff0000;stroke-width:0.06588297;stroke-linecap:butt;stroke-linejoin:miter;stroke-miterlimit:4;stroke-dasharray:none;stroke-opacity:1"
       inkscape:connector-curvature="0"
       inkscape:spray-origin="#path2146" />
    <path
       id="path1016"
       d="m 36.56123,13.140493 c 0.496764,-0.342518 1.10956,0.02988 1.220394,0.413656 0.11082,0.383786 -0.09307,0.69518 -0.226808,0.910093 0.225131,0.115712 0.560019,0.278179 0.662032,0.664398 0.102027,0.386215 -0.232527,1.020474 -0.834682,0.981722 -0.602154,-0.03875 -2.042378,-1.033841 -2.042378,-1.033841 0,0 0.72468,-1.593516 1.221445,-1.936031 0,0 -3e-6,3e-6 -3e-6,3e-6"
       style="fill:none;stroke:#ff0000;stroke-width:0.03711212;stroke-linecap:butt;stroke-linejoin:miter;stroke-miterlimit:4;stroke-dasharray:none;stroke-opacity:1"
       inkscape:connector-curvature="0"
       inkscape:spray-origin="#path2146" />
    <path
       id="path1028"
       d="m 75.773003,17.122017 c -0.608322,0.554824 -1.50557,0.164567 -1.726303,-0.333806 -0.220713,-0.498382 -0.0026,-0.957031 0.138519,-1.272282 -0.325737,-0.11485 -0.808496,-0.272634 -1.017751,-0.775932 -0.209276,-0.503292 0.125859,-1.422567 0.947092,-1.481406 0.821231,-0.05884 2.952131,1.02042 2.952131,1.02042 0,0 -0.685367,2.288191 -1.293691,2.843011 0,0 3e-6,-5e-6 3e-6,-5e-6"
       style="fill:none;stroke:#ff0000;stroke-width:0.05063932;stroke-linecap:butt;stroke-linejoin:miter;stroke-miterlimit:4;stroke-dasharray:none;stroke-opacity:1"
       inkscape:connector-curvature="0"
       inkscape:spray-origin="#path2146" />
    <path
       id="path1034"
       d="m 13.724478,8.3693785 c 0.837841,-0.022154 1.268862,0.8757829 1.106977,1.4065058 -0.161904,0.5307167 -0.635254,0.7386337 -0.95382,0.8874177 0.174343,0.305328 0.441002,0.74827 0.267002,1.275143 -0.173981,0.526881 -1.044142,1.011565 -1.715666,0.510047 C 11.757448,11.946972 10.8353,9.6970656 10.8353,9.6970656 c 0,0 2.051344,-1.3055387 2.889183,-1.3276888 0,0 -5e-6,1.7e-6 -5e-6,1.7e-6"
       style="fill:none;stroke:#ff0000;stroke-width:0.05154932;stroke-linecap:butt;stroke-linejoin:miter;stroke-miterlimit:4;stroke-dasharray:none;stroke-opacity:1"
       inkscape:connector-curvature="0"
       inkscape:spray-origin="#path2146" />
    <path
       id="path1036"
       d="m 17.521979,15.474036 c 0.293186,0.420895 -0.02088,0.943333 -0.346673,1.039113 -0.325796,0.09577 -0.591336,-0.07629 -0.774572,-0.189101 -0.09745,0.191851 -0.234195,0.477193 -0.562096,0.565483 -0.327898,0.0883 -0.868428,-0.193512 -0.837937,-0.705548 0.03049,-0.512035 0.870533,-1.740387 0.870533,-1.740387 0,0 1.357561,0.609548 1.650748,1.030442 0,0 -3e-6,-2e-6 -3e-6,-2e-6"
       style="fill:none;stroke:#ff0000;stroke-width:0.03154854;stroke-linecap:butt;stroke-linejoin:miter;stroke-miterlimit:4;stroke-dasharray:none;stroke-opacity:1"
       inkscape:connector-curvature="0"
       inkscape:spray-origin="#path2146" />
    <path
       id="path1046"
       d="m 55.428699,13.260276 c 0.02183,1.151382 -1.216328,1.734354 -1.943851,1.506477 -0.727517,-0.227905 -1.008318,-0.880403 -1.209466,-1.319627 -0.421299,0.2364 -1.032623,0.598224 -1.754732,0.35374 -0.722121,-0.244458 -1.37911,-1.445001 -0.683143,-2.362488 0.695967,-0.917485 3.796711,-2.1613456 3.796711,-2.1613456 0,0 1.772663,2.8318716 1.794483,3.9832506 0,0 -2e-6,-7e-6 -2e-6,-7e-6"
       style="fill:none;stroke:#ff0000;stroke-width:0.07082833;stroke-linecap:butt;stroke-linejoin:miter;stroke-miterlimit:4;stroke-dasharray:none;stroke-opacity:1"
       inkscape:connector-curvature="0"
       inkscape:spray-origin="#path2146" />
    <path
       id="path1058"
       d="m 73.126279,20.72452 c -0.3263,0.435026 -0.956623,0.292452 -1.161309,-0.0037 -0.204675,-0.296163 -0.119703,-0.620664 -0.06702,-0.842623 -0.225523,-0.03435 -0.558228,-0.0772 -0.756075,-0.377967 -0.19786,-0.300762 -0.09377,-0.93858 0.431848,-1.078035 0.525615,-0.139454 2.041385,0.298058 2.041385,0.298058 0,0 -0.162529,1.569256 -0.488831,2.00428 0,0 2e-6,-3e-6 2e-6,-3e-6"
       style="fill:none;stroke:#ff0000;stroke-width:0.03344645;stroke-linecap:butt;stroke-linejoin:miter;stroke-miterlimit:4;stroke-dasharray:none;stroke-opacity:1"
       inkscape:connector-curvature="0"
       inkscape:spray-origin="#path2146" />
    <path
       id="path1060"
       d="m 83.818752,19.496449 c -0.878912,0.203357 -1.526413,-0.651102 -1.469688,-1.245633 0.05675,-0.594529 0.511324,-0.915508 0.815353,-1.140868 -0.249473,-0.284577 -0.625876,-0.694463 -0.555544,-1.287537 0.07031,-0.593078 0.883944,-1.291211 1.699942,-0.90652 0.815997,0.384691 2.271932,2.559565 2.271932,2.559565 0,0 -1.883089,1.817642 -2.762,2.020996 0,0 5e-6,-3e-6 5e-6,-3e-6"
       style="fill:none;stroke:#ff0000;stroke-width:0.05548551;stroke-linecap:butt;stroke-linejoin:miter;stroke-miterlimit:4;stroke-dasharray:none;stroke-opacity:1"
       inkscape:connector-curvature="0"
       inkscape:spray-origin="#path2146" />
    <path
       id="path1062"
       d="m 66.796685,7.9218229 c 0.535723,-0.426831 1.258887,-0.053141 1.414486,0.3727923 0.155584,0.4259391 -0.05091,0.794567 -0.185515,1.0484325 0.264025,0.1133937 0.656012,0.2711317 0.801812,0.7005173 0.145817,0.42938 -0.183339,1.173885 -0.8683,1.1772 -0.684959,0.0033 -2.393972,-1.010702 -2.393972,-1.010702 0,0 0.695769,-1.861416 1.231492,-2.2882439 0,0 -3e-6,3.8e-6 -3e-6,3.8e-6"
       style="fill:none;stroke:#ff0000;stroke-width:0.04212898;stroke-linecap:butt;stroke-linejoin:miter;stroke-miterlimit:4;stroke-dasharray:none;stroke-opacity:1"
       inkscape:connector-curvature="0"
       inkscape:spray-origin="#path2146" />
    <path
       id="path1066"
       d="m 134.36255,30.708857 c 0.42563,-0.335456 0.99621,-0.03679 1.11754,0.300843 0.12131,0.337636 -0.0436,0.628418 -0.15115,0.828705 0.20841,0.09081 0.51788,0.217247 0.63144,0.557568 0.11357,0.340318 -0.14995,0.927967 -0.69188,0.927732 -0.54193,-2.36e-4 -1.8898,-0.80962 -1.8898,-0.80962 0,0 0.55823,-1.469777 0.98386,-1.805231 0,0 -1e-5,3e-6 -1e-5,3e-6"
       style="fill:none;stroke:#ff0000;stroke-width:0.03333128;stroke-linecap:butt;stroke-linejoin:miter;stroke-miterlimit:4;stroke-dasharray:none;stroke-opacity:1"
       inkscape:connector-curvature="0"
       inkscape:spray-origin="#path2146" />
    <path
       id="path1074"
       d="m 67.879161,20.470744 c -0.432393,0.494248 -1.178482,0.265376 -1.398093,-0.109823 -0.219596,-0.375207 -0.08783,-0.758257 -0.0043,-1.020756 -0.268456,-0.06183 -0.665205,-0.143606 -0.876163,-0.523737 -0.210972,-0.380123 -0.02776,-1.138729 0.61783,-1.258971 0.645589,-0.120243 2.43116,0.54412 2.43116,0.54412 0,0 -0.338086,1.874926 -0.77048,2.369171 0,0 2e-6,-4e-6 2e-6,-4e-6"
       style="fill:none;stroke:#ff0000;stroke-width:0.04038979;stroke-linecap:butt;stroke-linejoin:miter;stroke-miterlimit:4;stroke-dasharray:none;stroke-opacity:1"
       inkscape:connector-curvature="0"
       inkscape:spray-origin="#path2146" />
    <path
       id="path1078"
       d="m 62.752043,19.346795 c -0.895615,0.86494 -2.268763,0.31374 -2.623936,-0.43009 -0.355146,-0.743845 -0.04522,-1.446563 0.154481,-1.929197 -0.49735,-0.159551 -1.233911,-0.377228 -1.571948,-1.128998 -0.338068,-0.751759 0.12886,-2.155826 1.367719,-2.280211 1.238857,-0.124384 4.506565,1.415093 4.506565,1.415093 0,0 -0.93727,3.488475 -1.832886,4.35341 0,0 5e-6,-7e-6 5e-6,-7e-6"
       style="fill:none;stroke:#ff0000;stroke-width:0.07657908;stroke-linecap:butt;stroke-linejoin:miter;stroke-miterlimit:4;stroke-dasharray:none;stroke-opacity:1"
       inkscape:connector-curvature="0"
       inkscape:spray-origin="#path2146" />
    <path
       id="path1084"
       d="m 98.145191,10.830403 c -0.0862,-0.53061 0.4474,-0.881862 0.79865,-0.824661 0.35126,0.05721 0.52415,0.340169 0.64614,0.529835 0.17906,-0.137094 0.437629,-0.344711 0.787479,-0.279477 0.34985,0.06522 0.73282,0.576554 0.47188,1.046539 -0.26095,0.469984 -1.611569,1.249779 -1.611569,1.249779 0,0 -1.00637,-1.191408 -1.09258,-1.722018 0,0 0,3e-6 0,3e-6"
       style="fill:none;stroke:#ff0000;stroke-width:0.03306307;stroke-linecap:butt;stroke-linejoin:miter;stroke-miterlimit:4;stroke-dasharray:none;stroke-opacity:1"
       inkscape:connector-curvature="0"
       inkscape:spray-origin="#path2146" />
  </g>
</svg>
