<?xml version="1.0" encoding="UTF-8" standalone="no"?>
<svg
   xmlns:dc="http://purl.org/dc/elements/1.1/"
   xmlns:cc="http://creativecommons.org/ns#"
   xmlns:rdf="http://www.w3.org/1999/02/22-rdf-syntax-ns#"
   xmlns:svg="http://www.w3.org/2000/svg"
   xmlns="http://www.w3.org/2000/svg"
   xmlns:sodipodi="http://sodipodi.sourceforge.net/DTD/sodipodi-0.dtd"
   xmlns:inkscape="http://www.inkscape.org/namespaces/inkscape"
   id="svg395"
   height="600.00000"
   width="1210.00000"
   version="1.1"
   sodipodi:docname="DoubleT_wLogo.svg"
   inkscape:version="0.92.2 (5c3e80d, 2017-08-06)">
  <sodipodi:namedview
     pagecolor="#ffffff"
     bordercolor="#666666"
     borderopacity="1"
     objecttolerance="10"
     gridtolerance="10"
     guidetolerance="10"
     inkscape:pageopacity="0"
     inkscape:pageshadow="2"
     inkscape:window-width="1920"
     inkscape:window-height="1001"
     id="namedview2568"
     showgrid="false"
     inkscape:zoom="2.061713"
     inkscape:cx="67.423692"
     inkscape:cy="470.58561"
     inkscape:window-x="-9"
     inkscape:window-y="-9"
     inkscape:window-maximized="1"
     inkscape:current-layer="svg395" />
  <metadata
     id="metadata2572">
    <rdf:RDF>
      <cc:Work
         rdf:about="">
        <dc:format>image/svg+xml</dc:format>
        <dc:type
           rdf:resource="http://purl.org/dc/dcmitype/StillImage" />
        <dc:title></dc:title>
      </cc:Work>
    </rdf:RDF>
  </metadata>
  <defs
     id="defs2570" />
  <path
     d="M 15.00,15.00 15.00,24.00 21.00,24.00 21.00,21.00 18.00,21.00 18.00,18.00 24.00,18.00 24.00,36.00 18.00,36.00 18.00,33.00 21.00,33.00 21.00,30.00 15.00,30.00 15.00,39.00 36.00,39.00 36.00,30.00 30.00,30.00 30.00,33.00 33.00,33.00 33.00,36.00 27.00,36.00 27.00,18.00 33.00,18.00 33.00,21.00 30.00,21.00 30.00,24.00 36.00,24.00 36.00,15.00 "
     style="fill:none;fill-rule:evenodd;stroke:#000000;stroke-width:1px;stroke-linecap:butt;stroke-linejoin:miter;stroke-opacity:1"
     id="path0" />
  <path
     d="M 27.00,27.00 48.00,27.00"
     style="fill:none;fill-rule:evenodd;stroke:#000000;stroke-width:1px;stroke-linecap:butt;stroke-linejoin:miter;stroke-opacity:1"
     id="path1" />
  <path
     d="M 15.00,39.00 15.00,48.00 21.00,48.00 21.00,45.00 18.00,45.00 18.00,42.00 24.00,42.00 24.00,60.00 18.00,60.00 18.00,57.00 21.00,57.00 21.00,54.00 15.00,54.00 15.00,63.00 36.00,63.00 36.00,54.00 30.00,54.00 30.00,57.00 33.00,57.00 33.00,60.00 27.00,60.00 27.00,42.00 33.00,42.00 33.00,45.00 30.00,45.00 30.00,48.00 36.00,48.00 36.00,39.00 "
     style="fill:none;fill-rule:evenodd;stroke:#000000;stroke-width:1px;stroke-linecap:butt;stroke-linejoin:miter;stroke-opacity:1"
     id="path2" />
  <path
     d="M 27.00,51.00 48.00,51.00"
     style="fill:none;fill-rule:evenodd;stroke:#000000;stroke-width:1px;stroke-linecap:butt;stroke-linejoin:miter;stroke-opacity:1"
     id="path3" />
  <path
     d="M 15.00,63.00 15.00,72.00 21.00,72.00 21.00,69.00 18.00,69.00 18.00,66.00 24.00,66.00 24.00,84.00 18.00,84.00 18.00,81.00 21.00,81.00 21.00,78.00 15.00,78.00 15.00,87.00 36.00,87.00 36.00,78.00 30.00,78.00 30.00,81.00 33.00,81.00 33.00,84.00 27.00,84.00 27.00,66.00 33.00,66.00 33.00,69.00 30.00,69.00 30.00,72.00 36.00,72.00 36.00,63.00 "
     style="fill:none;fill-rule:evenodd;stroke:#000000;stroke-width:1px;stroke-linecap:butt;stroke-linejoin:miter;stroke-opacity:1"
     id="path4" />
  <path
     d="M 27.00,75.00 48.00,75.00"
     style="fill:none;fill-rule:evenodd;stroke:#000000;stroke-width:1px;stroke-linecap:butt;stroke-linejoin:miter;stroke-opacity:1"
     id="path5" />
  <path
     d="M 15.00,87.00 15.00,96.00 21.00,96.00 21.00,93.00 18.00,93.00 18.00,90.00 24.00,90.00 24.00,108.00 18.00,108.00 18.00,105.00 21.00,105.00 21.00,102.00 15.00,102.00 15.00,111.00 36.00,111.00 36.00,102.00 30.00,102.00 30.00,105.00 33.00,105.00 33.00,108.00 27.00,108.00 27.00,90.00 33.00,90.00 33.00,93.00 30.00,93.00 30.00,96.00 36.00,96.00 36.00,87.00 "
     style="fill:none;fill-rule:evenodd;stroke:#000000;stroke-width:1px;stroke-linecap:butt;stroke-linejoin:miter;stroke-opacity:1"
     id="path6" />
  <path
     d="M 27.00,99.00 48.00,99.00"
     style="fill:none;fill-rule:evenodd;stroke:#000000;stroke-width:1px;stroke-linecap:butt;stroke-linejoin:miter;stroke-opacity:1"
     id="path7" />
  <path
     d="M 15.00,111.00 15.00,120.00 21.00,120.00 21.00,117.00 18.00,117.00 18.00,114.00 24.00,114.00 24.00,132.00 18.00,132.00 18.00,129.00 21.00,129.00 21.00,126.00 15.00,126.00 15.00,135.00 36.00,135.00 36.00,126.00 30.00,126.00 30.00,129.00 33.00,129.00 33.00,132.00 27.00,132.00 27.00,114.00 33.00,114.00 33.00,117.00 30.00,117.00 30.00,120.00 36.00,120.00 36.00,111.00 "
     style="fill:none;fill-rule:evenodd;stroke:#000000;stroke-width:1px;stroke-linecap:butt;stroke-linejoin:miter;stroke-opacity:1"
     id="path8" />
  <path
     d="M 27.00,123.00 48.00,123.00"
     style="fill:none;fill-rule:evenodd;stroke:#000000;stroke-width:1px;stroke-linecap:butt;stroke-linejoin:miter;stroke-opacity:1"
     id="path9" />
  <path
     d="M 15.00,135.00 15.00,144.00 21.00,144.00 21.00,141.00 18.00,141.00 18.00,138.00 24.00,138.00 24.00,156.00 18.00,156.00 18.00,153.00 21.00,153.00 21.00,150.00 15.00,150.00 15.00,159.00 36.00,159.00 36.00,150.00 30.00,150.00 30.00,153.00 33.00,153.00 33.00,156.00 27.00,156.00 27.00,138.00 33.00,138.00 33.00,141.00 30.00,141.00 30.00,144.00 36.00,144.00 36.00,135.00 "
     style="fill:none;fill-rule:evenodd;stroke:#000000;stroke-width:1px;stroke-linecap:butt;stroke-linejoin:miter;stroke-opacity:1"
     id="path10" />
  <path
     d="M 27.00,147.00 48.00,147.00"
     style="fill:none;fill-rule:evenodd;stroke:#000000;stroke-width:1px;stroke-linecap:butt;stroke-linejoin:miter;stroke-opacity:1"
     id="path11" />
  <path
     d="M 15.00,159.00 15.00,168.00 21.00,168.00 21.00,165.00 18.00,165.00 18.00,162.00 24.00,162.00 24.00,180.00 18.00,180.00 18.00,177.00 21.00,177.00 21.00,174.00 15.00,174.00 15.00,183.00 36.00,183.00 36.00,174.00 30.00,174.00 30.00,177.00 33.00,177.00 33.00,180.00 27.00,180.00 27.00,162.00 33.00,162.00 33.00,165.00 30.00,165.00 30.00,168.00 36.00,168.00 36.00,159.00 "
     style="fill:none;fill-rule:evenodd;stroke:#000000;stroke-width:1px;stroke-linecap:butt;stroke-linejoin:miter;stroke-opacity:1"
     id="path12" />
  <path
     d="M 27.00,171.00 48.00,171.00"
     style="fill:none;fill-rule:evenodd;stroke:#000000;stroke-width:1px;stroke-linecap:butt;stroke-linejoin:miter;stroke-opacity:1"
     id="path13" />
  <path
     d="M 15.00,183.00 15.00,192.00 21.00,192.00 21.00,189.00 18.00,189.00 18.00,186.00 24.00,186.00 24.00,204.00 18.00,204.00 18.00,201.00 21.00,201.00 21.00,198.00 15.00,198.00 15.00,207.00 36.00,207.00 36.00,198.00 30.00,198.00 30.00,201.00 33.00,201.00 33.00,204.00 27.00,204.00 27.00,186.00 33.00,186.00 33.00,189.00 30.00,189.00 30.00,192.00 36.00,192.00 36.00,183.00 "
     style="fill:none;fill-rule:evenodd;stroke:#000000;stroke-width:1px;stroke-linecap:butt;stroke-linejoin:miter;stroke-opacity:1"
     id="path14" />
  <path
     d="M 27.00,195.00 48.00,195.00"
     style="fill:none;fill-rule:evenodd;stroke:#000000;stroke-width:1px;stroke-linecap:butt;stroke-linejoin:miter;stroke-opacity:1"
     id="path15" />
  <path
     d="M 39.00,15.00 39.00,24.00 45.00,24.00 45.00,21.00 42.00,21.00 42.00,18.00 48.00,18.00 48.00,36.00 42.00,36.00 42.00,33.00 45.00,33.00 45.00,30.00 39.00,30.00 39.00,39.00 60.00,39.00 60.00,30.00 54.00,30.00 54.00,33.00 57.00,33.00 57.00,36.00 51.00,36.00 51.00,18.00 57.00,18.00 57.00,21.00 54.00,21.00 54.00,24.00 60.00,24.00 60.00,15.00 "
     style="fill:none;fill-rule:evenodd;stroke:#000000;stroke-width:1px;stroke-linecap:butt;stroke-linejoin:miter;stroke-opacity:1"
     id="path16" />
  <path
     d="M 51.00,27.00 72.00,27.00"
     style="fill:none;fill-rule:evenodd;stroke:#000000;stroke-width:1px;stroke-linecap:butt;stroke-linejoin:miter;stroke-opacity:1"
     id="path17" />
  <path
     d="M 39.00,39.00 39.00,48.00 45.00,48.00 45.00,45.00 42.00,45.00 42.00,42.00 48.00,42.00 48.00,60.00 42.00,60.00 42.00,57.00 45.00,57.00 45.00,54.00 39.00,54.00 39.00,63.00 60.00,63.00 60.00,54.00 54.00,54.00 54.00,57.00 57.00,57.00 57.00,60.00 51.00,60.00 51.00,42.00 57.00,42.00 57.00,45.00 54.00,45.00 54.00,48.00 60.00,48.00 60.00,39.00 "
     style="fill:none;fill-rule:evenodd;stroke:#000000;stroke-width:1px;stroke-linecap:butt;stroke-linejoin:miter;stroke-opacity:1"
     id="path18" />
  <path
     d="M 51.00,51.00 72.00,51.00"
     style="fill:none;fill-rule:evenodd;stroke:#000000;stroke-width:1px;stroke-linecap:butt;stroke-linejoin:miter;stroke-opacity:1"
     id="path19" />
  <path
     d="M 39.00,63.00 39.00,72.00 45.00,72.00 45.00,69.00 42.00,69.00 42.00,66.00 48.00,66.00 48.00,84.00 42.00,84.00 42.00,81.00 45.00,81.00 45.00,78.00 39.00,78.00 39.00,87.00 60.00,87.00 60.00,78.00 54.00,78.00 54.00,81.00 57.00,81.00 57.00,84.00 51.00,84.00 51.00,66.00 57.00,66.00 57.00,69.00 54.00,69.00 54.00,72.00 60.00,72.00 60.00,63.00 "
     style="fill:none;fill-rule:evenodd;stroke:#000000;stroke-width:1px;stroke-linecap:butt;stroke-linejoin:miter;stroke-opacity:1"
     id="path20" />
  <path
     d="M 51.00,75.00 72.00,75.00"
     style="fill:none;fill-rule:evenodd;stroke:#000000;stroke-width:1px;stroke-linecap:butt;stroke-linejoin:miter;stroke-opacity:1"
     id="path21" />
  <path
     d="M 39.00,87.00 39.00,96.00 45.00,96.00 45.00,93.00 42.00,93.00 42.00,90.00 48.00,90.00 48.00,108.00 42.00,108.00 42.00,105.00 45.00,105.00 45.00,102.00 39.00,102.00 39.00,111.00 60.00,111.00 60.00,102.00 54.00,102.00 54.00,105.00 57.00,105.00 57.00,108.00 51.00,108.00 51.00,90.00 57.00,90.00 57.00,93.00 54.00,93.00 54.00,96.00 60.00,96.00 60.00,87.00 "
     style="fill:none;fill-rule:evenodd;stroke:#000000;stroke-width:1px;stroke-linecap:butt;stroke-linejoin:miter;stroke-opacity:1"
     id="path22" />
  <path
     d="M 51.00,99.00 72.00,99.00"
     style="fill:none;fill-rule:evenodd;stroke:#000000;stroke-width:1px;stroke-linecap:butt;stroke-linejoin:miter;stroke-opacity:1"
     id="path23" />
  <path
     d="M 39.00,111.00 39.00,120.00 45.00,120.00 45.00,117.00 42.00,117.00 42.00,114.00 48.00,114.00 48.00,132.00 42.00,132.00 42.00,129.00 45.00,129.00 45.00,126.00 39.00,126.00 39.00,135.00 60.00,135.00 60.00,126.00 54.00,126.00 54.00,129.00 57.00,129.00 57.00,132.00 51.00,132.00 51.00,114.00 57.00,114.00 57.00,117.00 54.00,117.00 54.00,120.00 60.00,120.00 60.00,111.00 "
     style="fill:none;fill-rule:evenodd;stroke:#000000;stroke-width:1px;stroke-linecap:butt;stroke-linejoin:miter;stroke-opacity:1"
     id="path24" />
  <path
     d="M 51.00,123.00 72.00,123.00"
     style="fill:none;fill-rule:evenodd;stroke:#000000;stroke-width:1px;stroke-linecap:butt;stroke-linejoin:miter;stroke-opacity:1"
     id="path25" />
  <path
     d="M 39.00,135.00 39.00,144.00 45.00,144.00 45.00,141.00 42.00,141.00 42.00,138.00 48.00,138.00 48.00,156.00 42.00,156.00 42.00,153.00 45.00,153.00 45.00,150.00 39.00,150.00 39.00,159.00 60.00,159.00 60.00,150.00 54.00,150.00 54.00,153.00 57.00,153.00 57.00,156.00 51.00,156.00 51.00,138.00 57.00,138.00 57.00,141.00 54.00,141.00 54.00,144.00 60.00,144.00 60.00,135.00 "
     style="fill:none;fill-rule:evenodd;stroke:#000000;stroke-width:1px;stroke-linecap:butt;stroke-linejoin:miter;stroke-opacity:1"
     id="path26" />
  <path
     d="M 51.00,147.00 72.00,147.00"
     style="fill:none;fill-rule:evenodd;stroke:#000000;stroke-width:1px;stroke-linecap:butt;stroke-linejoin:miter;stroke-opacity:1"
     id="path27" />
  <path
     d="M 39.00,159.00 39.00,168.00 45.00,168.00 45.00,165.00 42.00,165.00 42.00,162.00 48.00,162.00 48.00,180.00 42.00,180.00 42.00,177.00 45.00,177.00 45.00,174.00 39.00,174.00 39.00,183.00 60.00,183.00 60.00,174.00 54.00,174.00 54.00,177.00 57.00,177.00 57.00,180.00 51.00,180.00 51.00,162.00 57.00,162.00 57.00,165.00 54.00,165.00 54.00,168.00 60.00,168.00 60.00,159.00 "
     style="fill:none;fill-rule:evenodd;stroke:#000000;stroke-width:1px;stroke-linecap:butt;stroke-linejoin:miter;stroke-opacity:1"
     id="path28" />
  <path
     d="M 51.00,171.00 72.00,171.00"
     style="fill:none;fill-rule:evenodd;stroke:#000000;stroke-width:1px;stroke-linecap:butt;stroke-linejoin:miter;stroke-opacity:1"
     id="path29" />
  <path
     d="M 39.00,183.00 39.00,192.00 45.00,192.00 45.00,189.00 42.00,189.00 42.00,186.00 48.00,186.00 48.00,204.00 42.00,204.00 42.00,201.00 45.00,201.00 45.00,198.00 39.00,198.00 39.00,207.00 60.00,207.00 60.00,198.00 54.00,198.00 54.00,201.00 57.00,201.00 57.00,204.00 51.00,204.00 51.00,186.00 57.00,186.00 57.00,189.00 54.00,189.00 54.00,192.00 60.00,192.00 60.00,183.00 "
     style="fill:none;fill-rule:evenodd;stroke:#000000;stroke-width:1px;stroke-linecap:butt;stroke-linejoin:miter;stroke-opacity:1"
     id="path30" />
  <path
     d="M 51.00,195.00 72.00,195.00"
     style="fill:none;fill-rule:evenodd;stroke:#000000;stroke-width:1px;stroke-linecap:butt;stroke-linejoin:miter;stroke-opacity:1"
     id="path31" />
  <path
     d="M 63.00,15.00 63.00,24.00 69.00,24.00 69.00,21.00 66.00,21.00 66.00,18.00 72.00,18.00 72.00,36.00 66.00,36.00 66.00,33.00 69.00,33.00 69.00,30.00 63.00,30.00 63.00,39.00 84.00,39.00 84.00,30.00 78.00,30.00 78.00,33.00 81.00,33.00 81.00,36.00 75.00,36.00 75.00,18.00 81.00,18.00 81.00,21.00 78.00,21.00 78.00,24.00 84.00,24.00 84.00,15.00 "
     style="fill:none;fill-rule:evenodd;stroke:#000000;stroke-width:1px;stroke-linecap:butt;stroke-linejoin:miter;stroke-opacity:1"
     id="path32" />
  <path
     d="M 75.00,27.00 96.00,27.00"
     style="fill:none;fill-rule:evenodd;stroke:#000000;stroke-width:1px;stroke-linecap:butt;stroke-linejoin:miter;stroke-opacity:1"
     id="path33" />
  <path
     d="M 63.00,39.00 63.00,48.00 69.00,48.00 69.00,45.00 66.00,45.00 66.00,42.00 72.00,42.00 72.00,60.00 66.00,60.00 66.00,57.00 69.00,57.00 69.00,54.00 63.00,54.00 63.00,63.00 84.00,63.00 84.00,54.00 78.00,54.00 78.00,57.00 81.00,57.00 81.00,60.00 75.00,60.00 75.00,42.00 81.00,42.00 81.00,45.00 78.00,45.00 78.00,48.00 84.00,48.00 84.00,39.00 "
     style="fill:none;fill-rule:evenodd;stroke:#000000;stroke-width:1px;stroke-linecap:butt;stroke-linejoin:miter;stroke-opacity:1"
     id="path34" />
  <path
     d="M 75.00,51.00 96.00,51.00"
     style="fill:none;fill-rule:evenodd;stroke:#000000;stroke-width:1px;stroke-linecap:butt;stroke-linejoin:miter;stroke-opacity:1"
     id="path35" />
  <path
     d="M 63.00,63.00 63.00,72.00 69.00,72.00 69.00,69.00 66.00,69.00 66.00,66.00 72.00,66.00 72.00,84.00 66.00,84.00 66.00,81.00 69.00,81.00 69.00,78.00 63.00,78.00 63.00,87.00 84.00,87.00 84.00,78.00 78.00,78.00 78.00,81.00 81.00,81.00 81.00,84.00 75.00,84.00 75.00,66.00 81.00,66.00 81.00,69.00 78.00,69.00 78.00,72.00 84.00,72.00 84.00,63.00 "
     style="fill:none;fill-rule:evenodd;stroke:#000000;stroke-width:1px;stroke-linecap:butt;stroke-linejoin:miter;stroke-opacity:1"
     id="path36" />
  <path
     d="M 75.00,75.00 96.00,75.00"
     style="fill:none;fill-rule:evenodd;stroke:#000000;stroke-width:1px;stroke-linecap:butt;stroke-linejoin:miter;stroke-opacity:1"
     id="path37" />
  <path
     d="M 63.00,87.00 63.00,96.00 69.00,96.00 69.00,93.00 66.00,93.00 66.00,90.00 72.00,90.00 72.00,108.00 66.00,108.00 66.00,105.00 69.00,105.00 69.00,102.00 63.00,102.00 63.00,111.00 84.00,111.00 84.00,102.00 78.00,102.00 78.00,105.00 81.00,105.00 81.00,108.00 75.00,108.00 75.00,90.00 81.00,90.00 81.00,93.00 78.00,93.00 78.00,96.00 84.00,96.00 84.00,87.00 "
     style="fill:none;fill-rule:evenodd;stroke:#000000;stroke-width:1px;stroke-linecap:butt;stroke-linejoin:miter;stroke-opacity:1"
     id="path38" />
  <path
     d="M 75.00,99.00 96.00,99.00"
     style="fill:none;fill-rule:evenodd;stroke:#000000;stroke-width:1px;stroke-linecap:butt;stroke-linejoin:miter;stroke-opacity:1"
     id="path39" />
  <path
     d="M 63.00,111.00 63.00,120.00 69.00,120.00 69.00,117.00 66.00,117.00 66.00,114.00 72.00,114.00 72.00,132.00 66.00,132.00 66.00,129.00 69.00,129.00 69.00,126.00 63.00,126.00 63.00,135.00 84.00,135.00 84.00,126.00 78.00,126.00 78.00,129.00 81.00,129.00 81.00,132.00 75.00,132.00 75.00,114.00 81.00,114.00 81.00,117.00 78.00,117.00 78.00,120.00 84.00,120.00 84.00,111.00 "
     style="fill:none;fill-rule:evenodd;stroke:#000000;stroke-width:1px;stroke-linecap:butt;stroke-linejoin:miter;stroke-opacity:1"
     id="path40" />
  <path
     d="M 75.00,123.00 96.00,123.00"
     style="fill:none;fill-rule:evenodd;stroke:#000000;stroke-width:1px;stroke-linecap:butt;stroke-linejoin:miter;stroke-opacity:1"
     id="path41" />
  <path
     d="M 63.00,135.00 63.00,144.00 69.00,144.00 69.00,141.00 66.00,141.00 66.00,138.00 72.00,138.00 72.00,156.00 66.00,156.00 66.00,153.00 69.00,153.00 69.00,150.00 63.00,150.00 63.00,159.00 84.00,159.00 84.00,150.00 78.00,150.00 78.00,153.00 81.00,153.00 81.00,156.00 75.00,156.00 75.00,138.00 81.00,138.00 81.00,141.00 78.00,141.00 78.00,144.00 84.00,144.00 84.00,135.00 "
     style="fill:none;fill-rule:evenodd;stroke:#000000;stroke-width:1px;stroke-linecap:butt;stroke-linejoin:miter;stroke-opacity:1"
     id="path42" />
  <path
     d="M 75.00,147.00 96.00,147.00"
     style="fill:none;fill-rule:evenodd;stroke:#000000;stroke-width:1px;stroke-linecap:butt;stroke-linejoin:miter;stroke-opacity:1"
     id="path43" />
  <path
     d="M 63.00,159.00 63.00,168.00 69.00,168.00 69.00,165.00 66.00,165.00 66.00,162.00 72.00,162.00 72.00,180.00 66.00,180.00 66.00,177.00 69.00,177.00 69.00,174.00 63.00,174.00 63.00,183.00 84.00,183.00 84.00,174.00 78.00,174.00 78.00,177.00 81.00,177.00 81.00,180.00 75.00,180.00 75.00,162.00 81.00,162.00 81.00,165.00 78.00,165.00 78.00,168.00 84.00,168.00 84.00,159.00 "
     style="fill:none;fill-rule:evenodd;stroke:#000000;stroke-width:1px;stroke-linecap:butt;stroke-linejoin:miter;stroke-opacity:1"
     id="path44" />
  <path
     d="M 75.00,171.00 96.00,171.00"
     style="fill:none;fill-rule:evenodd;stroke:#000000;stroke-width:1px;stroke-linecap:butt;stroke-linejoin:miter;stroke-opacity:1"
     id="path45" />
  <path
     d="M 63.00,183.00 63.00,192.00 69.00,192.00 69.00,189.00 66.00,189.00 66.00,186.00 72.00,186.00 72.00,204.00 66.00,204.00 66.00,201.00 69.00,201.00 69.00,198.00 63.00,198.00 63.00,207.00 84.00,207.00 84.00,198.00 78.00,198.00 78.00,201.00 81.00,201.00 81.00,204.00 75.00,204.00 75.00,186.00 81.00,186.00 81.00,189.00 78.00,189.00 78.00,192.00 84.00,192.00 84.00,183.00 "
     style="fill:none;fill-rule:evenodd;stroke:#000000;stroke-width:1px;stroke-linecap:butt;stroke-linejoin:miter;stroke-opacity:1"
     id="path46" />
  <path
     d="M 75.00,195.00 96.00,195.00"
     style="fill:none;fill-rule:evenodd;stroke:#000000;stroke-width:1px;stroke-linecap:butt;stroke-linejoin:miter;stroke-opacity:1"
     id="path47" />
  <path
     d="M 87.00,15.00 87.00,24.00 93.00,24.00 93.00,21.00 90.00,21.00 90.00,18.00 96.00,18.00 96.00,36.00 90.00,36.00 90.00,33.00 93.00,33.00 93.00,30.00 87.00,30.00 87.00,39.00 108.00,39.00 108.00,30.00 102.00,30.00 102.00,33.00 105.00,33.00 105.00,36.00 99.00,36.00 99.00,18.00 105.00,18.00 105.00,21.00 102.00,21.00 102.00,24.00 108.00,24.00 108.00,15.00 "
     style="fill:none;fill-rule:evenodd;stroke:#000000;stroke-width:1px;stroke-linecap:butt;stroke-linejoin:miter;stroke-opacity:1"
     id="path48" />
  <path
     d="M 99.00,27.00 120.00,27.00"
     style="fill:none;fill-rule:evenodd;stroke:#000000;stroke-width:1px;stroke-linecap:butt;stroke-linejoin:miter;stroke-opacity:1"
     id="path49" />
  <path
     d="M 87.00,39.00 87.00,48.00 93.00,48.00 93.00,45.00 90.00,45.00 90.00,42.00 96.00,42.00 96.00,60.00 90.00,60.00 90.00,57.00 93.00,57.00 93.00,54.00 87.00,54.00 87.00,63.00 108.00,63.00 108.00,54.00 102.00,54.00 102.00,57.00 105.00,57.00 105.00,60.00 99.00,60.00 99.00,42.00 105.00,42.00 105.00,45.00 102.00,45.00 102.00,48.00 108.00,48.00 108.00,39.00 "
     style="fill:none;fill-rule:evenodd;stroke:#000000;stroke-width:1px;stroke-linecap:butt;stroke-linejoin:miter;stroke-opacity:1"
     id="path50" />
  <path
     d="M 99.00,51.00 120.00,51.00"
     style="fill:none;fill-rule:evenodd;stroke:#000000;stroke-width:1px;stroke-linecap:butt;stroke-linejoin:miter;stroke-opacity:1"
     id="path51" />
  <path
     d="M 87.00,63.00 87.00,72.00 93.00,72.00 93.00,69.00 90.00,69.00 90.00,66.00 96.00,66.00 96.00,84.00 90.00,84.00 90.00,81.00 93.00,81.00 93.00,78.00 87.00,78.00 87.00,87.00 108.00,87.00 108.00,78.00 102.00,78.00 102.00,81.00 105.00,81.00 105.00,84.00 99.00,84.00 99.00,66.00 105.00,66.00 105.00,69.00 102.00,69.00 102.00,72.00 108.00,72.00 108.00,63.00 "
     style="fill:none;fill-rule:evenodd;stroke:#000000;stroke-width:1px;stroke-linecap:butt;stroke-linejoin:miter;stroke-opacity:1"
     id="path52" />
  <path
     d="M 99.00,75.00 120.00,75.00"
     style="fill:none;fill-rule:evenodd;stroke:#000000;stroke-width:1px;stroke-linecap:butt;stroke-linejoin:miter;stroke-opacity:1"
     id="path53" />
  <path
     d="M 87.00,87.00 87.00,96.00 93.00,96.00 93.00,93.00 90.00,93.00 90.00,90.00 96.00,90.00 96.00,108.00 90.00,108.00 90.00,105.00 93.00,105.00 93.00,102.00 87.00,102.00 87.00,111.00 108.00,111.00 108.00,102.00 102.00,102.00 102.00,105.00 105.00,105.00 105.00,108.00 99.00,108.00 99.00,90.00 105.00,90.00 105.00,93.00 102.00,93.00 102.00,96.00 108.00,96.00 108.00,87.00 "
     style="fill:none;fill-rule:evenodd;stroke:#000000;stroke-width:1px;stroke-linecap:butt;stroke-linejoin:miter;stroke-opacity:1"
     id="path54" />
  <path
     d="M 99.00,99.00 120.00,99.00"
     style="fill:none;fill-rule:evenodd;stroke:#000000;stroke-width:1px;stroke-linecap:butt;stroke-linejoin:miter;stroke-opacity:1"
     id="path55" />
  <path
     d="M 87.00,111.00 87.00,120.00 93.00,120.00 93.00,117.00 90.00,117.00 90.00,114.00 96.00,114.00 96.00,132.00 90.00,132.00 90.00,129.00 93.00,129.00 93.00,126.00 87.00,126.00 87.00,135.00 108.00,135.00 108.00,126.00 102.00,126.00 102.00,129.00 105.00,129.00 105.00,132.00 99.00,132.00 99.00,114.00 105.00,114.00 105.00,117.00 102.00,117.00 102.00,120.00 108.00,120.00 108.00,111.00 "
     style="fill:none;fill-rule:evenodd;stroke:#000000;stroke-width:1px;stroke-linecap:butt;stroke-linejoin:miter;stroke-opacity:1"
     id="path56" />
  <path
     d="M 99.00,123.00 120.00,123.00"
     style="fill:none;fill-rule:evenodd;stroke:#000000;stroke-width:1px;stroke-linecap:butt;stroke-linejoin:miter;stroke-opacity:1"
     id="path57" />
  <path
     d="M 87.00,135.00 87.00,144.00 93.00,144.00 93.00,141.00 90.00,141.00 90.00,138.00 96.00,138.00 96.00,156.00 90.00,156.00 90.00,153.00 93.00,153.00 93.00,150.00 87.00,150.00 87.00,159.00 108.00,159.00 108.00,150.00 102.00,150.00 102.00,153.00 105.00,153.00 105.00,156.00 99.00,156.00 99.00,138.00 105.00,138.00 105.00,141.00 102.00,141.00 102.00,144.00 108.00,144.00 108.00,135.00 "
     style="fill:none;fill-rule:evenodd;stroke:#000000;stroke-width:1px;stroke-linecap:butt;stroke-linejoin:miter;stroke-opacity:1"
     id="path58" />
  <path
     d="M 99.00,147.00 120.00,147.00"
     style="fill:none;fill-rule:evenodd;stroke:#000000;stroke-width:1px;stroke-linecap:butt;stroke-linejoin:miter;stroke-opacity:1"
     id="path59" />
  <path
     d="M 87.00,159.00 87.00,168.00 93.00,168.00 93.00,165.00 90.00,165.00 90.00,162.00 96.00,162.00 96.00,180.00 90.00,180.00 90.00,177.00 93.00,177.00 93.00,174.00 87.00,174.00 87.00,183.00 108.00,183.00 108.00,174.00 102.00,174.00 102.00,177.00 105.00,177.00 105.00,180.00 99.00,180.00 99.00,162.00 105.00,162.00 105.00,165.00 102.00,165.00 102.00,168.00 108.00,168.00 108.00,159.00 "
     style="fill:none;fill-rule:evenodd;stroke:#000000;stroke-width:1px;stroke-linecap:butt;stroke-linejoin:miter;stroke-opacity:1"
     id="path60" />
  <path
     d="M 99.00,171.00 120.00,171.00"
     style="fill:none;fill-rule:evenodd;stroke:#000000;stroke-width:1px;stroke-linecap:butt;stroke-linejoin:miter;stroke-opacity:1"
     id="path61" />
  <path
     d="M 87.00,183.00 87.00,192.00 93.00,192.00 93.00,189.00 90.00,189.00 90.00,186.00 96.00,186.00 96.00,204.00 90.00,204.00 90.00,201.00 93.00,201.00 93.00,198.00 87.00,198.00 87.00,207.00 108.00,207.00 108.00,198.00 102.00,198.00 102.00,201.00 105.00,201.00 105.00,204.00 99.00,204.00 99.00,186.00 105.00,186.00 105.00,189.00 102.00,189.00 102.00,192.00 108.00,192.00 108.00,183.00 "
     style="fill:none;fill-rule:evenodd;stroke:#000000;stroke-width:1px;stroke-linecap:butt;stroke-linejoin:miter;stroke-opacity:1"
     id="path62" />
  <path
     d="M 99.00,195.00 120.00,195.00"
     style="fill:none;fill-rule:evenodd;stroke:#000000;stroke-width:1px;stroke-linecap:butt;stroke-linejoin:miter;stroke-opacity:1"
     id="path63" />
  <path
     d="M 111.00,15.00 111.00,24.00 117.00,24.00 117.00,21.00 114.00,21.00 114.00,18.00 120.00,18.00 120.00,36.00 114.00,36.00 114.00,33.00 117.00,33.00 117.00,30.00 111.00,30.00 111.00,39.00 132.00,39.00 132.00,30.00 126.00,30.00 126.00,33.00 129.00,33.00 129.00,36.00 123.00,36.00 123.00,18.00 129.00,18.00 129.00,21.00 126.00,21.00 126.00,24.00 132.00,24.00 132.00,15.00 "
     style="fill:none;fill-rule:evenodd;stroke:#000000;stroke-width:1px;stroke-linecap:butt;stroke-linejoin:miter;stroke-opacity:1"
     id="path64" />
  <path
     d="M 123.00,27.00 144.00,27.00"
     style="fill:none;fill-rule:evenodd;stroke:#000000;stroke-width:1px;stroke-linecap:butt;stroke-linejoin:miter;stroke-opacity:1"
     id="path65" />
  <path
     d="M 111.00,39.00 111.00,48.00 117.00,48.00 117.00,45.00 114.00,45.00 114.00,42.00 120.00,42.00 120.00,60.00 114.00,60.00 114.00,57.00 117.00,57.00 117.00,54.00 111.00,54.00 111.00,63.00 132.00,63.00 132.00,54.00 126.00,54.00 126.00,57.00 129.00,57.00 129.00,60.00 123.00,60.00 123.00,42.00 129.00,42.00 129.00,45.00 126.00,45.00 126.00,48.00 132.00,48.00 132.00,39.00 "
     style="fill:none;fill-rule:evenodd;stroke:#000000;stroke-width:1px;stroke-linecap:butt;stroke-linejoin:miter;stroke-opacity:1"
     id="path66" />
  <path
     d="M 123.00,51.00 144.00,51.00"
     style="fill:none;fill-rule:evenodd;stroke:#000000;stroke-width:1px;stroke-linecap:butt;stroke-linejoin:miter;stroke-opacity:1"
     id="path67" />
  <path
     d="M 111.00,63.00 111.00,72.00 117.00,72.00 117.00,69.00 114.00,69.00 114.00,66.00 120.00,66.00 120.00,84.00 114.00,84.00 114.00,81.00 117.00,81.00 117.00,78.00 111.00,78.00 111.00,87.00 132.00,87.00 132.00,78.00 126.00,78.00 126.00,81.00 129.00,81.00 129.00,84.00 123.00,84.00 123.00,66.00 129.00,66.00 129.00,69.00 126.00,69.00 126.00,72.00 132.00,72.00 132.00,63.00 "
     style="fill:none;fill-rule:evenodd;stroke:#000000;stroke-width:1px;stroke-linecap:butt;stroke-linejoin:miter;stroke-opacity:1"
     id="path68" />
  <path
     d="M 123.00,75.00 144.00,75.00"
     style="fill:none;fill-rule:evenodd;stroke:#000000;stroke-width:1px;stroke-linecap:butt;stroke-linejoin:miter;stroke-opacity:1"
     id="path69" />
  <path
     d="M 111.00,87.00 111.00,96.00 117.00,96.00 117.00,93.00 114.00,93.00 114.00,90.00 120.00,90.00 120.00,108.00 114.00,108.00 114.00,105.00 117.00,105.00 117.00,102.00 111.00,102.00 111.00,111.00 132.00,111.00 132.00,102.00 126.00,102.00 126.00,105.00 129.00,105.00 129.00,108.00 123.00,108.00 123.00,90.00 129.00,90.00 129.00,93.00 126.00,93.00 126.00,96.00 132.00,96.00 132.00,87.00 "
     style="fill:none;fill-rule:evenodd;stroke:#000000;stroke-width:1px;stroke-linecap:butt;stroke-linejoin:miter;stroke-opacity:1"
     id="path70" />
  <path
     d="M 123.00,99.00 144.00,99.00"
     style="fill:none;fill-rule:evenodd;stroke:#000000;stroke-width:1px;stroke-linecap:butt;stroke-linejoin:miter;stroke-opacity:1"
     id="path71" />
  <path
     d="M 111.00,111.00 111.00,120.00 117.00,120.00 117.00,117.00 114.00,117.00 114.00,114.00 120.00,114.00 120.00,132.00 114.00,132.00 114.00,129.00 117.00,129.00 117.00,126.00 111.00,126.00 111.00,135.00 132.00,135.00 132.00,126.00 126.00,126.00 126.00,129.00 129.00,129.00 129.00,132.00 123.00,132.00 123.00,114.00 129.00,114.00 129.00,117.00 126.00,117.00 126.00,120.00 132.00,120.00 132.00,111.00 "
     style="fill:none;fill-rule:evenodd;stroke:#000000;stroke-width:1px;stroke-linecap:butt;stroke-linejoin:miter;stroke-opacity:1"
     id="path72" />
  <path
     d="M 123.00,123.00 144.00,123.00"
     style="fill:none;fill-rule:evenodd;stroke:#000000;stroke-width:1px;stroke-linecap:butt;stroke-linejoin:miter;stroke-opacity:1"
     id="path73" />
  <path
     d="M 111.00,135.00 111.00,144.00 117.00,144.00 117.00,141.00 114.00,141.00 114.00,138.00 120.00,138.00 120.00,156.00 114.00,156.00 114.00,153.00 117.00,153.00 117.00,150.00 111.00,150.00 111.00,159.00 132.00,159.00 132.00,150.00 126.00,150.00 126.00,153.00 129.00,153.00 129.00,156.00 123.00,156.00 123.00,138.00 129.00,138.00 129.00,141.00 126.00,141.00 126.00,144.00 132.00,144.00 132.00,135.00 "
     style="fill:none;fill-rule:evenodd;stroke:#000000;stroke-width:1px;stroke-linecap:butt;stroke-linejoin:miter;stroke-opacity:1"
     id="path74" />
  <path
     d="M 123.00,147.00 144.00,147.00"
     style="fill:none;fill-rule:evenodd;stroke:#000000;stroke-width:1px;stroke-linecap:butt;stroke-linejoin:miter;stroke-opacity:1"
     id="path75" />
  <path
     d="M 111.00,159.00 111.00,168.00 117.00,168.00 117.00,165.00 114.00,165.00 114.00,162.00 120.00,162.00 120.00,180.00 114.00,180.00 114.00,177.00 117.00,177.00 117.00,174.00 111.00,174.00 111.00,183.00 132.00,183.00 132.00,174.00 126.00,174.00 126.00,177.00 129.00,177.00 129.00,180.00 123.00,180.00 123.00,162.00 129.00,162.00 129.00,165.00 126.00,165.00 126.00,168.00 132.00,168.00 132.00,159.00 "
     style="fill:none;fill-rule:evenodd;stroke:#000000;stroke-width:1px;stroke-linecap:butt;stroke-linejoin:miter;stroke-opacity:1"
     id="path76" />
  <path
     d="M 123.00,171.00 144.00,171.00"
     style="fill:none;fill-rule:evenodd;stroke:#000000;stroke-width:1px;stroke-linecap:butt;stroke-linejoin:miter;stroke-opacity:1"
     id="path77" />
  <path
     d="M 111.00,183.00 111.00,192.00 117.00,192.00 117.00,189.00 114.00,189.00 114.00,186.00 120.00,186.00 120.00,204.00 114.00,204.00 114.00,201.00 117.00,201.00 117.00,198.00 111.00,198.00 111.00,207.00 132.00,207.00 132.00,198.00 126.00,198.00 126.00,201.00 129.00,201.00 129.00,204.00 123.00,204.00 123.00,186.00 129.00,186.00 129.00,189.00 126.00,189.00 126.00,192.00 132.00,192.00 132.00,183.00 "
     style="fill:none;fill-rule:evenodd;stroke:#000000;stroke-width:1px;stroke-linecap:butt;stroke-linejoin:miter;stroke-opacity:1"
     id="path78" />
  <path
     d="M 123.00,195.00 144.00,195.00"
     style="fill:none;fill-rule:evenodd;stroke:#000000;stroke-width:1px;stroke-linecap:butt;stroke-linejoin:miter;stroke-opacity:1"
     id="path79" />
  <path
     d="M 135.00,15.00 135.00,24.00 141.00,24.00 141.00,21.00 138.00,21.00 138.00,18.00 144.00,18.00 144.00,36.00 138.00,36.00 138.00,33.00 141.00,33.00 141.00,30.00 135.00,30.00 135.00,39.00 156.00,39.00 156.00,30.00 150.00,30.00 150.00,33.00 153.00,33.00 153.00,36.00 147.00,36.00 147.00,18.00 153.00,18.00 153.00,21.00 150.00,21.00 150.00,24.00 156.00,24.00 156.00,15.00 "
     style="fill:none;fill-rule:evenodd;stroke:#000000;stroke-width:1px;stroke-linecap:butt;stroke-linejoin:miter;stroke-opacity:1"
     id="path80" />
  <path
     d="M 147.00,27.00 168.00,27.00"
     style="fill:none;fill-rule:evenodd;stroke:#000000;stroke-width:1px;stroke-linecap:butt;stroke-linejoin:miter;stroke-opacity:1"
     id="path81" />
  <path
     d="M 135.00,39.00 135.00,48.00 141.00,48.00 141.00,45.00 138.00,45.00 138.00,42.00 144.00,42.00 144.00,60.00 138.00,60.00 138.00,57.00 141.00,57.00 141.00,54.00 135.00,54.00 135.00,63.00 156.00,63.00 156.00,54.00 150.00,54.00 150.00,57.00 153.00,57.00 153.00,60.00 147.00,60.00 147.00,42.00 153.00,42.00 153.00,45.00 150.00,45.00 150.00,48.00 156.00,48.00 156.00,39.00 "
     style="fill:none;fill-rule:evenodd;stroke:#000000;stroke-width:1px;stroke-linecap:butt;stroke-linejoin:miter;stroke-opacity:1"
     id="path82" />
  <path
     d="M 147.00,51.00 168.00,51.00"
     style="fill:none;fill-rule:evenodd;stroke:#000000;stroke-width:1px;stroke-linecap:butt;stroke-linejoin:miter;stroke-opacity:1"
     id="path83" />
  <path
     d="M 135.00,63.00 135.00,72.00 141.00,72.00 141.00,69.00 138.00,69.00 138.00,66.00 144.00,66.00 144.00,84.00 138.00,84.00 138.00,81.00 141.00,81.00 141.00,78.00 135.00,78.00 135.00,87.00 156.00,87.00 156.00,78.00 150.00,78.00 150.00,81.00 153.00,81.00 153.00,84.00 147.00,84.00 147.00,66.00 153.00,66.00 153.00,69.00 150.00,69.00 150.00,72.00 156.00,72.00 156.00,63.00 "
     style="fill:none;fill-rule:evenodd;stroke:#000000;stroke-width:1px;stroke-linecap:butt;stroke-linejoin:miter;stroke-opacity:1"
     id="path84" />
  <path
     d="M 147.00,75.00 168.00,75.00"
     style="fill:none;fill-rule:evenodd;stroke:#000000;stroke-width:1px;stroke-linecap:butt;stroke-linejoin:miter;stroke-opacity:1"
     id="path85" />
  <path
     d="M 135.00,87.00 135.00,96.00 141.00,96.00 141.00,93.00 138.00,93.00 138.00,90.00 144.00,90.00 144.00,108.00 138.00,108.00 138.00,105.00 141.00,105.00 141.00,102.00 135.00,102.00 135.00,111.00 156.00,111.00 156.00,102.00 150.00,102.00 150.00,105.00 153.00,105.00 153.00,108.00 147.00,108.00 147.00,90.00 153.00,90.00 153.00,93.00 150.00,93.00 150.00,96.00 156.00,96.00 156.00,87.00 "
     style="fill:none;fill-rule:evenodd;stroke:#000000;stroke-width:1px;stroke-linecap:butt;stroke-linejoin:miter;stroke-opacity:1"
     id="path86" />
  <path
     d="M 147.00,99.00 168.00,99.00"
     style="fill:none;fill-rule:evenodd;stroke:#000000;stroke-width:1px;stroke-linecap:butt;stroke-linejoin:miter;stroke-opacity:1"
     id="path87" />
  <path
     d="M 135.00,111.00 135.00,120.00 141.00,120.00 141.00,117.00 138.00,117.00 138.00,114.00 144.00,114.00 144.00,132.00 138.00,132.00 138.00,129.00 141.00,129.00 141.00,126.00 135.00,126.00 135.00,135.00 156.00,135.00 156.00,126.00 150.00,126.00 150.00,129.00 153.00,129.00 153.00,132.00 147.00,132.00 147.00,114.00 153.00,114.00 153.00,117.00 150.00,117.00 150.00,120.00 156.00,120.00 156.00,111.00 "
     style="fill:none;fill-rule:evenodd;stroke:#000000;stroke-width:1px;stroke-linecap:butt;stroke-linejoin:miter;stroke-opacity:1"
     id="path88" />
  <path
     d="M 147.00,123.00 168.00,123.00"
     style="fill:none;fill-rule:evenodd;stroke:#000000;stroke-width:1px;stroke-linecap:butt;stroke-linejoin:miter;stroke-opacity:1"
     id="path89" />
  <path
     d="M 135.00,135.00 135.00,144.00 141.00,144.00 141.00,141.00 138.00,141.00 138.00,138.00 144.00,138.00 144.00,156.00 138.00,156.00 138.00,153.00 141.00,153.00 141.00,150.00 135.00,150.00 135.00,159.00 156.00,159.00 156.00,150.00 150.00,150.00 150.00,153.00 153.00,153.00 153.00,156.00 147.00,156.00 147.00,138.00 153.00,138.00 153.00,141.00 150.00,141.00 150.00,144.00 156.00,144.00 156.00,135.00 "
     style="fill:none;fill-rule:evenodd;stroke:#000000;stroke-width:1px;stroke-linecap:butt;stroke-linejoin:miter;stroke-opacity:1"
     id="path90" />
  <path
     d="M 147.00,147.00 168.00,147.00"
     style="fill:none;fill-rule:evenodd;stroke:#000000;stroke-width:1px;stroke-linecap:butt;stroke-linejoin:miter;stroke-opacity:1"
     id="path91" />
  <path
     d="M 135.00,159.00 135.00,168.00 141.00,168.00 141.00,165.00 138.00,165.00 138.00,162.00 144.00,162.00 144.00,180.00 138.00,180.00 138.00,177.00 141.00,177.00 141.00,174.00 135.00,174.00 135.00,183.00 156.00,183.00 156.00,174.00 150.00,174.00 150.00,177.00 153.00,177.00 153.00,180.00 147.00,180.00 147.00,162.00 153.00,162.00 153.00,165.00 150.00,165.00 150.00,168.00 156.00,168.00 156.00,159.00 "
     style="fill:none;fill-rule:evenodd;stroke:#000000;stroke-width:1px;stroke-linecap:butt;stroke-linejoin:miter;stroke-opacity:1"
     id="path92" />
  <path
     d="M 147.00,171.00 168.00,171.00"
     style="fill:none;fill-rule:evenodd;stroke:#000000;stroke-width:1px;stroke-linecap:butt;stroke-linejoin:miter;stroke-opacity:1"
     id="path93" />
  <path
     d="M 135.00,183.00 135.00,192.00 141.00,192.00 141.00,189.00 138.00,189.00 138.00,186.00 144.00,186.00 144.00,204.00 138.00,204.00 138.00,201.00 141.00,201.00 141.00,198.00 135.00,198.00 135.00,207.00 156.00,207.00 156.00,198.00 150.00,198.00 150.00,201.00 153.00,201.00 153.00,204.00 147.00,204.00 147.00,186.00 153.00,186.00 153.00,189.00 150.00,189.00 150.00,192.00 156.00,192.00 156.00,183.00 "
     style="fill:none;fill-rule:evenodd;stroke:#000000;stroke-width:1px;stroke-linecap:butt;stroke-linejoin:miter;stroke-opacity:1"
     id="path94" />
  <path
     d="M 147.00,195.00 168.00,195.00"
     style="fill:none;fill-rule:evenodd;stroke:#000000;stroke-width:1px;stroke-linecap:butt;stroke-linejoin:miter;stroke-opacity:1"
     id="path95" />
  <path
     d="M 159.00,15.00 159.00,24.00 165.00,24.00 165.00,21.00 162.00,21.00 162.00,18.00 168.00,18.00 168.00,36.00 162.00,36.00 162.00,33.00 165.00,33.00 165.00,30.00 159.00,30.00 159.00,39.00 180.00,39.00 180.00,30.00 174.00,30.00 174.00,33.00 177.00,33.00 177.00,36.00 171.00,36.00 171.00,18.00 177.00,18.00 177.00,21.00 174.00,21.00 174.00,24.00 180.00,24.00 180.00,15.00 "
     style="fill:none;fill-rule:evenodd;stroke:#000000;stroke-width:1px;stroke-linecap:butt;stroke-linejoin:miter;stroke-opacity:1"
     id="path96" />
  <path
     d="M 171.00,27.00 192.00,27.00"
     style="fill:none;fill-rule:evenodd;stroke:#000000;stroke-width:1px;stroke-linecap:butt;stroke-linejoin:miter;stroke-opacity:1"
     id="path97" />
  <path
     d="M 159.00,39.00 159.00,48.00 165.00,48.00 165.00,45.00 162.00,45.00 162.00,42.00 168.00,42.00 168.00,60.00 162.00,60.00 162.00,57.00 165.00,57.00 165.00,54.00 159.00,54.00 159.00,63.00 180.00,63.00 180.00,54.00 174.00,54.00 174.00,57.00 177.00,57.00 177.00,60.00 171.00,60.00 171.00,42.00 177.00,42.00 177.00,45.00 174.00,45.00 174.00,48.00 180.00,48.00 180.00,39.00 "
     style="fill:none;fill-rule:evenodd;stroke:#000000;stroke-width:1px;stroke-linecap:butt;stroke-linejoin:miter;stroke-opacity:1"
     id="path98" />
  <path
     d="M 171.00,51.00 192.00,51.00"
     style="fill:none;fill-rule:evenodd;stroke:#000000;stroke-width:1px;stroke-linecap:butt;stroke-linejoin:miter;stroke-opacity:1"
     id="path99" />
  <path
     d="M 159.00,63.00 159.00,72.00 165.00,72.00 165.00,69.00 162.00,69.00 162.00,66.00 168.00,66.00 168.00,84.00 162.00,84.00 162.00,81.00 165.00,81.00 165.00,78.00 159.00,78.00 159.00,87.00 180.00,87.00 180.00,78.00 174.00,78.00 174.00,81.00 177.00,81.00 177.00,84.00 171.00,84.00 171.00,66.00 177.00,66.00 177.00,69.00 174.00,69.00 174.00,72.00 180.00,72.00 180.00,63.00 "
     style="fill:none;fill-rule:evenodd;stroke:#000000;stroke-width:1px;stroke-linecap:butt;stroke-linejoin:miter;stroke-opacity:1"
     id="path100" />
  <path
     d="M 171.00,75.00 192.00,75.00"
     style="fill:none;fill-rule:evenodd;stroke:#000000;stroke-width:1px;stroke-linecap:butt;stroke-linejoin:miter;stroke-opacity:1"
     id="path101" />
  <path
     d="M 159.00,87.00 159.00,96.00 165.00,96.00 165.00,93.00 162.00,93.00 162.00,90.00 168.00,90.00 168.00,108.00 162.00,108.00 162.00,105.00 165.00,105.00 165.00,102.00 159.00,102.00 159.00,111.00 180.00,111.00 180.00,102.00 174.00,102.00 174.00,105.00 177.00,105.00 177.00,108.00 171.00,108.00 171.00,90.00 177.00,90.00 177.00,93.00 174.00,93.00 174.00,96.00 180.00,96.00 180.00,87.00 "
     style="fill:none;fill-rule:evenodd;stroke:#000000;stroke-width:1px;stroke-linecap:butt;stroke-linejoin:miter;stroke-opacity:1"
     id="path102" />
  <path
     d="M 171.00,99.00 192.00,99.00"
     style="fill:none;fill-rule:evenodd;stroke:#000000;stroke-width:1px;stroke-linecap:butt;stroke-linejoin:miter;stroke-opacity:1"
     id="path103" />
  <path
     d="M 159.00,111.00 159.00,120.00 165.00,120.00 165.00,117.00 162.00,117.00 162.00,114.00 168.00,114.00 168.00,132.00 162.00,132.00 162.00,129.00 165.00,129.00 165.00,126.00 159.00,126.00 159.00,135.00 180.00,135.00 180.00,126.00 174.00,126.00 174.00,129.00 177.00,129.00 177.00,132.00 171.00,132.00 171.00,114.00 177.00,114.00 177.00,117.00 174.00,117.00 174.00,120.00 180.00,120.00 180.00,111.00 "
     style="fill:none;fill-rule:evenodd;stroke:#000000;stroke-width:1px;stroke-linecap:butt;stroke-linejoin:miter;stroke-opacity:1"
     id="path104" />
  <path
     d="M 171.00,123.00 192.00,123.00"
     style="fill:none;fill-rule:evenodd;stroke:#000000;stroke-width:1px;stroke-linecap:butt;stroke-linejoin:miter;stroke-opacity:1"
     id="path105" />
  <path
     d="M 159.00,135.00 159.00,144.00 165.00,144.00 165.00,141.00 162.00,141.00 162.00,138.00 168.00,138.00 168.00,156.00 162.00,156.00 162.00,153.00 165.00,153.00 165.00,150.00 159.00,150.00 159.00,159.00 180.00,159.00 180.00,150.00 174.00,150.00 174.00,153.00 177.00,153.00 177.00,156.00 171.00,156.00 171.00,138.00 177.00,138.00 177.00,141.00 174.00,141.00 174.00,144.00 180.00,144.00 180.00,135.00 "
     style="fill:none;fill-rule:evenodd;stroke:#000000;stroke-width:1px;stroke-linecap:butt;stroke-linejoin:miter;stroke-opacity:1"
     id="path106" />
  <path
     d="M 171.00,147.00 192.00,147.00"
     style="fill:none;fill-rule:evenodd;stroke:#000000;stroke-width:1px;stroke-linecap:butt;stroke-linejoin:miter;stroke-opacity:1"
     id="path107" />
  <path
     d="M 159.00,159.00 159.00,168.00 165.00,168.00 165.00,165.00 162.00,165.00 162.00,162.00 168.00,162.00 168.00,180.00 162.00,180.00 162.00,177.00 165.00,177.00 165.00,174.00 159.00,174.00 159.00,183.00 180.00,183.00 180.00,174.00 174.00,174.00 174.00,177.00 177.00,177.00 177.00,180.00 171.00,180.00 171.00,162.00 177.00,162.00 177.00,165.00 174.00,165.00 174.00,168.00 180.00,168.00 180.00,159.00 "
     style="fill:none;fill-rule:evenodd;stroke:#000000;stroke-width:1px;stroke-linecap:butt;stroke-linejoin:miter;stroke-opacity:1"
     id="path108" />
  <path
     d="M 171.00,171.00 192.00,171.00"
     style="fill:none;fill-rule:evenodd;stroke:#000000;stroke-width:1px;stroke-linecap:butt;stroke-linejoin:miter;stroke-opacity:1"
     id="path109" />
  <path
     d="M 159.00,183.00 159.00,192.00 165.00,192.00 165.00,189.00 162.00,189.00 162.00,186.00 168.00,186.00 168.00,204.00 162.00,204.00 162.00,201.00 165.00,201.00 165.00,198.00 159.00,198.00 159.00,207.00 180.00,207.00 180.00,198.00 174.00,198.00 174.00,201.00 177.00,201.00 177.00,204.00 171.00,204.00 171.00,186.00 177.00,186.00 177.00,189.00 174.00,189.00 174.00,192.00 180.00,192.00 180.00,183.00 "
     style="fill:none;fill-rule:evenodd;stroke:#000000;stroke-width:1px;stroke-linecap:butt;stroke-linejoin:miter;stroke-opacity:1"
     id="path110" />
  <path
     d="M 171.00,195.00 192.00,195.00"
     style="fill:none;fill-rule:evenodd;stroke:#000000;stroke-width:1px;stroke-linecap:butt;stroke-linejoin:miter;stroke-opacity:1"
     id="path111" />
  <path
     d="M 183.00,15.00 183.00,24.00 189.00,24.00 189.00,21.00 186.00,21.00 186.00,18.00 192.00,18.00 192.00,36.00 186.00,36.00 186.00,33.00 189.00,33.00 189.00,30.00 183.00,30.00 183.00,39.00 204.00,39.00 204.00,30.00 198.00,30.00 198.00,33.00 201.00,33.00 201.00,36.00 195.00,36.00 195.00,18.00 201.00,18.00 201.00,21.00 198.00,21.00 198.00,24.00 204.00,24.00 204.00,15.00 "
     style="fill:none;fill-rule:evenodd;stroke:#000000;stroke-width:1px;stroke-linecap:butt;stroke-linejoin:miter;stroke-opacity:1"
     id="path112" />
  <path
     d="M 183.00,39.00 183.00,48.00 189.00,48.00 189.00,45.00 186.00,45.00 186.00,42.00 192.00,42.00 192.00,60.00 186.00,60.00 186.00,57.00 189.00,57.00 189.00,54.00 183.00,54.00 183.00,63.00 204.00,63.00 204.00,54.00 198.00,54.00 198.00,57.00 201.00,57.00 201.00,60.00 195.00,60.00 195.00,42.00 201.00,42.00 201.00,45.00 198.00,45.00 198.00,48.00 204.00,48.00 204.00,39.00 "
     style="fill:none;fill-rule:evenodd;stroke:#000000;stroke-width:1px;stroke-linecap:butt;stroke-linejoin:miter;stroke-opacity:1"
     id="path113" />
  <path
     d="M 183.00,63.00 183.00,72.00 189.00,72.00 189.00,69.00 186.00,69.00 186.00,66.00 192.00,66.00 192.00,84.00 186.00,84.00 186.00,81.00 189.00,81.00 189.00,78.00 183.00,78.00 183.00,87.00 204.00,87.00 204.00,78.00 198.00,78.00 198.00,81.00 201.00,81.00 201.00,84.00 195.00,84.00 195.00,66.00 201.00,66.00 201.00,69.00 198.00,69.00 198.00,72.00 204.00,72.00 204.00,63.00 "
     style="fill:none;fill-rule:evenodd;stroke:#000000;stroke-width:1px;stroke-linecap:butt;stroke-linejoin:miter;stroke-opacity:1"
     id="path114" />
  <path
     d="M 183.00,87.00 183.00,96.00 189.00,96.00 189.00,93.00 186.00,93.00 186.00,90.00 192.00,90.00 192.00,108.00 186.00,108.00 186.00,105.00 189.00,105.00 189.00,102.00 183.00,102.00 183.00,111.00 204.00,111.00 204.00,102.00 198.00,102.00 198.00,105.00 201.00,105.00 201.00,108.00 195.00,108.00 195.00,90.00 201.00,90.00 201.00,93.00 198.00,93.00 198.00,96.00 204.00,96.00 204.00,87.00 "
     style="fill:none;fill-rule:evenodd;stroke:#000000;stroke-width:1px;stroke-linecap:butt;stroke-linejoin:miter;stroke-opacity:1"
     id="path115" />
  <path
     d="M 183.00,111.00 183.00,120.00 189.00,120.00 189.00,117.00 186.00,117.00 186.00,114.00 192.00,114.00 192.00,132.00 186.00,132.00 186.00,129.00 189.00,129.00 189.00,126.00 183.00,126.00 183.00,135.00 204.00,135.00 204.00,126.00 198.00,126.00 198.00,129.00 201.00,129.00 201.00,132.00 195.00,132.00 195.00,114.00 201.00,114.00 201.00,117.00 198.00,117.00 198.00,120.00 204.00,120.00 204.00,111.00 "
     style="fill:none;fill-rule:evenodd;stroke:#000000;stroke-width:1px;stroke-linecap:butt;stroke-linejoin:miter;stroke-opacity:1"
     id="path116" />
  <path
     d="M 183.00,135.00 183.00,144.00 189.00,144.00 189.00,141.00 186.00,141.00 186.00,138.00 192.00,138.00 192.00,156.00 186.00,156.00 186.00,153.00 189.00,153.00 189.00,150.00 183.00,150.00 183.00,159.00 204.00,159.00 204.00,150.00 198.00,150.00 198.00,153.00 201.00,153.00 201.00,156.00 195.00,156.00 195.00,138.00 201.00,138.00 201.00,141.00 198.00,141.00 198.00,144.00 204.00,144.00 204.00,135.00 "
     style="fill:none;fill-rule:evenodd;stroke:#000000;stroke-width:1px;stroke-linecap:butt;stroke-linejoin:miter;stroke-opacity:1"
     id="path117" />
  <path
     d="M 183.00,159.00 183.00,168.00 189.00,168.00 189.00,165.00 186.00,165.00 186.00,162.00 192.00,162.00 192.00,180.00 186.00,180.00 186.00,177.00 189.00,177.00 189.00,174.00 183.00,174.00 183.00,183.00 204.00,183.00 204.00,174.00 198.00,174.00 198.00,177.00 201.00,177.00 201.00,180.00 195.00,180.00 195.00,162.00 201.00,162.00 201.00,165.00 198.00,165.00 198.00,168.00 204.00,168.00 204.00,159.00 "
     style="fill:none;fill-rule:evenodd;stroke:#000000;stroke-width:1px;stroke-linecap:butt;stroke-linejoin:miter;stroke-opacity:1"
     id="path118" />
  <path
     d="M 183.00,183.00 183.00,192.00 189.00,192.00 189.00,189.00 186.00,189.00 186.00,186.00 192.00,186.00 192.00,204.00 186.00,204.00 186.00,201.00 189.00,201.00 189.00,198.00 183.00,198.00 183.00,207.00 204.00,207.00 204.00,198.00 198.00,198.00 198.00,201.00 201.00,201.00 201.00,204.00 195.00,204.00 195.00,186.00 201.00,186.00 201.00,189.00 198.00,189.00 198.00,192.00 204.00,192.00 204.00,183.00 "
     style="fill:none;fill-rule:evenodd;stroke:#000000;stroke-width:1px;stroke-linecap:butt;stroke-linejoin:miter;stroke-opacity:1"
     id="path119" />
  <path
     d="M 15.00,15.00 36.00,15.00 36.00,24.00 30.00,24.00 30.00,21.00 33.00,21.00 33.00,18.00 27.00,18.00 27.00,27.00 48.00,27.00 48.00,18.00 42.00,18.00 42.00,21.00 45.00,21.00 45.00,24.00 39.00,24.00 39.00,15.00 "
     style="fill:none;fill-rule:evenodd;stroke:#0000ff;stroke-width:1px;stroke-linecap:butt;stroke-linejoin:miter;stroke-opacity:1"
     id="path_120" />
  <path
     d="M 15.00,15.00 15.00,24.00 21.00,24.00 21.00,21.00 18.00,21.00 18.00,18.00 24.00,18.00 24.00,36.00 18.00,36.00 18.00,33.00 21.00,33.00 21.00,30.00 15.00,30.00 15.00,39.00 "
     style="fill:none;fill-rule:evenodd;stroke:#0000ff;stroke-width:1px;stroke-linecap:butt;stroke-linejoin:miter;stroke-opacity:1"
     id="path_121" />
  <path
     d="M 15.00,39.00 15.00,48.00 21.00,48.00 21.00,45.00 18.00,45.00 18.00,42.00 24.00,42.00 24.00,60.00 18.00,60.00 18.00,57.00 21.00,57.00 21.00,54.00 15.00,54.00 15.00,63.00 "
     style="fill:none;fill-rule:evenodd;stroke:#0000ff;stroke-width:1px;stroke-linecap:butt;stroke-linejoin:miter;stroke-opacity:1"
     id="path_122" />
  <path
     d="M 15.00,63.00 15.00,72.00 21.00,72.00 21.00,69.00 18.00,69.00 18.00,66.00 24.00,66.00 24.00,84.00 18.00,84.00 18.00,81.00 21.00,81.00 21.00,78.00 15.00,78.00 15.00,87.00 "
     style="fill:none;fill-rule:evenodd;stroke:#0000ff;stroke-width:1px;stroke-linecap:butt;stroke-linejoin:miter;stroke-opacity:1"
     id="path_123" />
  <path
     d="M 15.00,87.00 15.00,96.00 21.00,96.00 21.00,93.00 18.00,93.00 18.00,90.00 24.00,90.00 24.00,108.00 18.00,108.00 18.00,105.00 21.00,105.00 21.00,102.00 15.00,102.00 15.00,111.00 "
     style="fill:none;fill-rule:evenodd;stroke:#0000ff;stroke-width:1px;stroke-linecap:butt;stroke-linejoin:miter;stroke-opacity:1"
     id="path_124" />
  <path
     d="M 15.00,111.00 15.00,120.00 21.00,120.00 21.00,117.00 18.00,117.00 18.00,114.00 24.00,114.00 24.00,132.00 18.00,132.00 18.00,129.00 21.00,129.00 21.00,126.00 15.00,126.00 15.00,135.00 "
     style="fill:none;fill-rule:evenodd;stroke:#0000ff;stroke-width:1px;stroke-linecap:butt;stroke-linejoin:miter;stroke-opacity:1"
     id="path_125" />
  <path
     d="M 15.00,135.00 15.00,144.00 21.00,144.00 21.00,141.00 18.00,141.00 18.00,138.00 24.00,138.00 24.00,156.00 18.00,156.00 18.00,153.00 21.00,153.00 21.00,150.00 15.00,150.00 15.00,159.00 "
     style="fill:none;fill-rule:evenodd;stroke:#0000ff;stroke-width:1px;stroke-linecap:butt;stroke-linejoin:miter;stroke-opacity:1"
     id="path_126" />
  <path
     d="M 15.00,159.00 15.00,168.00 21.00,168.00 21.00,165.00 18.00,165.00 18.00,162.00 24.00,162.00 24.00,180.00 18.00,180.00 18.00,177.00 21.00,177.00 21.00,174.00 15.00,174.00 15.00,183.00 "
     style="fill:none;fill-rule:evenodd;stroke:#0000ff;stroke-width:1px;stroke-linecap:butt;stroke-linejoin:miter;stroke-opacity:1"
     id="path_127" />
  <path
     d="M 15.00,183.00 15.00,192.00 21.00,192.00 21.00,189.00 18.00,189.00 18.00,186.00 24.00,186.00 24.00,204.00 18.00,204.00 18.00,201.00 21.00,201.00 21.00,198.00 15.00,198.00 15.00,207.00 "
     style="fill:none;fill-rule:evenodd;stroke:#0000ff;stroke-width:1px;stroke-linecap:butt;stroke-linejoin:miter;stroke-opacity:1"
     id="path_128" />
  <path
     d="M 15.00,207.00 36.00,207.00 36.00,198.00 30.00,198.00 30.00,201.00 33.00,201.00 33.00,204.00 27.00,204.00 27.00,195.00 48.00,195.00 48.00,204.00 42.00,204.00 42.00,201.00 45.00,201.00 45.00,198.00 39.00,198.00 39.00,207.00 "
     style="fill:none;fill-rule:evenodd;stroke:#0000ff;stroke-width:1px;stroke-linecap:butt;stroke-linejoin:miter;stroke-opacity:1"
     id="path_129" />
  <path
     d="M 39.00,15.00 60.00,15.00 60.00,24.00 54.00,24.00 54.00,21.00 57.00,21.00 57.00,18.00 51.00,18.00 51.00,27.00 72.00,27.00 72.00,18.00 66.00,18.00 66.00,21.00 69.00,21.00 69.00,24.00 63.00,24.00 63.00,15.00 "
     style="fill:none;fill-rule:evenodd;stroke:#0000ff;stroke-width:1px;stroke-linecap:butt;stroke-linejoin:miter;stroke-opacity:1"
     id="path_130" />
  <path
     d="M 39.00,207.00 60.00,207.00 60.00,198.00 54.00,198.00 54.00,201.00 57.00,201.00 57.00,204.00 51.00,204.00 51.00,195.00 72.00,195.00 72.00,204.00 66.00,204.00 66.00,201.00 69.00,201.00 69.00,198.00 63.00,198.00 63.00,207.00 "
     style="fill:none;fill-rule:evenodd;stroke:#0000ff;stroke-width:1px;stroke-linecap:butt;stroke-linejoin:miter;stroke-opacity:1"
     id="path_131" />
  <path
     d="M 63.00,15.00 84.00,15.00 84.00,24.00 78.00,24.00 78.00,21.00 81.00,21.00 81.00,18.00 75.00,18.00 75.00,27.00 96.00,27.00 96.00,18.00 90.00,18.00 90.00,21.00 93.00,21.00 93.00,24.00 87.00,24.00 87.00,15.00 "
     style="fill:none;fill-rule:evenodd;stroke:#0000ff;stroke-width:1px;stroke-linecap:butt;stroke-linejoin:miter;stroke-opacity:1"
     id="path_132" />
  <path
     d="M 63.00,207.00 84.00,207.00 84.00,198.00 78.00,198.00 78.00,201.00 81.00,201.00 81.00,204.00 75.00,204.00 75.00,195.00 96.00,195.00 96.00,204.00 90.00,204.00 90.00,201.00 93.00,201.00 93.00,198.00 87.00,198.00 87.00,207.00 "
     style="fill:none;fill-rule:evenodd;stroke:#0000ff;stroke-width:1px;stroke-linecap:butt;stroke-linejoin:miter;stroke-opacity:1"
     id="path_133" />
  <path
     d="M 87.00,15.00 108.00,15.00 108.00,24.00 102.00,24.00 102.00,21.00 105.00,21.00 105.00,18.00 99.00,18.00 99.00,27.00 120.00,27.00 120.00,18.00 114.00,18.00 114.00,21.00 117.00,21.00 117.00,24.00 111.00,24.00 111.00,15.00 "
     style="fill:none;fill-rule:evenodd;stroke:#0000ff;stroke-width:1px;stroke-linecap:butt;stroke-linejoin:miter;stroke-opacity:1"
     id="path_134" />
  <path
     d="M 87.00,207.00 108.00,207.00 108.00,198.00 102.00,198.00 102.00,201.00 105.00,201.00 105.00,204.00 99.00,204.00 99.00,195.00 120.00,195.00 120.00,204.00 114.00,204.00 114.00,201.00 117.00,201.00 117.00,198.00 111.00,198.00 111.00,207.00 "
     style="fill:none;fill-rule:evenodd;stroke:#0000ff;stroke-width:1px;stroke-linecap:butt;stroke-linejoin:miter;stroke-opacity:1"
     id="path_135" />
  <path
     d="M 111.00,15.00 132.00,15.00 132.00,24.00 126.00,24.00 126.00,21.00 129.00,21.00 129.00,18.00 123.00,18.00 123.00,27.00 144.00,27.00 144.00,18.00 138.00,18.00 138.00,21.00 141.00,21.00 141.00,24.00 135.00,24.00 135.00,15.00 "
     style="fill:none;fill-rule:evenodd;stroke:#0000ff;stroke-width:1px;stroke-linecap:butt;stroke-linejoin:miter;stroke-opacity:1"
     id="path_136" />
  <path
     d="M 111.00,207.00 132.00,207.00 132.00,198.00 126.00,198.00 126.00,201.00 129.00,201.00 129.00,204.00 123.00,204.00 123.00,195.00 144.00,195.00 144.00,204.00 138.00,204.00 138.00,201.00 141.00,201.00 141.00,198.00 135.00,198.00 135.00,207.00 "
     style="fill:none;fill-rule:evenodd;stroke:#0000ff;stroke-width:1px;stroke-linecap:butt;stroke-linejoin:miter;stroke-opacity:1"
     id="path_137" />
  <path
     d="M 135.00,15.00 156.00,15.00 156.00,24.00 150.00,24.00 150.00,21.00 153.00,21.00 153.00,18.00 147.00,18.00 147.00,27.00 168.00,27.00 168.00,18.00 162.00,18.00 162.00,21.00 165.00,21.00 165.00,24.00 159.00,24.00 159.00,15.00 "
     style="fill:none;fill-rule:evenodd;stroke:#0000ff;stroke-width:1px;stroke-linecap:butt;stroke-linejoin:miter;stroke-opacity:1"
     id="path_138" />
  <path
     d="M 135.00,207.00 156.00,207.00 156.00,198.00 150.00,198.00 150.00,201.00 153.00,201.00 153.00,204.00 147.00,204.00 147.00,195.00 168.00,195.00 168.00,204.00 162.00,204.00 162.00,201.00 165.00,201.00 165.00,198.00 159.00,198.00 159.00,207.00 "
     style="fill:none;fill-rule:evenodd;stroke:#0000ff;stroke-width:1px;stroke-linecap:butt;stroke-linejoin:miter;stroke-opacity:1"
     id="path_139" />
  <path
     d="M 159.00,15.00 180.00,15.00 180.00,24.00 174.00,24.00 174.00,21.00 177.00,21.00 177.00,18.00 171.00,18.00 171.00,27.00 192.00,27.00 192.00,18.00 186.00,18.00 186.00,21.00 189.00,21.00 189.00,24.00 183.00,24.00 183.00,15.00 "
     style="fill:none;fill-rule:evenodd;stroke:#0000ff;stroke-width:1px;stroke-linecap:butt;stroke-linejoin:miter;stroke-opacity:1"
     id="path_140" />
  <path
     d="M 159.00,207.00 180.00,207.00 180.00,198.00 174.00,198.00 174.00,201.00 177.00,201.00 177.00,204.00 171.00,204.00 171.00,195.00 192.00,195.00 192.00,204.00 186.00,204.00 186.00,201.00 189.00,201.00 189.00,198.00 183.00,198.00 183.00,207.00 "
     style="fill:none;fill-rule:evenodd;stroke:#0000ff;stroke-width:1px;stroke-linecap:butt;stroke-linejoin:miter;stroke-opacity:1"
     id="path_141" />
  <path
     d="M 183.00,15.00 204.00,15.00"
     style="fill:none;fill-rule:evenodd;stroke:#0000ff;stroke-width:1px;stroke-linecap:butt;stroke-linejoin:miter;stroke-opacity:1"
     id="path_142" />
  <path
     d="M 204.00,39.00 204.00,30.00 198.00,30.00 198.00,33.00 201.00,33.00 201.00,36.00 195.00,36.00 195.00,18.00 201.00,18.00 201.00,21.00 198.00,21.00 198.00,24.00 204.00,24.00 204.00,15.00 "
     style="fill:none;fill-rule:evenodd;stroke:#0000ff;stroke-width:1px;stroke-linecap:butt;stroke-linejoin:miter;stroke-opacity:1"
     id="path_143" />
  <path
     d="M 204.00,63.00 204.00,54.00 198.00,54.00 198.00,57.00 201.00,57.00 201.00,60.00 195.00,60.00 195.00,42.00 201.00,42.00 201.00,45.00 198.00,45.00 198.00,48.00 204.00,48.00 204.00,39.00 "
     style="fill:none;fill-rule:evenodd;stroke:#0000ff;stroke-width:1px;stroke-linecap:butt;stroke-linejoin:miter;stroke-opacity:1"
     id="path_144" />
  <path
     d="M 204.00,87.00 204.00,78.00 198.00,78.00 198.00,81.00 201.00,81.00 201.00,84.00 195.00,84.00 195.00,66.00 201.00,66.00 201.00,69.00 198.00,69.00 198.00,72.00 204.00,72.00 204.00,63.00 "
     style="fill:none;fill-rule:evenodd;stroke:#0000ff;stroke-width:1px;stroke-linecap:butt;stroke-linejoin:miter;stroke-opacity:1"
     id="path_145" />
  <path
     d="M 204.00,111.00 204.00,102.00 198.00,102.00 198.00,105.00 201.00,105.00 201.00,108.00 195.00,108.00 195.00,90.00 201.00,90.00 201.00,93.00 198.00,93.00 198.00,96.00 204.00,96.00 204.00,87.00 "
     style="fill:none;fill-rule:evenodd;stroke:#0000ff;stroke-width:1px;stroke-linecap:butt;stroke-linejoin:miter;stroke-opacity:1"
     id="path_146" />
  <path
     d="M 204.00,135.00 204.00,126.00 198.00,126.00 198.00,129.00 201.00,129.00 201.00,132.00 195.00,132.00 195.00,114.00 201.00,114.00 201.00,117.00 198.00,117.00 198.00,120.00 204.00,120.00 204.00,111.00 "
     style="fill:none;fill-rule:evenodd;stroke:#0000ff;stroke-width:1px;stroke-linecap:butt;stroke-linejoin:miter;stroke-opacity:1"
     id="path_147" />
  <path
     d="M 204.00,159.00 204.00,150.00 198.00,150.00 198.00,153.00 201.00,153.00 201.00,156.00 195.00,156.00 195.00,138.00 201.00,138.00 201.00,141.00 198.00,141.00 198.00,144.00 204.00,144.00 204.00,135.00 "
     style="fill:none;fill-rule:evenodd;stroke:#0000ff;stroke-width:1px;stroke-linecap:butt;stroke-linejoin:miter;stroke-opacity:1"
     id="path_148" />
  <path
     d="M 204.00,183.00 204.00,174.00 198.00,174.00 198.00,177.00 201.00,177.00 201.00,180.00 195.00,180.00 195.00,162.00 201.00,162.00 201.00,165.00 198.00,165.00 198.00,168.00 204.00,168.00 204.00,159.00 "
     style="fill:none;fill-rule:evenodd;stroke:#0000ff;stroke-width:1px;stroke-linecap:butt;stroke-linejoin:miter;stroke-opacity:1"
     id="path_149" />
  <path
     d="M 204.00,207.00 204.00,198.00 198.00,198.00 198.00,201.00 201.00,201.00 201.00,204.00 195.00,204.00 195.00,186.00 201.00,186.00 201.00,189.00 198.00,189.00 198.00,192.00 204.00,192.00 204.00,183.00 "
     style="fill:none;fill-rule:evenodd;stroke:#0000ff;stroke-width:1px;stroke-linecap:butt;stroke-linejoin:miter;stroke-opacity:1"
     id="path_150" />
  <path
     d="M 183.00,207.00 204.00,207.00"
     style="fill:none;fill-rule:evenodd;stroke:#0000ff;stroke-width:1px;stroke-linecap:butt;stroke-linejoin:miter;stroke-opacity:1"
     id="path_151" />
  <path
     d="M 15.000000,39.000000 h 21 v 9 h -6 v -3 h 3 v -3 h -6 v 9 h 21 v 9 h -6 v -3 h 3 v -3 h -6 v 9 h 21 v -9 h -6 v 3 h 3 v 3 h -6 v -9 h 21 v -9 h -6 v 3 h 3 v 3 h -6 v -18 h 6 v 3 h -3 v 3 h 6 v -9"
     style="fill:none;fill-rule:evenodd;stroke:#0000ff;stroke-width:1px;stroke-linecap:butt;stroke-linejoin:miter;stroke-opacity:1"
     id="red_cut" />
  <path
     d="M 60.000000,63.000000 v 9 h -6 v -3 h 3 v -3 h -6 v 18 h 6 v -3 h -3 v -3 h 6 v 18 h -6 v -3 h 3 v -3 h -6 v 18 h 6 v -3 h -3 v -3 h 6 v 18 h -6 v -3 h 3 v -3 h -6 v 18 h 6 v -3 h -3 v -3 h 6 v 18 h -6 v -3 h 3 v -3 h -6 v 18 h 6 v -3 h -3 v -3 h 6 v 9 h -21 v 9 h 6 v -3 h -3 v -3 h 6 v 18 h -6 v -3 h 3 v -3 h -6 v 18 h 6 v -3 h -3 v -3 h 6 v 9"
     style="fill:none;fill-rule:evenodd;stroke:#0000ff;stroke-width:1px;stroke-linecap:butt;stroke-linejoin:miter;stroke-opacity:1"
     id="purple_cut" />
  <path
     d="M 51.000000,123.000000 h 21 v -9 h -6 v 3 h 3 v 3 h -6 v -9 h 21 v 9 h -6 v -3 h 3 v -3 h -6 v 9 h 21 v 9 h -6 v -3 h 3 v -3 h -6 v 9 h 21 v 9 h -6 v -3 h 3 v -3 h -6 v 18 h 6 v -3 h -3 v -3 h 6 v 9 h -21 v -9 h 6 v 3 h -3 v 3 h 6 v -9 h -21 v 9 h 6 v -3 h -3 v -3 h 6 v 18 h -6 v -3 h 3 v -3 h -6 v 18 h 6 v -3 h -3 v -3 h 6 v 9 h -21 v -9 h 6 v 3 h -3 v 3 h 6 v -9 h -21 v 9 h 6 v -3 h -3 v -3 h 6 v 18 h -6 v -3 h 3 v -3 h -6 v 9"
     style="fill:none;fill-rule:evenodd;stroke:#0000ff;stroke-width:1px;stroke-linecap:butt;stroke-linejoin:miter;stroke-opacity:1"
     id="lightblue_cut" />
  <path
     d="M 51.000000,75.000000 h 21 v 9 h -6 v -3 h 3 v -3 h -6 v 9 h 21 v 9 h -6 v -3 h 3 v -3 h -6 v 9 h 21 v -9 h -6 v 3 h 3 v 3 h -6 v -9 h 21 v -9 h -6 v 3 h 3 v 3 h -6 v -18 h 6 v 3 h -3 v 3 h 6 v -18 h -6 v 3 h 3 v 3 h -6 v -9 h 21 v 9 h -6 v -3 h 3 v -3 h -6 v 9 h 21 v -9 h -6 v 3 h 3 v 3 h -6 v -18 h 6 v 3 h -3 v 3 h 6 v -18 h -6 v 3 h 3 v 3 h -6 v -9"
     style="fill:none;fill-rule:evenodd;stroke:#0000ff;stroke-width:1px;stroke-linecap:butt;stroke-linejoin:miter;stroke-opacity:1"
     id="green_cut" />
  <path
     d="M 99.000000,147.000000 h 21 v -9 h -6 v 3 h 3 v 3 h -6 v -9 h 21 v -9 h -6 v 3 h 3 v 3 h -6 v -18 h 6 v 3 h -3 v 3 h 6 v -18 h -6 v 3 h 3 v 3 h -6 v -9 h 21 v -9 h -6 v 3 h 3 v 3 h -6 v -18 h 6 v 3 h -3 v 3 h 6 v -9 h -21 v -9 h 6 v 3 h -3 v 3 h 6 v -9"
     style="fill:none;fill-rule:evenodd;stroke:#0000ff;stroke-width:1px;stroke-linecap:butt;stroke-linejoin:miter;stroke-opacity:1"
     id="maroon_cut" />
  <path
     d="M 123.000000,123.000000 h 21 v 9 h -6 v -3 h 3 v -3 h -6 v 18 h 6 v -3 h -3 v -3 h 6 v 18 h -6 v -3 h 3 v -3 h -6 v 18 h 6 v -3 h -3 v -3 h 6 v 9 h -21 v 9 h 6 v -3 h -3 v -3 h 6 v 18 h -6 v -3 h 3 v -3 h -6 v 9"
     style="fill:none;fill-rule:evenodd;stroke:#0000ff;stroke-width:1px;stroke-linecap:butt;stroke-linejoin:miter;stroke-opacity:1"
     id="lightgreen_cut" />
  <path
     d="M 123.000000,51.000000 h 21 v -9 h -6 v 3 h 3 v 3 h -6 v -9 h 21 v 9 h -6 v -3 h 3 v -3 h -6 v 9 h 21 v 9 h -6 v -3 h 3 v -3 h -6 v 9 h 21 v -9 h -6 v 3 h 3 v 3 h -6 v -9 h 21 v 9 h -6 v -3 h 3 v -3 h -6 v 9 h 21"
     style="fill:none;fill-rule:evenodd;stroke:#0000ff;stroke-width:1px;stroke-linecap:butt;stroke-linejoin:miter;stroke-opacity:1"
     id="orange_cut" />
  <path
     d="M 135.000000,87.000000 h 21 v 9 h -6 v -3 h 3 v -3 h -6 v 9 h 21 v -9 h -6 v 3 h 3 v 3 h -6 v -9 h 21 v 9 h -6 v -3 h 3 v -3 h -6 v 9 h 21 v 9 h -6 v -3 h 3 v -3 h -6 v 9 h 21"
     style="fill:none;fill-rule:evenodd;stroke:#0000ff;stroke-width:1px;stroke-linecap:butt;stroke-linejoin:miter;stroke-opacity:1"
     id="path2563" />
  <path
     d="M 135.000000,135.000000 h 21 v 9 h -6 v -3 h 3 v -3 h -6 v 9 h 21 v 9 h -6 v -3 h 3 v -3 h -6 v 9 h 21 v -9 h -6 v 3 h 3 v 3 h -6 v -9 h 21 v 9 h -6 v -3 h 3 v -3 h -6 v 9 h 21"
     style="fill:none;fill-rule:evenodd;stroke:#0000ff;stroke-width:1px;stroke-linecap:butt;stroke-linejoin:miter;stroke-opacity:1"
     id="yellow_cut" />
  <path
     d="M 10.000000,0.000000 H 212.000000 A 10.000000 10.000000 0 0 1 222.000000 10.000000 V 212.000000 A 10.000000 10.000000 0 0 1 212.000000 222.000000 H 10.000000 A 10.000000 10.000000 0 0 1 0.000000 212.000000 V 10.000000 A 10.000000 10.000000 0 0 1 10.000000 0.000000"
     style="fill:none;fill-rule:evenodd;stroke:#ff0000;stroke-width:1px;stroke-linecap:butt;stroke-linejoin:miter;stroke-opacity:1"
     id="path_152" />
  <g
     id="g4185"
     transform="matrix(0.01210366,0,0,-0.01210366,170.68442,221.22991)"
     style="fill:none;stroke:#000000;stroke-opacity:1">
    <g
       transform="matrix(1.6711863,0,0,1.6711863,-22.84816,-1.0983378)"
       id="g5312"
       style="fill:none;stroke:#000000;stroke-opacity:1">
      <path
         inkscape:connector-curvature="0"
         id="path4203"
         style="fill:none;fill-opacity:1;fill-rule:evenodd;stroke:#000000;stroke-opacity:1"
         d="m 413.50674,227.55682 h -47.11397 v -29.44817 h 39.76942 c 9.10878,0 23.55696,2.00517 23.55696,10.32123 v 10.29014 c 0,6.01556 -9.80051,8.8368 -16.21241,8.8368 z m -107.50253,55.95073 h 100.15798 c 29.14505,0 41.34712,-1.9119 59.50254,-14.11397 11.20724,-7.53108 25.89635,-29.75128 25.89635,-47.72794 v -17.66581 c 0,-13.69428 -15.05438,-40.04919 -25.01034,-42.71499 0.87825,-3.40415 8.58807,-16.88083 11.26165,-22.56216 3.36529,-7.10363 7.04144,-18.24092 9.50518,-25.83419 4.46114,-13.569938 12.98703,-39.287537 18.97149,-51.699448 h -66.27199 c -0.52072,6.341966 -12.24092,38.673551 -15.30309,46.507748 -5.73575,14.6347 -9.20207,32.99998 -28.87305,32.99998 H 366.39277 V 61.189042 H 306.00421 Z M 582.85895,118.59315 H 699.19049 V 61.189042 h -176.689 V 283.50755 H 694.79152 V 226.09568 H 582.85895 V 203.99983 H 687.41589 V 146.58796 H 582.85895 Z m -400.53861,85.52327 0.0933,-0.11664 h 88.25902 V 145.10344 H 182.32038 L 180.83592,61.188987 H 120.47845 V 283.50749 H 283.93949 V 226.09562 H 182.32038 v -21.97926 z m 538.97376,79.39113 h 60.35748 V 61.189042 H 721.2941 Z" />
      <path
         inkscape:connector-curvature="0"
         id="path4205"
         style="fill:none;fill-opacity:1;fill-rule:evenodd;stroke:#000000;stroke-opacity:1"
         d="m 1219.0062,202.53869 h -13.2357 c -12.1166,0 -36.8238,-19.82641 -36.8238,-30.93262 v -69.19426 c 0,-8.829005 28.5932,-22.095836 41.2227,-22.095836 31.5155,0 41.2306,31.266816 41.2306,63.295296 v 4.43782 c 0,23.03626 -11.6891,54.4896 -32.3938,54.4896 z M 1168.9467,74.424786 V 62.64241 h -27.9948 V 282.0231 h 27.9948 v -78.02327 c 12.474,8.34716 21.4274,22.09585 44.1683,22.09585 h 1.4923 c 41.588,0 66.2408,-36.45853 66.2408,-78.04659 v -2.94559 c 0,-43.36008 -23.0751,-86.860051 -64.7875,-86.860051 -26.0751,0 -31.7875,5.922276 -47.1139,16.181337 z M 987.81989,103.87295 c 0,-13.997397 17.36261,-23.556976 32.39371,-23.556976 h 4.399 c 15.5129,0 45.6605,14.26942 45.6605,27.955946 v 30.94039 h -23.5569 c -27.9016,0 -58.89631,-6.98704 -58.89631,-33.88599 z m -27.99487,1.45337 c 0,43.38339 45.45078,54.49737 89.83678,54.49737 h 20.6113 v 13.23575 c 0,16.36787 -9.987,29.47925 -26.5025,29.47925 h -23.557 c -17.6114,0 -24.52848,-11.72019 -27.96371,-26.53366 h -27.987 c 0,38.37823 33.2409,50.09065 72.13201,50.09065 h 1.4845 c 44.2072,0 60.3886,-21.79273 60.3886,-66.27199 V 62.64241 h -27.9949 v 14.72797 c -3.3341,-0.88601 -17.1839,-10.538854 -23.5258,-13.266832 -4.8886,-2.129531 -23.7746,-5.860099 -30.9638,-5.860099 -27.56728,0 -55.95848,15.303099 -55.95848,41.230545 z M 828.79664,87.691617 H 936.2681 V 62.64241 H 799.31737 V 282.0231 h 29.47927 z m 506.54886,53.005153 c -0.3963,18.00776 -7.7098,72.89373 -12.6606,87.43518 -7.8342,22.91966 -25.4456,44.08287 -43.9041,56.25384 -41.7435,27.56735 -88.8574,41.19946 -150.9714,47.82122 -59.8679,6.34196 -122.3549,10.1658 -190.04911,10.1658 -41.16836,0 -169.35224,-3.06218 -169.35224,29.47924 v 2.9456 c 0,56.23053 362.22255,83.91447 450.59815,83.91447 h 101.6114 c 114.303,0 359.308,-18.88601 359.308,-117.79268 v -1.46114 c 0,-30.59843 -34.1891,-68.42483 -49.0025,-87.94813 -10.5,-13.81088 -52.127,-66.7927 -62.9067,-74.01291 v 8.82901 h 4.4067 c -0.6684,8.23056 -7.1658,14.96891 -8.7435,23.65025 -1.5233,8.71243 -1.9741,18.61397 -5.9845,24.95594 0,-16.15026 -13.2668,-38.58807 -13.2668,-44.16836 0,-2.64249 2.215,-2.43265 4.43,-2.9456 l -9.8626,-22.31346 c 1.2124,-0.88601 5.4326,-3.2487 5.4326,-5.68135 0,-8.01294 -11.0829,-19.82641 -16.1813,-23.55697 l -1.4223,-0.54404 -5.6192,14.81345 5.5881,0.45079 -6.4974,17.43262 9.4119,0.24094 c -1.8264,7.98186 -10.2979,14.90672 -10.2979,23.55698 v 4.43005 h 7.3834 l -10.4767,28.87304 1.64,0.57513 h 2.9144 l -4.9818,20.46371 6.4663,0.12443 -14.6581,53.03623 c -7.259,-5.28496 -2.9456,-12.69169 -6.4662,-23.04401 -3.5286,-10.29017 -5.6814,-10.43783 -9.8084,-18.18652 l 7.3135,-1.81867 -13.2979,-31.99737 c 3.4352,-0.97152 5.9844,-1.49224 5.9844,-5.95338 v -1.48445 c 0,-8.16839 -8.044,-14.09066 -8.8056,-23.52589 h 5.8601 c -0.272,-12.57512 -6.9249,-17.79791 -11.7824,-25.04921 l 4.6788,-5.65026 -11.899,-18.57511 1.3368,-0.82383 c -11.4482,0 -17.0363,7.29015 -19.127,16.21242 h 10.2902 l -11.9301,25.74869 1.6399,0.75389 h 5.8835 c -2.0596,7.74093 -8.829,7.1658 -8.829,20.61915 0,4.8886 2.9455,3.06217 2.9455,5.88342 0,4.10362 -5.8911,11.60363 -5.8911,17.67357 0,4.61657 2.6425,4.18911 5.8911,5.89118 l -14.5181,27.26423 5.6814,0.69172 c 2.8523,0 2.6114,-0.45078 4.3989,-1.45337 -0.9093,11.0207 -16.1813,28.08028 -16.1813,57.41187 -5.8601,-1.5544 -9.4741,-22.86526 -11.9922,-29.23832 -2.8524,-7.34455 -10.8653,-19.76424 -11.5648,-28.17355 l 5.829,1.6399 -14.4793,-37.91968 5.7047,-0.52072 c 2.8524,0 2.6114,0.45855 4.399,1.46115 l -11.0207,-27.66061 8.1683,-1.39119 -12.6606,-23.50259 11.1451,-3.18652 -11.386,-20.21501 c 5.7357,-0.69948 8.4093,-0.12435 8.4093,-5.01295 0,-0.57513 -10.5932,-14.72797 -14.7202,-14.72797 -5.2538,0 -5.7746,3.4974 -5.9223,8.83678 h 4.4301 l -8.4404,12.45077 6.987,0.78497 c -0.272,11.23834 -8.8679,16.24352 -8.8679,25.04921 0,4.43005 1.7643,4.06476 5.8912,4.39896 l -11.3549,23.01293 1.0648,1.27461 h 2.9456 l -11.9068,41.4715 -13.2668,-39.22537 4.4378,1.70206 -10.4145,-26.65024 6.1322,-0.12435 c 0,-15.11657 -9.3187,-13.05699 -10.3213,-25.01812 h 7.3446 l -7.3446,-17.66579 v -2.9456 c 3.2487,-0.0622 7.3446,0.45078 7.3446,-2.94559 0,-4.58549 -3.6451,-10.44559 -7.3446,-11.78238 v 4.43782 c 0,6.37305 -2.3394,4.52332 -2.9456,11.77461 z m 153.1632,-35.37045 c -1.0337,1.82642 -1.4923,1.60881 -1.4923,4.43782 0,4.3057 5.8912,11.29274 8.899,13.29792 l 6.3419,-11.0518 -17.2383,-12.233159 z m -92.658,-35.424847 -5.9534,1.756476 -1.2435,0.971501 8.7746,7.896369 -4.6477,5.673571 c 1.9741,2.976683 5.8912,5.953365 5.8912,10.297921 0,0.909326 -2.0285,3.062174 -2.5492,3.971499 l 5.4016,6.07772 -4.5778,1.91191 9.0778,14.57253 2.3937,-0.39637 9.3809,-15.81605 -3.6684,-0.73057 5.1606,-3.67617 c -0.9404,-3.940406 -1.4922,-2.790148 -1.4922,-5.914499 0,-2.611397 4.6165,-7.655436 5.8911,-13.235743 l -6.5596,-0.668394 9.5674,-11.354915 -6.4663,-1.523314 3.4897,-5.70466 -23.5881,-2.821243 -11.0207,0.57513 z m -45.785,26.595838 c 0.031,0.06218 1.4923,2.759065 1.4923,2.976683 0,5.611396 0.4197,0.512953 -1.7954,4.577716 l 8.8368,12.93263 6.7384,-17.090658 5.3471,-7.803104 h -2.9456 V 86.19939 c 0,-8.191704 5.6425,-9.769423 7.3445,-16.181337 -11.9611,1.00259 -20.246,17.518124 -25.0181,26.479258 z m 79.5466,-26.479258 10.2902,13.243515 -7.8031,0.240933 7.8031,15.971493 -3.3731,0.27202 6.3187,11.502586 -3.9482,0.54404 11.2927,17.12952 c 2.6114,-1.76425 10.3212,-12.87823 10.3212,-16.21242 0,-5.61917 0.4586,-0.55182 -1.6943,-4.58549 l 4.64,-7.19689 c -0.031,-0.0311 -1.4845,-2.735749 -1.4845,-2.945594 0,-4.367873 3.9171,-7.344556 5.8912,-10.290149 -2.2772,-3.124351 -29.3316,-19.158019 -32.3938,-19.158019 -0.3653,0 -5.4093,1.27461 -5.8601,1.484455" />
    </g>
  </g>
</svg>
