<?xml version="1.0" encoding="UTF-8" standalone="no"?>
<!-- Created with Inkscape (http://www.inkscape.org/) -->

<svg
   xmlns:dc="http://purl.org/dc/elements/1.1/"
   xmlns:cc="http://creativecommons.org/ns#"
   xmlns:rdf="http://www.w3.org/1999/02/22-rdf-syntax-ns#"
   xmlns:svg="http://www.w3.org/2000/svg"
   xmlns="http://www.w3.org/2000/svg"
   xmlns:sodipodi="http://sodipodi.sourceforge.net/DTD/sodipodi-0.dtd"
   xmlns:inkscape="http://www.inkscape.org/namespaces/inkscape"
   width="210mm"
   height="297mm"
   viewBox="0 0 210 297"
   version="1.1"
   id="svg8"
   inkscape:version="0.92.2 (5c3e80d, 2017-08-06)"
   sodipodi:docname="Front_Sketch.svg">
  <defs
     id="defs2">
    <inkscape:path-effect
       effect="mirror_symmetry"
       start_point="0,16.889713"
       end_point="0,54.336839"
       center_point="0,35.613276"
       id="path-effect1105"
       is_visible="true"
       mode="free"
       discard_orig_path="false"
       fuse_paths="false"
       oposite_fuse="false" />
    <inkscape:path-effect
       effect="mirror_symmetry"
       start_point="0,-5.1677141"
       end_point="0,418.82948"
       center_point="0,206.83088"
       id="path-effect828"
       is_visible="true"
       mode="free"
       discard_orig_path="false"
       fuse_paths="false"
       oposite_fuse="false" />
  </defs>
  <sodipodi:namedview
     id="base"
     pagecolor="#ffffff"
     bordercolor="#666666"
     borderopacity="1.0"
     inkscape:pageopacity="0.0"
     inkscape:pageshadow="2"
     inkscape:zoom="0.35"
     inkscape:cx="-333.34074"
     inkscape:cy="698.86228"
     inkscape:document-units="mm"
     inkscape:current-layer="layer1"
     showgrid="false"
     inkscape:window-width="1920"
     inkscape:window-height="1001"
     inkscape:window-x="-9"
     inkscape:window-y="-9"
     inkscape:window-maximized="1" />
  <metadata
     id="metadata5">
    <rdf:RDF>
      <cc:Work
         rdf:about="">
        <dc:format>image/svg+xml</dc:format>
        <dc:type
           rdf:resource="http://purl.org/dc/dcmitype/StillImage" />
        <dc:title></dc:title>
      </cc:Work>
    </rdf:RDF>
  </metadata>
  <g
     inkscape:label="Ebene 1"
     inkscape:groupmode="layer"
     id="layer1">
    <path
       style="fill:none;stroke:#000000;stroke-width:0.37771913px;stroke-linecap:butt;stroke-linejoin:miter;stroke-opacity:1"
       d="m 0.00127291,18.577265 c 0,0 4.32485509,0.161278 7.99344899,-1.775618 4.2088541,-2.222135 3.7911851,-4.101705 19.0271341,-4.905543 8.728832,-0.460527 38.860537,-0.163208 40.013529,1.684964 1.152993,1.848173 1.086923,7.577235 0.398827,9.122221 -0.688095,1.544986 -4.821255,4.571045 -5.360859,12.530128 -0.53959,7.959082 -0.877369,13.749955 -5.039563,17.646902 -3.342519,3.12951 -10.621304,5.175578 -21.076032,5.108125 -9.638286,-0.06218 -16.061603,-0.0858 -22.462845,-8.952768 C 6.7501408,39.692852 8.0263105,25.925793 -2.2208715e-4,25.925793 M -0.00127291,18.577265 c 0,0 -4.32485509,0.161278 -7.99344899,-1.775618 -4.2088541,-2.222135 -3.7911851,-4.101705 -19.0271341,-4.905543 -8.728832,-0.460527 -38.860537,-0.163208 -40.013529,1.684964 -1.152993,1.848173 -1.086923,7.577235 -0.398827,9.122221 0.688095,1.544986 4.821255,4.571045 5.360859,12.530128 0.53959,7.959082 0.877369,13.749955 5.039563,17.646902 3.342519,3.12951 10.621304,5.175578 21.076032,5.108125 9.638286,-0.06218 16.061603,-0.0858 22.462845,-8.952768 6.7447722,-9.342824 5.4686025,-23.109883 13.49513508715,-23.109883"
       id="path826"
       inkscape:connector-curvature="0"
       inkscape:path-effect="#path-effect828"
       inkscape:original-d="m 0.00127291,18.577265 c 0,0 4.32485509,0.161278 7.99344899,-1.775618 4.2088541,-2.222135 3.7911851,-4.101705 19.0271341,-4.905543 8.728832,-0.460527 38.860537,-0.163208 40.013529,1.684964 1.152993,1.848173 1.086923,7.577235 0.398827,9.122221 -0.688095,1.544986 -4.821255,4.571045 -5.360859,12.530128 -0.53959,7.959082 -0.877369,13.749955 -5.039563,17.646902 -3.342519,3.12951 -10.621304,5.175578 -21.076032,5.108125 -9.638286,-0.06218 -16.061603,-0.0858 -22.462845,-8.952768 C 6.7501408,39.692852 8.0263105,25.925793 -2.2208715e-4,25.925793"
       sodipodi:nodetypes="csszzcsssc" />
    <path
       style="fill:none;stroke:#000000;stroke-width:0.37771913px;stroke-linecap:butt;stroke-linejoin:miter;stroke-opacity:1"
       d="m 26.276659,17.165622 c 7.217135,-0.06745 23.2702,-1.618796 28.194038,3.439943 4.923837,5.058739 4.181892,12.006073 3.642293,18.144009 -0.539598,6.137939 -1.625729,10.361627 -5.73324,12.815471 -4.467154,2.668697 -10.196497,2.771231 -14.985437,2.771231 -4.788941,0 -12.885751,0.40452 -17.475204,-3.611093 -4.589454,-4.015621 -9.388783,-13.931654 -9.321333,-22.362885 0.06745,-8.431232 8.461749,-11.129226 15.678883,-11.196676 z m -52.553318,0 c -7.217135,-0.06745 -23.2702,-1.618796 -28.194038,3.439943 -4.923837,5.058739 -4.181892,12.006073 -3.642293,18.144009 0.539598,6.137939 1.625729,10.361627 5.73324,12.815471 4.467154,2.668697 10.196497,2.771231 14.985437,2.771231 4.788941,0 12.885751,0.40452 17.475204,-3.611093 4.589454,-4.015621 9.388783,-13.931654 9.321333,-22.362885 -0.06745,-8.431232 -8.461749,-11.129226 -15.678883,-11.196676 z"
       id="path1103"
       inkscape:connector-curvature="0"
       sodipodi:nodetypes="zssszzsz"
       inkscape:path-effect="#path-effect1105"
       inkscape:original-d="m 26.276659,17.165622 c 7.217135,-0.06745 23.2702,-1.618796 28.194038,3.439943 4.923837,5.058739 4.181892,12.006073 3.642293,18.144009 -0.539598,6.137939 -1.625729,10.361627 -5.73324,12.815471 -4.467154,2.668697 -10.196497,2.771231 -14.985437,2.771231 -4.788941,0 -12.885751,0.40452 -17.475204,-3.611093 -4.589454,-4.015621 -9.388783,-13.931654 -9.321333,-22.362885 0.06745,-8.431232 8.461749,-11.129226 15.678883,-11.196676 z" />
  </g>
</svg>
