<?xml version="1.0" encoding="UTF-8" standalone="no"?>
<!-- Created with Inkscape (http://www.inkscape.org/) -->

<svg
   xmlns:dc="http://purl.org/dc/elements/1.1/"
   xmlns:cc="http://creativecommons.org/ns#"
   xmlns:rdf="http://www.w3.org/1999/02/22-rdf-syntax-ns#"
   xmlns:svg="http://www.w3.org/2000/svg"
   xmlns="http://www.w3.org/2000/svg"
   xmlns:sodipodi="http://sodipodi.sourceforge.net/DTD/sodipodi-0.dtd"
   xmlns:inkscape="http://www.inkscape.org/namespaces/inkscape"
   width="210mm"
   height="297mm"
   viewBox="0 0 210 297"
   version="1.1"
   id="svg7319"
   inkscape:version="0.92.2 (5c3e80d, 2017-08-06)"
   sodipodi:docname="Front_Kerf02_Heart.svg">
  <defs
     id="defs7313" />
  <sodipodi:namedview
     id="base"
     pagecolor="#ffffff"
     bordercolor="#666666"
     borderopacity="1.0"
     inkscape:pageopacity="0.0"
     inkscape:pageshadow="2"
     inkscape:zoom="0.7"
     inkscape:cx="150.63908"
     inkscape:cy="787.47886"
     inkscape:document-units="mm"
     inkscape:current-layer="layer1"
     showgrid="false"
     inkscape:window-width="1920"
     inkscape:window-height="1001"
     inkscape:window-x="-9"
     inkscape:window-y="-9"
     inkscape:window-maximized="1"
     inkscape:snap-global="true" />
  <metadata
     id="metadata7316">
    <rdf:RDF>
      <cc:Work
         rdf:about="">
        <dc:format>image/svg+xml</dc:format>
        <dc:type
           rdf:resource="http://purl.org/dc/dcmitype/StillImage" />
        <dc:title></dc:title>
      </cc:Work>
    </rdf:RDF>
  </metadata>
  <g
     inkscape:label="Ebene 1"
     inkscape:groupmode="layer"
     id="layer1">
    <path
       style="fill:none;stroke:#00ff00;stroke-width:0.26458332"
       d="M 133.92898,1.6370789 Z"
       id="path8537" />
    <path
       style="fill:none;stroke:#00ff00;stroke-width:0.26458332"
       d="M 123.24298,1.8030779 Z"
       id="path8535" />
    <path
       style="fill:none;stroke:#00ff00;stroke-width:0.26458332"
       d="M 118.83498,1.6560779 Z"
       id="path8533" />
    <path
       style="fill:none;stroke:#00ff00;stroke-width:0.26458332"
       d="M 114.35698,1.5560779 Z"
       id="path8531" />
    <path
       style="fill:none;stroke:#00ff00;stroke-width:0.26458332"
       d="M 109.98298,1.5000779 Z"
       id="path8529" />
    <path
       style="fill:none;stroke:#00ff00;stroke-width:0.26458332"
       d="M 105.89098,1.4870879 Z"
       id="path8527" />
    <path
       style="fill:none;stroke:#00ff00;stroke-width:0.26458332"
       d="M 60.60198,5.0360799 Z"
       id="path8525" />
    <path
       style="fill:none;stroke:#00ff00;stroke-width:0.26458332"
       d="M 31.70398,1.0720789 Z"
       id="path8523" />
    <path
       style="fill:none;stroke:#00ff00;stroke-width:0.26458332"
       d="M 25.09298,1.1000789 Z"
       id="path8521" />
    <path
       style="fill:none;stroke:#00ff00;stroke-width:0.26458332"
       d="M 14.27898,1.3810769 Z"
       id="path8519" />
    <path
       style="fill:none;stroke:#00ff00;stroke-width:0.26458332"
       d="m 3.5910676,2.5772929 0.253913,-0.104214 0.008,-0.0021 0.322,-0.101 0.006,-0.0021 0.3869997,-0.096 0.004,-0.0011 0.449,-0.092 0.003,-0.0011 0.508999,-0.088 h 0.003 l 0.565001,-0.084 h 0.0021 l 0.619998,-0.07899 h 0.0011 l 0.671002,-0.076 0.0011,-0.0011 1.484,-0.139999 h 0.0021 l 1.6559937,-0.124 h 0.0011 l 1.805,-0.110001 h 0.0011 l 1.933998,-0.095 2.039001,-0.082 h 0.0011 l 2.122001,-0.069 h 0.0011 l 2.183998,-0.055 h 0.0011 l 2.224,-0.044 v 0 l 2.242,-0.031 2.237002,-0.02 v 0 l 2.210999,-0.009 h 0.0011 l 2.161999,0.0011 2.092,0.01101 h 0.0011 l 1.999001,0.02101 h 0.0011 l 1.884,0.03 h 0.0011 l 1.748999,0.038 v 0 l 1.59,0.047 h 0.0011 l 1.409999,0.054 h 0.0011 l 1.207,0.061 h 0.0011 l 1.837,0.115999 h 0.0011 l 1.681001,0.127 h 0.0011 l 1.534998,0.137001 0.0011,0.0011 1.397,0.147 h 0.0021 l 1.268,0.154998 h 0.0021 l 1.148,0.165002 h 0.003 l 1.037,0.173998 0.003,0.0011 0.933998,0.182002 h 0.003 l 0.842003,0.19 0.003,0.0011 0.757002,0.197998 0.004,0.0011 0.681,0.205002 0.004,0.0021 0.615,0.213997 0.004,0.0011 0.556998,0.220001 0.004,0.0021 0.508,0.227 0.004,0.0021 0.468,0.234 0.003,0.0011 0.436999,0.240001 0.003,0.0021 0.414002,0.246001 0.0021,0.0011 0.400003,0.251 0.0021,0.0011 0.396002,0.258 0.4,0.261999 0.411998,0.268002 0.433002,0.270999 0.463999,0.274 0.503,0.28 0.306001,0.158999 0.307999,0.153001 0.311002,0.144999 0.312999,0.137002 0.316,0.131 0.317,0.123 0.32,0.115998 0.322998,0.109001 0.324001,0.100999 0.327001,0.095 0.328999,0.086 0.332002,0.08 0.333999,0.072 0.336,0.065 0.339,0.057 0.341,0.051 0.342998,0.044 0.346001,0.035 0.348001,0.029 0.349999,0.02101 0.353002,0.014 0.354999,0.007 h 0.357 l 0.361,-0.008 h 0.006 l 0.360003,0.01199 0.357999,0.004 0.355,-0.003 0.352999,-0.01 0.350001,-0.01799 0.347999,-0.025 0.346001,-0.031 0.344001,-0.04 0.341997,-0.047 0.339,-0.054 0.337,-0.061 0.335002,-0.069 0.331999,-0.076 0.329999,-0.083 0.328002,-0.09 0.325998,-0.098 0.323001,-0.106 0.322,-0.111998 0.319001,-0.119002 0.315999,-0.127 0.315,-0.135001 0.311999,-0.141999 0.310002,-0.149 0.307999,-0.155998 0.506,-0.273003 0.467,-0.270999 0.436001,-0.265999 0.414999,-0.262001 0.403,-0.258001 v 0 l 0.398,-0.252999 0.0021,-0.0011 0.403,-0.247 0.0021,-0.0011 0.417,-0.241998 0.003,-0.0021 0.439,-0.235 0.003,-0.0021 0.471001,-0.229 0.004,-0.0021 0.510001,-0.221001 0.004,-0.0011 0.559001,-0.214 0.004,-0.0021 0.617001,-0.207 0.004,-0.0011 0.683998,-0.197998 0.004,-0.0011 0.759,-0.19 0.003,-0.0011 0.843999,-0.181001 h 0.003 l 0.937001,-0.172001 0.003,-0.0011 1.039001,-0.162002 h 0.0021 l 1.149375,-0.152002 h 0.0021 l 1.27,-0.141999 0.0021,-0.0011 1.398,-0.131 h 0.0011 l 1.536001,-0.12 h 0.002 l 1.68301,-0.108998 h 10e-4 l 1.837,-0.096 h 0.001 l 1.208,-0.048 h 10e-4 l 1.410003,-0.039 h 0.001 l 1.59,-0.029 h 10e-4 l 1.749,-0.019 h 10e-4 l 1.885,-0.009 1.999,0.0011 h 0.001 l 2.092,0.01201 2.162,0.02199 h 10e-4 l 2.211,0.034 2.23601,0.044 h 10e-4 l 2.241,0.056 2.224,0.068 h 0.001 l 2.183,0.079 2.121,0.092 h 10e-4 l 2.038,0.103999 h 10e-4 l 1.932,0.117002 h 0.001 l 1.804,0.129 h 0.002 l 1.654,0.142999 10e-4,0.0011 0.543,0.057 0.939,0.099 h 0.002 l 0.67,0.083 h 0.002 l 0.619,0.087 h 0.002 l 0.564,0.089 0.002,0.0011 0.508,0.094 h 0.003 l 0.44801,0.097 0.004,0.0011 0.386,0.1 0.006,0.0021 0.32101,0.104 0.008,0.003 0.253,0.108 0.009,0.004 0.10091,0.05509 c 0.003,0.0016 0.006,0.0034 0.008,0.0051 l 0.082,0.056 c 0.004,0.0027 0.007,0.0053 0.0106,0.008 l 0.064,0.057 c 0.004,0.004 0.008,0.0082 0.0114,0.01278 l 0.046,0.058 c 0.004,0.0045 0.007,0.0093 0.01,0.01426 l 0.13703,0.252804 0.004,0.008 0.125,0.29 0.003,0.007 0.112,0.324 0.001,0.006 0.1,0.354002 0.001,0.004 0.088,0.379998 0.001,0.004 0.077,0.404 0.001,0.004 0.065,0.423 v 0.003 l 0.054,0.438999 0.001,0.0021 0.044,0.451001 v 0.003 l 0.033,0.459999 v 0.0021 l 0.022,0.466 v 0.0021 l 0.013,0.468001 v 0.0021 l 0.003,0.466 v 0.0021 l -0.006,0.4610018 v 0.0021 l -0.015,0.452001 v 0.0021 l -0.024,0.4399993 v 0.003 l -0.033,0.424 -0.001,0.0021 -0.041,0.405001 v 0.003 l -0.049,0.382 v 0.003 l -0.056,0.356003 -0.001,0.003 -0.064,0.325999 -10e-4,0.005 -0.071,0.292 -0.001,0.005 -0.078,0.256 -0.003,0.008 -0.085,0.214879 c -0.001,0.0031 -0.003,0.0062 -0.004,0.0092 l -0.10487,0.201943 -0.004,0.007 -0.13801,0.219001 -0.004,0.005 -0.169,0.237001 -0.001,0.0021 -0.195,0.257001 -10e-4,0.0021 -0.22,0.279001 h -0.001 l -0.24,0.301 -0.257,0.325999 -0.272,0.350999 -0.284,0.378002 -0.292,0.405998 -0.297,0.438002 -0.3,0.469 -0.299,0.501999 -0.295,0.536999 -0.289,0.573 -0.278,0.612 -0.267,0.651002 -0.249,0.691999 -0.232,0.733999 -0.21,0.780002 -0.184,0.825 -0.156,0.871998 -0.126,0.921001 -0.049,0.478999 -0.042,0.493001 -0.072,0.988999 -0.072,0.967 v 0.0011 l -0.074,0.945002 v 0 l -0.076,0.922999 v 0.0011 l -0.081,0.900001 v 0.0011 l -0.088,0.877998 -10e-4,0.0011 -0.096,0.856001 v 0.0021 l -0.106,0.833999 v 0.0011 l -0.118,0.813001 v 0.0021 l -0.132,0.789998 -10e-4,0.003 -0.147,0.769001 v 0.0021 l -0.164,0.746998 -0.001,0.003 -0.183,0.726001 -0.001,0.004 -0.203,0.704999 -0.001,0.003 -0.226,0.683001 -0.001,0.004 -0.251,0.662001 -0.002,0.004 -0.276,0.642001 -0.002,0.005 -0.303,0.620001 -0.003,0.005 -0.334,0.600001 -0.002,0.004 -0.36401,0.578999 -0.003,0.005 -0.39699,0.559001 -0.003,0.004 -0.212,0.271 -0.002,0.0021 -0.221,0.266999 -0.002,0.0021 -0.229,0.261001 -0.002,0.0021 -0.239,0.256998 -0.002,0.0021 -0.249,0.251 -0.002,0.0021 -0.258,0.247001 -0.003,0.003 -0.443,0.384998 -0.005,0.004 -0.485,0.374002 -0.004,0.003 -0.525,0.361 -0.004,0.003 -0.565,0.349001 -0.005,0.003 -0.605,0.333999 -0.003,0.0011 -0.644,0.321001 -0.004,0.0021 -0.684,0.307001 -0.004,0.0021 -0.723,0.291999 -0.003,0.0011 -0.761,0.277001 -0.003,0.0011 -0.799,0.261001 -0.003,0.0011 -0.837,0.246002 -0.003,0.0011 -0.875,0.228 h -0.002 l -0.912,0.212 -0.003,0.0011 -0.949,0.194 h -0.002 l -0.98601,0.176999 -0.003,0.0011 -1.021,0.158001 h -0.002 l -1.058,0.138999 h -0.002 l -1.093,0.120002 -0.002,0.0011 -1.12801,0.101 h -0.002 l -1.163,0.08 h -0.002 l -1.198,0.06 h -0.002 l -1.231,0.039 h -0.002 l -1.266,0.01701 h -0.001 l -1.299,-0.005 h -0.001 l -1.197,-0.014 h -0.001 l -1.164,-0.01799 -1.133,-0.025 h -10e-4 l -1.104,-0.037 h -0.002 l -1.07501,-0.051 h -0.002 l -1.048,-0.07 h -0.002 l -1.022993,-0.093 -0.003,-0.0011 -0.999,-0.118999 h -0.003 l -0.977,-0.15 -0.004,-0.0011 -0.954,-0.185 h -0.003 l -0.47,-0.106 -0.002,-0.0011 -0.465,-0.116999 -0.003,-0.0011 -0.461,-0.127 h -0.002 l -0.456,-0.138001 -0.0021,-0.0011 -0.451001,-0.149 -0.003,-0.0011 -0.448,-0.161999 -0.003,-0.0011 -0.443,-0.174 -0.0021,-0.0011 -0.439999,-0.187 -0.003,-0.0011 -0.435999,-0.199999 -0.0021,-0.0011 -0.432999,-0.214 -0.003,-0.0021 -0.429001,-0.229 -0.003,-0.0011 -0.426001,-0.244001 -0.0021,-0.0021 -0.424,-0.258998 -0.003,-0.0011 -0.42,-0.275 -0.0021,-0.0021 -0.418,-0.292002 -0.003,-0.0021 -0.415999,-0.308001 -0.0021,-0.0021 -0.412999,-0.325998 -0.0021,-0.0011 -0.411001,-0.343 -0.0021,-0.0021 -0.410001,-0.362 -0.0021,-0.0021 -0.407001,-0.381 -0.0021,-0.0021 -0.406001,-0.399999 -0.0021,-0.0021 -0.405,-0.418999 -0.0021,-0.0021 -0.402997,-0.441 -0.0011,-0.0011 -0.402998,-0.459999 -0.0021,-0.0021 -0.401,-0.481999 -0.0011,-0.0021 -0.400999,-0.503999 -0.0021,-0.0011 -0.401,-0.526002 -0.0011,-0.0021 -0.4,-0.549002 -0.0011,-0.0021 -0.410001,-0.596 -0.0021,-0.003 -0.390999,-0.606002 -0.0021,-0.0021 -0.372002,-0.616001 -0.0011,-0.003 -0.352999,-0.624002 -0.0011,-0.0021 -0.335999,-0.632 -0.0011,-0.0021 -0.319,-0.639 -0.0011,-0.0021 -0.304001,-0.644001 -0.0011,-0.0021 -0.29,-0.648999 -0.0011,-0.0021 -0.276,-0.652 -0.0011,-0.0021 -0.263999,-0.654999 v -0.0011 l -0.252,-0.656 -0.0011,-0.0011 -0.242001,-0.657 v -0.0021 l -0.454999,-1.312 -0.0011,-0.0021 -0.424,-1.302999 v -0.0011 l -0.401,-1.285001 v -0.0011 l -0.385001,-1.259999 -0.375999,-1.224999 -0.375002,-1.185 -0.382,-1.135002 -0.395999,-1.077 -0.206,-0.513998 -0.212,-0.497001 -0.219001,-0.477999 -0.227999,-0.458001 -0.236,-0.439 -0.247,-0.415999 -0.257,-0.394002 -0.268999,-0.370998 -0.282001,-0.347001 -0.295,-0.321001 -0.310002,-0.295 -0.323998,-0.267999 -0.341,-0.241001 -0.359,-0.211 -0.376999,-0.181999 -0.396002,-0.152 -0.416999,-0.119999 -0.438,-0.088 -0.461999,-0.054 -0.486,-0.02101 -0.485002,0.015 -0.462,0.049 -0.439999,0.083 -0.418,0.115998 -0.397999,0.147 -0.379,0.179001 -0.36,0.207 -0.344001,0.236 -0.328001,0.264999 -0.312999,0.290999 -0.298001,0.318 -0.285998,0.344001 -0.273,0.368001 -0.262001,0.390998 -0.251,0.414002 -0.241001,0.435999 -0.233,0.456001 -0.223999,0.474999 -0.218,0.495001 -0.211,0.511 -0.408001,1.072999 -0.394999,1.130001 -0.388001,1.181 -0.389999,1.220999 -0.398999,1.256001 v 0.0011 l -0.415002,1.279999 v 0.0011 l -0.437999,1.298001 -0.0011,0.0021 -0.470001,1.306999 v 0.0021 l -0.248999,0.653999 -0.0011,0.0011 -0.259,0.654 -0.0011,0.0011 -0.270999,0.651999 v 0.0021 l -0.283998,0.648999 -0.0011,0.0021 -0.297,0.645001 v 0.0021 l -0.312002,0.641 -0.0011,0.0021 -0.325999,0.635 -0.0021,0.0021 -0.342001,0.628002 -0.0021,0.0021 -0.36,0.619998 -0.0011,0.003 -0.378999,0.612 -0.0011,0.0021 -0.396999,0.602001 -0.0021,0.003 -0.417999,0.591999 -0.0011,0.0021 -0.406001,0.544002 -0.0011,0.0011 -0.406001,0.520999 -0.0021,0.0021 -0.405998,0.499999 -0.0011,0.0021 -0.407,0.477001 -0.0021,0.0021 -0.407,0.456999 -0.0021,0.0011 -0.408001,0.434999 -0.0021,0.0021 -0.409,0.416002 -0.0021,0.0021 -0.410001,0.394999 -0.0021,0.0021 -0.411998,0.376999 -0.0021,0.0021 -0.412999,0.356999 -0.0021,0.0011 -0.415002,0.339 -0.0021,0.0021 -0.416999,0.321001 -0.003,0.0021 -0.417999,0.303998 -0.003,0.0021 -0.420999,0.287001 -0.003,0.0011 -0.423,0.27 -0.0021,0.0021 -0.427,0.255001 -0.0021,0.0011 -0.428998,0.238998 -0.003,0.0021 -0.432001,0.224001 -0.0021,0.0011 -0.434998,0.209999 -0.003,0.0011 -0.437999,0.196 -0.003,0.0011 -0.442,0.182001 -0.0021,0.0011 -0.445001,0.17 h -0.003 l -0.449001,0.156998 -0.003,0.0011 -0.452998,0.144003 -0.0021,0.0011 -0.458001,0.133001 -0.0021,0.0011 -0.462002,0.121999 h -0.0021 l -0.465997,0.112001 -0.003,0.0011 -0.471001,0.101 h -0.003 l -0.957,0.174 -0.003,0.0011 -0.977998,0.138999 h -0.003 l -1.001,0.109 -0.0021,0.0011 -1.024001,0.082 h -0.003 l -1.049001,0.058 h -0.0021 l -1.076,0.04 h -0.0011 l -1.104,0.024 h -0.0011 l -1.132998,0.01299 h -0.0011 l -1.164,0.006 h -0.0011 l -1.196001,0.0011 h -0.0011 l -1.299001,-0.009 h -0.0021 l -1.266,-0.032 h -0.0011 l -1.226645,-0.05495 h -0.0011 l -1.196999,-0.073 h -0.0021 l -1.162,-0.093 h -0.0021 l -1.127,-0.114001 h -0.003 l -1.090999,-0.132001 h -0.0021 l -1.055899,-0.150997 h -0.0021 l -1.020001,-0.169 -0.0021,-0.0011 -0.984002,-0.186999 h -0.0021 l -0.947002,-0.205002 -0.003,-0.0011 -0.909,-0.220999 -0.003,-0.0011 -0.872,-0.239001 h -0.003 l -0.835001,-0.254 -0.003,-0.0011 -0.795999,-0.27 -0.003,-0.0011 -0.757999,-0.285001 -0.003,-0.0021 -0.72,-0.299998 -0.003,-0.0011 -0.680998,-0.314002 -0.003,-0.0021 -0.641001,-0.328001 -0.004,-0.0021 -0.600999,-0.342 -0.004,-0.0021 -0.562001,-0.353999 -0.004,-0.003 -0.520999,-0.366998 -0.004,-0.004 -0.479999,-0.379 -0.005,-0.003 -0.438999,-0.391001 -0.003,-0.003 -0.256,-0.248999 -0.0021,-0.0021 -0.245999,-0.254 -0.0021,-0.003 -0.236001,-0.258998 -0.0021,-0.0021 -0.227,-0.264001 -0.0011,-0.0021 -0.218001,-0.269 -0.0021,-0.0021 -0.207999,-0.274 -0.003,-0.004 -0.390999,-0.562999 -0.003,-0.005 -0.358,-0.582999 -0.003,-0.004 -0.326998,-0.603001 -0.0021,-0.005 -0.297001,-0.624001 -0.0021,-0.004 -0.269001,-0.643999 -0.0021,-0.005 -0.2430017,-0.665002 -0.0011,-0.004 -0.219001,-0.686001 -0.0011,-0.003 -0.195998,-0.707001 v -0.004 l -0.175,-0.728001 -0.0011,-0.003 -0.156001,-0.748998 -0.0011,-0.0021 -0.137999,-0.770001 -0.0011,-0.003 -0.122,-0.791998 -0.0011,-0.0021 -0.109,-0.814001 v -0.0011 l -0.097,-0.834999 v -0.0021 l -0.087,-0.857002 v -0.0011 l -0.078,-0.878999 v -0.0011 l -0.073,-0.901298 v -0.0011 l -0.066,-0.922999 v 0 l -0.063,-0.945999 v -0.0011 l -0.061,-0.968 h -0.0011 l -0.061,-0.990002 -0.036,-0.493998 -0.045,-0.479002 -0.115001,-0.921999 -0.147,-0.874 -0.175,-0.827001 -0.200999,-0.781999 -0.224002,-0.737 -0.241998,-0.694999 -0.259001,-0.653 -0.271999,-0.615 -0.281999,-0.575917 -0.289999,-0.540999 -0.293001,-0.505002 -0.295,-0.471998 -0.292,-0.441 -0.286999,-0.410001 -0.2800007,-0.379999 -0.267999,-0.354 -0.254,-0.329001 -0.237,-0.303001 v -0.0011 l -0.217001,-0.280998 -10e-4,-0.0011 -0.193,-0.259 -10e-4,-0.003 -0.166,-0.239001 -0.003,-0.005 -0.136,-0.221001 -0.004,-0.007 -0.103087,-0.202872 c -0.0017,-0.003 -0.0031,-0.0063 -0.0046,-0.0094 l -0.08226,-0.215768 -0.002,-0.008 -0.075,-0.256001 -0.002,-0.006 -0.068,-0.293999 -0.001,-0.004 -0.06,-0.326998 -10e-4,-0.003 -0.052,-0.356 -10e-4,-0.003 -0.044,-0.383 -10e-4,-0.003 -0.036,-0.4050003 v -0.0021 l -0.02799,-0.423861 v -0.003 l -0.02,-0.4410018 v -0.0021 l -0.01,-0.451998 v -0.0021 l 9.52e-4,-0.458747 v -0.0021 l 0.008,-0.466 v -0.0021 l 0.018,-0.467001 v -0.0021 l 0.028,-0.464986 v -0.0021 l 0.038,-0.459996 v -0.003 l 0.049,-0.451001 v -0.0021 l 0.059,-0.438999 v -0.003 l 0.07,-0.422 10e-4,-0.004 0.081,-0.402 10e-4,-0.004 0.092,-0.38 10e-4,-0.004 0.104,-0.352999 0.002,-0.006 0.116,-0.322001 0.002,-0.006 0.128,-0.288999 0.004,-0.009 0.140306,-0.251806 c 0.0031,-0.0048 0.0063,-0.0096 0.0098,-0.01408 l 0.046,-0.05701 c 0.0038,-0.0045 0.008,-0.0088 0.01219,-0.01291 l 0.065,-0.056 c 0.0033,-0.0024 0.0065,-0.0049 0.0098,-0.0071 l 0.083,-0.056 c 0.0029,-0.0019 0.0058,-0.0036 0.0084,-0.0052 l 0.101001,-0.054 c 0.0035,-0.0016 0.0066,-0.0032 0.0097,-0.0047 z"
       id="path8517" />
    <path
       style="fill:none;stroke:#00ff00;stroke-width:0.26458332"
       d="M 104.43198,48.244079 Z"
       id="path8515" />
    <path
       style="fill:none;stroke:#00ff00;stroke-width:0.26458332"
       d="M 133.24398,26.404079 Z"
       id="path8513" />
    <path
       style="fill:none;stroke:#00ff00;stroke-width:0.26458332"
       d="M 132.93398,1.5320789 Z"
       id="path8511" />
    <path
       style="fill:none;stroke:#00ff00;stroke-width:0.26458332"
       d="M 133.47098,7.1510799 Z"
       id="path8509" />
    <path
       style="fill:none;stroke:#00ff00;stroke-width:0.26458332"
       d="m 135.20498,7.4190789 v -2.299999 h -2.6 v 1.531998 0.768001 z"
       id="path8507" />
    <path
       style="fill:none;stroke:#00ff00;stroke-width:0.26458332"
       d="M 133.47098,6.1510789 Z"
       id="path8505" />
    <path
       style="fill:none;stroke:#00ff00;stroke-width:0.26458332"
       d="M 132.87198,11.183079 Z"
       id="path8503" />
    <path
       style="fill:none;stroke:#00ff00;stroke-width:0.26458332"
       d="m 135.20498,12.617081 v -2.300002 h -1.833 -0.767 v 2.300002 z"
       id="path8501" />
    <path
       style="fill:none;stroke:#00ff00;stroke-width:0.26458332"
       d="M 133.87198,11.183079 Z"
       id="path8499" />
    <path
       style="fill:none;stroke:#00ff00;stroke-width:0.26458332"
       d="M 86.714979,10.531079 Z"
       id="path8497" />
    <path
       style="fill:none;stroke:#00ff00;stroke-width:0.26458332"
       d="M 100.37698,7.0550779 Z"
       id="path8495" />
    <path
       style="fill:none;stroke:#00ff00;stroke-width:0.26458332"
       d="M 107.64198,44.40508 Z"
       id="path8491" />
    <path
       style="fill:none;stroke:#00ff00;stroke-width:0.26458332"
       d="M 87.574978,10.021079 Z"
       id="path8489" />
    <path
       style="fill:none;stroke:#00ff00;stroke-width:0.26458332"
       d="M 18.270981,9.5300777 Z"
       id="path8487" />
    <path
       style="fill:none;stroke:#00ff00;stroke-width:0.26458332"
       d="M 41.245979,6.7320799 Z"
       id="path8485" />
    <path
       style="fill:none;stroke:#00ff00;stroke-width:0.26458332"
       d="m 12.09898,18.756078 -0.081,0.789001 -0.056,0.792001 -0.032,0.797999 -0.01101,0.799 0.007,0.801002 0.024,0.800999 0.036,0.8 0.047,0.797999 0.055,0.795002 0.061,0.788998 0.063,0.784 0.065,0.777002 0.066,0.762 0.074,0.741 0.082,0.721997 0.09,0.702001 0.100999,0.681 0.112001,0.662001 0.123999,0.642001 0.137002,0.620998 0.151997,0.602001 0.167003,0.582999 0.183999,0.562001 0.200999,0.542999 0.219001,0.524 0.239,0.503999 0.260001,0.486 0.280998,0.465003 0.305001,0.446997 0.327999,0.429001 0.353002,0.409001 0.378999,0.390999 0.406001,0.372001 0.434999,0.355 0.463999,0.334999 0.496002,0.319 0.562999,0.323001 0.575,0.298 0.586999,0.274 0.598001,0.25 0.606999,0.227999 0.617001,0.206999 0.623001,0.186002 0.630999,0.166 0.637,0.149 0.640999,0.132001 0.645001,0.115998 0.647999,0.101 0.650002,0.087 0.650999,0.074 0.650999,0.062 0.65,0.051 0.648001,0.042 0.644999,0.033 0.642001,0.02601 0.636,0.019 0.630998,0.014 0.623001,0.01 0.616001,0.006 0.607999,0.004 v 0 l 0.619001,0.005 h 0.0011 l 0.650999,0.008 0.680001,0.007 0.704998,0.006 0.728001,0.0021 0.748001,-0.005 0.764,-0.01299 0.777999,-0.02299 0.788001,-0.036 0.795999,-0.051 0.801,-0.067 0.802999,-0.085 0.802,-0.108 0.797002,-0.129 0.789998,-0.155999 0.780002,-0.183001 0.766998,-0.211 0.751001,-0.242999 0.731999,-0.277 0.357,-0.152001 0.352002,-0.160001 0.345998,-0.17 0.339,-0.179999 0.332002,-0.189 0.323998,-0.200001 0.317,-0.21 0.309001,-0.220998 0.301001,-0.232 0.292,-0.243001 0.287998,-0.257001 0.289,-0.271999 0.289001,-0.285999 0.288999,-0.301001 0.577001,-0.644001 0.573,-0.696 0.567,-0.745 0.558001,-0.790998 0.547999,-0.834001 0.535001,-0.873001 0.518999,-0.909 0.502999,-0.942999 0.482,-0.970999 0.460002,-1.000001 0.436999,-1.021001 0.410001,-1.041 0.381,-1.058998 0.349998,-1.073001 0.316,-1.082001 0.282001,-1.088998 0.243999,-1.093002 0.107,-0.547 0.097,-0.547999 0.086,-0.546 0.076,-0.544999 0.064,-0.543002 0.053,-0.541999 0.042,-0.540001 0.029,-0.535998 0.01799,-0.533001 0.005,-0.53 -0.01201,-0.519999 -0.034,-0.504002 -0.054,-0.489 -0.074,-0.474999 -0.094,-0.460999 -0.112001,-0.446 -0.132,-0.433001 -0.149,-0.419 -0.167,-0.406 -0.183999,-0.390999 -0.201002,-0.379 -0.215997,-0.367001 -0.232,-0.352999 -0.248002,-0.34 -0.260998,-0.329001 -0.276001,-0.317 -0.289001,-0.303999 -0.301998,-0.292002 -0.315,-0.279998 -0.327001,-0.270002 -0.338,-0.256998 -0.350002,-0.2460013 -0.36,-0.235001 -0.369998,-0.225999 -0.379,-0.213 -0.38804,-0.2029858 -0.396999,-0.191997 -0.405001,-0.183002 -0.411998,-0.172 -0.419002,-0.161999 -0.425998,-0.152001 -0.432001,-0.143999 -0.436002,-0.133001 -0.440999,-0.122999 -0.895998,-0.221002 -0.909,-0.185999 -0.917001,-0.15 -0.922002,-0.118999 -0.921998,-0.085 -0.919001,-0.057 -0.911998,-0.027 -0.953,-0.02101 h -0.0011 l -1.037,-0.034 v 0 l -1.113002,-0.042 -1.177999,-0.047 -1.237001,-0.05 -1.284999,-0.047 -1.324999,-0.042 -1.357001,-0.033 -1.38,-0.02101 -1.393,-0.004 -1.398999,0.01601 -1.395,0.039 -1.383001,0.066 -1.362001,0.096 -1.332999,0.13 -0.652,0.079 -0.642001,0.089 -0.629999,0.099 -0.617001,0.109001 -0.601998,0.121999 -0.588,0.132001 -0.572,0.144999 -0.554,0.157001 -0.535001,0.17 -0.516998,0.182999 -0.495001,0.196001 -0.474001,0.21 -0.01101,0.006 -0.439999,0.219998 -0.427001,0.240001 -0.402,0.2549998 -0.375999,0.271 -0.349002,0.286999 -0.321,0.3040013 -0.302001,0.315999 -0.286998,0.321001 -0.274,0.327001 -0.259001,0.330999 -0.246999,0.335 -0.233,0.339 -0.220001,0.344 -0.208,0.346999 -0.195,0.351001 -0.183999,0.356 -0.172001,0.358 -0.160999,0.362 -0.151,0.366001 -0.139002,0.367998 -0.129997,0.372002 -0.119002,0.373999 -0.21,0.755999 -0.174,0.767001 -0.140999,0.774998 z"
       id="path8483" />
    <path
       style="fill:none;stroke:#00ff00;stroke-width:0.26458332"
       d="M 19.164979,9.0820797 Z"
       id="path8481" />
    <path
       style="fill:none;stroke:#00ff00;stroke-width:0.26458332"
       d="M 8.7379803,6.5530789 Z"
       id="path8479" />
    <path
       style="fill:none;stroke:#00ff00;stroke-width:0.26458332"
       d="m 6.4049793,7.4190789 h 1.833002 0.766998 v -2.299999 h -2.6 z"
       id="path8477" />
    <path
       style="fill:none;stroke:#00ff00;stroke-width:0.26458332"
       d="M 7.7379793,6.5530789 Z"
       id="path8475" />
    <path
       style="fill:none;stroke:#00ff00;stroke-width:0.26458332"
       d="M 8.1389793,10.585081 Z"
       id="path8473" />
    <path
       style="fill:none;stroke:#00ff00;stroke-width:0.26458332"
       d="m 9.0049793,11.08508 v -0.768001 h -2.6 v 2.300002 h 2.6 z"
       id="path8471" />
    <path
       style="fill:none;stroke:#00ff00;stroke-width:0.26458332"
       d="M 8.1389793,11.585079 Z"
       id="path4796" />
    <path
       style="fill:none;stroke:#00ff00;stroke-width:0.29126742;stroke-linecap:butt;stroke-linejoin:miter;stroke-miterlimit:4;stroke-dasharray:none;stroke-opacity:1"
       d="m 84.473348,21.146213 c -2.71703,-7.831187 4.456611,-14.582139 9.943871,-14.645011 5.487237,-0.06288 8.864131,3.776694 11.220251,6.334109 2.35611,-2.557415 5.733,-6.396986 11.22025,-6.334109 5.48724,0.06288 12.66088,6.813824 9.94386,14.645011 -2.71702,7.831184 -21.16411,23.258867 -21.16411,23.258867 0,0 -18.447112,-15.427683 -21.164122,-23.258867 z"
       id="path5928"
       inkscape:connector-curvature="0"
       sodipodi:nodetypes="sscsscs" />
  </g>
</svg>
