<?xml version="1.0" encoding="UTF-8" standalone="no"?>
<!-- Created with Inkscape (http://www.inkscape.org/) -->

<svg
   xmlns:dc="http://purl.org/dc/elements/1.1/"
   xmlns:cc="http://creativecommons.org/ns#"
   xmlns:rdf="http://www.w3.org/1999/02/22-rdf-syntax-ns#"
   xmlns:svg="http://www.w3.org/2000/svg"
   xmlns="http://www.w3.org/2000/svg"
   xmlns:sodipodi="http://sodipodi.sourceforge.net/DTD/sodipodi-0.dtd"
   xmlns:inkscape="http://www.inkscape.org/namespaces/inkscape"
   width="210mm"
   height="297mm"
   viewBox="0 0 210 297"
   version="1.1"
   id="svg7903"
   inkscape:version="0.92.2 (5c3e80d, 2017-08-06)"
   sodipodi:docname="Temples_Kerf02.svg">
  <defs
     id="defs7897" />
  <sodipodi:namedview
     id="base"
     pagecolor="#ffffff"
     bordercolor="#666666"
     borderopacity="1.0"
     inkscape:pageopacity="0.0"
     inkscape:pageshadow="2"
     inkscape:zoom="1.979899"
     inkscape:cx="261.18718"
     inkscape:cy="975.12259"
     inkscape:document-units="mm"
     inkscape:current-layer="layer1"
     showgrid="false"
     inkscape:window-width="1920"
     inkscape:window-height="1001"
     inkscape:window-x="-9"
     inkscape:window-y="-9"
     inkscape:window-maximized="1" />
  <metadata
     id="metadata7900">
    <rdf:RDF>
      <cc:Work
         rdf:about="">
        <dc:format>image/svg+xml</dc:format>
        <dc:type
           rdf:resource="http://purl.org/dc/dcmitype/StillImage" />
        <dc:title></dc:title>
      </cc:Work>
    </rdf:RDF>
  </metadata>
  <g
     inkscape:label="Ebene 1"
     inkscape:groupmode="layer"
     id="layer1">
    <path
       inkscape:connector-curvature="0"
       id="path1450"
       style="fill:none;stroke:#00ff00;stroke-width:0.26458332"
       d="m 85.367319,-0.09705437 z m 9.037,0.976001 z M 119.64432,8.6029466 Z m 30.5126,17.8209764 0.10249,-0.159999 c 0.003,-0.0043 0.005,-0.0088 0.007,-0.01323 l 0.069,-0.155497 c 0.003,-0.0059 0.005,-0.01225 0.007,-0.01902 l 0.033,-0.150997 c 0.002,-0.0077 0.002,-0.01585 0.002,-0.0241 l -0.004,-0.146002 c -2.6e-4,-0.0088 -0.002,-0.01757 -0.004,-0.02611 l -0.042,-0.139999 c -0.002,-0.0079 -0.006,-0.01556 -0.0105,-0.02283 l -0.0805,-0.133501 c -0.004,-0.0062 -0.008,-0.01167 -0.0127,-0.01667 l -0.1185,-0.128 c -0.004,-0.0038 -0.008,-0.0074 -0.0118,-0.01032 l -0.15549,-0.122513 c -0.003,-0.0021 -0.006,-0.0044 -0.009,-0.0063 l -0.19214,-0.117872 -0.007,-0.004 -0.226,-0.113001 -0.005,-0.0021 -0.257,-0.109001 -0.005,-0.0021 -0.287,-0.106 -0.004,-0.0021 -0.652,-0.206002 -0.004,-0.0011 -0.739,-0.202999 h -0.002 l -0.802,-0.208 -0.842,-0.219001 -0.855,-0.236 -0.849,-0.257 -0.826,-0.279998 -0.792,-0.301001 -0.752,-0.319 -0.709,-0.331002 -0.67,-0.339 -0.633,-0.340998 -0.601,-0.339 -0.572,-0.336002 -0.548,-0.332999 -0.528,-0.329999 -0.515,-0.328001 -0.508,-0.327999 -0.507,-0.330002 -0.512,-0.334999 -0.523,-0.344001 -0.541,-0.355999 -0.565,-0.370999 -0.594,-0.390001 -0.628,-0.411999 -0.668,-0.439002 -0.711,-0.467997 -0.758,-0.499002 -0.808,-0.533 -0.858,-0.568 v 0 l -1.243,-0.816999 -0.001,-0.0011 -1.216,-0.791001 -0.001,-0.0011 -1.19,-0.765 h -0.001 l -1.164,-0.74 h -10e-4 l -1.139,-0.712999 v 0 l -1.115,-0.6870019 v 0 l -1.09,-0.660997 h -10e-4 l -1.06679,-0.6339435 -1.044,-0.608002 h -10e-4 l -1.022,-0.580999 h -0.001 l -1.001,-0.554001 -0.001,-0.0011 -0.981,-0.526999 -0.001,-0.0011 -0.963,-0.500999 h -0.001 l -0.946,-0.474002 -0.001,-0.0011 -0.929,-0.446 -0.002,-0.0011 -0.914,-0.419999 -0.002,-0.0011 -0.902,-0.392999 -0.002,-0.0011 -0.89,-0.367001 h -0.002 l -0.88001,-0.341 -0.002,-0.0011 -0.87299,-0.314 -0.002,-0.0011 -0.867,-0.287999 -0.003,-0.0011 -0.863,-0.264001 -0.003,-0.0011 -0.862,-0.238998 -0.003,-0.0011 -0.86301,-0.216001 h -0.003 l -0.868,-0.194 h -0.002 l -0.874,-0.173001 h -0.003 l -0.884,-0.152 -0.002,-0.0011 -0.897,-0.132998 -0.002,-0.0011 -0.91199,-0.116001 h -0.001 l -0.931002,-0.1 h -0.0011 l -0.952002,-0.086 h -0.0011 l -0.975997,-0.073 h -0.0021 l -1.002001,-0.06 h -0.0011 l -1.033,-0.051 h -0.0011 l -1.065001,-0.04 -1.1,-0.033 h -0.0011 l -1.135999,-0.02601 h -0.0011 l -1.175001,-0.019 h -0.0011 l -1.216002,-0.015 v 0 l -1.258998,-0.009 v -0.0011 l -1.302002,-0.005 v 0 l -1.344998,-0.0021 h -0.0011 -81.6760055 c -0.003,0 -0.007,1.82e-4 -0.0102,7.93e-4 l -2.924,0.30700197 c -0.0551,0.0056 -0.095,0.05474 -0.089,0.109945 l 0.261,2.486503 c 0.006,0.05515 0.0547,0.095 0.10945,0.089 l 2.82477,-0.297227 0.261,2.485001 -2.82422,0.296775 c -0.0552,0.0056 -0.095,0.05477 -0.089,0.109966 l 0.262,2.4865005 c 0.006,0.05515 0.0548,0.09498 0.10945,0.08899 l 9.1657695,-0.9632285 7.87101,-0.543001 5.642,-0.374999 4.254,-0.27 3.334,-0.197001 2.692,-0.146999 2.23,-0.107001 1.888,-0.077 1.627,-0.052 1.427,-0.031 1.274,-0.01 1.154,0.007 1.062,0.025 0.992,0.042 0.943,0.062 0.915,0.083 0.902,0.107001 0.911,0.134998 0.943,0.17 1.001999,0.213 1.098999,0.270999 1.249001,0.348002 0.703,0.212 0.775999,0.244998 0.864,0.286002 0.978,0.334999 1.124001,0.4000015 1.315008,0.481896 c 0.537854,0.199633 1.120051,0.246438 1.682446,0.13513 l 4.609047,-0.898004 3.863999,-0.7289995 3.294999,-0.597001 2.848002,-0.493 2.493999,-0.408998 2.207001,-0.339 1.973001,-0.281001 1.778,-0.231 1.616998,-0.189 1.481,-0.151 1.367001,-0.118999 1.269,-0.088 1.186,-0.062 1.116,-0.037 1.055999,-0.01299 1.004002,0.008 0.959998,0.03 0.924002,0.05 0.893998,0.069 0.87,0.089 0.849,0.109 0.836,0.128 0.825,0.149001 0.819,0.17 0.818,0.191 0.821,0.214 0.828,0.238001 0.84,0.263998 0.857,0.291 0.878,0.321 0.905,0.354002 0.938,0.388998 0.978,0.428001 1.025,0.4720015 1.08,0.520999 1.146,0.5760009 1.224,0.638001 1.314,0.708998 1.421,0.791001 1.549,0.887 1.7,0.998001 1.883,1.130001 2.104,1.289999 2.373,1.481 2.708,1.716998 3.128,2.013 3.666,2.388 4.368,2.877002 0.007,0.005 0.416,0.227002 0.002,0.0011 0.401,0.21 0.002,0.0011 0.386,0.192 0.002,0.0011 0.372,0.173998 0.002,0.0011 0.358,0.157001 0.002,0.0011 0.343,0.139999 0.003,0.0011 0.329,0.121999 0.003,0.0011 0.317,0.105 0.003,0.0011 0.305,0.087 0.004,0.0011 0.295,0.071 0.004,0.0011 0.286,0.054 0.005,0.0011 0.278,0.039 0.005,0.0011 0.274,0.024 h 0.006 l 0.276,0.009 h 0.006 l 0.284,-0.01101 0.007,-0.0011 0.3,-0.034 0.008,-0.0011 0.323,-0.061 0.007,-0.0021 0.351,-0.094 0.007,-0.0011 0.384,-0.129998 0.006,-0.003 0.418,-0.169 0.005,-0.003 0.45,-0.212 0.005,-0.0021 0.473,-0.253 0.004,-0.0021 0.476,-0.289 0.004,-0.0021 0.23,-0.155001 0.003,-0.0021 0.219,-0.158998 0.003,-0.003 0.204,-0.162002 0.004,-0.004 0.184,-0.163002 0.005,-0.005 0.161,-0.164002 0.006,-0.007 0.13267,-0.162303 c 0.002,-0.0033 0.004,-0.0065 0.007,-0.0097 z M 86.36732,-0.09705437 Z" />
    <path
       inkscape:connector-curvature="0"
       id="path1450-0"
       style="fill:none;stroke:#00ff00;stroke-width:0.26458332"
       d="m 85.901858,9.9255541 z m 9.037,0.9759999 z m 25.240002,7.724 z m 30.51259,17.820975 0.1025,-0.159999 c 0.003,-0.0043 0.005,-0.0088 0.007,-0.01323 l 0.069,-0.155497 c 0.003,-0.0059 0.005,-0.01225 0.007,-0.01902 l 0.033,-0.150997 c 0.002,-0.0077 0.002,-0.01585 0.002,-0.0241 l -0.004,-0.146002 c -2.6e-4,-0.0088 -0.002,-0.01757 -0.004,-0.02611 l -0.042,-0.139999 c -0.002,-0.0079 -0.006,-0.01556 -0.0105,-0.02283 l -0.0805,-0.133501 c -0.004,-0.0062 -0.008,-0.01167 -0.0127,-0.01667 l -0.1185,-0.128 c -0.004,-0.0038 -0.008,-0.0074 -0.0118,-0.01032 l -0.1555,-0.122513 c -0.003,-0.0021 -0.006,-0.0044 -0.009,-0.0063 l -0.19213,-0.117872 -0.007,-0.004 -0.226,-0.113001 -0.005,-0.0021 -0.257,-0.109001 -0.005,-0.0021 -0.287,-0.106 -0.004,-0.0021 -0.652,-0.206002 -0.004,-0.0011 -0.739,-0.202999 h -0.002 l -0.802,-0.208 -0.842,-0.219001 -0.855,-0.236 -0.849,-0.257 -0.826,-0.279998 -0.792,-0.301001 -0.752,-0.319 -0.709,-0.331002 -0.67,-0.339 -0.633,-0.340998 -0.601,-0.339 -0.572,-0.336002 -0.548,-0.332999 -0.528,-0.329999 -0.515,-0.328 -0.508,-0.327999 -0.507,-0.330002 -0.512,-0.334999 -0.523,-0.344001 -0.541,-0.355999 -0.565,-0.370999 -0.594,-0.390001 -0.628,-0.411999 -0.668,-0.439002 -0.711,-0.467997 -0.758,-0.499002 -0.808,-0.533 -0.858,-0.568 v 0 l -1.243,-0.816999 -0.001,-0.0011 -1.216,-0.791001 -10e-4,-0.0011 -1.19,-0.765 h -0.001 l -1.164,-0.74 h -0.001 l -1.139,-0.712999 v 0 l -1.115,-0.687002 v 0 l -1.09,-0.660997 h -0.001 l -1.06671,-0.633943 -1.044,-0.608002 h -0.001 l -1.022,-0.580999 h -0.001 l -1.001,-0.554 -10e-4,-0.0011 -0.981,-0.527 -10e-4,-0.0011 -0.963,-0.500999 h -10e-4 l -0.946,-0.474001 -10e-4,-0.0011 -0.929,-0.446 -0.002,-0.0011 -0.914,-0.42 -0.002,-0.0011 -0.90201,-0.392999 -0.002,-0.0011 -0.89,-0.367001 h -0.002 l -0.88,-0.341 -0.002,-0.0011 -0.873,-0.313999 -0.002,-0.0011 -0.867,-0.287999 -0.003,-0.0011 -0.863,-0.264002 -0.003,-0.0011 -0.862,-0.238998 -0.003,-0.0011 -0.863,-0.216 h -0.003 l -0.868,-0.194001 h -0.002 l -0.874,-0.173 h -0.003 l -0.884,-0.152001 -0.002,-0.0011 -0.897,-0.132998 -0.002,-0.0011 -0.912,-0.116001 h -0.001 l -0.93099,-0.1 h -10e-4 l -0.952007,-0.086 h -0.0011 l -0.975997,-0.073 h -0.0021 l -1.002001,-0.06 h -0.0011 l -1.033,-0.051 h -0.0011 l -1.065001,-0.04 -1.1,-0.033 h -0.0011 l -1.135999,-0.02601 h -0.0011 l -1.175001,-0.019 h -0.0011 l -1.216002,-0.015 v 0 l -1.258998,-0.009 v -0.0011 l -1.302002,-0.005 v 0 l -1.344998,-0.0021 h -0.0038 -81.675992 c -0.003,0 -0.007,1.83e-4 -0.0102,7.94e-4 l -2.924,0.307001 c -0.0551,0.0056 -0.095,0.05474 -0.089,0.109945 l 0.261,2.486504 c 0.006,0.05515 0.0547,0.095 0.10945,0.089 l 2.82477,-0.297227 0.261,2.485001 -2.82422,0.296775 c -0.0552,0.0056 -0.095,0.05477 -0.089,0.109966 l 0.262,2.486499 c 0.006,0.05515 0.0548,0.09498 0.10945,0.08899 l 9.165769,-0.963227 7.871,-0.543001 5.642,-0.375 4.254,-0.269999 3.33399,-0.197001 2.692,-0.147 2.23,-0.107 1.888,-0.077 1.627,-0.052 1.427,-0.031 1.274,-0.01 1.154,0.007 1.062,0.025 0.992,0.042 0.943,0.062 0.915,0.083 0.902,0.107 0.911,0.134999 0.943005,0.17 1.002001,0.213 1.098999,0.270999 1.249001,0.348002 0.703,0.212 0.775999,0.244998 0.864,0.286002 0.978,0.334999 1.124001,0.4 1.315008,0.481896 c 0.537854,0.199633 1.120051,0.246438 1.682446,0.13513 l 4.609047,-0.898004 3.863999,-0.728998 3.294999,-0.597001 2.848002,-0.493 2.493999,-0.408999 2.207001,-0.339 1.973001,-0.281 1.778,-0.231 1.616998,-0.189 1.481,-0.151 1.367001,-0.118999 1.269,-0.088 1.186,-0.062 1.116,-0.037 1.055999,-0.01299 1.004002,0.008 0.959998,0.03 0.924002,0.05 0.893998,0.069 0.87,0.089 0.848993,0.109 0.836,0.128 0.825,0.149 0.819,0.17 0.818,0.191 0.82101,0.214001 0.82799,0.238 0.84,0.263999 0.857,0.290999 0.878,0.321001 0.905,0.354002 0.938,0.388998 0.97801,0.428001 1.02499,0.472 1.08,0.520999 1.146,0.576001 1.224,0.638001 1.314,0.708998 1.421,0.791001 1.549,0.887 1.7,0.998001 1.883,1.130001 2.104,1.289999 2.373,1.481 2.708,1.716998 3.128,2.012999 3.666,2.388 4.368,2.877002 0.007,0.005 0.41601,0.227002 0.002,0.0011 0.401,0.21 0.002,0.0011 0.386,0.192 0.002,0.0011 0.372,0.173998 0.002,0.0011 0.358,0.157001 0.002,0.0011 0.343,0.139999 0.003,0.0011 0.329,0.121999 0.003,0.0011 0.317,0.105 0.003,0.0011 0.305,0.087 0.004,0.0011 0.295,0.071 0.004,0.0011 0.286,0.054 0.005,0.0011 0.278,0.039 0.005,0.0011 0.274,0.024 h 0.006 l 0.276,0.009 h 0.006 l 0.284,-0.01101 0.007,-0.0011 0.3,-0.034 0.008,-0.0011 0.323,-0.061 0.007,-0.0021 0.351,-0.094 0.007,-0.0011 0.384,-0.129998 0.006,-0.003 0.418,-0.169 0.005,-0.003 0.45,-0.212 0.005,-0.0021 0.473,-0.253 0.004,-0.0021 0.476,-0.289 0.004,-0.0021 0.23,-0.155001 0.003,-0.0021 0.219,-0.158998 0.003,-0.003 0.204,-0.162002 0.004,-0.004 0.184,-0.163002 0.005,-0.005 0.161,-0.164002 0.006,-0.007 0.13267,-0.162303 c 0.002,-0.0033 0.004,-0.0065 0.007,-0.0097 z M 86.901859,9.9255541 Z" />
  </g>
</svg>
